<svg width="41" height="40" viewBox="0 0 41 40" fill="none" xmlns="http://www.w3.org/2000/svg">
<path d="M25.55 16.667C25.55 16.667 31.3867 11.8753 31.3867 7.50032C31.3867 4.27866 28.7734 1.66699 25.55 1.66699C22.3267 1.66699 19.7134 4.27866 19.7134 7.50032C19.7134 11.8753 25.55 16.667 25.55 16.667Z" stroke="#C5C8E1" stroke-width="2.56" stroke-linecap="round" stroke-linejoin="round"/>
<path d="M19.7684 6.70801C11.85 7.11801 5.55005 13.6463 5.55005 21.6663C5.55005 29.9513 12.265 36.6663 20.55 36.6663C28.835 36.6663 35.55 29.9513 35.55 21.6663C35.55 17.2463 33.63 13.2863 30.5884 10.548" stroke="#C5C8E1" stroke-width="2.56" stroke-linecap="round" stroke-linejoin="round"/>
<path d="M13.8833 35.1135V34.9951C13.8833 31.6618 20.55 32.0551 20.55 28.3285C20.55 24.9951 15.55 24.9951 15.55 19.9951C15.55 15.2818 12.2167 14.9951 7.21666 14.9951H7.11499" stroke="#C5C8E1" stroke-width="2.56" stroke-linecap="round" stroke-linejoin="round"/>
<path d="M30.5 32.8657C30.2484 32.7691 29.9984 32.6674 29.76 32.5274C27.3667 31.1274 26.5634 28.0541 27.9617 25.6607C29.3617 23.2674 32.435 22.4641 34.8284 23.8624C35.005 23.9657 35.1534 24.0957 35.3134 24.2157" stroke="#C5C8E1" stroke-width="2.56" stroke-linecap="round" stroke-linejoin="round"/>
</svg>
