<svg width="192" height="89" viewBox="0 0 192 89" fill="none" xmlns="http://www.w3.org/2000/svg">
<rect width="192" height="89" rx="22" fill="white"/>
<path d="M103.009 36.1C103.516 35.9267 103.916 35.6267 104.209 35.2C104.516 34.7733 104.669 34.3 104.669 33.78V26.86H106.869V33.56C106.869 34.08 106.789 34.58 106.629 35.06C106.469 35.5533 106.242 36 105.949 36.4C105.669 36.8 105.322 37.1467 104.909 37.44C104.509 37.7467 104.062 37.9867 103.569 38.16L100.809 39.1L100.129 37.04L103.009 36.1ZM106.869 22.72V25.02H104.569V22.72H106.869ZM110.877 34H108.677V20.3H110.877V34ZM113.864 29.94V26.28H116.064V29.76C116.064 30.2267 116.224 30.62 116.544 30.94C116.864 31.2467 117.257 31.4 117.724 31.4H125.924C126.191 31.4 126.417 31.3133 126.604 31.14C126.791 30.9533 126.884 30.7267 126.884 30.46V26.86H129.084V30.44C129.084 30.7067 129.177 30.9333 129.364 31.12C129.551 31.3067 129.777 31.4 130.044 31.4H130.644C130.831 31.4 130.924 31.4933 130.924 31.68V33.72C130.924 33.9067 130.831 34 130.644 34H130.424C129.944 34 129.497 33.9 129.084 33.7C128.671 33.4867 128.311 33.1933 128.004 32.82C127.671 33.2333 127.291 33.5333 126.864 33.72C126.451 33.9067 126.004 34 125.524 34H117.924C117.364 34 116.837 33.8933 116.344 33.68C115.851 33.4667 115.417 33.18 115.044 32.82C114.684 32.4467 114.397 32.0133 114.184 31.52C113.971 31.0267 113.864 30.5 113.864 29.94ZM122.004 26.28V23.98H124.304V26.28H122.004ZM120.964 26.28H118.664V23.98H120.964V26.28ZM129.772 31.68C129.772 31.6133 129.799 31.5533 129.852 31.5C129.892 31.4333 129.959 31.4 130.052 31.4H135.552C135.819 31.4 136.046 31.3067 136.232 31.12C136.419 30.9333 136.512 30.7067 136.512 30.44V30.02C136.112 30.1667 135.712 30.24 135.312 30.24H134.132C133.639 30.24 133.179 30.1333 132.752 29.92C132.326 29.7067 131.966 29.4267 131.672 29.08C131.392 28.72 131.192 28.3133 131.072 27.86C130.952 27.4067 130.939 26.9333 131.032 26.44L131.332 24.84C131.399 24.4667 131.526 24.1267 131.712 23.82C131.912 23.5133 132.146 23.2467 132.412 23.02C132.679 22.7933 132.979 22.62 133.312 22.5C133.659 22.3667 134.019 22.3 134.392 22.3H135.472C135.926 22.3 136.346 22.3867 136.732 22.56C137.132 22.7333 137.479 22.9667 137.772 23.26C138.066 23.5533 138.292 23.9 138.452 24.3C138.626 24.6867 138.712 25.1 138.712 25.54V30.42C138.712 30.9133 138.619 31.38 138.432 31.82C138.246 32.2467 137.986 32.6267 137.652 32.96C137.332 33.28 136.952 33.5333 136.512 33.72C136.086 33.9067 135.626 34 135.132 34H130.052C129.972 34 129.906 33.9733 129.852 33.92C129.799 33.8533 129.772 33.78 129.772 33.7V31.68ZM133.812 27.64H136.512V25.56C136.512 25.3467 136.439 25.1667 136.292 25.02C136.146 24.8733 135.966 24.8 135.752 24.8H134.212C134.026 24.8 133.859 24.86 133.712 24.98C133.566 25.1 133.479 25.2533 133.452 25.44L133.192 26.86C133.152 27.06 133.192 27.24 133.312 27.4C133.446 27.56 133.612 27.64 133.812 27.64ZM136.232 18.2V20.5H133.932V18.2H136.232ZM140.32 30.5V20.3H142.52V30.44C142.52 30.7067 142.614 30.9333 142.8 31.12C142.987 31.3067 143.214 31.4 143.48 31.4H144.42C144.5 31.4 144.567 31.4333 144.62 31.5C144.674 31.5533 144.7 31.62 144.7 31.7V33.72C144.7 33.9067 144.607 34 144.42 34H143.84C143.36 34 142.907 33.9133 142.48 33.74C142.054 33.5533 141.68 33.3 141.36 32.98C141.04 32.66 140.787 32.2867 140.6 31.86C140.414 31.4333 140.32 30.98 140.32 30.5ZM143.533 33.72V31.7C143.533 31.62 143.56 31.5533 143.613 31.5C143.667 31.4333 143.733 31.4 143.813 31.4H148.413C148.68 31.4 148.907 31.3067 149.093 31.12C149.28 30.92 149.373 30.6867 149.373 30.42V26.28H151.573V30.42C151.573 30.9133 151.48 31.38 151.293 31.82C151.107 32.2467 150.847 32.6267 150.513 32.96C150.193 33.28 149.813 33.5333 149.373 33.72C148.947 33.9067 148.487 34 147.993 34H143.813C143.733 34 143.667 33.9733 143.613 33.92C143.56 33.8533 143.533 33.7867 143.533 33.72ZM149.733 38.7H147.433V36.4H149.733V38.7ZM146.393 38.7H144.113V36.4H146.393V38.7ZM150.187 37.04L153.067 36.1C153.573 35.9267 153.973 35.6267 154.267 35.2C154.573 34.7733 154.727 34.3 154.727 33.78V26.86H156.927V33.56C156.927 34.08 156.847 34.58 156.687 35.06C156.527 35.5533 156.3 36 156.007 36.4C155.727 36.8 155.38 37.1467 154.967 37.44C154.567 37.7467 154.12 37.9867 153.627 38.16L150.867 39.1L150.187 37.04ZM158.735 31.34V28.74H160.615V30.94C160.615 31.0733 160.662 31.1867 160.755 31.28C160.848 31.36 160.955 31.4 161.075 31.4H164.375C164.615 31.4 164.828 31.34 165.015 31.22C165.215 31.1 165.368 30.9467 165.475 30.76C165.595 30.5733 165.655 30.3733 165.655 30.16C165.668 29.9333 165.615 29.7133 165.495 29.5L163.015 25.08L164.875 23.86L167.535 28.58C167.882 29.18 168.035 29.8 167.995 30.44C167.968 31.08 167.802 31.6667 167.495 32.2C167.188 32.72 166.762 33.1533 166.215 33.5C165.668 33.8333 165.048 34 164.355 34H161.375C161.015 34 160.675 33.9333 160.355 33.8C160.035 33.6533 159.755 33.46 159.515 33.22C159.275 32.98 159.082 32.7 158.935 32.38C158.802 32.0467 158.735 31.7 158.735 31.34Z" fill="#161721"/>
<path d="M73.6269 65L77.6082 47.3054H84.4258L88.4071 65H84.8162L84.1136 61.7994H77.9205L77.2179 65H73.6269ZM83.437 58.6768L81.6415 50.2718H80.3925L78.597 58.6768H83.437ZM89.1981 70.4645V51.9892H92.659V52.6918C93.3356 52.2928 93.8994 52.0239 94.3504 51.8852C94.8188 51.7464 95.3132 51.677 95.8336 51.677C97.5164 51.677 98.7567 52.2321 99.5547 53.3424C100.353 54.4353 100.752 56.1961 100.752 58.6247C100.752 59.8738 100.639 60.9233 100.413 61.7733C100.205 62.6234 99.867 63.3086 99.3986 63.829C98.9475 64.3495 98.3577 64.7311 97.6291 64.974C96.9179 65.1995 96.0592 65.3123 95.053 65.3123C94.6193 65.3123 94.2116 65.2949 93.83 65.2602C93.4657 65.2255 93.084 65.1735 92.685 65.1041V70.4645H89.1981ZM94.5326 62.3458C95.5214 62.3458 96.2153 62.0596 96.6143 61.4871C97.0133 60.9146 97.2128 59.9605 97.2128 58.6247C97.2128 57.289 97.0393 56.3175 96.6923 55.7103C96.3454 55.1032 95.7903 54.7996 95.027 54.7996C94.6453 54.7996 94.229 54.8603 93.7779 54.9817C93.3442 55.0858 92.9799 55.1986 92.685 55.32V62.1897C93.4657 62.2938 94.0815 62.3458 94.5326 62.3458ZM101.784 70.4645V51.9892H105.245V52.6918C105.921 52.2928 106.485 52.0239 106.936 51.8852C107.405 51.7464 107.899 51.677 108.42 51.677C110.102 51.677 111.343 52.2321 112.141 53.3424C112.939 54.4353 113.338 56.1961 113.338 58.6247C113.338 59.8738 113.225 60.9233 112.999 61.7733C112.791 62.6234 112.453 63.3086 111.984 63.829C111.533 64.3495 110.944 64.7311 110.215 64.974C109.504 65.1995 108.645 65.3123 107.639 65.3123C107.205 65.3123 106.797 65.2949 106.416 65.2602C106.052 65.2255 105.67 65.1735 105.271 65.1041V70.4645H101.784ZM107.118 62.3458C108.107 62.3458 108.801 62.0596 109.2 61.4871C109.599 60.9146 109.799 59.9605 109.799 58.6247C109.799 57.289 109.625 56.3175 109.278 55.7103C108.931 55.1032 108.376 54.7996 107.613 54.7996C107.231 54.7996 106.815 54.8603 106.364 54.9817C105.93 55.0858 105.566 55.1986 105.271 55.32V62.1897C106.052 62.2938 106.667 62.3458 107.118 62.3458ZM120.615 46.9931C120.91 46.9931 121.222 47.0105 121.552 47.0452C121.899 47.0625 122.289 47.0972 122.723 47.1492C123.156 47.2013 123.66 47.2707 124.232 47.3574C124.805 47.4442 125.472 47.5569 126.236 47.6957L125.949 50.532C125.117 50.4453 124.249 50.3586 123.347 50.2718C122.445 50.1677 121.578 50.1157 120.745 50.1157C119.808 50.1157 119.106 50.2632 118.637 50.5581C118.186 50.8356 117.961 51.2259 117.961 51.729C117.961 52.1801 118.126 52.5704 118.455 52.9C118.802 53.2123 119.201 53.4811 119.652 53.7067C120.103 53.9322 120.563 54.1143 121.031 54.2531C121.517 54.3919 121.899 54.5133 122.176 54.6174C122.714 54.8082 123.243 55.0424 123.764 55.32C124.301 55.5802 124.778 55.9185 125.195 56.3348C125.611 56.7338 125.949 57.2282 126.21 57.8181C126.47 58.4079 126.6 59.1105 126.6 59.9258C126.6 60.7758 126.453 61.5391 126.158 62.2157C125.88 62.8749 125.464 63.4387 124.909 63.9071C124.371 64.3581 123.72 64.7051 122.957 64.948C122.194 65.1908 121.326 65.3123 120.355 65.3123C119.453 65.3123 118.507 65.2255 117.518 65.052C116.53 64.8786 115.55 64.6964 114.578 64.5056L114.942 61.7213C117.284 62.0335 119.071 62.1897 120.303 62.1897C122.107 62.1897 123.009 61.4264 123.009 59.8998C123.009 59.3967 122.757 58.9717 122.254 58.6247C121.751 58.2604 120.875 57.8961 119.626 57.5318C118.672 57.2543 117.857 56.9594 117.18 56.6471C116.521 56.3348 115.983 55.9705 115.567 55.5542C115.151 55.1378 114.847 54.6608 114.656 54.123C114.465 53.5852 114.37 52.9694 114.37 52.2755C114.37 50.5234 114.908 49.2049 115.983 48.3202C117.059 47.4355 118.603 46.9931 120.615 46.9931ZM127.376 54.9557V51.9892H128.911V48.3723H132.398V51.9892H135.598V54.9557H132.398V60.2901C132.398 60.9667 132.458 61.4611 132.58 61.7733C132.701 62.0682 133.005 62.207 133.491 62.1897L135.468 62.1376L135.624 64.9219C135.277 65.0087 134.974 65.0694 134.714 65.1041C134.453 65.1561 134.219 65.1995 134.011 65.2342C133.803 65.2689 133.603 65.2862 133.413 65.2862C133.222 65.3036 133.031 65.3123 132.84 65.3123C132.094 65.3123 131.47 65.2255 130.967 65.052C130.463 64.8959 130.056 64.627 129.744 64.2454C129.449 63.8464 129.232 63.3346 129.093 62.7101C128.972 62.0856 128.911 61.3049 128.911 60.3682V54.9557H127.376ZM136.41 58.4686C136.41 56.2828 136.913 54.6087 137.919 53.4465C138.925 52.2668 140.417 51.677 142.395 51.677C144.372 51.677 145.864 52.2668 146.871 53.4465C147.877 54.6087 148.38 56.2828 148.38 58.4686C148.38 60.6718 147.877 62.3632 146.871 63.5428C145.864 64.7224 144.372 65.3123 142.395 65.3123C140.417 65.3123 138.925 64.7224 137.919 63.5428C136.913 62.3632 136.41 60.6718 136.41 58.4686ZM139.949 58.4686C139.949 59.8391 140.148 60.8279 140.547 61.4351C140.946 62.0422 141.562 62.3458 142.395 62.3458C143.228 62.3458 143.843 62.0422 144.242 61.4351C144.641 60.8279 144.841 59.8391 144.841 58.4686C144.841 57.0981 144.641 56.118 144.242 55.5282C143.843 54.9384 143.228 54.6434 142.395 54.6434C141.562 54.6434 140.946 54.9384 140.547 55.5282C140.148 56.118 139.949 57.0981 139.949 58.4686ZM149.408 51.9892H152.869V53.3684C154.361 52.501 155.749 51.9372 157.033 51.677V55.1899C156.408 55.2766 155.723 55.4241 154.977 55.6323C154.248 55.8231 153.555 56.0399 152.895 56.2828V65H149.408V51.9892ZM157.801 58.8069C157.801 56.3956 158.27 54.6087 159.207 53.4465C160.161 52.2668 161.635 51.677 163.63 51.677C165.469 51.677 166.857 52.1627 167.794 53.1342C168.748 54.1057 169.225 55.5802 169.225 57.5578L168.965 59.7176H161.314C161.366 60.6197 161.592 61.2703 161.991 61.6692C162.39 62.0509 163.127 62.2417 164.203 62.2417C164.81 62.2417 165.434 62.233 166.076 62.2157C166.735 62.1984 167.377 62.155 168.002 62.0856L168.756 62.0075L168.809 64.5837C167.802 64.8265 166.866 65.0087 165.998 65.1301C165.148 65.2515 164.359 65.3123 163.63 65.3123C161.566 65.3123 160.074 64.8005 159.155 63.777C158.252 62.7535 157.801 61.0968 157.801 58.8069ZM161.288 57.3237H165.738C165.738 56.2828 165.582 55.5629 165.27 55.1639C164.957 54.7475 164.402 54.5394 163.604 54.5394C162.772 54.5394 162.182 54.7562 161.835 55.1899C161.488 55.6062 161.306 56.3175 161.288 57.3237Z" fill="#237BFF"/>
<path d="M35.252 39.8081C34.0493 39.8081 32.1757 38.4074 30.2287 38.4074C27.64 38.4074 25.2713 39.9896 23.9367 42.3106C21.2527 46.9709 23.2455 53.8569 25.8635 57.6445C27.1487 59.4889 28.663 61.5642 30.6723 61.4982C32.5992 61.4157 33.3233 60.246 35.6627 60.246C37.9855 60.246 38.6437 61.4982 40.686 61.4487C42.7613 61.4157 44.0795 59.5714 45.3463 57.7106C46.813 55.5692 47.4217 53.4939 47.4547 53.3784C47.4052 53.3619 43.4195 51.8311 43.37 47.2184C43.337 43.3647 46.516 41.5204 46.6645 41.4379C44.8532 38.7869 42.0702 38.4899 41.0985 38.4239C38.5612 38.2259 36.4382 39.8081 35.252 39.8081V39.8081Z" stroke="#237BFF" stroke-width="1.5" stroke-linecap="round" stroke-linejoin="round"/>
<path d="M39.0263 28.4164C40.6194 27.8233 41.6615 28.6978 41.3539 30.3697C41.0463 32.0416 39.5055 33.8777 37.9124 34.4708C36.3192 35.0639 35.2771 34.1894 35.5847 32.5176C35.8923 30.8457 37.4332 29.0095 39.0263 28.4164" stroke="#237BFF" stroke-width="1.5" stroke-linecap="round" stroke-linejoin="round"/>
</svg>
