<svg width="40" height="40" viewBox="0 0 40 40" fill="none" xmlns="http://www.w3.org/2000/svg">
<path d="M26.6667 20C26.6667 23.6817 23.6817 26.6667 20 26.6667C16.3183 26.6667 13.3333 23.6817 13.3333 20C13.3333 16.3183 16.3183 13.3333 20 13.3333C23.6817 13.3333 26.6667 16.3183 26.6667 20ZM26.6667 20V22.5C26.6667 24.8017 28.5317 26.6667 30.8333 26.6667C33.135 26.6667 35 24.8017 35 22.5V20C35 11.715 28.285 5 20 5C11.715 5 5 11.715 5 20C5 28.285 11.715 35 20 35C21.915 35 23.8617 34.6367 25.74 33.8583C26.7533 33.4383 27.69 32.9117 28.555 32.31" stroke="#C5C8E1" stroke-width="2.56" stroke-linecap="round" stroke-linejoin="round"/>
</svg>
