<svg width="229" height="89" viewBox="0 0 229 89" fill="none" xmlns="http://www.w3.org/2000/svg">
<rect width="229" height="89" rx="22" fill="white"/>
<path d="M140.009 36.1C140.516 35.9267 140.916 35.6267 141.209 35.2C141.516 34.7733 141.669 34.3 141.669 33.78V26.86H143.869V33.56C143.869 34.08 143.789 34.58 143.629 35.06C143.469 35.5533 143.242 36 142.949 36.4C142.669 36.8 142.322 37.1467 141.909 37.44C141.509 37.7467 141.062 37.9867 140.569 38.16L137.809 39.1L137.129 37.04L140.009 36.1ZM143.869 22.72V25.02H141.569V22.72H143.869ZM147.877 34H145.677V20.3H147.877V34ZM150.864 29.94V26.28H153.064V29.76C153.064 30.2267 153.224 30.62 153.544 30.94C153.864 31.2467 154.257 31.4 154.724 31.4H162.924C163.191 31.4 163.417 31.3133 163.604 31.14C163.791 30.9533 163.884 30.7267 163.884 30.46V26.86H166.084V30.44C166.084 30.7067 166.177 30.9333 166.364 31.12C166.551 31.3067 166.777 31.4 167.044 31.4H167.644C167.831 31.4 167.924 31.4933 167.924 31.68V33.72C167.924 33.9067 167.831 34 167.644 34H167.424C166.944 34 166.497 33.9 166.084 33.7C165.671 33.4867 165.311 33.1933 165.004 32.82C164.671 33.2333 164.291 33.5333 163.864 33.72C163.451 33.9067 163.004 34 162.524 34H154.924C154.364 34 153.837 33.8933 153.344 33.68C152.851 33.4667 152.417 33.18 152.044 32.82C151.684 32.4467 151.397 32.0133 151.184 31.52C150.971 31.0267 150.864 30.5 150.864 29.94ZM159.004 26.28V23.98H161.304V26.28H159.004ZM157.964 26.28H155.664V23.98H157.964V26.28ZM166.772 31.68C166.772 31.6133 166.799 31.5533 166.852 31.5C166.892 31.4333 166.959 31.4 167.052 31.4H172.552C172.819 31.4 173.046 31.3067 173.232 31.12C173.419 30.9333 173.512 30.7067 173.512 30.44V30.02C173.112 30.1667 172.712 30.24 172.312 30.24H171.132C170.639 30.24 170.179 30.1333 169.752 29.92C169.326 29.7067 168.966 29.4267 168.672 29.08C168.392 28.72 168.192 28.3133 168.072 27.86C167.952 27.4067 167.939 26.9333 168.032 26.44L168.332 24.84C168.399 24.4667 168.526 24.1267 168.712 23.82C168.912 23.5133 169.146 23.2467 169.412 23.02C169.679 22.7933 169.979 22.62 170.312 22.5C170.659 22.3667 171.019 22.3 171.392 22.3H172.472C172.926 22.3 173.346 22.3867 173.732 22.56C174.132 22.7333 174.479 22.9667 174.772 23.26C175.066 23.5533 175.292 23.9 175.452 24.3C175.626 24.6867 175.712 25.1 175.712 25.54V30.42C175.712 30.9133 175.619 31.38 175.432 31.82C175.246 32.2467 174.986 32.6267 174.652 32.96C174.332 33.28 173.952 33.5333 173.512 33.72C173.086 33.9067 172.626 34 172.132 34H167.052C166.972 34 166.906 33.9733 166.852 33.92C166.799 33.8533 166.772 33.78 166.772 33.7V31.68ZM170.812 27.64H173.512V25.56C173.512 25.3467 173.439 25.1667 173.292 25.02C173.146 24.8733 172.966 24.8 172.752 24.8H171.212C171.026 24.8 170.859 24.86 170.712 24.98C170.566 25.1 170.479 25.2533 170.452 25.44L170.192 26.86C170.152 27.06 170.192 27.24 170.312 27.4C170.446 27.56 170.612 27.64 170.812 27.64ZM173.232 18.2V20.5H170.932V18.2H173.232ZM177.32 30.5V20.3H179.52V30.44C179.52 30.7067 179.614 30.9333 179.8 31.12C179.987 31.3067 180.214 31.4 180.48 31.4H181.42C181.5 31.4 181.567 31.4333 181.62 31.5C181.674 31.5533 181.7 31.62 181.7 31.7V33.72C181.7 33.9067 181.607 34 181.42 34H180.84C180.36 34 179.907 33.9133 179.48 33.74C179.054 33.5533 178.68 33.3 178.36 32.98C178.04 32.66 177.787 32.2867 177.6 31.86C177.414 31.4333 177.32 30.98 177.32 30.5ZM180.533 33.72V31.7C180.533 31.62 180.56 31.5533 180.613 31.5C180.667 31.4333 180.733 31.4 180.813 31.4H185.413C185.68 31.4 185.907 31.3067 186.093 31.12C186.28 30.92 186.373 30.6867 186.373 30.42V26.28H188.573V30.42C188.573 30.9133 188.48 31.38 188.293 31.82C188.107 32.2467 187.847 32.6267 187.513 32.96C187.193 33.28 186.813 33.5333 186.373 33.72C185.947 33.9067 185.487 34 184.993 34H180.813C180.733 34 180.667 33.9733 180.613 33.92C180.56 33.8533 180.533 33.7867 180.533 33.72ZM186.733 38.7H184.433V36.4H186.733V38.7ZM183.393 38.7H181.113V36.4H183.393V38.7ZM187.187 37.04L190.067 36.1C190.573 35.9267 190.973 35.6267 191.267 35.2C191.573 34.7733 191.727 34.3 191.727 33.78V26.86H193.927V33.56C193.927 34.08 193.847 34.58 193.687 35.06C193.527 35.5533 193.3 36 193.007 36.4C192.727 36.8 192.38 37.1467 191.967 37.44C191.567 37.7467 191.12 37.9867 190.627 38.16L187.867 39.1L187.187 37.04ZM195.735 31.34V28.74H197.615V30.94C197.615 31.0733 197.662 31.1867 197.755 31.28C197.848 31.36 197.955 31.4 198.075 31.4H201.375C201.615 31.4 201.828 31.34 202.015 31.22C202.215 31.1 202.368 30.9467 202.475 30.76C202.595 30.5733 202.655 30.3733 202.655 30.16C202.668 29.9333 202.615 29.7133 202.495 29.5L200.015 25.08L201.875 23.86L204.535 28.58C204.882 29.18 205.035 29.8 204.995 30.44C204.968 31.08 204.802 31.6667 204.495 32.2C204.188 32.72 203.762 33.1533 203.215 33.5C202.668 33.8333 202.048 34 201.355 34H198.375C198.015 34 197.675 33.9333 197.355 33.8C197.035 33.6533 196.755 33.46 196.515 33.22C196.275 32.98 196.082 32.7 195.935 32.38C195.802 32.0467 195.735 31.7 195.735 31.34Z" fill="#161721"/>
<path d="M88.0014 56.0746C88.0014 54.4613 88.1315 53.0822 88.3918 51.9372C88.652 50.7749 89.0683 49.8295 89.6408 49.1009C90.2133 48.3723 90.9592 47.8432 91.8786 47.5135C92.8154 47.1666 93.9517 46.9931 95.2875 46.9931C95.9987 46.9931 96.7707 47.0365 97.6034 47.1232C98.4534 47.21 99.3555 47.3487 100.31 47.5396L101.272 47.7217L101.168 50.506C100.127 50.3846 99.182 50.2979 98.332 50.2458C97.4993 50.1938 96.7447 50.1677 96.0681 50.1677C95.0966 50.1677 94.3247 50.3586 93.7522 50.7402C93.1797 51.1045 92.7373 51.5903 92.4251 52.1974C92.1302 52.7872 91.9307 53.4638 91.8266 54.2271C91.7399 54.973 91.6965 55.719 91.6965 56.4649C91.6965 57.0548 91.7312 57.688 91.8006 58.3645C91.87 59.0237 92.0348 59.6396 92.295 60.212C92.5552 60.7845 92.9455 61.2616 93.4659 61.6432C93.9864 62.0075 94.689 62.1897 95.5737 62.1897C96.6319 62.1897 97.3345 62.155 97.6814 62.0856V58.6508H95.5997V55.5282H101.272V64.7138C99.9713 64.9046 98.8351 65.052 97.8636 65.1561C96.8921 65.2602 96.0941 65.3123 95.4696 65.3123C94.0818 65.3123 92.9108 65.0781 91.9567 64.6097C91.0026 64.1239 90.2306 63.4647 89.6408 62.632C89.0683 61.7994 88.652 60.8192 88.3918 59.6916C88.1315 58.564 88.0014 57.3584 88.0014 56.0746ZM102.843 58.4686C102.843 56.2828 103.346 54.6087 104.352 53.4465C105.358 52.2668 106.85 51.677 108.828 51.677C110.805 51.677 112.297 52.2668 113.303 53.4465C114.31 54.6087 114.813 56.2828 114.813 58.4686C114.813 60.6718 114.31 62.3632 113.303 63.5428C112.297 64.7224 110.805 65.3123 108.828 65.3123C106.85 65.3123 105.358 64.7224 104.352 63.5428C103.346 62.3632 102.843 60.6718 102.843 58.4686ZM106.382 58.4686C106.382 59.8391 106.581 60.8279 106.98 61.4351C107.379 62.0422 107.995 62.3458 108.828 62.3458C109.66 62.3458 110.276 62.0422 110.675 61.4351C111.074 60.8279 111.274 59.8391 111.274 58.4686C111.274 57.0981 111.074 56.118 110.675 55.5282C110.276 54.9384 109.66 54.6434 108.828 54.6434C107.995 54.6434 107.379 54.9384 106.98 55.5282C106.581 56.118 106.382 57.0981 106.382 58.4686ZM115.581 58.4686C115.581 56.2828 116.084 54.6087 117.09 53.4465C118.097 52.2668 119.588 51.677 121.566 51.677C123.544 51.677 125.036 52.2668 126.042 53.4465C127.048 54.6087 127.551 56.2828 127.551 58.4686C127.551 60.6718 127.048 62.3632 126.042 63.5428C125.036 64.7224 123.544 65.3123 121.566 65.3123C119.588 65.3123 118.097 64.7224 117.09 63.5428C116.084 62.3632 115.581 60.6718 115.581 58.4686ZM119.12 58.4686C119.12 59.8391 119.32 60.8279 119.719 61.4351C120.118 62.0422 120.733 62.3458 121.566 62.3458C122.399 62.3458 123.015 62.0422 123.414 61.4351C123.813 60.8279 124.012 59.8391 124.012 58.4686C124.012 57.0981 123.813 56.118 123.414 55.5282C123.015 54.9384 122.399 54.6434 121.566 54.6434C120.733 54.6434 120.118 54.9384 119.719 55.5282C119.32 56.118 119.12 57.0981 119.12 58.4686ZM128.58 67.5241C128.58 66.8649 128.727 66.2837 129.022 65.7806C129.334 65.2949 129.811 64.7918 130.453 64.2714C130.141 64.0632 129.898 63.803 129.725 63.4908C129.569 63.1611 129.49 62.8489 129.49 62.554C129.49 62.3458 129.525 62.1376 129.595 61.9295C129.681 61.7039 129.777 61.4871 129.881 61.2789C129.985 61.0708 130.089 60.8799 130.193 60.7065C130.314 60.5156 130.419 60.3508 130.505 60.212C129.326 59.3447 128.736 58.0696 128.736 56.3869C128.736 54.8082 129.204 53.6373 130.141 52.874C131.095 52.1107 132.396 51.729 134.044 51.729C134.877 51.729 135.796 51.8418 136.803 52.0673L141.018 51.9372V54.7475L139.066 54.5914C139.292 54.9557 139.439 55.268 139.509 55.5282C139.595 55.771 139.639 56.1093 139.639 56.543C139.639 58.1216 139.197 59.2492 138.312 59.9258C137.427 60.585 136.074 60.9146 134.252 60.9146C133.732 60.9146 133.342 60.8799 133.081 60.8105C132.995 61.0187 132.925 61.2095 132.873 61.383C132.839 61.5565 132.821 61.6866 132.821 61.7733C132.821 61.9642 132.891 62.1203 133.029 62.2417C133.168 62.3632 133.342 62.4586 133.55 62.528C133.775 62.58 134.036 62.6234 134.33 62.6581C134.625 62.6754 134.929 62.6841 135.241 62.6841C135.952 62.6841 136.568 62.7014 137.089 62.7361C137.627 62.7535 138.086 62.8055 138.468 62.8923C139.301 63.0831 139.934 63.4561 140.367 64.0112C140.801 64.549 141.018 65.3383 141.018 66.3791C141.018 67.9751 140.48 69.1374 139.405 69.866C138.346 70.612 136.707 70.9849 134.487 70.9849C132.596 70.9849 131.139 70.7161 130.115 70.1783C129.091 69.6405 128.58 68.7558 128.58 67.5241ZM132.015 67.0297C132.015 67.5154 132.205 67.8363 132.587 67.9925C132.969 68.1486 133.663 68.2353 134.669 68.2527C135.658 68.27 136.369 68.1486 136.803 67.8884C137.254 67.6282 137.479 67.2812 137.479 66.8475C137.479 66.5353 137.384 66.2837 137.193 66.0929C137.002 65.9194 136.777 65.7806 136.516 65.6766C136.256 65.5725 135.987 65.5031 135.71 65.4684C135.432 65.4337 135.207 65.4163 135.033 65.4163H132.717C132.249 65.8847 132.015 66.4225 132.015 67.0297ZM134.2 58.2604C135.501 58.2604 136.152 57.6272 136.152 56.3609C136.152 55.0945 135.501 54.4613 134.2 54.4613C132.882 54.4613 132.223 55.0945 132.223 56.3609C132.223 57.6272 132.882 58.2604 134.2 58.2604ZM142.83 46.7849H146.316V65H142.83V46.7849ZM148.135 58.8069C148.135 56.3956 148.604 54.6087 149.541 53.4465C150.495 52.2668 151.969 51.677 153.964 51.677C155.803 51.677 157.191 52.1627 158.128 53.1342C159.082 54.1057 159.559 55.5802 159.559 57.5578L159.299 59.7176H151.648C151.7 60.6197 151.926 61.2703 152.325 61.6692C152.724 62.0509 153.461 62.2417 154.537 62.2417C155.144 62.2417 155.768 62.233 156.41 62.2157C157.07 62.1984 157.711 62.155 158.336 62.0856L159.091 62.0075L159.143 64.5837C158.136 64.8265 157.2 65.0087 156.332 65.1301C155.482 65.2515 154.693 65.3123 153.964 65.3123C151.9 65.3123 150.408 64.8005 149.489 63.777C148.587 62.7535 148.135 61.0968 148.135 58.8069ZM151.622 57.3237H156.072C156.072 56.2828 155.916 55.5629 155.604 55.1639C155.291 54.7475 154.736 54.5394 153.938 54.5394C153.106 54.5394 152.516 54.7562 152.169 55.1899C151.822 55.6062 151.64 56.3175 151.622 57.3237ZM162.926 47.3054H169.457C173.638 47.3054 175.729 49.3524 175.729 53.4465C175.729 55.5282 175.2 57.1155 174.141 58.2084C173.1 59.3013 171.539 59.8477 169.457 59.8477H166.517V65H162.926V47.3054ZM166.517 50.428V56.7252H169.431C171.236 56.7252 172.138 55.6236 172.138 53.4204C172.138 52.3796 171.921 51.6249 171.487 51.1566C171.071 50.6708 170.386 50.428 169.431 50.428H166.517ZM177.291 46.7849H180.778V65H177.291V46.7849ZM182.336 61.1228C182.336 59.735 182.692 58.7462 183.403 58.1563C184.132 57.5492 185.286 57.1849 186.864 57.0634L189.675 56.8553V56.0486C189.675 55.5282 189.553 55.1639 189.31 54.9557C189.085 54.7475 188.694 54.6434 188.139 54.6434C187.307 54.6434 186.483 54.6608 185.667 54.6955C184.852 54.7302 184.045 54.7822 183.247 54.8516L183.143 52.4316C185.017 51.9285 186.734 51.677 188.295 51.677C190.048 51.677 191.297 52.0239 192.043 52.7178C192.788 53.4118 193.161 54.522 193.161 56.0486V61.4611C193.196 61.8948 193.266 62.1897 193.37 62.3458C193.491 62.5019 193.708 62.6147 194.02 62.6841L193.916 65.3123C193.465 65.3123 193.066 65.2949 192.719 65.2602C192.372 65.2429 192.051 65.1995 191.756 65.1301C191.479 65.0607 191.21 64.9653 190.95 64.8439C190.707 64.7224 190.455 64.575 190.195 64.4015C188.894 65.0087 187.619 65.3123 186.37 65.3123C183.681 65.3123 182.336 63.9158 182.336 61.1228ZM187.281 62.4759C187.523 62.4759 187.818 62.4499 188.165 62.3978C188.512 62.3458 188.885 62.2677 189.284 62.1637L189.675 62.0596V59.2753L187.281 59.4834C186.309 59.5702 185.823 60.108 185.823 61.0968C185.823 61.5478 185.936 61.8948 186.162 62.1376C186.387 62.3632 186.76 62.4759 187.281 62.4759ZM197.716 51.9892L200.084 62.0335H200.682L203.05 51.9892H206.485L201.905 70.4645H198.496L199.928 65H197.482L194.281 51.9892H197.716Z" fill="#237BFF"/>
<path d="M30.1683 31.1363V58.8637C30.1683 60.8822 32.3463 62.1508 34.1008 61.1535L58.4988 47.2898C60.2753 46.2815 60.2753 43.7203 58.4988 42.712L34.1008 28.8465C32.3463 27.8492 30.1683 29.1178 30.1683 31.1363V31.1363Z" stroke="#237BFF" stroke-width="1.5" stroke-linecap="round" stroke-linejoin="round"/>
<path d="M49.95 37.8501L31.2317 60.9501" stroke="#237BFF" stroke-width="1.5" stroke-linecap="round" stroke-linejoin="round"/>
<path d="M31.2317 29.0498L49.95 52.1498" stroke="#237BFF" stroke-width="1.5" stroke-linecap="round" stroke-linejoin="round"/>
</svg>
