<svg width="29" height="30" viewBox="0 0 29 30" fill="none" xmlns="http://www.w3.org/2000/svg">
<g clip-path="url(#clip0_3822_864)">
<path d="M14.41 25.573C20.3789 25.573 25.2175 20.7463 25.2175 14.7922C25.2175 8.83819 20.3789 4.01147 14.41 4.01147C8.44122 4.01147 3.60254 8.83819 3.60254 14.7922C3.60254 20.7463 8.44122 25.573 14.41 25.573Z" stroke="#237BFF" stroke-width="2.17655" stroke-linecap="round" stroke-linejoin="round"/>
<path d="M13.5095 13.8939H14.4101V20.1827H15.3108" stroke="#237BFF" stroke-width="2.17655" stroke-linecap="round" stroke-linejoin="round"/>
<path d="M14.1849 11.1987C14.931 11.1987 15.5359 10.5954 15.5359 9.85114C15.5359 9.10688 14.931 8.50354 14.1849 8.50354C13.4388 8.50354 12.834 9.10688 12.834 9.85114C12.834 10.5954 13.4388 11.1987 14.1849 11.1987Z" fill="#237BFF"/>
</g>
<defs>
<clipPath id="clip0_3822_864">
<rect width="28.82" height="28.7487" fill="white" transform="translate(0 0.417847)"/>
</clipPath>
</defs>
</svg>
