<svg width="438" height="260" viewBox="0 0 438 260" fill="none" xmlns="http://www.w3.org/2000/svg">
<path fill-rule="evenodd" clip-rule="evenodd" d="M266.613 72.9745C253.14 54.7251 227.581 41.0602 204.329 38.4935C159.127 33.5039 102.78 34.2416 64.5532 40.3233C44.8885 43.4518 36.8245 57.5569 46.3767 75.8576C61.5033 104.838 88.6005 138.825 115.422 167.583C131.95 185.305 157.122 199.034 180.476 201.835C181.2 201.921 181.926 202.006 182.653 202.09C193.406 203.32 198.782 203.935 203.183 205.45C207.188 206.829 210.347 208.373 213.981 210.726C217.974 213.312 221.613 216.881 228.89 224.019L256.718 251.316C265.765 260.191 280.707 260.017 278.559 251.063L271.921 223.385C270.199 216.203 269.337 212.613 270.045 209.977C270.688 207.579 271.872 205.985 274.088 204.533C276.524 202.937 281.033 202.199 290.051 200.723C290.75 200.609 291.445 200.492 292.134 200.373C311.607 197.012 319.211 182.854 313.322 164.993C303.767 136.008 287.949 101.874 266.613 72.9745Z" fill="white"/>
<path fill-rule="evenodd" clip-rule="evenodd" d="M300.417 39.1707C286.944 20.9213 261.385 7.25638 238.133 4.68967C192.931 -0.299886 136.584 0.437727 98.3572 6.51942C78.6925 9.64796 70.6285 23.753 80.1807 42.0537C95.3073 71.0342 122.405 105.021 149.226 133.78C165.754 151.501 190.926 165.23 214.28 168.031C215.004 168.118 215.73 168.203 216.457 168.286C227.21 169.516 232.586 170.131 236.987 171.647C240.992 173.026 244.151 174.569 247.785 176.922C251.778 179.508 255.417 183.077 262.694 190.215L290.522 217.513C299.569 226.387 314.511 226.213 312.363 217.259L305.725 189.581C304.002 182.4 303.141 178.809 303.849 176.173C304.492 173.775 305.676 172.181 307.892 170.729C310.328 169.133 314.837 168.395 323.855 166.919C324.554 166.805 325.249 166.688 325.938 166.569C345.411 163.208 353.015 149.05 347.126 131.189C337.571 102.204 321.753 68.0699 300.417 39.1707Z" stroke="#237BFF" stroke-width="2"/>
<path fill-rule="evenodd" clip-rule="evenodd" d="M266.613 72.9746C253.14 54.7252 227.581 41.0603 204.329 38.4936C159.127 33.504 102.78 34.2416 64.5532 40.3233C44.8885 43.4519 36.8245 57.5569 46.3767 75.8576C61.5033 104.838 88.6005 138.825 115.422 167.584C131.95 185.305 157.122 199.034 180.476 201.835C181.2 201.922 181.926 202.007 182.653 202.09C193.406 203.32 198.782 203.935 203.183 205.45C207.188 206.83 210.347 208.373 213.981 210.726C217.974 213.312 221.613 216.881 228.89 224.019L256.718 251.316C265.765 260.191 280.707 260.017 278.559 251.063L271.921 223.385C270.199 216.203 269.337 212.613 270.045 209.977C270.688 207.579 271.872 205.985 274.088 204.533C276.524 202.937 281.033 202.199 290.051 200.723C290.75 200.609 291.445 200.492 292.134 200.373C311.607 197.012 319.211 182.854 313.322 164.993C303.767 136.008 287.949 101.874 266.613 72.9746Z" stroke="#237BFF" stroke-width="2"/>
<path d="M225.434 61.0724C248.38 69.5169 259.853 73.7392 266.306 79.3873C271.693 84.1034 275.085 89.4862 275.678 94.2651C276.389 99.9884 270.38 104.44 258.363 113.342L251.409 118.493C239.313 127.453 233.265 131.934 225.601 131.323C219.202 130.814 212.03 128.19 205.787 124.074C198.309 119.145 192.83 110.448 181.872 93.053L175.548 83.0155C164.59 65.6207 159.111 56.9232 160.306 51.8805C161.304 47.6705 165.08 44.9032 170.737 44.2358C177.513 43.4364 189.061 47.6863 212.157 56.186L225.434 61.0724Z" stroke="#237BFF" stroke-width="2"/>
<path d="M191.067 94.3131C214.013 102.758 225.485 106.98 231.938 112.628C237.326 117.344 240.717 122.727 241.311 127.506C242.022 133.229 236.013 137.68 223.995 146.582L217.041 151.734C204.945 160.694 198.897 165.174 191.233 164.564C184.835 164.054 177.662 161.43 171.419 157.315C163.942 152.386 158.463 143.688 147.504 126.294L141.181 116.256C130.222 98.8613 124.743 90.1639 125.939 85.1212C126.937 80.9111 130.713 78.1439 136.37 77.4765C143.146 76.6771 154.694 80.927 177.79 89.4267L191.067 94.3131Z" stroke="#237BFF" stroke-width="2"/>
<path d="M78.5935 17.5538L47.6065 48.2591" stroke="#237BFF" stroke-width="2"/>
<path d="M76.0583 33.329L42.8176 66.0063" stroke="#237BFF" stroke-width="2"/>
<path d="M81.1288 44.5971L46.7614 77.8377" stroke="#237BFF" stroke-width="2"/>
<path d="M111.552 89.6692L77.1851 122.91" stroke="#237BFF" stroke-width="2"/>
<path d="M283.953 22.6245L249.586 55.8651" stroke="#237BFF" stroke-width="2"/>
<path d="M334.659 97.5566L300.292 130.797" stroke="#237BFF" stroke-width="2"/>
<path d="M336.913 102.627L302.545 135.868" stroke="#237BFF" stroke-width="2"/>
<path d="M347.054 131.361L312.686 164.601" stroke="#237BFF" stroke-width="2"/>
<path d="M341.566 160.277L307.199 193.518" stroke="#237BFF" stroke-width="2"/>
<path d="M345.364 126.854L310.996 160.094" stroke="#237BFF" stroke-width="2"/>
<path d="M305.362 173.052L272.122 205.73" stroke="#237BFF" stroke-width="2"/>
<path d="M277.192 19.2441L242.825 52.4847" stroke="#237BFF" stroke-width="2"/>
<path d="M270.995 14.7368L236.627 47.9774" stroke="#237BFF" stroke-width="2"/>
<path d="M263.107 11.9198L228.74 45.1604" stroke="#237BFF" stroke-width="2"/>
<path d="M179.724 1.77863L145.356 35.0193" stroke="#237BFF" stroke-width="2"/>
<path d="M162.822 47.4141L128.454 80.6547" stroke="#237BFF" stroke-width="2"/>
<path d="M162.258 59.2454L127.891 92.486" stroke="#237BFF" stroke-width="2"/>
<path d="M165.639 66.0063L131.271 99.2469" stroke="#237BFF" stroke-width="2"/>
<path d="M186.485 99.2469L152.117 132.488" stroke="#237BFF" stroke-width="2"/>
<path d="M233.81 64.3161L199.443 97.5567" stroke="#237BFF" stroke-width="2"/>
<path d="M192.682 49.6676L158.315 82.9082" stroke="#237BFF" stroke-width="2"/>
<path d="M238.318 66.0063L203.95 99.2469" stroke="#237BFF" stroke-width="2"/>
<path d="M267.614 80.6547L233.247 113.895" stroke="#237BFF" stroke-width="2"/>
<path d="M200.006 118.966L165.639 152.207" stroke="#237BFF" stroke-width="2"/>
<path d="M206.204 124.037L171.836 157.277" stroke="#237BFF" stroke-width="2"/>
<path d="M220.289 130.234L185.921 163.475" stroke="#237BFF" stroke-width="2"/>
<path d="M238.318 127.417L203.95 160.658" stroke="#237BFF" stroke-width="2"/>
<path d="M272.122 102.627L237.754 135.868" stroke="#237BFF" stroke-width="2"/>
<path d="M171.836 152.207L137.469 185.447" stroke="#237BFF" stroke-width="2"/>
<path d="M178.034 155.587L143.666 188.828" stroke="#237BFF" stroke-width="2"/>
<path d="M218.035 169.109L183.668 202.349" stroke="#237BFF" stroke-width="2"/>
<path d="M225.359 169.109L190.428 202.913" stroke="#237BFF" stroke-width="2"/>
<path d="M231.557 170.235L196.626 204.039" stroke="#237BFF" stroke-width="2"/>
<path d="M243.952 174.179L209.021 207.983" stroke="#237BFF" stroke-width="2"/>
<path d="M237.754 171.926L202.823 205.73" stroke="#237BFF" stroke-width="2"/>
<path d="M266.488 193.898L231.557 227.702" stroke="#237BFF" stroke-width="2"/>
<path d="M285.08 211.927L250.149 245.731" stroke="#237BFF" stroke-width="2"/>
<path d="M304.799 182.63L269.868 216.434" stroke="#237BFF" stroke-width="2"/>
<path d="M290.15 216.434L255.22 250.238" stroke="#237BFF" stroke-width="2"/>
<path d="M305.926 191.645L270.995 225.449" stroke="#237BFF" stroke-width="2"/>
<path d="M295.221 220.941L260.29 254.745" stroke="#237BFF" stroke-width="2"/>
<path d="M302.545 223.758L267.614 257.562" stroke="#237BFF" stroke-width="2"/>
<path d="M311.56 222.632L277.192 256.436" stroke="#237BFF" stroke-width="2"/>
</svg>
