<svg width="139" height="349" viewBox="0 0 139 349" fill="none" xmlns="http://www.w3.org/2000/svg">
<path d="M81.229 262.605L83.3794 326.797H85.9138L88.0642 262.605H81.229Z" fill="black"/>
<path d="M75.4048 284.314L77.1968 279.27H90.2912L93.888 284.314H75.4048Z" fill="#263238"/>
<path d="M60.749 300.749L63.9746 304.371L81.229 323.635H82.5474H82.6626H86.6306H86.7458H88.0642L86.797 322.227L86.6306 322.035L84.6466 319.821L82.6626 317.606L82.3298 317.235L81.229 316.006L66.957 300.045L63.821 296.55H63.4114L60.749 300.749Z" fill="#263238"/>
<path d="M108.531 300.749L105.408 304.243L88.0642 323.635H81.229V323.622L82.4962 322.214L82.6626 322.035L84.6466 319.821L86.6306 317.606L86.9634 317.222L88.0642 315.994L102.426 299.955L105.472 296.55H105.869L108.531 300.749Z" fill="#263238"/>
<path d="M86.6304 312.051L86.6304 45.568H82.6624L82.6624 312.051H86.6304Z" fill="#263238"/>
<path opacity="0.2" d="M86.6306 61.7216H82.6626V312.051H86.6306V61.7216Z" fill="white"/>
<path d="M138.893 348.518H136.166L105.408 304.282L102.426 299.994L91.5584 284.352L88.064 279.322H92.9152C93.5209 279.317 94.1177 279.467 94.6487 279.758C95.1798 280.05 95.6274 280.472 95.9488 280.986L105.92 296.602L108.582 300.8L138.893 348.518Z" fill="#263238"/>
<path d="M30.3999 348.506L73.3439 280.934C73.6698 280.425 74.1183 280.006 74.6483 279.715C75.1784 279.424 75.773 279.272 76.3775 279.27H81.2415L33.6511 348.506H30.3999Z" fill="#263238"/>
<path d="M90.5475 45.568H78.7588V61.7216H90.5475V45.568Z" fill="#263238"/>
<path opacity="0.3" d="M90.5475 45.568H78.7588V61.7216H90.5475V45.568Z" fill="white"/>
<path d="M71.4883 36.16L89.8179 28.7104C92.3664 30.212 94.3772 32.4781 95.5651 35.1872C96.6718 38.0297 96.7081 41.1775 95.6675 44.0448L78.1443 51.7248L71.4883 36.16Z" fill="#263238"/>
<path opacity="0.5" d="M71.4883 36.16L89.8179 28.7104C92.3664 30.212 94.3772 32.4781 95.5651 35.1872C96.6718 38.0297 96.7081 41.1775 95.6675 44.0448L78.1443 51.7248L71.4883 36.16Z" fill="white"/>
<path d="M66.8033 119.462C66.8033 119.462 90.6113 75.6736 75.8529 41.5488C71.4696 31.2618 64.7368 22.1451 56.1944 14.9297C47.652 7.7143 37.5376 2.60106 26.6624 0L26.2656 0.128008L66.5729 119.475L66.8033 119.462Z" fill="#263238"/>
<path d="M26.6624 0L0 8.6016L39.9104 120.87L66.8032 119.462L26.6624 0Z" fill="#263238"/>
<path opacity="0.8" d="M26.6624 0L0 8.6016L39.9104 120.87L66.8032 119.462L26.6624 0Z" fill="white"/>
<path d="M28.0705 4.19836L6.48975 11.3152L42.1121 113.28L64.1921 111.693L28.0705 4.19836Z" fill="#407BFF"/>
<path d="M28.0705 4.19836L6.48975 11.3152L42.1121 113.28L64.1921 111.693L28.0705 4.19836Z" fill="white"/>
<path d="M88.0642 186.88H81.229V312.038H88.0642V186.88Z" fill="#263238"/>
</svg>
