<svg width="29" height="30" viewBox="0 0 29 30" fill="none" xmlns="http://www.w3.org/2000/svg">
<g clip-path="url(#clip0_3822_860)">
<path d="M13.7731 8.98406L16.0021 6.76063C16.462 6.30145 17.008 5.93715 17.6091 5.68855C18.2102 5.43995 18.8545 5.31192 19.5052 5.31177C20.1558 5.31162 20.8002 5.43935 21.4014 5.68767C22.0026 5.93599 22.5488 6.30004 23.0089 6.75901C23.469 7.21798 23.834 7.76288 24.0829 8.36258C24.3318 8.96228 24.4599 9.60502 24.4597 10.2541C24.4596 10.9032 24.3312 11.5459 24.082 12.1455C23.8328 12.745 23.4676 13.2898 23.0073 13.7485L19.8231 16.9248C19.3631 17.3837 18.8171 17.7476 18.2161 17.996C17.6151 18.2443 16.971 18.3721 16.3205 18.3721C15.67 18.3721 15.0259 18.2443 14.4249 17.996C13.8239 17.7476 13.2778 17.3837 12.8179 16.9248" stroke="#237BFF" stroke-width="2.17655" stroke-linecap="round" stroke-linejoin="round"/>
<path d="M15.047 21.6893L12.818 23.9127C12.3581 24.3719 11.8121 24.7362 11.211 24.9848C10.6099 25.2334 9.96563 25.3614 9.31494 25.3616C8.66425 25.3617 8.01991 25.234 7.41872 24.9857C6.81754 24.7374 6.27129 24.3733 5.81118 23.9143C5.35107 23.4554 4.98613 22.9105 4.73719 22.3108C4.48825 21.7111 4.3602 21.0683 4.36035 20.4193C4.3605 19.7702 4.48885 19.1275 4.73807 18.5279C4.98729 17.9283 5.35249 17.3836 5.81281 16.9248L8.997 13.7485C9.45697 13.2897 10.003 12.9257 10.604 12.6774C11.205 12.4291 11.8491 12.3013 12.4996 12.3013C13.1501 12.3013 13.7942 12.4291 14.3952 12.6774C14.9962 12.9257 15.5423 13.2897 16.0022 13.7485" stroke="#237BFF" stroke-width="2.17655" stroke-linecap="round" stroke-linejoin="round"/>
</g>
<defs>
<clipPath id="clip0_3822_860">
<rect width="28.82" height="28.7487" fill="white" transform="translate(0 0.962402)"/>
</clipPath>
</defs>
</svg>
