<svg width="89" height="89" viewBox="0 0 89 89" fill="none" xmlns="http://www.w3.org/2000/svg">
<rect width="89" height="89" rx="25.3119" fill="white"/>
<path fill-rule="evenodd" clip-rule="evenodd" d="M70.5563 24.2112C70.0877 19.0404 66.0694 15.1118 60.9404 14.306C50.9697 12.7398 37.5018 12.7398 27.5311 14.306C22.4021 15.1118 18.3838 19.0404 17.9152 24.2112C17.1731 32.3995 18.5211 42.0366 20.5846 50.2057C21.8561 55.2395 25.7731 59.1848 30.8914 60.0565C31.0501 60.0835 31.2094 60.11 31.3693 60.136C33.7347 60.5208 34.9174 60.7132 35.7343 61.1546C36.4778 61.5563 36.9962 62.0011 37.5063 62.6748C38.0669 63.415 38.3964 64.43 39.0555 66.4598L41.5759 74.2226C42.3953 76.7462 45.9633 76.7524 46.7915 74.2317L49.3514 66.4401C50.0156 64.4184 50.3477 63.4075 50.909 62.6704C51.4197 61.9998 51.9382 61.557 52.6806 61.1576C53.4965 60.7187 54.6756 60.5282 57.0338 60.1471C57.2166 60.1176 57.3987 60.0874 57.5801 60.0565C62.6983 59.1848 66.6153 55.2395 67.8869 50.2057C69.9504 42.0366 71.2984 32.3995 70.5563 24.2112Z" fill="url(#paint0_linear_3501_2614)"/>
<path d="M49.4138 30.117C53.6048 32.5488 55.7002 33.7647 56.3885 35.3588C56.9631 36.6899 56.9631 38.199 56.3885 39.5301C55.7002 41.1242 53.6048 42.3401 49.4138 44.7719L46.9888 46.179C42.7704 48.6267 40.6613 49.8505 38.9304 49.6529C37.4853 49.4879 36.173 48.7321 35.305 47.565C34.2654 46.1671 34.2654 43.7286 34.2654 38.8516L34.2654 36.0373C34.2654 31.1603 34.2654 28.7218 35.305 27.3239C36.173 26.1568 37.4853 25.401 38.9304 25.236C40.6613 25.0384 42.7705 26.2622 46.9888 28.7099L49.4138 30.117Z" fill="url(#paint1_linear_3501_2614)"/>
<defs>
<linearGradient id="paint0_linear_3501_2614" x1="17.7091" y1="11.3412" x2="41.0648" y2="77.2425" gradientUnits="userSpaceOnUse">
<stop stop-color="#5096FF"/>
<stop offset="1" stop-color="#237BFF"/>
</linearGradient>
<linearGradient id="paint1_linear_3501_2614" x1="37.5231" y1="25.2708" x2="60.6703" y2="55.4478" gradientUnits="userSpaceOnUse">
<stop stop-color="#FFD523"/>
<stop offset="1" stop-color="#FFB423"/>
</linearGradient>
</defs>
</svg>
