<svg width="29" height="30" viewBox="0 0 29 30" fill="none" xmlns="http://www.w3.org/2000/svg">
<g clip-path="url(#clip0_3822_830)">
<path d="M6.30444 26.8892H22.5157" stroke="#237BFF" stroke-width="2.17655" stroke-linecap="round" stroke-linejoin="round"/>
<path d="M14.4099 16.1084C16.3995 16.1084 18.0124 14.4995 18.0124 12.5149C18.0124 10.5302 16.3995 8.92126 14.4099 8.92126C12.4203 8.92126 10.8074 10.5302 10.8074 12.5149C10.8074 14.4995 12.4203 16.1084 14.4099 16.1084Z" stroke="#237BFF" stroke-width="2.17655" stroke-linecap="round" stroke-linejoin="round"/>
<path d="M23.4163 12.5149C23.4163 20.6004 14.4101 26.8892 14.4101 26.8892C14.4101 26.8892 5.40381 20.6004 5.40381 12.5149C5.40381 10.1322 6.35268 7.84705 8.04168 6.16223C9.73068 4.47741 12.0215 3.53088 14.4101 3.53088C16.7987 3.53088 19.0894 4.47741 20.7784 6.16223C22.4674 7.84705 23.4163 10.1322 23.4163 12.5149V12.5149Z" stroke="#237BFF" stroke-width="2.17655" stroke-linecap="round" stroke-linejoin="round"/>
</g>
<defs>
<clipPath id="clip0_3822_830">
<rect width="28.82" height="28.7487" fill="white" transform="translate(0 0.835693)"/>
</clipPath>
</defs>
</svg>
