<svg width="655" height="786" viewBox="0 0 655 786" fill="none" xmlns="http://www.w3.org/2000/svg">
<path d="M365.506 203.307H177.982C175.013 203.276 172.069 203.863 169.339 205.031C166.609 206.2 164.152 207.923 162.123 210.091C160.095 212.26 158.54 214.827 157.557 217.629C156.574 220.431 156.185 223.407 156.414 226.368L183.295 626.285C183.802 632.515 186.611 638.332 191.173 642.604C195.736 646.876 201.726 649.297 207.976 649.393H395.499C398.473 649.427 401.421 648.84 404.155 647.67C406.889 646.5 409.349 644.772 411.377 642.597C413.406 640.422 414.958 637.848 415.935 635.039C416.912 632.231 417.292 629.249 417.052 626.285L390.17 226.368C389.652 220.149 386.841 214.345 382.283 210.083C377.725 205.821 371.745 203.406 365.506 203.307V203.307Z" fill="#237BFF"/>
<path opacity="0.3" d="M365.506 203.307H177.982C175.013 203.276 172.069 203.863 169.339 205.031C166.609 206.2 164.152 207.923 162.123 210.091C160.095 212.26 158.54 214.827 157.557 217.629C156.574 220.431 156.185 223.407 156.414 226.368L183.295 626.285C183.802 632.515 186.611 638.332 191.173 642.604C195.736 646.876 201.726 649.297 207.976 649.393H395.499C398.473 649.427 401.421 648.84 404.155 647.67C406.889 646.5 409.349 644.772 411.377 642.597C413.406 640.422 414.958 637.848 415.935 635.039C416.912 632.231 417.292 629.249 417.052 626.285L390.17 226.368C389.652 220.149 386.841 214.345 382.283 210.083C377.725 205.821 371.745 203.406 365.506 203.307V203.307Z" fill="white"/>
<path d="M156.644 288.995L155.076 289.1L157.607 326.822L159.176 326.716L156.644 288.995Z" fill="#237BFF"/>
<path d="M160.568 346.549L159 346.654L160.138 363.562L161.706 363.457L160.568 346.549Z" fill="#237BFF"/>
<path d="M196.909 630.372C197.037 631.896 196.605 633.415 195.693 634.644C194.782 635.873 193.454 636.727 191.958 637.047C190.462 637.367 188.901 637.131 187.567 636.382C186.233 635.634 185.217 634.425 184.71 632.982C183.928 630.853 183.452 628.625 183.295 626.363L156.414 226.368C156.255 224.116 156.435 221.854 156.948 219.656C157.264 218.158 158.116 216.826 159.344 215.912C160.571 214.997 162.09 214.561 163.616 214.687C165.142 214.812 166.569 215.49 167.631 216.593C168.693 217.696 169.316 219.148 169.383 220.677L196.909 630.372Z" fill="#237BFF"/>
<path d="M395.499 641.895H221.275C216.949 641.778 212.817 640.077 209.661 637.116C206.506 634.155 204.547 630.139 204.156 625.829L177.274 225.928C177.102 223.997 177.338 222.051 177.967 220.217C178.596 218.384 179.603 216.703 180.924 215.284C182.245 213.865 183.85 212.74 185.635 211.982C187.419 211.224 189.343 210.85 191.281 210.884H365.506C369.829 211 373.959 212.699 377.114 215.657C380.269 218.615 382.23 222.627 382.625 226.934L409.506 626.851C409.673 628.781 409.434 630.724 408.803 632.556C408.173 634.387 407.165 636.066 405.845 637.484C404.525 638.902 402.922 640.027 401.14 640.787C399.358 641.547 397.436 641.924 395.499 641.895V641.895ZM191.281 212.566C189.574 212.535 187.879 212.863 186.307 213.531C184.736 214.198 183.323 215.19 182.16 216.44C180.997 217.69 180.111 219.172 179.559 220.788C179.007 222.403 178.802 224.117 178.956 225.818L205.838 625.656C206.187 629.544 207.952 633.168 210.798 635.84C213.644 638.512 217.372 640.046 221.275 640.15H395.499C397.207 640.181 398.901 639.852 400.473 639.185C402.045 638.517 403.458 637.526 404.621 636.276C405.784 635.025 406.67 633.544 407.222 631.928C407.774 630.312 407.979 628.598 407.824 626.898L380.943 226.997C380.593 223.109 378.828 219.484 375.982 216.812C373.136 214.14 369.408 212.607 365.506 212.503L191.281 212.566Z" fill="white"/>
<g opacity="0.5">
<path opacity="0.5" d="M352.107 392.378C378.676 364.282 374.754 317.428 343.346 287.727C311.938 258.027 264.939 256.726 238.369 284.822C211.8 312.918 215.723 359.772 247.131 389.472C278.538 419.173 325.538 420.474 352.107 392.378Z" fill="#237BFF"/>
<path opacity="0.5" d="M340.731 381.636C361.985 359.161 358.847 321.68 333.722 297.92C308.597 274.161 271 273.12 249.745 295.595C228.491 318.071 231.629 355.552 256.754 379.311C281.879 403.071 319.477 404.112 340.731 381.636Z" fill="white"/>
<path opacity="0.5" d="M329.346 370.947C345.288 354.095 342.94 325.986 324.101 308.165C305.262 290.343 277.066 289.557 261.124 306.41C245.182 323.262 247.53 351.371 266.369 369.192C285.209 387.014 313.404 387.799 329.346 370.947Z" fill="#237BFF"/>
<path opacity="0.5" d="M317.99 360.131C328.62 348.89 327.051 330.145 314.486 318.262C301.92 306.379 283.116 305.859 272.486 317.1C261.856 328.341 263.425 347.087 275.991 358.969C288.557 370.852 307.36 371.372 317.99 360.131Z" fill="white"/>
<path opacity="0.5" d="M306.609 349.422C311.925 343.803 311.142 334.43 304.861 328.488C298.579 322.545 289.177 322.283 283.861 327.903C278.545 333.522 279.328 342.895 285.61 348.838C291.891 354.78 301.293 355.042 306.609 349.422Z" fill="#237BFF"/>
</g>
<path d="M309.511 439.39C309.228 439.39 308.961 439.39 308.678 439.39C306.52 435.224 303.272 431.722 299.28 429.258C295.287 426.794 290.701 425.46 286.01 425.399C283.604 425.397 281.212 425.768 278.92 426.499C276.659 422.355 273.336 418.888 269.291 416.454C265.246 414.02 260.626 412.707 255.906 412.65C252.939 412.606 249.993 413.149 247.236 414.247C244.479 415.344 241.966 416.975 239.841 419.046C237.716 421.117 236.021 423.587 234.853 426.315C233.684 429.042 233.066 431.974 233.033 434.941C230.687 435.079 228.392 435.686 226.284 436.726C224.176 437.765 222.297 439.217 220.758 440.994C219.22 442.771 218.053 444.838 217.326 447.074C216.6 449.309 216.328 451.667 216.527 454.009C216.935 459.172 219.256 463.997 223.037 467.536C226.818 471.075 231.785 473.074 236.963 473.141H311.822C313.995 473.166 316.149 472.736 318.147 471.88C320.144 471.024 321.94 469.76 323.42 468.169C324.901 466.578 326.032 464.695 326.742 462.641C327.451 460.587 327.724 458.407 327.542 456.242C327.171 451.693 325.118 447.446 321.784 444.33C318.45 441.214 314.074 439.453 309.511 439.39V439.39Z" fill="white"/>
<path d="M357.19 256.488H356.545C354.863 253.242 352.33 250.514 349.218 248.595C346.106 246.676 342.532 245.639 338.876 245.594C336.999 245.59 335.132 245.876 333.343 246.442C331.578 243.216 328.987 240.516 325.835 238.621C322.683 236.726 319.084 235.704 315.406 235.659C310.75 235.591 306.258 237.375 302.916 240.617C299.573 243.859 297.654 248.295 297.58 252.951C295.75 253.059 293.96 253.533 292.317 254.344C290.673 255.155 289.208 256.287 288.008 257.673C286.808 259.059 285.898 260.67 285.331 262.413C284.764 264.156 284.551 265.995 284.705 267.822C285.026 271.843 286.836 275.6 289.782 278.356C292.727 281.113 296.596 282.67 300.629 282.724H358.982C360.678 282.748 362.36 282.416 363.92 281.75C365.48 281.085 366.884 280.099 368.04 278.859C369.197 277.618 370.081 276.149 370.635 274.545C371.189 272.942 371.402 271.241 371.259 269.551C370.948 266.018 369.337 262.726 366.738 260.312C364.139 257.899 360.736 256.536 357.19 256.488V256.488Z" fill="white"/>
<path opacity="0.3" d="M380.424 501.248H272.648C271.869 501.239 271.097 501.392 270.38 501.699C269.664 502.005 269.02 502.458 268.489 503.027C267.958 503.597 267.551 504.271 267.296 505.007C267.04 505.743 266.941 506.524 267.004 507.3L271.374 571.579C271.5 573.213 272.233 574.74 273.429 575.861C274.625 576.981 276.197 577.613 277.835 577.631H292.298L293.508 595.411L310.061 577.631H385.517C386.297 577.643 387.07 577.491 387.787 577.185C388.505 576.88 389.15 576.427 389.682 575.857C390.213 575.287 390.62 574.612 390.874 573.875C391.129 573.138 391.227 572.356 391.161 571.579L386.806 507.3C386.675 505.682 385.951 504.17 384.773 503.053C383.596 501.936 382.047 501.293 380.424 501.248V501.248Z" fill="white"/>
<path d="M379.591 543.503H279.203L278.653 535.376H379.056L379.591 543.503Z" fill="white"/>
<path d="M348.984 560.387H280.35L279.8 552.259H348.434L348.984 560.387Z" fill="white"/>
<path d="M378.459 526.62H278.055L277.505 518.493H377.909L378.459 526.62Z" fill="white"/>
<path d="M464.746 229.512L468.88 232.483C470.316 233.531 471.762 234.521 473.219 235.454C476.127 237.388 479.051 239.321 482.007 241.082C484.962 242.843 487.949 244.509 490.904 245.987C493.675 247.383 496.543 248.576 499.487 249.555C498.834 249.393 498.156 249.361 497.491 249.461C497.093 249.509 496.706 249.621 496.343 249.791C495.887 250.027 496.029 250.042 496.265 249.901C497.174 249.271 497.994 248.52 498.701 247.669C500.77 245.199 502.641 242.571 504.298 239.809C506.137 236.916 507.897 233.851 509.58 230.707C511.262 227.563 512.944 224.34 514.5 221.275L514.61 221.07C515.406 219.503 516.758 218.288 518.401 217.663C520.045 217.038 521.862 217.047 523.499 217.689C525.135 218.331 526.475 219.559 527.255 221.135C528.036 222.71 528.202 224.52 527.72 226.211C525.583 233.701 522.877 241.016 519.625 248.093C517.862 251.901 515.785 255.555 513.415 259.018C511.933 261.164 510.197 263.123 508.243 264.851C506.814 266.095 505.196 267.103 503.449 267.837C502.219 268.341 500.93 268.685 499.613 268.859C498.037 269.038 496.443 268.948 494.897 268.592C490.698 267.617 486.586 266.298 482.604 264.646C478.878 263.13 475.236 261.414 471.694 259.506C468.204 257.651 464.804 255.696 461.492 253.642C459.841 252.605 458.207 251.551 456.587 250.498C454.968 249.445 453.443 248.345 451.667 247.056C449.682 245.226 448.439 242.73 448.175 240.043C447.91 237.357 448.643 234.667 450.233 232.485C451.822 230.303 454.159 228.782 456.797 228.211C459.435 227.639 462.192 228.058 464.542 229.386L464.746 229.512Z" fill="#237BFF"/>
<path opacity="0.2" d="M464.746 229.512L468.88 232.483C470.316 233.531 471.762 234.521 473.219 235.454C476.127 237.388 479.051 239.321 482.007 241.082C484.962 242.843 487.949 244.509 490.904 245.987C493.675 247.383 496.543 248.576 499.487 249.555C498.834 249.393 498.156 249.361 497.491 249.461C497.093 249.509 496.706 249.621 496.343 249.791C495.887 250.027 496.029 250.042 496.265 249.901C497.174 249.271 497.994 248.52 498.701 247.669C500.77 245.199 502.641 242.571 504.298 239.809C506.137 236.916 507.897 233.851 509.58 230.707C511.262 227.563 512.944 224.34 514.5 221.275L514.61 221.07C515.406 219.503 516.758 218.288 518.401 217.663C520.045 217.038 521.862 217.047 523.499 217.689C525.135 218.331 526.475 219.559 527.255 221.135C528.036 222.71 528.202 224.52 527.72 226.211C525.583 233.701 522.877 241.016 519.625 248.093C517.862 251.901 515.785 255.555 513.415 259.018C511.933 261.164 510.197 263.123 508.243 264.851C506.814 266.095 505.196 267.103 503.449 267.837C502.219 268.341 500.93 268.685 499.613 268.859C498.037 269.038 496.443 268.948 494.897 268.592C490.698 267.617 486.586 266.298 482.604 264.646C478.878 263.13 475.236 261.414 471.694 259.506C468.204 257.651 464.804 255.696 461.492 253.642C459.841 252.605 458.207 251.551 456.587 250.498C454.968 249.445 453.443 248.345 451.667 247.056C449.682 245.226 448.439 242.73 448.175 240.043C447.91 237.357 448.643 234.667 450.233 232.485C451.822 230.303 454.159 228.782 456.797 228.211C459.435 227.639 462.192 228.058 464.542 229.386L464.746 229.512Z" fill="black"/>
<path d="M518.461 218.335L522.721 211.135L530.896 219.954C529.715 222.515 527.584 224.517 524.954 225.535C524.363 225.736 523.733 225.798 523.114 225.717C522.495 225.635 521.904 225.411 521.385 225.063L519.813 224.057C518.896 223.46 518.244 222.532 517.992 221.467C517.74 220.401 517.908 219.28 518.461 218.335V218.335Z" fill="#FFB573"/>
<path d="M534.307 206.844L536.115 207.96C536.682 208.311 537.159 208.79 537.508 209.358C537.857 209.926 538.068 210.568 538.124 211.233C538.181 211.897 538.081 212.566 537.833 213.185C537.585 213.804 537.196 214.356 536.697 214.798L530.896 219.954L522.721 211.135L529.843 206.828C530.515 206.417 531.289 206.201 532.077 206.204C532.865 206.207 533.637 206.428 534.307 206.844V206.844Z" fill="#FFB573"/>
<path d="M364.735 641.565L377.186 641.926L381.87 613.096L369.436 612.734L364.735 641.565Z" fill="#FFB573"/>
<path d="M379.151 638.421L365.238 636.66C365.005 636.624 364.767 636.681 364.576 636.819C364.384 636.958 364.255 637.166 364.217 637.399L362.157 648.309C362.081 648.886 362.237 649.47 362.591 649.932C362.944 650.395 363.467 650.698 364.044 650.777C368.901 651.311 371.244 651.311 377.359 652.081C381.116 652.569 390.909 654.927 396.113 654.282C401.316 653.638 400.53 648.529 398.266 648.34C388.127 647.46 384.323 642.634 381.179 639.442C380.633 638.888 379.921 638.529 379.151 638.421V638.421Z" fill="#263238"/>
<path opacity="0.2" d="M369.42 612.75L381.87 613.111L379.449 627.967L366.999 627.605L369.42 612.75Z" fill="black"/>
<path d="M437.472 336.408C437.472 336.408 426.609 439.515 419.378 474.54C411.518 512.896 386.099 625.106 386.099 625.106L363.321 623.424C363.321 623.424 375.802 507.347 386.02 469.777C386.02 430.759 395.452 321.411 395.452 321.411L437.472 336.408Z" fill="#263238"/>
<path opacity="0.3" d="M401.174 371.259C400.97 363.195 396.6 360.601 392.293 360.695C390.721 380.094 389.039 403.878 387.765 425.336C395.405 412.949 401.74 393.66 401.174 371.259Z" fill="black"/>
<path d="M362.645 623.581L387.042 625.389L389.84 616.193L361.749 615.91L362.645 623.581Z" fill="white"/>
<path d="M238.488 544.934L246.332 554.633L269.802 537.703L261.942 528.019L238.488 544.934Z" fill="#FFB573"/>
<path d="M248.03 554.649L241.05 542.497C240.94 542.291 240.753 542.136 240.53 542.065C240.307 541.995 240.065 542.014 239.856 542.12L229.905 547.056C229.4 547.343 229.029 547.818 228.873 548.378C228.717 548.937 228.788 549.536 229.072 550.043C231.571 554.24 232.986 556.111 236.052 561.456C237.938 564.741 242.905 574.189 245.484 578.748C248.062 583.306 252.51 580.587 251.772 578.433C248.628 568.75 247.732 561.345 248.376 556.928C248.52 556.151 248.398 555.348 248.03 554.649V554.649Z" fill="#263238"/>
<path opacity="0.2" d="M261.942 528.019L269.802 537.718L257.698 546.427L249.838 536.744L261.942 528.019Z" fill="black"/>
<path d="M414.756 327.542C414.756 327.542 384.118 415.228 370.19 448.177C354.958 484.255 263.86 548.329 263.86 548.329L249.476 530.581C249.476 530.581 311.382 468.535 334.364 439.107C347.098 399.036 374.278 313.064 374.278 313.064L414.756 327.542Z" fill="#263238"/>
<path d="M248.895 529.858L264.442 549.037L272.035 544.651L253.831 524.341L248.895 529.858Z" fill="white"/>
<path d="M437.346 337.005L374.215 313.064C375.787 307.295 384.04 290.348 391.381 266.753C396.933 249.317 400.972 231.434 403.454 213.305C403.518 212.776 403.69 212.266 403.958 211.806C404.226 211.347 404.585 210.946 405.013 210.63C405.442 210.313 405.93 210.088 406.448 209.967C406.967 209.845 407.504 209.831 408.028 209.925C409.207 210.129 410.606 210.396 412.147 210.695C416.124 211.497 421.092 212.629 425.823 214.075C434.906 216.737 443.829 219.918 452.547 223.601C455.467 224.916 458.307 226.401 461.052 228.05C462.685 228.98 464.2 230.104 465.564 231.398C466.056 231.794 466.465 232.284 466.765 232.84C467.064 233.397 467.249 234.008 467.308 234.637C467.308 243.66 458.269 278.621 437.346 337.005Z" fill="#F0F0F0"/>
<path d="M451.29 223.02C444.184 218.398 444.53 213.116 446.935 208.023C447.539 206.763 448.216 205.54 448.963 204.36L442.125 192.806L437.095 184.333C435.994 193.639 432.63 210.114 424.77 213.761C429.066 219.826 435.201 224.346 442.267 226.651C453.868 230.267 451.29 223.02 451.29 223.02Z" fill="#FFB573"/>
<path d="M441.826 226.462L441.716 223.507L433.856 225.048L441.826 226.462Z" fill="#E0E0E0"/>
<path d="M441.826 226.462L443.288 224.057L448.366 230.235L441.826 226.462Z" fill="#E0E0E0"/>
<path d="M425.839 212.346C430.62 216.745 435.958 220.497 441.716 223.507C438.572 225.441 435.585 230.534 434.454 234.747C431.907 232.97 421.72 216.213 420.306 211.607L425.839 212.346Z" fill="white"/>
<path d="M449.812 221.228C447.951 222.781 445.68 223.764 443.273 224.057C444.955 226.525 446.417 232.923 446.417 236.633C449.356 234.715 453.899 228.019 454.622 224.985L449.812 221.228Z" fill="white"/>
<path opacity="0.3" d="M450.064 221.007C450.064 221.007 456.933 224.309 463.001 228.05C465.487 229.583 467.408 231.882 468.474 234.601C469.54 237.32 469.694 240.312 468.912 243.126C461.413 269.629 451.29 295.363 447.093 309.684C442.644 324.948 436.45 344.095 436.45 344.095L425.745 346.626C425.745 346.626 452.579 243.99 450.064 221.007Z" fill="black"/>
<path opacity="0.3" d="M425.682 211.151C425.682 211.151 416.454 209.941 408.39 209.579C405.562 209.452 402.777 210.303 400.503 211.99C398.229 213.676 396.607 216.095 395.908 218.838C391.821 234.998 388.803 265.904 384.668 277.93C379.528 292.958 372.564 322.26 372.564 322.26L409.129 343.388C409.129 343.388 446.071 229.905 425.682 211.151Z" fill="black"/>
<path d="M425.682 211.151C425.682 211.151 416.454 209.941 408.39 209.579C405.562 209.452 402.777 210.303 400.503 211.99C398.229 213.676 396.607 216.095 395.908 218.838C391.821 234.998 386.256 265.181 382.106 277.222C376.934 292.251 365.962 317.796 365.962 317.796L412.084 339.426C412.084 339.426 446.071 229.905 425.682 211.151Z" fill="#237BFF"/>
<path opacity="0.2" d="M425.682 211.151C425.682 211.151 416.454 209.941 408.39 209.579C405.562 209.452 402.777 210.303 400.503 211.99C398.229 213.676 396.607 216.095 395.908 218.838C391.821 234.998 386.256 265.181 382.106 277.222C376.934 292.251 365.962 317.796 365.962 317.796L412.084 339.426C412.084 339.426 446.071 229.905 425.682 211.151Z" fill="black"/>
<path d="M450.064 221.007C450.064 221.007 456.933 224.309 463.001 228.05C465.487 229.583 467.408 231.882 468.474 234.601C469.54 237.32 469.694 240.312 468.912 243.126C461.413 269.629 455.487 297.407 452.5 312.026C449.356 327.589 446.071 341.753 446.071 341.753L428.779 344.095C428.779 344.095 452.579 243.99 450.064 221.007Z" fill="#237BFF"/>
<path opacity="0.2" d="M450.064 221.007C450.064 221.007 456.933 224.309 463.001 228.05C465.487 229.583 467.408 231.882 468.474 234.601C469.54 237.32 469.694 240.312 468.912 243.126C461.413 269.629 455.487 297.407 452.5 312.026C449.356 327.589 446.071 341.753 446.071 341.753L428.779 344.095C428.779 344.095 452.579 243.99 450.064 221.007Z" fill="black"/>
<path opacity="0.2" d="M448.963 204.36C448.215 205.556 447.537 206.794 446.935 208.07C443.571 206.042 440.113 200.446 440.93 196.563C441.187 195.27 441.588 194.01 442.125 192.806L448.963 204.36Z" fill="black"/>
<path d="M458.662 156.697C467.025 157.782 470.091 169.069 465.469 176.52C457.892 165.532 458.662 156.697 458.662 156.697Z" fill="#263238"/>
<path d="M432.63 177.51C435.46 189.599 436.482 196.799 443.728 202.222C446.064 204.012 448.844 205.13 451.769 205.453C454.694 205.776 457.652 205.293 460.322 204.056C462.992 202.819 465.272 200.875 466.917 198.435C468.561 195.995 469.507 193.151 469.651 190.212C470.437 178.909 465.689 161.036 452.877 157.797C450.121 157.02 447.209 156.981 444.434 157.686C441.658 158.39 439.117 159.813 437.065 161.81C435.013 163.808 433.523 166.311 432.745 169.066C431.966 171.822 431.927 174.734 432.63 177.51Z" fill="#FFB573"/>
<path d="M436.356 188.278C443.634 188.483 442.502 176.426 439.327 171.867C449.419 173.439 466.145 164.526 467.827 155.188C470.264 141.653 449.623 141.653 442.942 145.96C445.819 146.165 447.281 148.601 446.59 149.859C446.59 149.859 436.623 146.841 430.178 150.346C432.992 151.384 435.979 155.439 425.273 156.728C415.087 157.955 418.168 168.204 423.308 168.015C420.573 172.213 417.287 181.755 423.45 185.81C429.612 189.866 433.825 195.148 432.489 197.317C434.642 197.239 439.217 194.645 436.356 188.278Z" fill="#263238"/>
<path d="M424.77 167.072C419.897 167.544 417.099 171.348 416.91 176.504C418.998 172.952 421.653 169.766 424.77 167.072V167.072Z" fill="#263238"/>
<path d="M429.722 188.436C430.964 190.917 433.098 192.837 435.696 193.812C439.107 195.054 440.899 192.036 440.019 188.671C439.217 185.622 436.482 181.33 433.023 181.55C429.565 181.77 428.213 185.355 429.722 188.436Z" fill="#FFB573"/>
<path d="M451.793 178.438C451.95 179.428 452.626 180.151 453.27 180.01C453.915 179.868 454.308 179.051 454.151 178.06C453.994 177.07 453.318 176.331 452.657 176.488C451.997 176.646 451.62 177.447 451.793 178.438Z" fill="#263238"/>
<path d="M463.064 176.929C463.221 177.919 463.881 178.642 464.542 178.501C465.202 178.359 465.579 177.542 465.422 176.536C465.265 175.53 464.589 174.822 463.929 174.964C463.268 175.105 462.891 175.923 463.064 176.929Z" fill="#263238"/>
<path d="M459.559 177.903C461.268 180.784 463.351 183.427 465.752 185.763C464.275 187.634 461.146 187.335 461.146 187.335L459.559 177.903Z" fill="#ED893E"/>
<path d="M457.531 190.495C456.368 190.526 455.211 190.321 454.13 189.891C453.049 189.461 452.067 188.816 451.243 187.995C451.191 187.94 451.162 187.867 451.162 187.791C451.162 187.715 451.191 187.642 451.243 187.587C451.27 187.559 451.303 187.536 451.34 187.521C451.376 187.506 451.415 187.498 451.455 187.498C451.494 187.498 451.533 187.506 451.57 187.521C451.606 187.536 451.639 187.559 451.667 187.587C452.578 188.469 453.68 189.129 454.889 189.513C456.097 189.898 457.378 189.997 458.631 189.803C458.673 189.789 458.717 189.785 458.761 189.79C458.804 189.795 458.846 189.81 458.883 189.833C458.921 189.856 458.952 189.888 458.976 189.925C459 189.961 459.015 190.003 459.021 190.047C459.027 190.09 459.023 190.135 459.01 190.176C458.997 190.218 458.975 190.257 458.945 190.289C458.915 190.321 458.879 190.347 458.838 190.363C458.797 190.38 458.753 190.387 458.71 190.385C458.32 190.452 457.926 190.489 457.531 190.495V190.495Z" fill="#263238"/>
<path d="M454.387 193.765C453.447 193.072 452.658 192.195 452.069 191.186C451.479 190.178 451.102 189.06 450.96 187.901C450.955 187.824 450.981 187.749 451.03 187.69C451.08 187.632 451.15 187.595 451.227 187.587C451.265 187.582 451.304 187.586 451.341 187.597C451.378 187.609 451.412 187.627 451.442 187.652C451.471 187.677 451.495 187.708 451.513 187.743C451.53 187.778 451.539 187.815 451.541 187.854C451.725 189.109 452.191 190.305 452.905 191.354C453.618 192.402 454.56 193.275 455.66 193.906C455.694 193.924 455.723 193.949 455.747 193.979C455.771 194.008 455.788 194.043 455.799 194.079C455.809 194.116 455.812 194.154 455.807 194.192C455.802 194.23 455.789 194.266 455.77 194.299C455.75 194.333 455.724 194.363 455.693 194.387C455.662 194.411 455.626 194.429 455.588 194.439C455.551 194.449 455.511 194.452 455.472 194.447C455.433 194.442 455.395 194.429 455.361 194.409C455.026 194.211 454.7 193.996 454.387 193.765Z" fill="#263238"/>
<path d="M447.69 175.278C447.597 175.301 447.5 175.301 447.407 175.278C447.337 175.243 447.274 175.194 447.223 175.135C447.172 175.075 447.134 175.006 447.11 174.931C447.087 174.856 447.078 174.777 447.086 174.699C447.094 174.621 447.118 174.545 447.155 174.476C447.57 173.634 448.186 172.907 448.948 172.358C449.71 171.81 450.595 171.458 451.526 171.332C451.603 171.326 451.681 171.335 451.755 171.359C451.829 171.384 451.898 171.423 451.957 171.474C452.015 171.526 452.063 171.588 452.097 171.658C452.131 171.728 452.15 171.805 452.154 171.882C452.161 171.96 452.152 172.038 452.127 172.112C452.103 172.186 452.064 172.255 452.012 172.313C451.961 172.372 451.899 172.42 451.828 172.454C451.758 172.488 451.682 172.507 451.604 172.511C450.882 172.615 450.195 172.89 449.602 173.314C449.008 173.738 448.525 174.298 448.193 174.948C448.15 175.046 448.08 175.129 447.991 175.188C447.901 175.246 447.797 175.278 447.69 175.278V175.278Z" fill="#263238"/>
<path d="M467.246 172.417C467.15 172.42 467.055 172.398 466.969 172.354C466.884 172.31 466.812 172.245 466.758 172.165C466.34 171.534 465.783 171.007 465.129 170.625C464.474 170.243 463.741 170.017 462.985 169.965C462.846 169.942 462.719 169.87 462.627 169.762C462.535 169.654 462.485 169.517 462.485 169.375C462.485 169.233 462.535 169.096 462.627 168.988C462.719 168.88 462.846 168.809 462.985 168.786V168.786C463.928 168.839 464.845 169.111 465.663 169.58C466.482 170.049 467.18 170.703 467.701 171.489C467.746 171.552 467.779 171.623 467.796 171.699C467.813 171.774 467.815 171.852 467.802 171.928C467.789 172.004 467.761 172.077 467.719 172.142C467.678 172.207 467.623 172.263 467.56 172.307C467.47 172.377 467.36 172.416 467.246 172.417V172.417Z" fill="#263238"/>
<path d="M411.77 229.921C408.626 232.483 405.309 235.328 402.149 238.111C398.989 240.893 395.767 243.754 392.717 246.678C386.649 252.295 380.967 258.313 375.708 264.693L373.916 267.02L373.696 267.319C373.743 267.248 373.785 267.175 373.822 267.099C373.916 266.922 373.995 266.738 374.057 266.548C374.177 266.232 374.241 265.897 374.246 265.558C374.246 265.024 374.152 265.024 374.246 265.275C374.315 265.759 374.452 266.23 374.655 266.674C375.288 268.158 376.079 269.571 377.013 270.887C378.096 272.477 379.26 274.009 380.503 275.477C383.034 278.621 385.863 281.624 388.834 284.595C391.805 287.566 394.949 290.569 397.952 293.32L398.156 293.492C399.481 294.682 400.306 296.329 400.468 298.102C400.629 299.876 400.115 301.644 399.027 303.054C397.939 304.464 396.359 305.41 394.603 305.704C392.847 305.998 391.045 305.617 389.557 304.638C381.672 299.639 374.3 293.874 367.549 287.425C365.836 285.711 364.154 283.919 362.503 281.938C360.718 279.791 359.139 277.481 357.787 275.037C356.968 273.535 356.299 271.955 355.791 270.321C355.107 268.121 354.861 265.809 355.068 263.514C355.196 262.077 355.524 260.664 356.042 259.317C356.314 258.62 356.634 257.942 357.001 257.289L357.567 256.362L357.819 255.985L359.862 252.951C365.31 245.346 371.372 238.201 377.987 231.587C381.131 228.317 384.433 225.126 387.781 222.045C391.129 218.964 394.446 215.993 398.14 212.975C400.411 211.63 403.088 211.146 405.686 211.61C408.283 212.075 410.627 213.457 412.29 215.506C413.954 217.554 414.826 220.131 414.747 222.769C414.669 225.406 413.646 227.928 411.864 229.874L411.77 229.921Z" fill="#237BFF"/>
<path opacity="0.2" d="M411.77 229.921C408.626 232.483 405.309 235.328 402.149 238.111C398.989 240.893 395.767 243.754 392.717 246.678C386.649 252.295 380.967 258.313 375.708 264.693L373.916 267.02L373.696 267.319C373.743 267.248 373.785 267.175 373.822 267.099C373.916 266.922 373.995 266.738 374.057 266.548C374.177 266.232 374.241 265.897 374.246 265.558C374.246 265.024 374.152 265.024 374.246 265.275C374.315 265.759 374.452 266.23 374.655 266.674C375.288 268.158 376.079 269.571 377.013 270.887C378.096 272.477 379.26 274.009 380.503 275.477C383.034 278.621 385.863 281.624 388.834 284.595C391.805 287.566 394.949 290.569 397.952 293.32L398.156 293.492C399.481 294.682 400.306 296.329 400.468 298.102C400.629 299.876 400.115 301.644 399.027 303.054C397.939 304.464 396.359 305.41 394.603 305.704C392.847 305.998 391.045 305.617 389.557 304.638C381.672 299.639 374.3 293.874 367.549 287.425C365.836 285.711 364.154 283.919 362.503 281.938C360.718 279.791 359.139 277.481 357.787 275.037C356.968 273.535 356.299 271.955 355.791 270.321C355.107 268.121 354.861 265.809 355.068 263.514C355.196 262.077 355.524 260.664 356.042 259.317C356.314 258.62 356.634 257.942 357.001 257.289L357.567 256.362L357.819 255.985L359.862 252.951C365.31 245.346 371.372 238.201 377.987 231.587C381.131 228.317 384.433 225.126 387.781 222.045C391.129 218.964 394.446 215.993 398.14 212.975C400.411 211.63 403.088 211.146 405.686 211.61C408.283 212.075 410.627 213.457 412.29 215.506C413.954 217.554 414.826 220.131 414.747 222.769C414.669 225.406 413.646 227.928 411.864 229.874L411.77 229.921Z" fill="black"/>
<path d="M400.341 295.913L411.031 302.453L397.37 310.234C397.37 310.234 388.284 303.443 392.167 299.057L396.726 295.913C397.264 295.564 397.892 295.377 398.533 295.377C399.175 295.377 399.803 295.564 400.341 295.913V295.913Z" fill="#FFB573"/>
<path d="M411.612 314.4L405.733 317.858C405.326 318.101 404.875 318.26 404.406 318.325C403.936 318.39 403.459 318.36 403.001 318.236C402.544 318.113 402.116 317.899 401.743 317.608C401.369 317.316 401.059 316.952 400.829 316.538L397.37 310.25L411.031 302.469L413.232 310.329C413.45 311.091 413.41 311.904 413.117 312.64C412.824 313.377 412.295 313.996 411.612 314.4Z" fill="#FFB573"/>
<path d="M513.871 203.385L528.349 200.54C524.372 207.551 530.22 214.264 535.47 218.477C537.97 220.489 536.209 224.089 532.326 224.765L522.894 226.62C511.513 228.915 513.871 203.385 513.871 203.385Z" fill="#237BFF"/>
<path d="M508.118 204.501L541.318 198.072C546.502 197.039 551.067 193.994 554.012 189.605C556.958 185.216 558.046 179.838 557.038 174.649V174.649C555.997 169.469 552.951 164.91 548.564 161.966C544.177 159.021 538.804 157.93 533.615 158.929L500.43 165.437C495.249 166.482 490.69 169.531 487.746 173.921C484.802 178.311 483.711 183.686 484.71 188.876V188.876C485.769 194.037 488.821 198.573 493.203 201.498C497.585 204.424 502.945 205.503 508.118 204.501V204.501Z" fill="#237BFF"/>
<path opacity="0.3" d="M508.118 204.501L541.318 198.072C546.502 197.039 551.067 193.994 554.012 189.605C556.958 185.216 558.046 179.838 557.038 174.649V174.649C555.997 169.469 552.951 164.91 548.564 161.966C544.177 159.021 538.804 157.93 533.615 158.929L500.43 165.437C495.249 166.482 490.69 169.531 487.746 173.921C484.802 178.311 483.711 183.686 484.71 188.876V188.876C485.769 194.037 488.821 198.573 493.203 201.498C497.585 204.424 502.945 205.503 508.118 204.501V204.501Z" fill="white"/>
<path d="M598.476 211.277L541.884 210.522C536.98 211.481 524.592 147.972 529.434 147.013L581.53 125.005L598.476 211.277Z" fill="#237BFF"/>
<path d="M585.491 169.006C590.207 192.837 595.977 211.764 598.476 211.277C600.976 210.789 599.215 191.061 594.53 167.261C589.846 143.461 584.045 124.502 581.546 124.99C579.046 125.477 580.823 145.158 585.491 169.006Z" fill="#237BFF"/>
<path opacity="0.3" d="M585.491 169.006C590.207 192.837 595.977 211.764 598.476 211.277C600.976 210.789 599.215 191.061 594.53 167.261C589.846 143.461 584.045 124.502 581.546 124.99C579.046 125.477 580.823 145.158 585.491 169.006Z" fill="black"/>
<path d="M606.792 166.066C605.644 160.234 592.644 157.86 589.893 158.41C587.142 158.961 585.806 164.117 586.938 169.949C588.07 175.781 591.261 180.057 594.027 179.522C596.794 178.988 607.892 171.882 606.792 166.066Z" fill="#237BFF"/>
<path d="M694.33 150.935L620.697 162.848L620.965 164.509L694.599 152.596L694.33 150.935Z" fill="#237BFF"/>
<path d="M643.948 119.143L613.755 144.885L614.846 146.165L645.039 120.423L643.948 119.143Z" fill="#237BFF"/>
<path d="M618.773 185.083L618.239 186.678L646.258 196.075L646.793 194.48L618.773 185.083Z" fill="#237BFF"/>
</svg>
