<svg width="644" height="429" viewBox="0 0 644 429" fill="none" xmlns="http://www.w3.org/2000/svg">
<path d="M587.328 368.425C587.328 368.425 610.512 326.383 609.653 257.743C608.795 189.103 567.579 124.753 516.917 106.735C466.256 88.7172 421.605 111.883 361.499 114.457C301.392 117.031 266.187 41.5272 180.32 77.5632C94.4533 113.599 94.4533 186.529 109.051 221.707C123.648 256.885 151.125 274.045 121.072 298.927C91.0187 323.809 61.824 339.253 53.2373 348.691C48.1612 354.161 44.8674 361.043 43.792 368.425H587.328Z" fill="#237BFF"/>
<path opacity="0.7" d="M587.328 368.425C587.328 368.425 610.512 326.383 609.653 257.743C608.795 189.103 567.579 124.753 516.917 106.735C466.256 88.7172 421.605 111.883 361.499 114.457C301.392 117.031 266.187 41.5272 180.32 77.5632C94.4533 113.599 94.4533 186.529 109.051 221.707C123.648 256.885 151.125 274.045 121.072 298.927C91.0187 323.809 61.824 339.253 53.2373 348.691C48.1612 354.161 44.8674 361.043 43.792 368.425H587.328Z" fill="white"/>
<g opacity="0.2">
<path opacity="0.2" d="M209.514 65.637C205.358 65.6404 201.297 66.8747 197.843 69.1839C194.388 71.4932 191.697 74.7737 190.108 78.611C188.519 82.4482 188.104 86.67 188.916 90.7427C189.728 94.8154 191.729 98.5564 194.668 101.493C197.607 104.429 201.35 106.429 205.426 107.24C209.502 108.051 213.727 107.637 217.568 106.049C221.408 104.462 224.691 101.772 227.002 98.3207C229.313 94.8692 230.548 90.8107 230.552 86.658C230.552 81.0829 228.335 75.7361 224.39 71.7939C220.445 67.8517 215.094 65.637 209.514 65.637ZM211.652 99.4679V101.493H208.089V99.4679C204.955 98.8416 203.375 96.422 203.375 92.664V90.7678H207.496V92.9386C207.496 94.9205 208.355 95.6327 209.755 95.6327C211.154 95.6327 212.013 94.9205 212.013 92.9386C212.013 87.2414 203.495 86.9326 203.495 79.0475C203.495 75.3238 205.041 72.9557 208.089 72.2779V70.2187H211.652V72.2779C214.743 72.9128 216.323 75.2895 216.323 79.0475V79.9055H212.21V78.773C212.21 76.791 211.412 76.036 210.029 76.036C208.647 76.036 207.848 76.791 207.848 78.773C207.848 84.4701 216.366 84.779 216.366 92.664C216.384 96.422 214.761 98.8416 211.669 99.4679H211.652Z" stroke="black" stroke-linecap="round" stroke-linejoin="round"/>
<path opacity="0.2" d="M209.514 57.2029C203.687 57.2012 197.99 58.9265 193.144 62.1605C188.297 65.3945 184.52 69.992 182.289 75.3715C180.058 80.7509 179.474 86.6706 180.611 92.3818C181.747 98.093 184.553 103.339 188.674 107.457C192.795 111.574 198.045 114.378 203.76 115.514C209.476 116.649 215.4 116.066 220.784 113.836C226.168 111.607 230.769 107.833 234.005 102.99C237.242 98.148 238.968 92.4553 238.967 86.6323C238.967 78.8271 235.864 71.3416 230.34 65.8225C224.817 60.3035 217.326 57.2029 209.514 57.2029V57.2029ZM209.514 110.811C204.728 110.807 200.051 109.386 196.073 106.726C192.096 104.066 188.997 100.287 187.169 95.8671C185.341 91.4473 184.866 86.585 185.803 81.8953C186.741 77.2056 189.049 72.899 192.437 69.5204C195.824 66.1417 200.138 63.8427 204.833 62.914C209.528 61.9854 214.393 62.4689 218.813 64.3033C223.233 66.1378 227.01 69.2408 229.665 73.22C232.32 77.1991 233.734 81.8756 233.729 86.658C233.715 93.0669 231.158 99.2089 226.619 103.737C222.08 108.264 215.928 110.808 209.514 110.811Z" stroke="black" stroke-linecap="round" stroke-linejoin="round"/>
</g>
<g opacity="0.2">
<path opacity="0.2" d="M384.596 69.4465C381.555 69.4465 378.582 70.3478 376.053 72.0363C373.524 73.7248 371.552 76.1248 370.388 78.9327C369.224 81.7406 368.92 84.8303 369.513 87.8112C370.107 90.7921 371.571 93.5302 373.722 95.6793C375.873 97.8283 378.613 99.2919 381.596 99.8848C384.579 100.478 387.672 100.173 390.482 99.0104C393.292 97.8473 395.694 95.8777 397.383 93.3506C399.073 90.8236 399.975 87.8526 399.975 84.8133C399.971 80.7392 398.349 76.8332 395.466 73.9524C392.583 71.0715 388.674 69.4511 384.596 69.4465V69.4465ZM386.159 94.2084V95.6842H383.583V94.2084C381.291 93.7451 380.149 91.9776 380.149 89.2234V87.8335H383.163V89.4293C383.163 90.8794 383.807 91.3942 384.82 91.3942C385.833 91.3942 386.468 90.8794 386.468 89.4293C386.468 85.2595 380.234 85.0535 380.234 79.262C380.234 76.5422 381.368 74.8004 383.6 74.3114V72.8013H386.176V74.3114C388.435 74.7747 389.611 76.5079 389.611 79.262V79.897H386.597V79.039C386.597 77.5975 386.022 77.0398 385 77.0398C383.978 77.0398 383.412 77.5975 383.412 79.039C383.412 83.2088 389.645 83.4148 389.645 89.2063C389.611 91.9776 388.418 93.7451 386.159 94.2084V94.2084Z" stroke="black" stroke-linecap="round" stroke-linejoin="round"/>
<path opacity="0.2" d="M384.596 63.2775C380.334 63.2775 376.167 64.5405 372.623 66.9069C369.078 69.2733 366.316 72.6367 364.685 76.5719C363.053 80.5071 362.626 84.8372 363.458 89.0147C364.29 93.1923 366.342 97.0296 369.357 100.041C372.371 103.053 376.211 105.104 380.392 105.935C384.573 106.766 388.906 106.34 392.844 104.71C396.782 103.08 400.149 100.319 402.517 96.778C404.885 93.2364 406.149 89.0727 406.149 84.8133C406.149 79.1016 403.878 73.6239 399.836 69.5852C395.795 65.5464 390.313 63.2775 384.596 63.2775V63.2775ZM384.596 102.505C381.095 102.505 377.671 101.468 374.76 99.5236C371.848 97.5796 369.579 94.8165 368.239 91.5837C366.898 88.3509 366.548 84.7937 367.231 81.3618C367.914 77.9299 369.6 74.7775 372.077 72.3032C374.553 69.8289 377.708 68.1439 381.142 67.4613C384.577 66.7786 388.137 67.129 391.372 68.4681C394.607 69.8071 397.373 72.0747 399.318 74.9842C401.264 77.8936 402.302 81.3142 402.302 84.8133C402.298 89.5041 400.431 94.0015 397.111 97.3184C393.792 100.635 389.291 102.501 384.596 102.505V102.505Z" stroke="black" stroke-linecap="round" stroke-linejoin="round"/>
</g>
<g opacity="0.2">
<path opacity="0.2" d="M63.4383 205.671C60.3967 205.671 57.4234 206.572 54.8943 208.261C52.3653 209.949 50.3942 212.349 49.2302 215.157C48.0662 217.965 47.7617 221.055 48.3551 224.036C48.9485 227.017 50.4131 229.755 52.5639 231.904C54.7147 234.053 57.4549 235.517 60.4381 236.109C63.4212 236.702 66.5134 236.398 69.3235 235.235C72.1336 234.072 74.5354 232.102 76.2252 229.575C77.9151 227.048 78.817 224.077 78.817 221.038C78.8125 216.964 77.1908 213.058 74.3077 210.177C71.4246 207.296 67.5156 205.676 63.4383 205.671V205.671ZM65.0011 230.433V231.909H62.4251V230.433C60.1324 229.97 58.9904 228.202 58.9904 225.448V224.058H62.0043V225.654C62.0043 227.104 62.6397 227.627 63.6615 227.627C64.6834 227.627 65.2587 227.104 65.2587 225.654C65.2587 221.484 59.0247 221.278 59.0247 215.487C59.0247 212.767 60.1582 211.025 62.3907 210.536V209.026H64.9667V210.536C67.225 210.999 68.4014 212.733 68.4014 215.487V216.122H65.4046V215.264C65.4046 213.822 64.8207 213.273 63.8075 213.273C62.7943 213.273 62.219 213.822 62.219 215.264C62.219 219.442 68.4443 219.639 68.4443 225.431C68.4443 228.228 67.2594 229.944 65.0011 230.433V230.433Z" stroke="black" stroke-linecap="round" stroke-linejoin="round"/>
<path opacity="0.2" d="M63.4382 199.502C59.1762 199.506 55.011 200.771 51.4689 203.14C47.9269 205.508 45.1671 208.873 43.5385 212.808C41.9099 216.744 41.4855 221.073 42.3191 225.25C43.1526 229.426 45.2066 233.262 48.2215 236.272C51.2364 239.282 55.0767 241.332 59.257 242.161C63.4373 242.991 67.7699 242.563 71.7071 240.933C75.6443 239.302 79.0094 236.542 81.3768 233.001C83.7443 229.46 85.0079 225.297 85.0079 221.038C85.0068 218.209 84.448 215.407 83.3634 212.794C82.2788 210.18 80.6897 207.806 78.6867 205.806C76.6838 203.807 74.3063 202.221 71.6899 201.139C69.0736 200.057 66.2696 199.501 63.4382 199.502V199.502ZM63.4382 238.73C59.9363 238.73 56.5131 237.692 53.6014 235.748C50.6897 233.804 48.4204 231.041 47.0803 227.808C45.7402 224.576 45.3895 221.018 46.0727 217.586C46.7559 214.155 48.4422 211.002 50.9184 208.528C53.3946 206.054 56.5494 204.369 59.984 203.686C63.4186 203.003 66.9786 203.354 70.2139 204.693C73.4492 206.032 76.2144 208.299 78.16 211.209C80.1055 214.118 81.1439 217.539 81.1439 221.038C81.1394 225.729 79.2725 230.226 75.953 233.543C72.6335 236.86 68.1326 238.725 63.4382 238.73V238.73Z" stroke="black" stroke-linecap="round" stroke-linejoin="round"/>
</g>
<g opacity="0.2">
<path opacity="0.2" d="M586.83 188.588C583.788 188.588 580.815 189.49 578.286 191.178C575.757 192.867 573.786 195.267 572.622 198.075C571.458 200.882 571.153 203.972 571.747 206.953C572.34 209.934 573.805 212.672 575.956 214.821C578.106 216.97 580.846 218.434 583.83 219.027C586.813 219.62 589.905 219.315 592.715 218.152C595.525 216.989 597.927 215.02 599.617 212.493C601.307 209.965 602.209 206.994 602.209 203.955C602.204 199.881 600.582 195.975 597.699 193.094C594.816 190.213 590.907 188.593 586.83 188.588ZM588.393 213.35V214.826H585.817V213.35C583.533 212.887 582.382 211.119 582.382 208.365V206.975H585.396V208.571C585.396 210.013 586.031 210.536 587.045 210.536C588.058 210.536 588.693 210.013 588.693 208.571C588.693 204.393 582.468 204.195 582.468 198.404C582.468 195.675 583.593 193.942 585.825 193.445V191.943H588.401V193.445C590.66 193.908 591.836 195.65 591.836 198.404V199.056H588.822V198.198C588.822 196.748 588.247 196.199 587.233 196.199C586.22 196.199 585.611 196.748 585.611 198.198C585.611 202.368 591.845 202.574 591.845 208.365C591.845 211.119 590.651 212.887 588.393 213.35V213.35Z" stroke="black" stroke-linecap="round" stroke-linejoin="round"/>
<path opacity="0.2" d="M586.83 182.419C582.567 182.419 578.4 183.682 574.856 186.049C571.312 188.415 568.549 191.779 566.918 195.714C565.287 199.649 564.86 203.979 565.691 208.157C566.523 212.334 568.576 216.171 571.59 219.183C574.604 222.195 578.444 224.246 582.625 225.077C586.806 225.908 591.139 225.482 595.078 223.852C599.016 222.222 602.382 219.461 604.75 215.92C607.118 212.378 608.382 208.215 608.382 203.955C608.382 201.127 607.825 198.327 606.742 195.714C605.659 193.101 604.071 190.727 602.07 188.727C600.068 186.727 597.692 185.141 595.078 184.059C592.463 182.976 589.66 182.419 586.83 182.419V182.419ZM586.83 221.647C583.327 221.654 579.9 220.622 576.984 218.682C574.068 216.742 571.793 213.982 570.447 210.749C569.102 207.517 568.747 203.959 569.426 200.525C570.105 197.091 571.789 193.935 574.264 191.457C576.738 188.98 579.893 187.291 583.329 186.606C586.764 185.92 590.326 186.269 593.563 187.607C596.801 188.945 599.568 191.212 601.515 194.123C603.462 197.033 604.501 200.455 604.501 203.955C604.497 208.64 602.635 213.132 599.322 216.448C596.01 219.764 591.518 221.634 586.83 221.647V221.647Z" stroke="black" stroke-linecap="round" stroke-linejoin="round"/>
</g>
<path d="M28.3359 368.863H600.208" stroke="#263238" stroke-linecap="round" stroke-linejoin="round"/>
<path d="M62.4165 293.436C64.9925 294.543 71.1663 294.397 71.1749 294.397C71.1835 294.397 69.8353 290.339 69.7151 290.107C68.3584 287.258 64.0479 282.557 60.536 283.028C59.9565 283.124 59.4036 283.34 58.9132 283.663C58.4227 283.986 58.0057 284.408 57.6891 284.903C57.3726 285.397 57.1635 285.952 57.0756 286.533C56.9876 287.113 57.0227 287.705 57.1786 288.271C57.7625 290.639 60.2526 292.441 62.4165 293.436Z" fill="#237BFF"/>
<path d="M64.5631 311.368C67.1906 311.746 72.7376 310.141 73.1498 310.013C74.0627 313.182 75.1872 316.286 76.5158 319.305C77.2714 321.072 78.0957 322.822 78.9458 324.573C78.4392 323.835 77.9841 323.174 77.9068 323.088C75.8374 320.703 70.445 317.297 67.1821 318.687C66.648 318.931 66.1713 319.284 65.7831 319.725C65.3949 320.165 65.1039 320.682 64.9289 321.242C64.7539 321.802 64.699 322.393 64.7676 322.976C64.8363 323.558 65.027 324.12 65.3273 324.624C66.5295 326.812 69.4146 327.893 71.7502 328.236C74.0857 328.58 78.8685 327.31 80.1222 326.949L81.1182 328.957C82.7239 332.149 84.3382 335.324 85.8237 338.498C86.3475 339.614 86.8283 340.729 87.3092 341.844C86.8541 341.192 86.4505 340.643 86.4505 340.566C84.3811 338.172 78.9801 334.774 75.7258 336.156C75.1893 336.398 74.7099 336.751 74.319 337.191C73.928 337.631 73.6343 338.148 73.4568 338.709C73.2794 339.27 73.2223 339.862 73.2892 340.447C73.3562 341.031 73.5456 341.595 73.8453 342.102C75.0474 344.29 77.924 345.371 80.2595 345.714C82.5951 346.057 86.9228 344.899 88.4169 344.487C88.872 345.645 89.3271 346.812 89.722 347.919C89.9711 348.708 90.263 349.446 90.4691 350.253C90.6752 351.059 90.9156 351.823 91.1303 352.604C91.4909 354.114 91.8773 355.667 92.195 357.151C92.4183 358.181 92.6158 359.167 92.8218 360.154C92.3152 359.039 91.2677 356.876 91.156 356.722C89.4387 354.045 84.6559 349.858 81.2298 350.716C80.6645 350.877 80.1393 351.155 79.6883 351.531C79.2374 351.908 78.8709 352.376 78.6126 352.903C78.3542 353.431 78.2099 354.007 78.1889 354.594C78.1679 355.181 78.2707 355.766 78.4907 356.31C79.3494 358.653 82.037 360.163 84.2867 360.849C86.7768 361.613 92.2723 360.918 92.9592 360.849C93.2941 362.496 93.5946 364.092 93.8179 365.611C94.0154 366.735 94.1957 367.807 94.3589 368.846H96.5656C96.3595 367.687 96.1277 366.486 95.8787 365.225C95.5524 363.552 95.166 361.793 94.7538 359.957C96.4111 359.294 98.0281 358.534 99.5967 357.683C101.409 359.648 106.045 361.973 106.646 362.23C106.02 363.783 105.384 365.285 104.766 366.692C104.448 367.438 104.13 368.142 103.813 368.846H106.148L106.698 367.507C107.35 365.937 108.012 364.238 108.673 362.496C109.334 362.634 114.787 363.74 117.32 363.166C119.621 362.651 122.411 361.347 123.442 359.073C123.701 358.546 123.846 357.971 123.868 357.385C123.891 356.798 123.79 356.214 123.572 355.669C123.355 355.124 123.025 354.631 122.605 354.221C122.184 353.811 121.683 353.494 121.132 353.29C117.775 352.166 112.657 355.967 110.828 358.507C110.716 358.661 109.695 360.42 109.068 361.544C109.334 360.823 109.6 360.137 109.866 359.399C110.407 357.94 110.897 356.465 111.429 354.886C111.661 354.114 111.893 353.333 112.133 352.552C112.374 351.771 112.545 350.922 112.76 350.098C113.215 348.185 113.619 346.22 113.911 344.238C115.19 344.701 119.758 346.289 122.12 346.126C124.481 345.963 127.426 345.096 128.791 343.003C129.13 342.522 129.363 341.975 129.475 341.398C129.588 340.822 129.577 340.228 129.444 339.655C129.311 339.083 129.059 338.545 128.704 338.076C128.349 337.608 127.899 337.219 127.383 336.937C124.24 335.315 118.599 338.309 116.366 340.532C116.221 340.669 114.795 342.454 114.031 343.44C114.22 342.248 114.409 341.055 114.563 339.845C115.001 336.336 115.327 332.775 115.68 329.223C115.783 328.133 115.903 327.052 116.014 325.971C116.47 326.134 121.853 328.142 124.507 327.953C126.859 327.79 129.813 326.924 131.17 324.83C131.508 324.35 131.741 323.804 131.853 323.228C131.966 322.652 131.955 322.058 131.822 321.487C131.689 320.915 131.437 320.377 131.082 319.91C130.727 319.442 130.277 319.055 129.762 318.773C126.619 317.151 120.986 320.137 118.745 322.359C118.573 322.531 116.521 325.096 116.032 325.791C116.289 323.406 116.564 321.029 116.89 318.695C117.366 315.542 118.049 312.424 118.934 309.36C119.14 309.438 124.756 311.557 127.469 311.368C129.822 311.197 132.776 310.339 134.141 308.245C134.478 307.764 134.71 307.217 134.821 306.641C134.933 306.064 134.922 305.471 134.79 304.898C134.657 304.326 134.405 303.789 134.051 303.32C133.696 302.852 133.247 302.463 132.733 302.179C129.581 300.557 123.949 303.543 121.707 305.774C121.536 305.946 119.329 308.708 118.968 309.206C119.02 309.026 119.054 308.837 119.106 308.665C120.074 305.615 121.312 302.658 122.806 299.828C123.614 298.258 124.472 296.799 125.382 295.392C126.387 295.898 130.998 298.138 133.463 298.232C135.927 298.327 138.846 297.795 140.435 295.864C140.823 295.423 141.114 294.905 141.289 294.344C141.464 293.783 141.519 293.192 141.45 292.608C141.381 292.025 141.19 291.463 140.89 290.958C140.589 290.453 140.185 290.017 139.705 289.678C136.751 287.722 130.826 290.073 128.353 292.046C128.216 292.149 126.971 293.393 126.078 294.303C126.482 293.676 126.877 293.024 127.272 292.432C128.757 290.21 130.251 288.254 131.565 286.546C132.338 285.577 133.05 284.71 133.72 283.912C134.965 283.912 139.971 283.741 142.161 282.711C144.35 281.681 146.738 279.845 147.261 277.4C147.402 276.83 147.42 276.237 147.316 275.659C147.212 275.081 146.988 274.532 146.657 274.046C146.327 273.561 145.898 273.15 145.398 272.841C144.899 272.532 144.34 272.331 143.758 272.252C140.237 271.866 136.03 276.688 134.776 279.571C134.665 279.82 133.368 283.921 133.437 283.921H133.514C132.844 284.684 132.14 285.499 131.385 286.409C130.011 288.125 128.474 290.021 126.937 292.218C125.262 294.577 123.723 297.029 122.326 299.562C120.75 302.396 119.431 305.365 118.384 308.434C118.388 308.471 118.388 308.508 118.384 308.545C118.384 307.507 118.384 304.607 118.333 304.384C117.921 301.261 115.302 295.444 111.816 294.8C111.235 294.709 110.641 294.741 110.074 294.895C109.506 295.049 108.977 295.32 108.522 295.692C108.067 296.064 107.695 296.527 107.431 297.052C107.167 297.577 107.017 298.152 106.99 298.738C106.784 301.227 108.587 303.715 110.347 305.285C112.331 307.061 117.843 308.777 118.281 308.906C117.296 312.055 116.519 315.265 115.954 318.515C115.619 320.403 115.336 322.325 115.096 324.247C115.096 323.346 115.096 322.531 115.053 322.436C114.641 319.305 112.013 313.496 108.535 312.853C107.955 312.761 107.361 312.794 106.794 312.947C106.226 313.101 105.697 313.373 105.242 313.744C104.787 314.116 104.415 314.579 104.151 315.104C103.887 315.629 103.736 316.204 103.71 316.791C103.504 319.27 105.307 321.767 107.067 323.337C108.827 324.907 113.524 326.486 114.795 326.881C114.709 327.619 114.606 328.357 114.52 329.094C114.091 332.647 113.662 336.19 113.181 339.648C113.001 340.875 112.786 342.067 112.563 343.26C112.563 342.471 112.563 341.793 112.563 341.698C112.159 338.567 109.531 332.75 106.054 332.106C105.473 332.016 104.88 332.05 104.313 332.204C103.746 332.358 103.218 332.63 102.763 333.001C102.308 333.372 101.936 333.835 101.672 334.36C101.407 334.884 101.256 335.458 101.228 336.044C101.022 338.532 102.825 341.021 104.586 342.591C106.346 344.161 110.596 345.594 112.056 346.066C111.798 347.284 111.541 348.511 111.197 349.678C110.965 350.467 110.802 351.248 110.536 352.037C110.27 352.827 110.03 353.59 109.781 354.363C109.248 355.821 108.716 357.331 108.158 358.738C107.78 359.725 107.402 360.66 107.024 361.595C107.213 360.386 107.539 358 107.548 357.795C107.502 355.019 106.751 352.3 105.367 349.892C105.377 349.582 105.357 349.272 105.307 348.966C105.234 348.38 105.038 347.816 104.732 347.311C104.425 346.806 104.015 346.372 103.528 346.037C103.041 345.702 102.489 345.474 101.907 345.368C101.326 345.262 100.729 345.281 100.155 345.422C96.7202 346.332 94.5649 352.286 94.4018 355.478C94.4018 355.667 94.5134 357.692 94.6079 358.979C94.4361 358.232 94.2816 357.511 94.0927 356.748C93.732 355.238 93.337 353.736 92.9077 352.123C92.6759 351.351 92.4354 350.57 92.195 349.789C91.9546 349.009 91.6455 348.202 91.3363 347.396C90.658 345.551 89.8852 343.706 89.0609 341.87C90.3918 341.553 95.0715 340.36 96.952 338.919C98.8325 337.477 100.807 335.135 100.79 332.638C100.808 332.051 100.701 331.466 100.478 330.923C100.254 330.379 99.9177 329.889 99.4915 329.484C99.0653 329.08 98.5584 328.769 98.0039 328.573C97.4494 328.377 96.8599 328.301 96.2737 328.348C92.7531 328.734 89.6963 334.354 89.0609 337.426C89.0609 337.614 88.8119 339.888 88.726 341.132C88.2194 340.034 87.7214 338.936 87.1804 337.837C85.609 334.671 83.9175 331.523 82.2431 328.399C81.7365 327.439 81.2298 326.469 80.7318 325.499C81.2041 325.396 86.8026 324.092 88.9063 322.479C90.7782 321.046 92.7617 318.695 92.7446 316.199C92.7622 315.611 92.6556 315.027 92.4318 314.483C92.208 313.94 91.872 313.45 91.4458 313.045C91.0196 312.64 90.5126 312.33 89.9582 312.134C89.4037 311.938 88.8141 311.861 88.228 311.909C84.7074 312.286 81.6506 317.915 81.0152 320.978C80.9637 321.218 80.6717 324.478 80.6374 325.319C79.5297 323.183 78.4478 321.029 77.4603 318.901C76.1248 316.01 74.9776 313.035 74.0256 309.995C74.2489 309.944 80.0964 308.614 82.2517 306.958C84.1235 305.525 86.1071 303.174 86.0899 300.678C86.1076 300.089 86.0008 299.504 85.7765 298.96C85.5522 298.416 85.2155 297.925 84.7883 297.52C84.3611 297.115 83.8531 296.805 83.2976 296.61C82.7421 296.415 82.1516 296.339 81.5647 296.388C78.0528 296.765 74.9959 302.394 74.3605 305.457C74.309 305.705 73.9913 309.215 73.9827 309.858C73.9312 309.687 73.8539 309.506 73.8024 309.326C72.9241 306.24 72.3235 303.081 72.0078 299.888C71.8103 298.129 71.7244 296.456 71.6729 294.792C72.7891 294.654 77.8725 293.985 79.9762 292.707C82.0799 291.428 84.2266 289.369 84.4842 286.889C84.5667 286.308 84.5252 285.715 84.3625 285.151C84.1999 284.586 83.9196 284.062 83.5402 283.614C83.1608 283.165 82.6908 282.801 82.1609 282.547C81.6311 282.292 81.0533 282.152 80.4656 282.136C76.9279 282.136 73.2786 287.353 72.2997 290.356C72.2482 290.527 71.8961 292.243 71.6557 293.496C71.6557 292.758 71.6128 291.986 71.6557 291.274C71.6557 288.605 71.8274 286.126 71.9906 283.989C72.1022 282.754 72.2138 281.647 72.3426 280.609C73.3645 279.905 77.4946 277.014 78.7139 274.955C79.9333 272.895 80.9465 270.038 80.0277 267.713C79.8316 267.159 79.5208 266.653 79.1156 266.228C78.7105 265.802 78.22 265.466 77.6763 265.243C77.1327 265.019 76.5479 264.913 75.9603 264.931C75.3727 264.948 74.7954 265.089 74.2661 265.345C71.1233 266.967 70.299 273.29 70.8314 276.405C70.8829 276.679 72.0679 280.806 72.1194 280.772H72.1795C72.0421 281.767 71.9047 282.84 71.7845 284.007C71.5698 286.177 71.3466 288.631 71.2779 291.308C71.1793 294.201 71.2481 297.097 71.484 299.983C71.7351 303.213 72.2753 306.415 73.0983 309.549V309.661C72.5401 308.803 70.9001 306.392 70.7541 306.229C68.6847 303.835 63.2923 300.437 60.0294 301.819C59.495 302.064 59.0182 302.418 58.63 302.859C58.2417 303.3 57.9507 303.818 57.7758 304.379C57.6008 304.939 57.5459 305.531 57.6147 306.114C57.6834 306.697 57.8742 307.26 58.1746 307.765C59.3424 309.944 62.2275 311.025 64.5631 311.368Z" fill="#237BFF"/>
<path d="M125.237 294.757C125.288 294.757 126.361 290.63 126.404 290.356C126.842 287.233 125.838 280.918 122.652 279.399C122.116 279.158 121.536 279.033 120.948 279.032C120.36 279.03 119.779 279.152 119.242 279.39C118.705 279.628 118.224 279.977 117.831 280.413C117.437 280.849 117.14 281.363 116.959 281.922C116.1 284.264 117.182 287.138 118.47 289.12C119.973 291.445 125.228 294.749 125.237 294.757Z" fill="#237BFF"/>
<path d="M492.016 267.602C495.451 269.086 503.754 268.897 503.763 268.897C503.771 268.897 501.968 263.449 501.813 263.123C499.984 259.296 494.206 252.99 489.5 253.625C488.721 253.75 487.977 254.039 487.317 254.471C486.658 254.904 486.097 255.471 485.671 256.135C485.246 256.799 484.965 257.545 484.848 258.325C484.731 259.105 484.78 259.901 484.992 260.66C485.773 263.912 489.114 266.332 492.016 267.602Z" fill="#237BFF"/>
<path d="M494.893 291.72C498.422 292.235 505.858 290.081 506.45 289.901C507.677 294.155 509.186 298.323 510.967 302.376C511.989 304.744 513.088 307.095 514.23 309.438C513.551 308.442 512.933 307.559 512.839 307.447C510.057 304.247 502.818 299.682 498.448 301.536C497.73 301.864 497.091 302.34 496.57 302.932C496.048 303.523 495.658 304.218 495.423 304.971C495.188 305.723 495.114 306.517 495.206 307.3C495.299 308.083 495.554 308.837 495.957 309.515C497.572 312.449 501.436 313.899 504.544 314.354C507.652 314.809 514.101 313.11 515.784 312.638C516.23 313.539 516.643 314.431 517.115 315.324C519.262 319.614 521.408 323.904 523.426 328.125C524.139 329.626 524.774 331.128 525.418 332.621C524.817 331.763 524.302 331.008 524.207 330.905C521.434 327.696 514.195 323.14 509.825 324.993C509.107 325.32 508.466 325.794 507.945 326.385C507.423 326.976 507.032 327.67 506.797 328.422C506.562 329.175 506.488 329.968 506.581 330.751C506.674 331.533 506.93 332.287 507.335 332.964C508.949 335.898 512.813 337.348 515.921 337.812C519.03 338.275 524.852 336.722 526.852 336.173C527.47 337.726 528.089 339.279 528.57 340.815C528.904 341.87 529.299 342.865 529.574 343.946C529.849 345.028 530.167 346.057 530.433 347.104C530.914 349.129 531.429 351.214 531.858 353.204C532.159 354.586 532.425 355.907 532.717 357.237C532.03 355.735 530.63 352.835 530.484 352.604C528.235 349.017 521.76 343.414 517.166 344.581C516.408 344.797 515.703 345.17 515.098 345.676C514.493 346.182 514.002 346.809 513.655 347.517C513.308 348.225 513.115 348.998 513.086 349.786C513.058 350.573 513.196 351.358 513.491 352.089C514.642 355.238 518.24 357.237 521.271 358.181C524.602 359.202 531.987 358.266 532.906 358.181C533.352 360.386 533.764 362.531 534.117 364.564C534.374 366.066 534.623 367.516 534.846 368.906H537.8C537.517 367.361 537.216 365.74 536.881 364.049C536.435 361.81 535.92 359.425 535.37 356.979C537.593 356.094 539.76 355.077 541.862 353.934C544.292 356.559 550.517 359.639 551.307 360.025C550.448 362.11 549.59 364.127 548.791 366.031C548.353 367.035 547.932 367.979 547.503 368.923H550.637C550.878 368.331 551.127 367.747 551.376 367.13C552.234 365.019 553.136 362.745 554.02 360.403C554.879 360.592 562.221 362.076 565.63 361.261C568.721 360.566 572.499 358.816 573.838 355.77C574.184 355.065 574.377 354.296 574.406 353.513C574.435 352.729 574.299 351.948 574.007 351.22C573.714 350.492 573.273 349.834 572.71 349.287C572.147 348.741 571.475 348.318 570.739 348.048C566.239 346.529 559.37 351.643 556.854 355.049C556.708 355.246 555.343 357.623 554.501 359.116C554.862 358.155 555.214 357.228 555.575 356.242C556.296 354.285 556.948 352.312 557.67 350.184L558.606 347.052C558.941 346.006 559.164 344.865 559.464 343.766C560.074 341.192 560.572 338.567 561.01 335.898C562.727 336.525 568.85 338.653 572.018 338.43C575.187 338.206 579.145 337.048 580.974 334.242C581.426 333.597 581.737 332.864 581.887 332.091C582.037 331.318 582.023 330.522 581.845 329.755C581.667 328.987 581.329 328.266 580.853 327.638C580.378 327.01 579.775 326.489 579.085 326.109C574.86 323.929 567.304 327.936 564.299 330.931C564.11 331.111 562.195 333.505 561.165 334.835C561.422 333.23 561.68 331.634 561.877 330.004C562.461 325.294 562.908 320.523 563.371 315.753C563.517 314.294 563.672 312.844 563.826 311.385C564.436 311.617 571.657 314.303 575.212 314.054C578.372 313.831 582.339 312.672 584.168 309.867C584.621 309.221 584.932 308.487 585.082 307.713C585.232 306.94 585.218 306.143 585.039 305.375C584.861 304.607 584.523 303.885 584.048 303.256C583.572 302.627 582.97 302.105 582.279 301.724C578.054 299.554 570.49 303.56 567.493 306.546C567.261 306.778 564.513 310.21 563.852 311.119C564.196 307.919 564.565 304.727 565.054 301.596C565.694 297.366 566.606 293.181 567.785 289.069C568.068 289.172 575.599 292.012 579.239 291.763C582.399 291.54 586.358 290.382 588.187 287.567C588.639 286.922 588.95 286.189 589.1 285.416C589.25 284.643 589.236 283.847 589.058 283.079C588.879 282.312 588.542 281.591 588.066 280.963C587.591 280.335 586.988 279.814 586.298 279.433C582.082 277.254 574.517 281.27 571.511 284.255C571.28 284.487 568.317 288.185 567.828 288.897C567.905 288.657 567.948 288.408 568.025 288.168C569.357 284.06 571.055 280.08 573.1 276.276C574.182 274.165 575.332 272.201 576.535 270.321C577.883 270.999 584.074 274.002 587.38 274.131C590.539 274.26 594.61 273.539 596.73 270.956C597.252 270.365 597.643 269.671 597.878 268.918C598.113 268.166 598.187 267.372 598.094 266.59C598.002 265.807 597.746 265.052 597.342 264.375C596.938 263.698 596.396 263.114 595.752 262.66C591.793 260.034 583.833 263.192 580.519 265.826C580.339 265.971 578.673 267.636 577.471 268.863C578.012 268.005 578.544 267.147 579.076 266.349C581.068 263.363 583.069 260.746 584.864 258.447C585.886 257.143 586.847 255.993 587.757 254.92C589.423 254.92 596.138 254.689 599.075 253.307C602.011 251.926 605.214 249.455 605.944 246.177C606.133 245.413 606.159 244.617 606.02 243.841C605.881 243.066 605.58 242.329 605.137 241.677C604.694 241.026 604.119 240.475 603.449 240.06C602.778 239.645 602.028 239.376 601.247 239.27C596.524 238.756 590.943 245.225 589.226 249.095C589.08 249.429 587.354 254.929 587.44 254.92H587.534C586.675 255.933 585.697 257.031 584.692 258.249C582.846 260.523 580.776 263.097 578.681 266.057C576.429 269.218 574.361 272.507 572.49 275.907C570.378 279.705 568.61 283.685 567.21 287.799C567.191 287.849 567.177 287.901 567.167 287.953C567.167 286.563 567.167 282.677 567.089 282.376C566.54 278.181 563.019 270.364 558.348 269.506C557.569 269.386 556.773 269.431 556.013 269.639C555.252 269.846 554.544 270.21 553.933 270.709C553.323 271.207 552.824 271.828 552.469 272.531C552.114 273.235 551.911 274.005 551.874 274.792C551.599 278.129 554.02 281.467 556.382 283.578C559.044 285.954 566.437 288.254 567.021 288.434C565.7 292.651 564.658 296.95 563.904 301.304C563.449 303.878 563.045 306.409 562.727 309.026C562.727 307.825 562.727 306.752 562.667 306.606C562.118 302.402 558.597 294.594 553.926 293.736C553.147 293.614 552.35 293.656 551.589 293.862C550.827 294.067 550.117 294.431 549.506 294.929C548.894 295.427 548.394 296.048 548.039 296.751C547.683 297.455 547.48 298.226 547.443 299.013C547.177 302.351 549.598 305.688 551.96 307.799C554.321 309.91 560.615 312.029 562.264 312.561C562.143 313.548 562.006 314.543 561.886 315.53C561.319 320.291 560.77 325.045 560.091 329.687C559.851 331.325 559.559 332.93 559.233 334.534C559.233 333.47 559.233 332.569 559.172 332.432C558.631 328.228 555.111 320.42 550.44 319.562C549.66 319.441 548.863 319.485 548.102 319.691C547.34 319.898 546.631 320.262 546.019 320.761C545.408 321.259 544.908 321.881 544.553 322.585C544.197 323.289 543.994 324.06 543.957 324.847C543.682 328.185 546.112 331.523 548.473 333.633C550.835 335.744 556.519 337.649 558.494 338.292C558.151 339.922 557.807 341.561 557.395 343.131C557.094 344.195 556.871 345.242 556.536 346.297C556.201 347.353 555.858 348.391 555.523 349.421C554.81 351.377 554.089 353.402 553.342 355.298C552.835 356.611 552.329 357.872 551.822 359.124C552.08 357.494 552.518 354.303 552.518 354.028C552.471 350.301 551.465 346.649 549.598 343.423C549.607 343.01 549.581 342.597 549.521 342.188C549.423 341.406 549.161 340.653 548.753 339.979C548.344 339.305 547.798 338.724 547.15 338.275C546.502 337.826 545.766 337.518 544.991 337.371C544.216 337.225 543.419 337.244 542.652 337.426C538.058 338.644 535.155 346.692 534.924 350.922C534.924 351.171 535.078 353.891 535.207 355.607C534.975 354.611 534.761 353.642 534.511 352.621C534.031 350.587 533.49 348.58 532.923 346.418C532.608 345.382 532.29 344.335 531.97 343.277C531.678 342.23 531.231 341.149 530.862 340.077C529.952 337.597 528.913 335.126 527.814 332.664C529.591 332.235 535.868 330.639 538.393 328.7C540.917 326.761 543.545 323.629 543.545 320.274C543.566 319.487 543.422 318.704 543.121 317.976C542.82 317.248 542.369 316.591 541.797 316.049C541.225 315.507 540.545 315.091 539.802 314.828C539.059 314.566 538.268 314.463 537.482 314.526C532.76 315.04 528.664 322.557 527.805 326.701C527.754 326.958 527.47 330.004 527.35 331.686C526.68 330.21 526.011 328.734 525.281 327.258C523.169 323.02 520.902 318.79 518.661 314.551C517.974 313.256 517.304 311.977 516.625 310.665C517.261 310.519 524.774 308.777 527.599 306.606C530.107 304.684 532.751 301.536 532.751 298.181C532.772 297.393 532.626 296.61 532.324 295.883C532.022 295.155 531.57 294.499 530.997 293.958C530.425 293.416 529.744 293.001 529 292.74C528.257 292.479 527.466 292.377 526.68 292.441C521.966 292.947 517.871 300.463 517.012 304.607C516.943 304.925 516.548 309.309 516.505 310.424C515.02 307.567 513.56 304.702 512.212 301.844C510.409 297.965 508.86 293.973 507.575 289.892C507.876 289.824 515.715 288.039 518.609 285.826C521.125 283.895 523.761 280.746 523.761 277.4C523.784 276.612 523.641 275.828 523.34 275.1C523.039 274.371 522.588 273.714 522.016 273.171C521.444 272.629 520.764 272.213 520.02 271.951C519.276 271.689 518.485 271.587 517.699 271.651C512.976 272.158 508.88 279.674 508.022 283.826C507.962 284.152 507.532 288.863 507.515 289.721C507.446 289.489 507.343 289.249 507.275 289.017C506.109 284.877 505.313 280.642 504.896 276.362C504.63 274.002 504.51 271.737 504.441 269.498C505.935 269.318 512.761 268.408 515.604 266.701C518.446 264.993 521.314 262.222 521.657 258.884C521.764 258.104 521.704 257.31 521.484 256.554C521.263 255.798 520.886 255.097 520.377 254.496C519.868 253.894 519.238 253.407 518.528 253.065C517.818 252.723 517.044 252.533 516.256 252.509C511.508 252.509 506.613 259.519 505.308 263.552C505.231 263.766 504.759 266.074 504.45 267.756C504.45 266.761 504.398 265.731 504.45 264.779C504.45 261.192 504.681 257.915 504.905 254.998C505.051 253.35 505.205 251.857 505.377 250.467C506.751 249.524 512.246 245.645 513.964 242.883C515.681 240.12 516.96 236.276 515.724 233.162C515.46 232.42 515.042 231.741 514.499 231.171C513.955 230.601 513.297 230.152 512.568 229.852C511.839 229.553 511.056 229.41 510.268 229.433C509.48 229.457 508.706 229.645 507.996 229.987C503.771 232.166 502.664 240.652 503.359 244.83C503.428 245.191 505.016 250.725 505.076 250.682L505.154 250.622C504.965 251.96 504.784 253.402 504.621 254.972C504.329 257.881 504.029 261.167 503.943 264.77C503.807 268.648 503.902 272.53 504.226 276.396C504.557 280.742 505.278 285.049 506.382 289.266C506.382 289.309 506.382 289.361 506.382 289.412C505.635 288.237 503.436 285.028 503.239 284.805C500.465 281.596 493.227 277.04 488.856 278.893C488.139 279.222 487.499 279.697 486.978 280.289C486.457 280.881 486.066 281.576 485.832 282.328C485.597 283.081 485.523 283.874 485.615 284.657C485.707 285.44 485.963 286.195 486.366 286.872C487.894 289.815 491.758 291.265 494.893 291.72Z" fill="#237BFF"/>
<path d="M576.302 269.412C576.371 269.463 577.814 263.878 577.865 263.518C578.449 259.322 577.11 250.871 572.834 248.811C572.114 248.488 571.335 248.32 570.547 248.318C569.759 248.316 568.979 248.479 568.258 248.798C567.537 249.117 566.891 249.584 566.363 250.169C565.835 250.754 565.435 251.443 565.191 252.192C564.049 255.341 565.501 259.202 567.218 261.853C569.236 264.993 576.294 269.412 576.302 269.412Z" fill="#237BFF"/>
<g opacity="0.3">
<path opacity="0.3" d="M112.296 206.443C117.878 208.228 130.921 206.572 130.929 206.572C131.067 206.572 127.229 198.318 126.928 197.82C123.442 192.123 113.344 183.166 106.071 184.95C100.825 186.212 98.4204 191.814 100.138 196.714C101.855 201.613 107.539 204.933 112.296 206.443Z" stroke="black" stroke-linecap="round" stroke-linejoin="round"/>
<path opacity="0.3" d="M196.154 293.513C199.331 290.081 202.164 285.354 201.632 280.703C201.057 275.555 196.48 271.54 191.182 272.672C183.857 274.243 178.654 286.692 177.984 293.342C177.984 293.754 177.984 298.575 178.087 301.227C176.791 299.022 175.511 296.817 174.12 294.629C170.119 288.305 165.877 282.042 161.669 275.753C160.373 273.831 159.093 271.9 157.84 269.978C158.424 269.781 162.734 268.262 166.993 266.315" stroke="black" stroke-linecap="round" stroke-linejoin="round"/>
<path opacity="0.3" d="M187.026 318.181C186.408 316.739 185.635 315.281 184.957 313.814C183.128 310.073 181.102 306.366 178.946 302.66C183.143 301.213 187.22 299.44 191.139 297.357" stroke="black" stroke-linecap="round" stroke-linejoin="round"/>
<path opacity="0.3" d="M242.144 250.536C240.32 251.882 238.658 253.434 237.189 255.161C236.872 255.547 233.119 261.39 232.235 262.883C232.235 257.803 232.304 252.741 232.561 247.756C232.88 241.017 233.631 234.305 234.811 227.662C235.274 227.782 247.545 231.008 253.212 230.021C258.132 229.163 264.16 226.692 266.573 221.99C268.986 217.289 267.311 211.497 262.28 209.532C255.307 206.812 244.102 214.328 239.877 219.502C239.542 219.905 235.506 226.195 234.854 227.387C234.931 227.001 234.957 226.598 235.034 226.212C236.409 219.585 238.368 213.093 240.89 206.812C242.247 203.32 243.732 200.068 245.244 196.928C247.468 197.786 257.677 201.476 262.872 201.141C267.861 200.823 274.121 199.039 277.031 194.637C279.942 190.236 278.912 184.281 274.138 181.767C267.509 178.335 255.539 184.53 250.773 189.215C250.507 189.464 248.197 192.346 246.48 194.466C247.184 193.059 247.888 191.6 248.592 190.262C251.22 185.251 253.933 180.824 256.372 176.928C257.772 174.723 259.085 172.75 260.339 170.922C262.915 170.605 273.451 169.206 277.83 166.555C282.209 163.904 286.795 159.588 287.387 154.32C287.979 149.052 284.287 144.264 278.895 144.247C271.407 144.247 263.662 155.264 261.584 161.621C261.404 162.171 259.592 171.059 259.721 171.059H259.884C258.647 172.775 257.308 174.672 255.96 176.748C253.427 180.609 250.61 184.985 247.863 189.953C244.844 195.28 242.138 200.777 239.757 206.418C237.061 212.723 234.931 219.255 233.394 225.937C233.394 226.014 233.394 226.1 233.394 226.177C233.205 223.998 232.475 217.906 232.364 217.443C230.827 210.948 224.026 199.288 216.564 198.696C211.189 198.267 207.119 202.857 207.265 208.031C207.411 213.204 211.721 218.155 215.766 221.081C220.334 224.376 232.304 226.778 233.257 226.975C231.859 233.809 230.921 240.729 230.449 247.687C230.157 251.746 229.985 255.838 229.856 259.948C229.633 258.061 229.418 256.379 229.367 256.147C227.83 249.644 221.029 237.992 213.567 237.4C208.192 236.971 204.122 241.561 204.268 246.735C204.414 251.909 208.725 256.859 212.769 259.777C216.813 262.694 227.04 265.002 229.736 265.568C229.736 267.138 229.659 268.717 229.633 270.287C229.513 277.846 229.427 285.397 229.118 292.793C229.015 295.367 228.809 297.941 228.62 300.515C228.414 298.799 228.233 297.434 228.182 297.228C226.645 290.725 219.853 279.073 212.391 278.472C207.007 278.052 202.946 282.642 203.083 287.808C203.22 292.973 207.54 297.941 211.584 300.858C215.628 303.775 224.867 305.86 228.07 306.538C227.795 309.163 227.521 311.789 227.134 314.311C226.834 316.027 226.662 317.743 226.276 319.459C225.889 321.175 225.554 322.84 225.202 324.513C224.404 327.696 223.597 330.991 222.738 334.088C222.163 336.242 221.562 338.284 221.021 340.334C221.158 337.76 221.321 332.664 221.287 332.235C220.596 326.398 218.42 320.836 214.967 316.079C214.918 315.426 214.809 314.78 214.641 314.148C213.301 309.155 208.132 305.877 203.092 307.79C196.094 310.45 192.839 323.543 193.191 330.218C193.191 330.605 193.913 334.852 194.393 337.52C193.87 336.001 193.38 334.508 192.822 332.947C191.74 329.841 190.564 326.778 189.31 323.509" stroke="black" stroke-linecap="round" stroke-linejoin="round"/>
<path opacity="0.3" d="M153.409 311.111C155.94 312.044 158.604 312.568 161.3 312.664C166.126 312.861 175.133 309.506 178.182 308.314C179.401 310.656 180.62 312.99 181.694 315.315C182.389 316.919 183.171 318.412 183.78 320.06C184.39 321.707 185.051 323.277 185.678 324.865C186.768 327.962 187.919 331.154 188.906 334.208C189.611 336.327 190.246 338.352 190.89 340.394C189.576 338.155 186.906 333.831 186.64 333.487C182.518 328.236 171.458 320.497 164.434 323.08C159.368 324.942 157.625 330.802 159.901 335.452C162.176 340.103 168.187 342.78 173.09 343.741C178.482 344.787 189.911 342.136 191.336 341.793C192.384 345.173 193.38 348.477 194.265 351.608C194.923 353.925 195.541 356.156 196.119 358.301L200.756 357.82C200.061 355.435 199.322 352.947 198.515 350.347C197.459 346.915 196.265 343.252 195.003 339.511C198.343 337.754 201.577 335.803 204.689 333.668C208.931 337.4 219.192 341.209 220.523 341.699C219.535 345.131 218.539 348.4 217.543 351.497C217.028 353.144 216.513 354.697 216.006 356.233L220.909 355.727C221.201 354.757 221.493 353.805 221.768 352.792C222.781 349.36 223.803 345.637 224.816 341.819C226.25 341.965 237.954 343.097 243.166 341.347C247.897 339.751 253.47 336.396 255.187 331.394C256.904 326.392 254.328 320.901 249.056 319.725C241.757 318.086 231.814 327.215 228.448 332.973C228.242 333.307 226.49 337.263 225.417 339.734C225.821 338.172 226.233 336.653 226.628 335.04C227.443 331.857 228.148 328.657 228.929 325.216C229.247 323.5 229.573 321.844 229.891 320.137C230.208 318.43 230.414 316.619 230.689 314.843C231.23 310.716 231.548 306.512 231.831 302.265C234.622 302.96 244.574 305.302 249.52 304.444C254.466 303.586 260.459 301.115 262.872 296.422C265.285 291.729 263.61 285.92 258.579 283.955C251.606 281.235 240.392 288.751 236.167 293.925C235.901 294.251 233.291 298.301 231.874 300.557C232.003 297.983 232.149 295.452 232.2 292.835C232.355 285.362 232.269 277.795 232.2 270.244C232.2 267.928 232.2 265.62 232.2 263.312C233.197 263.578 244.96 266.615 250.499 265.645C255.419 264.787 261.438 262.325 263.851 257.623C266.264 252.921 264.589 247.13 259.558 245.165C256.277 243.887 252.061 244.873 248.077 246.812" stroke="black" stroke-linecap="round" stroke-linejoin="round"/>
<path opacity="0.3" d="M145.501 303.02C145.77 304.252 146.281 305.418 147.004 306.452C147.669 307.41 148.48 308.259 149.408 308.966" stroke="black" stroke-linecap="round" stroke-linejoin="round"/>
<path opacity="0.3" d="M122.79 243.723C128.74 243.089 137.799 239.433 138.606 239.082C141.211 245.552 144.246 251.841 147.691 257.906C149.683 261.458 151.795 264.968 153.959 268.46C152.731 267.01 151.632 265.723 151.452 265.56C146.583 260.986 134.476 255.015 127.924 258.627C123.202 261.201 122.369 267.293 125.348 271.548C128.328 275.804 134.656 277.554 139.637 277.743C144.617 277.932 154.423 274.234 156.99 273.213C157.849 274.543 158.656 275.881 159.506 277.211C163.585 283.578 167.681 289.918 171.527 296.259C172.876 298.49 174.103 300.738 175.383 302.986C174.292 301.707 173.365 300.635 173.202 300.48C168.333 295.907 156.226 289.935 149.674 293.548C148.187 294.365 146.988 295.62 146.24 297.143" stroke="black" stroke-linecap="round" stroke-linejoin="round"/>
<path opacity="0.3" d="M157.007 190.476C157.191 189.683 157.286 188.871 157.291 188.056C157.291 182.908 153.152 178.387 147.785 178.927C140.332 179.691 133.797 191.497 132.406 198.026C132.329 198.378 131.951 202.076 131.728 204.77C131.539 203.209 131.316 201.604 131.17 200.103C130.595 194.474 130.414 189.292 130.311 184.659C130.26 182.042 130.268 179.682 130.311 177.469C132.312 175.753 140.298 168.794 142.496 164.178C144.694 159.562 146.119 153.342 143.681 148.657C141.242 143.972 135.541 141.973 131.033 144.933C124.773 149.035 124.412 162.522 126.19 168.957C126.344 169.515 129.745 177.941 129.848 177.855L129.968 177.752C129.891 179.88 129.839 182.171 129.83 184.659C129.83 189.266 129.916 194.474 130.371 200.103C130.791 206.209 131.568 212.285 132.698 218.301C133.936 225.045 135.769 231.666 138.177 238.086C138.177 238.164 138.245 238.241 138.271 238.31C136.914 236.594 132.939 231.917 132.595 231.591C127.727 227.018 115.62 221.047 109.068 224.667C104.345 227.241 103.512 233.325 106.492 237.58C108.75 240.832 112.863 242.574 116.873 243.329" stroke="black" stroke-linecap="round" stroke-linejoin="round"/>
<path opacity="0.3" d="M170.222 264.71C171.722 263.932 173.121 262.972 174.387 261.853C178.019 258.421 181.685 253.05 181.102 247.799C180.518 242.548 175.95 238.644 170.652 239.777C163.327 241.347 158.124 253.796 157.462 260.437C157.411 260.944 157.505 267.876 157.608 269.644C154.818 265.397 152.07 261.141 149.528 256.842C146.07 251.042 142.992 245.024 140.315 238.824C140.761 238.67 152.783 234.594 156.964 230.648C160.588 227.216 164.255 221.845 163.671 216.594C163.087 211.343 158.519 207.43 153.221 208.563C145.896 210.133 140.701 222.582 140.032 229.232C139.98 229.755 140.083 237.22 140.195 238.567C140.04 238.215 139.843 237.855 139.697 237.494C137.181 231.208 135.233 224.71 133.875 218.078C133.076 214.431 132.518 210.896 132.046 207.439C134.364 206.915 144.926 204.376 149.073 201.235C151.087 199.733 152.869 197.944 154.363 195.924" stroke="black" stroke-linecap="round" stroke-linejoin="round"/>
<path opacity="0.3" d="M244.788 195.624C244.917 195.684 246.265 186.701 246.291 186.126C246.523 179.451 243.045 166.392 235.987 163.869C230.921 162.042 225.812 165.405 224.55 170.416C223.287 175.427 226.173 181.364 229.307 185.242C232.999 189.798 244.78 195.624 244.788 195.624Z" stroke="black" stroke-linecap="round" stroke-linejoin="round"/>
</g>
<g opacity="0.3">
<path opacity="0.3" d="M441.698 85.6284C446.361 87.5074 451.032 88.8116 451.041 88.8116C451.049 88.8116 450.843 79.794 450.8 79.1934C449.795 72.5954 443.931 60.4204 436.589 59.2192C431.265 58.3612 426.86 62.5997 426.551 67.7992C426.242 72.9986 430.166 78.2496 433.962 81.5272" stroke="black" stroke-linecap="round" stroke-linejoin="round"/>
<path opacity="0.3" d="M551.814 156.945C552.707 157.351 553.635 157.676 554.587 157.915C559.456 159.022 565.964 159.099 570.043 155.701C574.122 152.304 574.8 146.315 570.902 142.557C565.535 137.34 552.277 139.914 546.37 143.046C545.906 143.286 539.749 147.516 538.685 148.357C538.899 148.031 539.088 147.67 539.303 147.344C543.15 141.773 547.483 136.554 552.252 131.746C554.828 129.052 557.481 126.598 560.1 124.324C561.817 125.963 569.785 133.333 574.697 135.049C579.411 136.697 585.86 137.477 590.273 134.552C591.89 133.51 593.139 131.988 593.844 130.199C594.548 128.41 594.671 126.445 594.197 124.582" stroke="black" stroke-linecap="round" stroke-linejoin="round"/>
<path opacity="0.3" d="M481.91 50.1244C484.031 47.2329 485.559 43.8095 485.284 40.3775C484.863 35.2295 480.381 31.0682 475.075 32.0377C467.707 33.3934 462.135 45.6799 461.267 52.3037C461.199 52.87 461.053 61.9562 461.181 61.9219L461.336 61.8704C460.477 63.8095 459.498 65.8858 458.528 68.1853C456.751 72.4753 454.793 77.2629 453.007 82.6597C451.019 88.4498 449.373 94.3515 448.078 100.335C446.593 107.026 445.707 113.837 445.433 120.686C445.429 120.769 445.429 120.852 445.433 120.935C444.85 118.816 443.003 112.973 442.857 112.535C440.144 106.435 431.317 96.2333 423.872 97.0226C418.506 97.5889 415.38 102.848 416.445 107.911C417.51 112.973 422.696 117.04 427.213 119.168C432.304 121.561 444.515 121.742 445.485 121.742C445.365 128.715 445.707 135.688 446.507 142.617C446.962 146.658 447.546 150.708 448.224 154.766C447.657 152.956 447.134 151.334 447.039 151.128C444.326 145.019 435.49 134.826 428.045 135.607C422.687 136.182 419.562 141.441 420.627 146.495C421.691 151.549 426.878 155.633 431.394 157.752C435.911 159.871 446.378 160.257 449.134 160.326C449.401 161.879 449.641 163.432 449.907 164.985C451.187 172.441 452.483 179.871 453.556 187.198C453.934 189.772 454.209 192.346 454.492 194.92C453.986 193.307 453.548 191.96 453.453 191.763C450.749 185.654 441.913 175.461 434.468 176.242C429.11 176.817 425.985 182.076 427.049 187.13C428.114 192.183 433.301 196.268 437.817 198.387C442.188 200.446 451.788 200.858 455.059 200.961C455.274 203.595 455.488 206.22 455.574 208.777C455.574 210.493 455.737 212.209 455.66 213.925C455.583 215.641 455.574 217.357 455.54 219.073C455.343 222.351 455.154 225.74 454.887 228.932C454.707 231.162 454.501 233.273 454.304 235.409C453.96 232.835 453.179 227.808 453.067 227.396C451.35 220.952 444.128 209.524 436.649 209.18C431.24 208.923 427.359 213.642 427.616 218.79C427.874 223.938 432.408 228.76 436.546 231.54C441.114 234.612 452.672 236.594 454.123 236.834C453.771 240.36 453.402 243.784 453.007 247.018C452.715 249.403 452.414 251.703 452.105 253.882L456.57 255.238C456.862 252.778 457.149 250.204 457.429 247.516C457.798 243.938 458.116 240.103 458.408 236.165C462.157 235.84 465.884 235.298 469.571 234.543C472.035 239.622 480.012 247.121 481.042 248.082C478.81 250.836 476.612 253.488 474.491 255.959C473.375 257.271 472.301 258.533 471.236 259.725L475.95 261.158L477.9 258.799C480.184 256.019 482.562 252.99 484.984 249.867C486.237 250.562 496.584 256.147 502.071 256.551C507.051 256.92 513.5 256.001 516.986 252.038C520.472 248.074 520.266 242.033 515.87 238.91C509.782 234.56 497.074 239.116 491.707 243.097C491.389 243.337 488.272 246.272 486.289 248.159C487.268 246.872 488.238 245.637 489.225 244.307C491.209 241.69 493.115 239.013 495.167 236.139L498.027 231.849C499.014 230.424 499.873 228.803 500.817 227.276C502.921 223.681 504.87 219.94 506.759 216.122C509.061 217.838 517.321 223.844 522.215 224.993C527.11 226.143 533.593 226.177 537.671 222.78C541.75 219.382 542.428 213.393 538.53 209.635C533.163 204.419 519.914 206.993 514.007 210.124C513.637 210.322 509.653 213.041 507.489 214.577C508.606 212.278 509.73 209.987 510.787 207.619C513.835 200.755 516.703 193.788 519.588 186.812C520.447 184.676 521.383 182.522 522.284 180.429C523.143 181.055 532.76 188.425 538.238 189.678C543.098 190.793 549.616 190.862 553.694 187.464C557.773 184.067 558.451 178.086 554.553 174.328C549.186 169.112 535.937 171.686 530.029 174.809C529.583 175.049 523.856 178.97 522.447 180.043C524.431 175.358 526.449 170.716 528.63 166.22C531.538 160.133 534.84 154.24 538.513 148.58C541.52 150.871 544.657 152.988 547.907 154.92" stroke="black" stroke-linecap="round" stroke-linejoin="round"/>
<path opacity="0.3" d="M474.611 89.232C478.002 87.6447 481.145 85.2423 482.545 81.9219C484.554 77.16 482.485 71.4028 477.333 69.8241C470.171 67.6276 459.558 75.9673 455.737 81.45C455.523 81.7503 453.745 85.0107 452.483 87.4045C452.921 85.8944 453.342 84.3243 453.788 82.8828C455.445 77.4774 457.3 72.6297 458.94 68.3483C459.91 65.9202 460.838 63.7408 461.731 61.716C464.238 60.918 474.293 57.5976 478.114 54.1999C478.492 53.8653 478.861 53.5135 479.23 53.1445" stroke="black" stroke-linecap="round" stroke-linejoin="round"/>
<path opacity="0.3" d="M591.87 120.789C586.572 115.916 574.105 117.031 568.188 119.374C567.853 119.511 564.565 121.253 562.178 122.548C563.371 121.527 564.591 120.455 565.758 119.502C570.129 115.907 574.345 112.878 578.106 110.227C580.261 108.743 582.236 107.439 584.117 106.238C586.641 106.958 596.868 109.73 601.934 109C607 108.271 612.968 106.006 615.527 101.381C618.085 96.7567 616.574 90.9137 611.611 88.803C604.742 85.8686 593.296 93.093 588.917 98.0952C588.539 98.5327 583.395 106.032 583.533 106.066H583.687C581.867 107.19 579.935 108.408 577.857 109.79C574.027 112.364 569.725 115.298 565.26 118.816C560.409 122.548 555.778 126.559 551.393 130.828C546.459 135.593 541.959 140.788 537.946 146.349L537.817 146.555C538.496 144.47 540.187 138.576 540.264 138.112C541.372 131.523 539.638 118.147 532.992 114.697C528.209 112.218 522.688 114.886 520.79 119.691C518.892 124.496 520.962 130.751 523.555 135.015C526.483 139.82 536.581 146.684 537.379 147.233C533.437 152.995 529.886 159.014 526.749 165.251C524.894 168.88 523.143 172.578 521.434 176.319C521.966 174.491 522.421 172.887 522.456 172.63C523.563 166.04 521.838 152.664 515.191 149.215C510.4 146.735 504.887 149.404 502.99 154.208C501.092 159.013 503.162 165.268 505.755 169.532C508.348 173.796 516.917 179.88 519.141 181.45C518.497 182.891 517.845 184.316 517.209 185.74C514.161 192.664 511.147 199.579 507.987 206.28C506.88 208.64 505.695 210.922 504.553 213.213C505.016 211.591 505.411 210.227 505.411 210.013C506.519 203.423 504.784 190.047 498.138 186.606C493.347 184.127 487.834 186.787 485.937 191.591C484.039 196.396 486.108 202.651 488.702 206.915C491.209 211.042 499.006 216.679 501.685 218.55C500.405 220.858 499.109 223.174 497.795 225.354C496.85 226.821 496.035 228.297 495.004 229.721L492.016 234.011C490.041 236.636 488.023 239.365 486.005 241.879C484.631 243.595 483.283 245.311 481.944 246.958C483.077 244.616 485.207 240 485.336 239.588C486.974 233.943 487.133 227.972 485.799 222.248C486.007 221.628 486.16 220.99 486.254 220.343C486.958 215.195 483.472 210.193 478.08 210.004C470.601 209.738 462.512 220.549 460.237 226.829C460.099 227.198 459.095 231.377 458.519 234.028C458.622 232.424 458.751 230.862 458.846 229.198C459.052 225.92 459.155 222.642 459.292 219.116C459.292 217.4 459.292 215.684 459.292 213.968C459.292 212.252 459.155 210.416 459.095 208.623C458.863 204.47 458.425 200.266 457.893 196.044C460.769 196.225 470.987 196.688 475.684 194.929C480.381 193.17 485.877 189.618 487.379 184.556C488.882 179.494 486.169 174.105 480.871 173.102C473.512 171.712 463.878 181.167 460.683 187.027C460.477 187.396 458.657 191.857 457.704 194.337C457.369 191.763 457.043 189.266 456.613 186.709C455.385 179.339 453.908 171.917 452.466 164.504C452.028 162.231 451.607 159.966 451.186 157.7C452.217 157.769 464.341 158.558 469.605 156.619C474.276 154.903 479.746 151.334 481.248 146.272C482.751 141.21 480.038 135.821 474.74 134.818C467.381 133.428 457.747 142.883 454.552 148.743C454.312 149.189 451.693 155.607 451.118 157.323C450.19 152.321 449.315 147.336 448.645 142.385C447.712 135.703 447.213 128.968 447.151 122.222C447.632 122.222 460.288 123.166 465.672 121.15C470.352 119.434 475.813 115.864 477.316 110.802C478.818 105.74 476.105 100.352 470.807 99.3478C463.448 97.9579 453.823 107.404 450.62 113.273C450.371 113.736 447.563 120.652 447.185 121.948C447.185 121.553 447.142 121.15 447.142 120.755C447.274 113.989 448.004 107.247 449.323 100.609C450.01 96.9369 450.869 93.462 451.779 90.0986C454.114 90.5104 464.831 92.2693 469.88 90.9566C470.506 90.7936 471.15 90.6134 471.794 90.3903" stroke="black" stroke-linecap="round" stroke-linejoin="round"/>
<path opacity="0.3" d="M560.22 122.908C560.314 123.011 565.054 115.255 565.295 114.732C568.102 108.674 569.974 95.3066 564.436 90.2359C560.477 86.5808 554.458 87.6619 551.35 91.8317C548.241 96.0016 548.594 102.54 549.967 107.336C551.616 112.973 560.22 122.9 560.22 122.908Z" stroke="black" stroke-linecap="round" stroke-linejoin="round"/>
</g>
<path d="M294.385 172.887H567.733L532.356 368.854H259.008L294.385 172.887Z" fill="white" stroke="#263238" stroke-linecap="round" stroke-linejoin="round"/>
<path d="M562.263 172.887L545.253 267.13L529.548 354.14L526.886 368.863H253.547L279.959 222.548L288.924 172.887H562.263Z" fill="#263238" stroke="#263238" stroke-linecap="round" stroke-linejoin="round"/>
<path d="M296.386 179.03H552.586L519.424 362.711H263.224L296.386 179.03Z" fill="#237BFF" stroke="#263238" stroke-linecap="round" stroke-linejoin="round"/>
<path d="M265.817 348.348L263.224 362.711H519.425L522.018 348.348H265.817Z" fill="#BFBFBF" stroke="#263238" stroke-linecap="round" stroke-linejoin="round"/>
<path d="M544.996 179.03L511.834 362.711H519.425L552.586 179.03H544.996Z" fill="#BFBFBF" stroke="#263238" stroke-linecap="round" stroke-linejoin="round"/>
<path d="M540.531 245.783L546.979 210.047H539.397L532.94 245.783H540.531Z" fill="#A1A1A1" stroke="#263238" stroke-linecap="round" stroke-linejoin="round"/>
<path d="M528.174 355.881H192.642V368.854H528.174V355.881Z" fill="white" stroke="#263238" stroke-linecap="round" stroke-linejoin="round"/>
<path d="M240.487 355.881H75.7944V368.854H240.487V355.881Z" fill="#263238" stroke="#263238" stroke-linecap="round" stroke-linejoin="round"/>
<path d="M294.042 192.003H550.242L552.586 179.03H296.386L294.042 192.003Z" fill="#BFBFBF" stroke="#263238" stroke-linecap="round" stroke-linejoin="round"/>
<path d="M310.167 187.962H432.201L433.317 181.776H311.284L310.167 187.962Z" fill="white" stroke="#263238" stroke-linecap="round" stroke-linejoin="round"/>
<path opacity="0.2" d="M304.191 250.656H398.825L386.58 318.507H291.947L304.191 250.656Z" fill="black"/>
<path d="M298.352 244.384H392.995L380.75 312.226H286.108L298.352 244.384Z" fill="white" stroke="#263238" stroke-linecap="round" stroke-linejoin="round"/>
<path d="M391.561 252.286L392.995 244.384H298.353L296.927 252.286H391.561Z" fill="#263238" stroke="#263238" stroke-linecap="round" stroke-linejoin="round"/>
<path d="M387.748 248.511C387.75 248.975 387.614 249.429 387.357 249.816C387.1 250.202 386.734 250.504 386.305 250.682C385.877 250.86 385.405 250.908 384.949 250.817C384.493 250.727 384.075 250.504 383.747 250.176C383.418 249.848 383.195 249.43 383.105 248.975C383.015 248.519 383.062 248.048 383.24 247.619C383.419 247.191 383.72 246.825 384.107 246.569C384.494 246.312 384.948 246.176 385.413 246.177C386.032 246.177 386.626 246.423 387.064 246.861C387.502 247.299 387.748 247.892 387.748 248.511Z" fill="white" stroke="#263238" stroke-linecap="round" stroke-linejoin="round"/>
<path d="M335.052 259.82C339.654 260.489 341.105 264.17 340.066 269.403L339.86 270.459H335.79L336.056 269.12C336.735 265.688 335.764 263.552 332.622 263.552C329.479 263.552 327.744 265.671 327.066 269.12C325.349 277.863 338.426 277.923 336.262 288.854C335.232 294.088 332.261 297.82 327.392 298.49L326.808 301.441H323.245L323.829 298.49C319.115 297.82 317.664 294.14 318.677 288.854L319.149 286.46H323.219L322.695 289.129C322 292.638 323.056 294.646 326.182 294.646C329.307 294.646 331.145 292.638 331.832 289.129C333.549 280.446 320.532 280.334 322.695 269.395C323.743 264.05 326.611 260.54 331.437 259.811L332.055 256.696H335.618L335.052 259.82Z" fill="#263238"/>
<path d="M343.896 293.239L342.832 298.644H338.65L339.715 293.239H343.896ZM342.668 277.992L346.283 259.674H350.628L347.013 277.992L344.085 290.004H340.891L342.668 277.992Z" fill="#263238"/>
<path d="M352.698 293.239L351.633 298.644H347.451L348.516 293.239H352.698ZM351.478 277.992L355.085 259.674H359.438L355.823 277.992L352.912 290.004H349.675L351.478 277.992Z" fill="#263238"/>
<path opacity="0.2" d="M545.254 267.13L529.549 354.139H431.532L447.245 267.13H545.254Z" fill="black"/>
<path d="M440.058 261.295H561.422L545.717 348.305H424.353L440.058 261.295Z" fill="white" stroke="#263238" stroke-linecap="round" stroke-linejoin="round"/>
<path d="M559.593 271.437L561.422 261.295H440.058L438.229 271.437H559.593Z" fill="#263238" stroke="#263238" stroke-linecap="round" stroke-linejoin="round"/>
<path d="M554.699 266.598C554.699 267.192 554.522 267.773 554.192 268.267C553.861 268.761 553.391 269.146 552.841 269.373C552.292 269.6 551.687 269.659 551.104 269.542C550.521 269.426 549.985 269.139 549.565 268.718C549.145 268.297 548.86 267.761 548.745 267.178C548.63 266.595 548.69 265.991 548.919 265.443C549.148 264.894 549.535 264.426 550.03 264.097C550.525 263.768 551.107 263.593 551.702 263.595C552.096 263.595 552.487 263.672 552.851 263.824C553.215 263.975 553.546 264.196 553.824 264.475C554.102 264.754 554.323 265.085 554.473 265.449C554.623 265.814 554.7 266.204 554.699 266.598Z" fill="white" stroke="#263238" stroke-linecap="round" stroke-linejoin="round"/>
<path d="M452.56 304.118C453.515 302.806 454.77 301.741 456.22 301.012C457.671 300.284 459.275 299.913 460.898 299.931C467.398 299.931 469.347 304.693 467.922 311.943L465.973 321.836C464.453 329.558 459.773 334.603 452.045 334.603C444.317 334.603 441.741 329.558 443.227 321.836L443.897 318.404H449.169L448.43 322.162C447.572 326.709 448.868 329.446 452.913 329.446C456.957 329.446 459.378 326.709 460.271 322.162L462.203 312.312C463.105 307.765 461.765 305.019 457.721 305.019C454.621 305.019 452.183 306.735 450.946 310.433L450.723 311.591H445.451L452.363 283.518H472.267L471.271 288.571H456.416L452.56 304.118Z" fill="#263238"/>
<path d="M476.096 295.744C477.616 288.022 482.433 283.046 490.153 283.046C497.872 283.046 500.8 288.031 499.28 295.744L494.128 321.801C492.608 329.523 487.783 334.569 479.986 334.569C472.189 334.569 469.424 329.523 470.953 321.801L476.096 295.744ZM476.448 322.162C475.59 326.709 476.964 329.446 481.008 329.446C485.052 329.446 487.542 326.709 488.435 322.162L493.733 295.461C494.643 290.836 493.304 288.099 489.182 288.099C485.061 288.099 482.648 290.836 481.738 295.461L476.448 322.162Z" fill="#263238"/>
<path d="M510.477 287.919L509.189 294.654C508.786 296.731 507.532 298.086 505.463 298.086C503.393 298.086 502.681 296.714 503.093 294.654L504.424 287.919C504.827 285.877 506.072 284.487 508.15 284.487C510.228 284.487 510.907 285.877 510.477 287.919ZM518.205 284.599L505.574 305.937H504.14L516.746 284.599H518.205ZM505.944 287.825L504.578 294.774C504.346 295.933 504.578 296.696 505.72 296.696C506.862 296.696 507.438 295.933 507.627 294.774L509 287.825C509.224 286.666 508.923 285.877 507.858 285.877C506.794 285.877 506.15 286.666 505.918 287.825H505.944ZM519.425 295.873L518.102 302.582C517.699 304.65 516.479 306.014 514.376 306.014C512.272 306.014 511.594 304.641 512.006 302.582L513.328 295.873C513.732 293.831 514.977 292.441 517.046 292.441C519.116 292.441 519.802 293.831 519.399 295.873H519.425ZM514.865 295.787L513.483 302.702C513.251 303.861 513.551 304.65 514.616 304.65C515.681 304.65 516.333 303.861 516.531 302.702L517.896 295.787C518.12 294.629 517.819 293.865 516.746 293.865C515.672 293.865 515.071 294.629 514.839 295.787H514.865Z" fill="#263238"/>
<path d="M497.812 313.865C498.671 309.704 501.247 307.001 505.394 307.001C509.542 307.001 511.13 309.678 510.306 313.865L507.532 327.945C506.674 332.072 504.098 334.809 499.916 334.809C495.734 334.809 494.223 332.089 495.039 327.945L497.812 313.865ZM498.001 328.108C497.512 330.596 498.276 332.029 500.457 332.029C502.638 332.029 503.969 330.596 504.467 328.108L507.301 313.711C507.79 311.265 507.069 309.781 504.845 309.781C502.621 309.781 501.324 311.265 500.843 313.711L498.001 328.108Z" fill="#263238"/>
<path d="M521.288 319.974L520.747 322.737H514.479L512.152 334.526H509.112L514.488 307.293H525.307L524.766 310.055H516.978L515.02 319.974H521.288Z" fill="#263238"/>
<path d="M534.52 319.974L533.979 322.737H527.711L525.384 334.526H522.353L527.72 307.293H538.539L537.998 310.055H530.21L528.261 319.974H534.52Z" fill="#263238"/>
<path opacity="0.2" d="M356.132 172.887L347.168 222.548H279.96L288.924 172.887H356.132Z" fill="black"/>
<path d="M229.273 122.265H358.502L341.784 214.92H212.546L229.273 122.265Z" fill="white" stroke="#263238" stroke-linecap="round" stroke-linejoin="round"/>
<path d="M303.342 122.265L295.863 131.325L295.33 122.265H292.66L288.263 130.159L286.151 122.265H283.214L280.449 130.519L276.259 122.265H274.087L272.739 132.398L264.547 122.325L265.406 135.701L255.265 127.585L258.751 140.317L247.039 134.474L253.024 146.075L240.195 142.72L248.447 152.741L234.992 152.003L245.184 160.06L231.626 161.973L243.372 167.756L230.226 172.244L243.089 175.53L230.853 182.419L244.325 183.08L233.48 192.106L247.039 190.124L238.006 200.944L251.135 196.388L244.257 208.58L256.458 201.63L251.993 214.732L262.787 205.645L261.499 214.92H264.41L269.888 208.288L270.283 214.92H274.439L277.496 209.446L278.955 214.92H283.352L285.301 209.086L288.272 214.92H291.99L293.02 207.216L299.289 214.92H301.057L300.345 203.904L310.494 212.02L306.999 199.288L318.72 205.139L312.727 193.53L325.564 196.894L317.312 186.872L330.767 187.61L320.566 179.545L334.133 177.64L322.378 171.857L335.524 167.37L322.67 164.084L334.898 157.194L321.434 156.525L332.27 147.499L318.712 149.481L327.745 138.661L314.616 143.226L321.494 131.025L309.301 137.984L313.766 124.873L302.972 133.96L304.595 122.265H303.342Z" fill="white" stroke="#263238" stroke-linecap="round" stroke-linejoin="round"/>
<path d="M356.553 133.067L358.502 122.265H229.273L227.324 133.067H356.553Z" fill="#263238" stroke="#263238" stroke-linecap="round" stroke-linejoin="round"/>
<path d="M351.35 127.911C351.351 128.544 351.165 129.164 350.813 129.692C350.462 130.219 349.962 130.631 349.376 130.874C348.791 131.118 348.146 131.182 347.524 131.058C346.902 130.935 346.33 130.63 345.882 130.182C345.433 129.734 345.128 129.163 345.005 128.541C344.882 127.92 344.946 127.276 345.189 126.691C345.433 126.105 345.845 125.606 346.373 125.255C346.901 124.904 347.521 124.717 348.155 124.719C349.002 124.719 349.815 125.055 350.414 125.654C351.013 126.252 351.35 127.064 351.35 127.911Z" fill="white" stroke="#263238" stroke-linecap="round" stroke-linejoin="round"/>
<path d="M264.821 155.693C269.338 155.693 270.695 157.846 269.853 162.111L269.587 163.475C268.977 166.538 267.732 168.443 265.053 169.232C267.715 170.021 268.35 172.252 267.724 175.444L267.234 177.881C266.376 182.231 263.8 184.676 259.274 184.676H252.603L258.313 155.693H264.821ZM259.85 181.733C262.211 181.733 263.533 180.489 264.066 177.803L264.572 175.229C265.208 172.003 264.134 170.939 261.361 170.939H258.545L256.415 181.742L259.85 181.733ZM261.61 168.005C264.186 168.005 265.663 167.147 266.264 164.153L266.599 162.437C267.105 159.863 266.479 158.627 264.16 158.627H260.966L259.12 167.979L261.61 168.005Z" fill="#263238"/>
<path d="M273.254 177.838C272.738 180.412 273.468 182.025 275.83 182.025C278.191 182.025 279.496 180.446 280.011 177.838L284.373 155.693H287.404L283.06 177.675C282.201 182.068 279.625 185.002 275.117 185.002C270.609 185.002 269.235 182.068 270.094 177.675L274.43 155.693H277.624L273.254 177.838Z" fill="#263238"/>
<path d="M292.059 174.286L289.594 155.693H292.952L294.669 169.935L302.036 155.693H305.102L295.261 174.286L293.209 184.676H290.024L292.059 174.286Z" fill="#263238"/>
<path d="M305.634 180.66L304.844 184.676H301.735L302.525 180.66H305.634ZM304.724 169.318L307.403 155.693H310.631L307.944 169.318L305.771 178.258H303.367L304.724 169.318Z" fill="#263238"/>
<path opacity="0.2" d="M518.171 172.887L509.138 222.917H414.496L423.529 172.887H518.171Z" fill="black"/>
<path d="M421.356 148.794H515.999L503.745 216.636H409.112L421.356 148.794Z" fill="white" stroke="#263238" stroke-linecap="round" stroke-linejoin="round"/>
<path d="M514.565 156.697L515.999 148.794H421.357L419.931 156.697H514.565Z" fill="#263238" stroke="#263238" stroke-linecap="round" stroke-linejoin="round"/>
<path d="M508.416 155.264C509.711 155.264 510.761 154.215 510.761 152.921C510.761 151.628 509.711 150.579 508.416 150.579C507.122 150.579 506.072 151.628 506.072 152.921C506.072 154.215 507.122 155.264 508.416 155.264Z" fill="white" stroke="#263238" stroke-linecap="round" stroke-linejoin="round"/>
<path d="M448.585 174.011L446.765 183.217H444.48L448.516 162.754H450.8L448.988 171.96H454.02L455.832 162.754H458.116L454.08 183.217H451.796L453.617 174.011H448.585Z" fill="#263238"/>
<path d="M459.31 167.696C459.919 164.564 461.886 162.548 465.003 162.548C468.12 162.548 469.296 164.564 468.695 167.696L466.608 178.275C465.999 181.373 464.032 183.423 460.89 183.423C457.747 183.423 456.596 181.373 457.215 178.275L459.31 167.696ZM459.447 178.395C459.078 180.266 459.653 181.347 461.293 181.347C462.933 181.347 463.938 180.266 464.307 178.395L466.437 167.576C466.806 165.731 466.265 164.624 464.591 164.624C462.916 164.624 461.946 165.731 461.585 167.576L459.447 178.395Z" fill="#263238"/>
<path d="M470.755 183.217L474.379 164.83H470.609L471.022 162.754H480.853L480.441 164.83H476.672L473.039 183.217H470.755Z" fill="#263238"/>
<path d="M442.419 190.399L442.316 190.956H440.153L440.281 190.279C440.642 188.443 440.153 187.361 438.521 187.361C436.89 187.361 435.945 188.443 435.602 190.253C434.7 194.843 441.492 195.281 440.35 201.038C439.74 204.135 437.851 206.186 434.726 206.186C431.6 206.186 430.527 204.161 431.137 201.038L431.368 199.871H433.507L433.249 201.158C432.888 203.003 433.438 204.084 435.069 204.084C436.701 204.084 437.688 203.003 438.049 201.158C438.95 196.594 432.184 196.156 433.326 190.399C433.944 187.241 435.799 185.251 438.865 185.251C441.93 185.251 443.072 187.301 442.419 190.399Z" fill="#263238"/>
<path d="M444.497 201.827L442.892 205.92H440.788L448.748 185.457H452.054L451.934 205.92H449.658V201.793L444.497 201.827ZM445.176 199.871H449.744V188.056L445.176 199.871Z" fill="#263238"/>
<path d="M453.72 205.92L457.755 185.457H460.039L456.416 203.844H462.263L461.851 205.92H453.72Z" fill="#263238"/>
<path d="M473.126 194.551L472.722 196.594H467.716L466.256 203.878H472.396L472.009 205.92H463.577L467.613 185.457H476.045L475.633 187.524H469.493L468.111 194.517L473.126 194.551Z" fill="#263238"/>
<path d="M476.895 203.114L476.337 205.954H474.139L474.697 203.114H476.895ZM476.251 195.109L478.149 185.491H480.433L478.535 195.109L476.998 201.424H475.281L476.251 195.109Z" fill="#263238"/>
<path d="M481.515 203.114L480.957 205.954H478.767L479.325 203.114H481.515ZM480.854 195.109L482.751 185.491H485.035L483.138 195.109L481.601 201.424H479.883L480.854 195.109Z" fill="#263238"/>
<path d="M281.016 401.99C281.016 401.99 282.287 409.609 283.695 412.578C285.103 415.547 287.654 419.202 285.953 419.631C284.253 420.06 281.866 419.202 280.166 417.374C278.233 415.081 276.107 412.957 273.812 411.025C270.712 408.451 270.283 407.773 271.133 405.946C272.217 404.022 273.443 402.18 274.799 400.437L281.016 401.99Z" fill="white" stroke="#263238" stroke-linecap="round" stroke-linejoin="round"/>
<path d="M285.868 419.639C281.866 417.966 278.998 413.753 276.5 411.162C274.805 409.419 272.924 407.865 270.893 406.529C270.42 407.962 271.064 408.768 273.812 411.025C276.107 412.957 278.233 415.081 280.166 417.374C281.832 419.176 284.219 420.017 285.868 419.639Z" fill="white" stroke="#263238" stroke-linecap="round" stroke-linejoin="round"/>
<path d="M247.296 335.967C247.296 335.967 242.496 342.17 240.942 346.546C239.388 350.922 240.084 355.572 242.917 356.988C245.751 358.404 284.288 356.988 284.288 356.988L274.842 400.437L281.059 401.99C281.059 401.99 299.838 359.245 301.109 356.139C302.38 353.033 304.355 346.546 303.367 344.856C302.38 343.166 286.142 341.33 286.142 341.33L286.211 336.868L248.584 336.954L247.296 335.967Z" fill="#263238" stroke="#263238" stroke-linecap="round" stroke-linejoin="round"/>
<path d="M284.726 355.306L286.924 345.182" stroke="#7A7A7A" stroke-linecap="round" stroke-linejoin="round"/>
<path d="M274.275 255.186C274.275 255.186 272.919 250.433 269.69 249.927C266.462 249.421 263.413 249.927 263.757 251.282C264.1 252.638 264.263 253.144 264.263 253.144C264.263 253.144 257.136 253.488 253.401 257.048C249.666 260.609 253.573 268.202 255.608 271.119C257.643 274.037 260.022 276.722 260.193 277.563C260.365 278.404 261.378 281.295 259.335 282.823C257.291 284.35 239.645 292.655 239.989 294.526C240.332 296.396 246.472 336.868 246.472 336.868H286.159C286.159 336.868 292.805 292.492 291.947 291.643C291.088 290.793 273.795 282.823 273.795 282.823L274.653 278.078C274.653 278.078 280.26 277.4 280.089 276.044C279.917 274.689 278.56 268.408 278.56 268.408L279.917 266.546L276.491 262.308V259.588L274.275 255.186Z" fill="#237BFF" stroke="#263238" stroke-linecap="round" stroke-linejoin="round"/>
<path d="M273.769 282.823L274.627 278.078C274.627 278.078 280.234 277.4 280.063 276.044C279.891 274.689 278.534 268.408 278.534 268.408L279.891 266.546L276.491 262.308V259.588L274.284 255.186C274.284 255.186 272.927 250.433 269.699 249.927C266.47 249.421 263.422 249.927 263.765 251.282C264.109 252.638 264.272 253.144 264.272 253.144C264.272 253.144 257.145 253.488 253.41 257.048C249.674 260.609 253.581 268.202 255.616 271.119C257.652 274.037 260.03 276.722 260.202 277.563C260.373 278.404 261.387 281.295 259.343 282.823C258.651 283.282 257.934 283.703 257.196 284.084C259.128 286.092 262.984 289.541 267.183 290.141C270.995 290.69 274.67 286.992 276.843 284.247L273.769 282.823Z" fill="white" stroke="#263238" stroke-linecap="round" stroke-linejoin="round"/>
<path d="M259.172 275.881C259.306 275.88 259.435 275.828 259.532 275.735C260.966 274.303 262.881 273.445 261.825 272.578C260.769 271.711 261.825 269.146 262.306 269.146C262.787 269.146 264.315 268.76 264.315 268.382C263.797 267.241 263.121 266.178 262.306 265.225C261.542 264.264 265.852 260.343 266.994 259.674C268.136 259.004 264.032 259.777 263.834 258.146C263.637 256.516 273.194 255.066 274.181 254.912C273.838 253.891 272.464 250.373 269.69 249.935C266.47 249.429 263.413 249.935 263.757 251.291C264.1 252.647 264.264 253.153 264.264 253.153C264.264 253.153 257.137 253.496 253.401 257.057C249.666 260.618 253.573 268.211 255.608 271.128C256.87 272.904 258.261 274.629 259.172 275.881Z" fill="#263238" stroke="#263238" stroke-linecap="round" stroke-linejoin="round"/>
<path d="M263.92 270.442C263.92 270.442 261.035 265.697 259.343 267.868C257.652 270.038 259.85 273.968 261.919 274.311C262.475 274.425 263.049 274.424 263.604 274.308C264.16 274.191 264.685 273.962 265.148 273.633L267.183 275.161" fill="white"/>
<path d="M263.92 270.442C263.92 270.442 261.035 265.697 259.343 267.868C257.652 270.038 259.85 273.968 261.919 274.311C262.475 274.425 263.049 274.424 263.604 274.308C264.16 274.191 264.685 273.962 265.148 273.633L267.183 275.161" stroke="#263238" stroke-linecap="round" stroke-linejoin="round"/>
<path d="M274.559 262.994C274.619 263.603 274.404 264.118 274.061 264.161C273.718 264.204 273.383 263.741 273.323 263.131C273.262 262.522 273.477 262.007 273.812 261.973C274.147 261.939 274.49 262.394 274.559 262.994Z" fill="#263238"/>
<path d="M273.983 270.27C275.19 270.653 276.468 270.75 277.719 270.553" stroke="#263238" stroke-linecap="round" stroke-linejoin="round"/>
<path d="M271.785 260.72C272.221 260.239 272.791 259.9 273.422 259.747C274.053 259.594 274.715 259.635 275.323 259.862" stroke="#263238" stroke-linecap="round" stroke-linejoin="round"/>
<path d="M288.22 313.05L290.693 319.914L285.43 329.309L289.156 332.784L303.11 324.41C303.451 324.199 303.708 323.874 303.835 323.493C303.962 323.112 303.952 322.699 303.805 322.325L291.835 291.282L290.496 290.888" fill="#237BFF"/>
<path d="M288.22 313.05L290.693 319.914L285.43 329.309L289.156 332.784L303.11 324.41C303.451 324.199 303.708 323.874 303.835 323.493C303.962 323.112 303.952 322.699 303.805 322.325L291.835 291.282L290.496 290.888" stroke="#263238" stroke-linecap="round" stroke-linejoin="round"/>
<path d="M290.693 319.905C291.913 319.416 293.236 319.238 294.542 319.388C295.847 319.538 297.095 320.011 298.172 320.763" stroke="#263238" stroke-linecap="round" stroke-linejoin="round"/>
<path d="M283.858 324.787C283.858 324.787 280.87 325.56 280.423 325.645C279.977 325.731 278.972 327.439 278.457 328.219C277.942 329 275.46 329.24 276.662 330.442C277.865 331.643 279.307 330.27 279.994 329.669C280.681 329.069 281.531 328.305 281.531 328.305L283.077 328.563C283.532 329.61 284.137 330.587 284.871 331.463C285.893 332.578 286.529 333.427 288.752 333.179C290.976 332.93 291.801 330.536 290.178 328.228C288.555 325.92 283.858 324.787 283.858 324.787Z" fill="white" stroke="#263238" stroke-linecap="round" stroke-linejoin="round"/>
<path d="M286.34 324.324C286.34 324.324 285.404 322.608 284.374 323.046C283.343 323.483 281.892 329.369 282.579 330.141C283.266 330.913 283.858 328.262 284.975 326.709C285.545 325.986 286.005 325.182 286.34 324.324Z" fill="white" stroke="#263238" stroke-linecap="round" stroke-linejoin="round"/>
<path d="M286.34 324.324C286.34 324.324 283.438 329.197 284.116 330.57C284.794 331.943 285.576 330.656 286.512 329.112C287.448 327.567 288.392 326.212 288.229 325.182C288.066 324.152 287.199 324.024 286.34 324.324Z" fill="white" stroke="#263238" stroke-linecap="round" stroke-linejoin="round"/>
<path d="M288.306 326.246C288.306 326.246 289.937 326.409 289.937 327.782C289.937 329.155 287.112 331.54 286.168 331.54C285.223 331.54 285.91 330.519 285.91 330.519L288.306 326.246Z" fill="white" stroke="#263238" stroke-linecap="round" stroke-linejoin="round"/>
<path d="M289.852 328.803C289.852 328.803 290.616 328.554 290.71 329.489C290.805 330.424 288.658 332.063 287.55 332.312C286.443 332.561 287.55 330.862 287.55 330.862L289.852 328.803Z" fill="white" stroke="#263238" stroke-linecap="round" stroke-linejoin="round"/>
<path d="M246.206 308.726L241.758 319.88L247.004 328.091L244.772 332.235L229.316 324.384C228.974 324.173 228.717 323.848 228.59 323.467C228.463 323.086 228.474 322.673 228.62 322.299L239.834 294.105L240.882 293.376" fill="#237BFF"/>
<path d="M246.206 308.726L241.758 319.88L247.004 328.091L244.772 332.235L229.316 324.384C228.974 324.173 228.717 323.848 228.59 323.467C228.463 323.086 228.474 322.673 228.62 322.299L239.834 294.105L240.882 293.376" stroke="#263238" stroke-linecap="round" stroke-linejoin="round"/>
<path d="M236.219 319.794C235.53 320.039 234.877 320.377 234.279 320.798" stroke="#263238" stroke-linecap="round" stroke-linejoin="round"/>
<path d="M241.758 319.905C240.669 319.467 239.494 319.282 238.323 319.365" stroke="#263238" stroke-linecap="round" stroke-linejoin="round"/>
<path d="M245.45 326.726C245.45 326.726 243.054 330.656 244.256 332.286C245.459 333.916 249.408 331.771 249.408 331.771C249.408 331.771 249.829 331.943 251.289 331.257C252.749 330.57 253.865 328.434 253.255 326.967C252.646 325.499 245.45 326.726 245.45 326.726Z" fill="white" stroke="#263238" stroke-linecap="round" stroke-linejoin="round"/>
<path d="M253.547 324.324C254.08 324.826 254.744 325.168 255.462 325.311C256.441 325.405 259.06 324.839 259.575 325.311C260.09 325.783 259.713 327.224 258.639 327.55C257.566 327.876 256.767 327.499 255.557 327.413C254.346 327.327 253.968 327.318 253.968 327.318L253.547 324.324Z" fill="white" stroke="#263238" stroke-linecap="round" stroke-linejoin="round"/>
<path d="M251.229 324.581C251.229 324.581 252.483 323.783 253.401 324.238C254.32 324.693 254.887 327.67 254.887 328.803C254.887 329.935 254.423 330.965 254.088 330.965C253.835 330.928 253.595 330.824 253.395 330.664C253.194 330.504 253.039 330.294 252.946 330.055C252.714 329.489 251.684 326.289 251.572 325.723C251.491 325.333 251.376 324.951 251.229 324.581Z" fill="white" stroke="#263238" stroke-linecap="round" stroke-linejoin="round"/>
<path d="M249.288 325.182C250.062 324.775 250.93 324.579 251.804 324.616C252.715 324.839 253.17 329.635 253.281 330.544C253.393 331.454 253.058 332.029 252.148 331.463C251.238 330.896 250.662 328.262 250.207 327.584C249.752 326.907 248.722 325.946 249.288 325.182Z" fill="white" stroke="#263238" stroke-linecap="round" stroke-linejoin="round"/>
<path d="M247.236 326.177C247.452 325.835 247.757 325.559 248.119 325.377C248.48 325.196 248.885 325.116 249.288 325.148C250.542 325.379 251.684 330.055 251.916 330.742C252.147 331.428 251.005 331.995 250.542 331.651C249.439 330.289 248.448 328.84 247.579 327.318C247.459 326.975 247.236 326.177 247.236 326.177Z" fill="white" stroke="#263238" stroke-linecap="round" stroke-linejoin="round"/>
<path d="M247.786 326.392C247.679 326.223 247.518 326.096 247.328 326.033C247.138 325.971 246.933 325.976 246.747 326.049C246.499 326.119 246.27 326.242 246.073 326.407C245.876 326.573 245.717 326.778 245.605 327.01C245.227 327.936 246.463 329.584 247.322 330.647C248.181 331.711 249.28 331.626 249.374 330.973C249.169 329.352 248.628 327.792 247.786 326.392Z" fill="white" stroke="#263238" stroke-linecap="round" stroke-linejoin="round"/>
<path d="M289.242 317.168H249.288V342.419H289.242V317.168Z" fill="white" stroke="#263238" stroke-linecap="round" stroke-linejoin="round"/>
<path d="M269.012 328.923C270.61 328.923 271.906 327.628 271.906 326.031C271.906 324.435 270.61 323.14 269.012 323.14C267.414 323.14 266.118 324.435 266.118 326.031C266.118 327.628 267.414 328.923 269.012 328.923Z" fill="white" stroke="#263238" stroke-linecap="round" stroke-linejoin="round"/>
<path d="M251.083 401.544C251.083 401.544 250.662 411.986 252.491 415.65C254.32 419.313 257.154 421.716 258.991 418.052C260.829 414.388 258.004 404.933 258.004 403.38C257.986 402.294 257.892 401.21 257.72 400.137L251.083 400.84V401.544Z" fill="white" stroke="#263238" stroke-linecap="round" stroke-linejoin="round"/>
<path d="M244.308 347.25C244.308 347.25 244.866 369.824 246.987 382.668C249.108 395.512 251.083 401.544 251.083 401.544C252.58 401.769 254.103 401.769 255.6 401.544C256.583 401.268 257.473 400.731 258.176 399.991C258.176 399.991 260.752 355.83 260.855 352.02C260.958 348.211 260.717 344.547 259.73 343.44C258.742 342.333 250.284 341.613 247.305 343.303" fill="#263238"/>
<path d="M244.308 347.25C244.308 347.25 244.866 369.824 246.987 382.668C249.108 395.512 251.083 401.544 251.083 401.544C252.58 401.769 254.103 401.769 255.6 401.544C256.583 401.268 257.473 400.731 258.176 399.991C258.176 399.991 260.752 355.83 260.855 352.02C260.958 348.211 260.717 344.547 259.73 343.44C258.742 342.333 250.284 341.613 247.305 343.303" stroke="#263238" stroke-linecap="round" stroke-linejoin="round"/>
</svg>
