<svg width="29" height="29" viewBox="0 0 29 29" fill="none" xmlns="http://www.w3.org/2000/svg">
<g clip-path="url(#clip0_3822_825)">
<path d="M17.947 4.61853C19.4738 5.02813 20.8659 5.83072 21.9838 6.94591C23.1018 8.0611 23.9064 9.44974 24.317 10.9727" stroke="#237BFF" stroke-width="2.17655" stroke-linecap="round" stroke-linejoin="round"/>
<path d="M17.0142 8.09045C17.9302 8.33621 18.7655 8.81777 19.4363 9.48688C20.107 10.156 20.5898 10.9892 20.8361 11.903" stroke="#237BFF" stroke-width="2.17655" stroke-linecap="round" stroke-linejoin="round"/>
<path d="M10.4106 14.1432C11.3448 16.0484 12.893 17.5857 14.8072 18.5089C14.9472 18.5751 15.1021 18.6038 15.2567 18.5921C15.4112 18.5805 15.56 18.5289 15.6885 18.4424L18.507 16.5676C18.6316 16.4847 18.775 16.4341 18.9242 16.4205C19.0734 16.4068 19.2237 16.4305 19.3614 16.4893L24.6342 18.7435C24.8134 18.8194 24.9629 18.9513 25.0603 19.1194C25.1578 19.2874 25.1978 19.4825 25.1744 19.6753C25.0078 20.9761 24.3715 22.1718 23.3847 23.0384C22.3979 23.905 21.1283 24.3831 19.8136 24.3832C15.7529 24.3832 11.8586 22.7741 8.98731 19.9099C6.11601 17.0457 4.50293 13.161 4.50293 9.11043C4.503 7.79897 4.98228 6.5325 5.85103 5.54815C6.71978 4.5638 7.91843 3.92908 9.22254 3.76283C9.41574 3.73951 9.61131 3.77945 9.77977 3.87664C9.94824 3.97383 10.0805 4.123 10.1566 4.30167L12.4183 9.56605C12.4768 9.70221 12.5007 9.8507 12.4877 9.99828C12.4748 10.1459 12.4254 10.288 12.3441 10.4119L10.4712 13.2665C10.386 13.395 10.3356 13.5432 10.3249 13.6969C10.3143 13.8505 10.3438 14.0043 10.4106 14.1432V14.1432Z" stroke="#237BFF" stroke-width="2.17655" stroke-linecap="round" stroke-linejoin="round"/>
</g>
<defs>
<clipPath id="clip0_3822_825">
<rect width="28.82" height="28.7487" fill="white" transform="translate(0 0.126465)"/>
</clipPath>
</defs>
</svg>
