<svg width="40" height="40" viewBox="0 0 40 40" fill="none" xmlns="http://www.w3.org/2000/svg">
<path d="M18.0933 21.9066C16.1433 19.9566 14.6733 17.7733 13.6966 15.5583C13.49 15.0899 13.6116 14.5416 13.9733 14.1799L15.3383 12.8166C16.4566 11.6983 16.4566 10.1166 15.48 9.13995L13.5233 7.18328C12.2216 5.88161 10.1116 5.88161 8.80996 7.18328L7.72329 8.26995C6.48829 9.50495 5.97329 11.2866 6.30662 13.0533C7.12996 17.4083 9.65996 22.1766 13.7416 26.2583C17.8233 30.3399 22.5916 32.8699 26.9466 33.6933C28.7133 34.0266 30.495 33.5116 31.73 32.2766L32.815 31.1916C34.1166 29.8899 34.1166 27.7799 32.815 26.4783L30.86 24.5233C29.8833 23.5466 28.3 23.5466 27.325 24.5233L25.82 26.0299C25.4583 26.3916 24.91 26.5133 24.4416 26.3066C22.2266 25.3283 20.0433 23.8566 18.0933 21.9066V21.9066Z" stroke="#C5C8E1" stroke-width="2.56" stroke-linecap="round" stroke-linejoin="round"/>
</svg>
