<svg width="671" height="596" viewBox="0 0 671 596" fill="none" xmlns="http://www.w3.org/2000/svg">
<path d="M624.069 212.404C624.069 205.099 616.056 200.019 606.979 199.153C596.287 198.148 588.687 202.913 588.431 211.34C581.442 208.466 574.078 210.316 574.649 217.995C572.818 215.908 566.025 216.026 563.583 216.538C562.253 216.917 561.019 217.576 559.966 218.473C558.913 219.37 558.065 220.483 557.48 221.736C556.897 222.962 556.678 224.328 556.849 225.674C552.774 224.335 543.5 223.508 541.098 227.249C536.963 233.924 553.463 234.121 556.849 232.113C557.558 237.291 575.279 238.138 579.571 233.353C582.918 236.74 587.742 237.488 592.94 237.803C601.702 238.315 607.077 235.342 613.91 231.896C621.352 238.197 634.229 238.315 640.924 231.109C642.637 232.703 647.342 233.215 651.123 232.31C653.584 231.719 654.175 230.656 654.175 230.656C655.633 231.287 657.159 231.749 658.723 232.034C663.586 233.058 672.624 232.034 668.824 227.604C667.544 226.107 662.799 225.162 660.79 225.635C658.684 221.461 650.158 217.523 645.275 221.047C645.098 215.987 640.471 212.029 633.973 211.025C631.788 210.553 626.55 210.336 624.069 212.404Z" fill="white"/>
<path d="M594.89 238.846C594.24 238.846 593.57 238.846 592.921 238.846C588.412 238.59 583.332 238.019 579.611 234.79C575.673 237.842 566.635 238.315 560.925 236.562C559.049 236.175 557.393 235.083 556.298 233.51C552.478 234.771 543.579 234.751 540.547 231.758C539.908 231.106 539.532 230.243 539.488 229.332C539.445 228.421 539.737 227.526 540.31 226.816C542.752 222.878 551.002 223.252 555.786 224.434C555.858 223.406 556.111 222.399 556.534 221.461C557.17 220.058 558.106 218.812 559.276 217.812C560.447 216.811 561.823 216.081 563.308 215.672C566.749 215.003 570.302 215.206 573.645 216.262C573.705 215.19 574.003 214.144 574.517 213.201C575.031 212.257 575.749 211.44 576.618 210.808C578.255 209.842 580.095 209.27 581.991 209.137C583.888 209.004 585.789 209.313 587.545 210.041C587.864 206.992 589.328 204.177 591.641 202.165C595.185 199.034 600.639 197.636 607.058 198.227C615.347 199.015 623.774 203.543 624.916 210.808C627.867 209.813 631.018 209.556 634.091 210.06C640.471 211.045 645.078 214.727 646.063 219.452C648.222 218.575 650.613 218.444 652.855 219.078C656.237 219.842 659.233 221.79 661.302 224.571C663.763 224.355 668.095 225.28 669.552 226.974C671.009 228.667 670.812 230.025 670.34 230.911C668.725 233.668 661.873 233.806 658.526 233.097C657.137 232.826 655.773 232.438 654.45 231.935C653.551 232.657 652.491 233.151 651.359 233.373C647.92 234.242 644.288 233.937 641.042 232.506C634.249 239.043 621.687 239.358 613.811 233.156L613.555 233.294C607.609 236.149 602.431 238.846 594.89 238.846ZM579.571 232.388C579.828 232.387 580.075 232.486 580.26 232.664C583.233 235.657 587.506 236.484 592.999 236.818C601.131 237.291 606.211 234.692 612.689 231.404L613.536 230.971C613.71 230.884 613.905 230.851 614.098 230.876C614.291 230.9 614.472 230.981 614.618 231.108C621.923 237.311 634.15 237.015 640.215 230.38C640.4 230.199 640.646 230.094 640.904 230.084C641.034 230.071 641.165 230.087 641.288 230.131C641.41 230.176 641.522 230.247 641.613 230.34C642.893 231.542 647.146 232.309 650.906 231.305C651.824 231.178 652.678 230.764 653.348 230.124C653.478 229.92 653.675 229.769 653.906 229.697C654.136 229.625 654.385 229.636 654.608 229.73C656.001 230.317 657.453 230.752 658.939 231.03C662.68 231.817 667.879 231.148 668.686 229.769C668.942 229.336 668.509 228.667 668.095 228.194C666.004 226.854 663.516 226.27 661.046 226.54C660.832 226.591 660.606 226.568 660.407 226.475C660.207 226.382 660.044 226.225 659.944 226.028C658.198 223.421 655.509 221.593 652.442 220.929C651.35 220.583 650.196 220.48 649.06 220.626C647.925 220.773 646.834 221.165 645.866 221.776C645.714 221.868 645.541 221.916 645.364 221.916C645.186 221.916 645.013 221.868 644.862 221.776C644.704 221.694 644.571 221.573 644.474 221.425C644.378 221.277 644.321 221.106 644.31 220.929C644.153 216.44 639.939 212.797 633.835 211.852C631.61 211.498 626.826 211.32 624.719 213.073C624.575 213.19 624.401 213.265 624.217 213.289C624.033 213.314 623.845 213.286 623.676 213.211C623.506 213.127 623.363 212.998 623.262 212.838C623.162 212.678 623.107 212.494 623.105 212.305C623.105 205.256 614.934 200.787 606.9 200.038C600.993 199.487 596.11 200.708 592.98 203.484C591.864 204.47 590.971 205.683 590.36 207.04C589.749 208.398 589.434 209.871 589.436 211.36C589.434 211.519 589.394 211.676 589.319 211.817C589.243 211.958 589.135 212.078 589.002 212.167C588.859 212.24 588.701 212.278 588.54 212.278C588.379 212.278 588.22 212.24 588.077 212.167C584.139 210.513 580.201 210.553 577.799 212.167C576.972 212.821 576.335 213.684 575.954 214.668C575.573 215.651 575.462 216.718 575.633 217.759C575.649 217.966 575.598 218.174 575.488 218.35C575.379 218.527 575.216 218.665 575.023 218.743C574.833 218.827 574.622 218.847 574.419 218.801C574.217 218.755 574.035 218.645 573.901 218.487C572.522 216.893 566.281 216.755 563.8 217.345C562.626 217.681 561.537 218.264 560.606 219.056C559.676 219.847 558.925 220.828 558.405 221.933C557.871 223.012 557.672 224.225 557.834 225.418C557.844 225.582 557.815 225.745 557.75 225.896C557.685 226.046 557.586 226.18 557.46 226.284C557.332 226.387 557.18 226.456 557.018 226.483C556.856 226.511 556.689 226.497 556.534 226.442C552.498 225.123 543.914 224.473 542.023 227.623C541.157 229.002 541.551 229.592 542.023 230.124C544.544 232.684 554.211 232.428 556.397 231.108C556.544 231.035 556.705 230.998 556.869 230.998C557.033 230.998 557.195 231.035 557.342 231.108C557.486 231.181 557.611 231.286 557.707 231.416C557.803 231.546 557.867 231.697 557.893 231.857C558.011 232.861 559.35 233.825 561.516 234.495C566.931 236.149 576.204 235.578 578.902 232.526C578.991 232.426 579.1 232.347 579.222 232.292C579.345 232.238 579.477 232.21 579.611 232.211L579.571 232.388Z" fill="#E0E0E0"/>
<path d="M198.205 311.343C195.672 310.473 193.009 310.04 190.33 310.063C187.809 309.926 187.002 309.433 186.51 308.902C184.033 305.479 180.462 303.004 176.388 301.887C172.313 300.77 167.979 301.078 164.103 302.759C162.943 299.373 160.55 296.55 157.401 294.849C154.252 293.149 150.578 292.697 147.111 293.583C147.229 285.708 137.05 277.517 128.032 275.863C119.369 274.189 111.867 275.115 107.063 280.884C101.609 270.704 80.9152 268.204 69.8497 273.874C63.49 277.123 58.036 280.431 55.5552 286.377C53.85 290.07 53.0985 294.132 53.3696 298.191C48.9395 294.43 40.1974 293.564 34.4283 295.926C28.2065 298.466 27.8324 303.212 27.6158 308.016C23.8744 307.019 19.9372 307.019 16.1959 308.016C12.258 309.276 10.0528 312.407 10.6434 314.907C7.5325 314.789 0.129244 317.467 1.05465 320.814C2.0785 324.496 10.5844 323.945 13.7544 323.767C16.7439 323.471 19.7061 322.944 22.6146 322.192C24.0995 322.722 25.6653 322.988 27.2417 322.98C32.6563 322.842 34.9009 320.479 35.7278 318.451C38.4844 323.964 47.9747 328.001 54.6494 329.576C67.231 332.529 84.8925 330.226 92.4139 320.735C93.3593 322.477 94.6608 323.999 96.2336 325.205C99.5944 327.806 103.65 329.355 107.89 329.655C113.048 330.048 126.851 330.422 130.572 322.192C133.427 327.567 145.753 329.792 155.066 328.276C158.673 327.663 162.174 326.536 165.462 324.929C167.495 323.793 169.466 322.551 171.369 321.208C172.101 320.676 172.964 320.353 173.866 320.273C174.767 320.194 175.674 320.36 176.488 320.755C182.926 322.547 190.369 323.196 196.867 320.322C202.143 317.861 203.167 313.47 198.205 311.343Z" fill="white"/>
<path d="M65.518 331.584C61.808 331.6 58.1085 331.19 54.4919 330.363C49.1757 329.103 39.7838 325.638 35.8459 320.203C34.6055 321.877 32.1443 323.669 27.3598 323.787C25.7439 323.784 24.1377 323.539 22.5949 323.058C19.7347 323.775 16.8261 324.281 13.8922 324.574C9.95426 324.791 1.40903 325.283 0.10952 320.892C-0.0285844 320.368 -0.0361935 319.817 0.0873549 319.288C0.210903 318.76 0.461859 318.27 0.818343 317.86C3.20379 315.598 6.28522 314.21 9.56047 313.922C9.56047 311.107 12.1792 308.232 15.9005 307.051C19.4171 306.06 23.1248 305.959 26.6903 306.755C26.9266 302.503 27.6748 297.58 34.0542 294.942C37.0261 293.849 40.1953 293.397 43.3542 293.614C46.5132 293.831 49.5906 294.713 52.3851 296.202C52.3793 292.664 53.1523 289.169 54.6494 285.963C57.4059 279.525 63.4506 276.02 69.3968 272.968C80.5411 267.258 100.585 269.444 107.22 279.21C111.867 274.465 118.739 273.047 128.209 274.878C137.07 276.571 147.19 284.447 148.037 292.441C151.428 291.882 154.909 292.469 157.929 294.109C160.949 295.749 163.337 298.349 164.714 301.498C168.712 299.994 173.095 299.853 177.182 301.095C181.27 302.338 184.832 304.895 187.317 308.37C187.455 308.508 187.888 309 190.389 309.138H191.098C193.636 309.147 196.153 309.593 198.54 310.457C201.828 311.875 202.34 314.001 202.34 315.143C202.34 317.447 200.47 319.672 197.3 321.05C191.531 323.61 184.265 323.767 176.252 321.523C173.948 320.873 173.416 320.912 171.92 321.857L169.951 323.157C168.657 324.079 167.294 324.902 165.875 325.618C162.502 327.277 158.908 328.443 155.204 329.083C146.422 330.501 134.904 328.67 130.651 323.866C126.181 330.698 114.584 330.973 107.811 330.462C103.37 330.147 99.1221 328.523 95.6035 325.795C94.3021 324.79 93.1661 323.588 92.2366 322.231C86.4479 328.69 75.7565 331.584 65.518 331.584ZM35.8066 317.289C35.9895 317.285 36.1699 317.332 36.3268 317.426C36.4836 317.521 36.6105 317.657 36.6926 317.821C39.1538 322.743 47.8762 326.78 54.9447 328.434C67.4082 331.367 84.479 328.985 91.7247 319.947C91.825 319.816 91.9573 319.713 92.109 319.647C92.2607 319.582 92.4267 319.556 92.5911 319.573C92.7555 319.592 92.9131 319.65 93.0502 319.742C93.1874 319.835 93.3001 319.959 93.3786 320.105C94.2458 321.73 95.4549 323.147 96.9227 324.259C100.14 326.725 104.005 328.203 108.047 328.512C114.781 329.005 126.516 328.768 129.706 321.601C129.779 321.432 129.9 321.288 130.054 321.186C130.207 321.085 130.388 321.031 130.572 321.03C130.754 321.016 130.936 321.058 131.094 321.149C131.252 321.241 131.379 321.378 131.458 321.542C134.096 326.504 146.028 328.591 154.928 327.134C158.441 326.536 161.849 325.436 165.048 323.866C166.377 323.179 167.654 322.396 168.868 321.523L170.837 320.184C171.686 319.579 172.679 319.209 173.716 319.113C174.754 319.016 175.798 319.195 176.744 319.632C182.021 321.109 189.719 322.231 196.433 319.258C198.816 318.195 200.371 316.62 200.371 315.143C200.371 314.001 199.446 312.977 197.753 312.249C195.584 311.48 193.3 311.087 190.999 311.087H190.271C188.639 311.202 187.026 310.672 185.781 309.61C183.453 306.33 180.065 303.952 176.189 302.876C172.312 301.8 168.183 302.092 164.497 303.704C164.367 303.762 164.226 303.793 164.084 303.793C163.941 303.793 163.8 303.762 163.67 303.704C163.541 303.638 163.428 303.546 163.336 303.435C163.245 303.323 163.177 303.193 163.139 303.054C162.041 299.933 159.817 297.335 156.903 295.769C153.989 294.203 150.595 293.781 147.387 294.587C147.242 294.628 147.089 294.634 146.941 294.604C146.793 294.574 146.655 294.509 146.537 294.415C146.42 294.32 146.327 294.199 146.265 294.061C146.204 293.924 146.177 293.773 146.186 293.623C146.186 286.278 136.341 278.422 127.894 276.808C118.561 275.016 112.005 276.532 107.89 281.494C107.782 281.614 107.647 281.707 107.497 281.765C107.346 281.823 107.184 281.845 107.023 281.829C106.863 281.814 106.708 281.76 106.574 281.67C106.44 281.581 106.331 281.459 106.256 281.317C101.038 271.61 80.9743 269.286 70.3616 274.721C64.4548 277.713 59.0205 280.903 56.579 286.751C54.9507 290.278 54.2266 294.156 54.4722 298.033C54.4722 298.222 54.4185 298.408 54.3175 298.568C54.2165 298.729 54.0721 298.857 53.9012 298.939C53.7281 299.014 53.5378 299.041 53.3505 299.017C53.1633 298.993 52.9861 298.918 52.838 298.801C48.9001 295.414 40.473 294.43 34.9205 296.694C29.3681 298.958 29.0137 302.739 28.7183 307.937C28.7083 308.079 28.668 308.218 28.6 308.344C28.5321 308.469 28.4382 308.579 28.3246 308.665C28.2103 308.75 28.0792 308.81 27.94 308.841C27.8008 308.871 27.6567 308.872 27.5173 308.843C23.9447 307.882 20.1819 307.882 16.6093 308.843C13.0258 309.985 11.2932 312.78 11.7263 314.552C11.7653 314.702 11.7678 314.859 11.7335 315.01C11.6993 315.16 11.6293 315.301 11.5294 315.419C11.4337 315.534 11.313 315.626 11.1766 315.687C11.0401 315.748 10.8914 315.778 10.7418 315.773C7.68537 315.857 4.75936 317.03 2.49195 319.081C2.32153 319.242 2.19705 319.445 2.1313 319.67C2.06555 319.895 2.06091 320.134 2.11785 320.361C2.64946 322.33 6.5283 323.019 13.6559 322.625C16.6438 322.327 19.6054 321.807 22.5162 321.07C22.7191 320.992 22.9433 320.992 23.1462 321.07C24.4933 321.542 25.9127 321.775 27.3401 321.759C32.6169 321.621 34.3692 319.239 34.9402 317.821C35.0093 317.646 35.1281 317.495 35.2821 317.386C35.436 317.278 35.6183 317.217 35.8066 317.211V317.289Z" fill="#E0E0E0"/>
<path opacity="0.5" d="M400.682 512.424C345.161 504.463 299.183 526.378 276.138 538.409C261.845 545.873 259.131 569.483 297.871 569.845C336.612 570.207 365.854 556.909 382.657 565.186C398.918 573.192 412.397 598.16 430.919 595.401C449.441 592.642 458.374 579.457 451.273 554.964C444.85 533.231 431.53 516.834 400.682 512.424Z" fill="black" fill-opacity="0.46"/>
<path d="M345.681 510.728L350.046 485.534L319.537 487.343C319.537 487.343 319.13 500.619 318.112 509.755C317.615 514.278 312.594 522.126 312.594 522.126C312.594 522.126 328.425 529.318 335.639 526.649C338.381 525.409 340.785 523.53 342.65 521.169C344.516 518.808 345.787 516.034 346.359 513.08C346.178 511.09 345.681 510.728 345.681 510.728Z" fill="#FFA8A7"/>
<path d="M276.568 551.503C276.132 552.606 276.037 553.814 276.295 554.971C276.553 556.128 277.152 557.181 278.015 557.994C280.955 560.256 289.504 563.716 300.631 562.201C311.757 560.685 317.864 557.451 322.296 553.991C326.729 550.531 332.948 545.646 338.014 544.538C342.022 543.797 345.856 542.317 349.322 540.173C350.815 538.839 350.498 533.004 350.498 533.004L276.568 551.503Z" fill="#263238"/>
<path d="M345.681 510.682C346.075 510.681 346.459 510.811 346.77 511.053C347.082 511.295 347.303 511.634 347.4 512.017C347.784 513.6 348.236 518.259 349.005 520.882C350.254 525.483 350.712 530.262 350.362 535.017C349.774 538.025 342.13 540.241 337.245 542.005C331.541 544.33 326.207 547.476 321.414 551.345C314.442 556.158 306.319 559.038 297.871 559.69C289.21 559.69 279.417 557.429 277.133 553.901C274.283 549.378 272.203 544.334 284.935 538.748C287.355 537.708 295.813 533.004 298.686 531.308C306.488 526.785 311.938 522.51 315.444 514.572C315.747 513.574 316.386 512.711 317.253 512.13C318.042 511.815 318.905 511.729 319.741 511.881C323.994 512.233 328.218 512.875 332.383 513.803C334.124 514.527 336.567 515.341 336.567 517.309C336.54 518.009 336.387 518.699 336.114 519.344C335.979 519.751 335.866 520.294 336.25 520.52C336.635 520.746 337.132 520.52 337.449 520.204C338.685 519.036 339.82 517.765 340.841 516.404C341.438 515.697 342.114 515.06 342.854 514.504C343.532 514.007 344.414 513.735 345.115 513.193C345.816 512.65 345.658 511.61 345.681 510.682Z" fill="#455A64"/>
<path d="M321.482 551.345C323.744 549.627 326.005 547.998 328.402 546.506C328.402 546.506 313.454 555.032 307.279 551.391C303.322 549.129 305.131 546.099 305.221 545.149C305.312 544.199 291.313 537.867 287.491 537.527C286.451 538.07 285.569 538.522 285.003 538.749C272.271 544.335 274.351 549.491 277.201 553.901C279.462 557.474 286.586 560.143 297.781 559.939C306.291 559.169 314.456 556.208 321.482 551.345V551.345Z" fill="#37474F"/>
<path d="M306.239 542.412C298.301 545.42 301.716 546.686 303.978 546.935C306.239 547.184 319.537 539.879 327.634 533.909C336.069 527.667 341.361 520.927 344.482 518.643C345.658 517.784 346.925 516.743 348.033 515.771C347.807 514.188 347.603 512.763 347.422 512.017C347.326 511.634 347.105 511.295 346.793 511.053C346.481 510.811 346.098 510.681 345.703 510.682L345.364 512.695C344.754 513.261 343.623 514.007 342.944 514.504C342.204 515.06 341.529 515.697 340.932 516.404C339.911 517.765 338.776 519.036 337.539 520.204C330.687 528.277 314.245 539.382 306.239 542.412Z" fill="#37474F"/>
<path d="M304.52 545.872C304.699 545.873 304.873 545.817 305.018 545.714C305.087 545.649 305.142 545.57 305.18 545.482C305.217 545.395 305.237 545.301 305.237 545.205C305.237 545.11 305.217 545.016 305.18 544.928C305.142 544.841 305.087 544.762 305.018 544.696C302.756 542.277 291.946 536.577 286.089 537.279C285.992 537.284 285.897 537.309 285.809 537.353C285.722 537.396 285.645 537.456 285.581 537.53C285.518 537.604 285.47 537.69 285.441 537.783C285.411 537.875 285.401 537.973 285.41 538.07C285.424 538.168 285.457 538.262 285.508 538.346C285.56 538.431 285.627 538.504 285.708 538.561C285.789 538.618 285.88 538.658 285.976 538.679C286.073 538.7 286.173 538.7 286.27 538.681C291.743 538.047 302.101 543.701 303.797 545.624C303.888 545.721 304.001 545.795 304.128 545.838C304.254 545.882 304.389 545.893 304.52 545.872V545.872Z" fill="#263238"/>
<path d="M311.418 541.892C311.596 541.892 311.77 541.837 311.916 541.734C311.984 541.67 312.039 541.593 312.076 541.508C312.114 541.422 312.133 541.33 312.133 541.236C312.133 541.143 312.114 541.05 312.076 540.965C312.039 540.879 311.984 540.802 311.916 540.739C309.654 538.296 298.844 532.62 292.986 533.298C292.889 533.304 292.794 533.329 292.707 533.372C292.62 533.415 292.542 533.476 292.479 533.55C292.416 533.623 292.368 533.709 292.338 533.802C292.309 533.895 292.299 533.993 292.308 534.09C292.341 534.284 292.45 534.458 292.611 534.573C292.773 534.687 292.972 534.733 293.167 534.7C298.663 534.09 308.885 539.721 310.694 541.643C310.785 541.741 310.899 541.814 311.025 541.858C311.151 541.901 311.286 541.913 311.418 541.892Z" fill="#263238"/>
<path d="M318.316 538.115C318.495 538.118 318.669 538.063 318.813 537.957C318.882 537.893 318.937 537.816 318.974 537.731C319.011 537.645 319.031 537.553 319.031 537.459C319.031 537.366 319.011 537.273 318.974 537.188C318.937 537.102 318.882 537.025 318.813 536.962C316.552 534.519 305.742 528.82 299.884 529.521C299.787 529.527 299.692 529.552 299.605 529.595C299.518 529.638 299.44 529.699 299.377 529.773C299.313 529.847 299.266 529.933 299.236 530.025C299.207 530.118 299.196 530.216 299.206 530.313C299.244 530.509 299.358 530.683 299.523 530.797C299.687 530.911 299.89 530.957 300.088 530.923C305.561 530.29 315.783 535.944 317.615 537.866C317.698 537.967 317.807 538.044 317.931 538.088C318.054 538.132 318.187 538.141 318.316 538.115V538.115Z" fill="#263238"/>
<path d="M324.693 533.886C324.875 533.881 325.049 533.818 325.191 533.705C325.263 533.643 325.32 533.567 325.36 533.481C325.399 533.395 325.42 533.302 325.42 533.207C325.42 533.113 325.399 533.02 325.36 532.934C325.32 532.848 325.263 532.771 325.191 532.71C322.929 530.267 312.097 524.591 306.262 525.292C306.165 525.298 306.07 525.323 305.982 525.366C305.895 525.409 305.818 525.47 305.754 525.543C305.691 525.617 305.643 525.703 305.614 525.796C305.584 525.889 305.574 525.987 305.583 526.083C305.622 526.28 305.735 526.454 305.9 526.568C306.065 526.682 306.268 526.727 306.465 526.694C311.938 526.061 322.161 531.692 323.992 533.637C324.084 533.727 324.194 533.796 324.315 533.839C324.437 533.882 324.566 533.898 324.693 533.886V533.886Z" fill="#263238"/>
<path d="M330.935 529.566C331.115 529.555 331.288 529.492 331.433 529.386C331.512 529.333 331.579 529.263 331.629 529.182C331.678 529.1 331.71 529.009 331.72 528.914C331.731 528.82 331.721 528.724 331.691 528.633C331.661 528.543 331.611 528.46 331.546 528.39C328.38 524.93 317.14 520.226 311.192 520.927C311.095 520.933 311 520.958 310.913 521.001C310.825 521.045 310.748 521.105 310.684 521.179C310.621 521.253 310.573 521.339 310.544 521.431C310.515 521.524 310.504 521.622 310.513 521.719C310.557 521.913 310.672 522.083 310.835 522.196C310.999 522.309 311.199 522.357 311.396 522.329C316.665 521.719 327.453 526.242 330.257 529.295C330.341 529.39 330.446 529.464 330.564 529.511C330.682 529.558 330.809 529.577 330.935 529.566V529.566Z" fill="#263238"/>
<path d="M410.927 518.326L404.707 494.964L434.56 491.052L435.465 513.668C435.465 513.668 438.473 521.741 436.595 524.681C434.718 527.621 414.885 530.607 413.075 528.639C411.266 526.672 410.927 518.326 410.927 518.326Z" fill="#FFA8A7"/>
<path d="M413.03 569.098C413.867 576.313 415.405 580.994 418.639 584.929C421.873 588.865 427.685 589.452 433.407 587.643C439.128 585.834 446.026 580.859 447.768 575.092C449.69 568.759 448.604 564.372 446.976 557.768L413.03 569.098Z" fill="#263238"/>
<path d="M435.465 513.532C437.862 513.419 437.206 523.302 439.038 532.936C440.983 543.249 444.873 547.161 446.591 555.552C448.536 565.209 448.152 569.664 444.33 576.064C440.508 582.464 426.509 589.905 419.068 582.193C413.007 575.906 412.397 568.239 412.465 558.379C412.758 550.029 412.555 541.669 411.854 533.343C411.04 526.038 408.869 519.548 410.904 518.485C411.108 519.548 411.334 520.905 411.537 521.945C411.741 522.985 412.125 526.694 413.482 526.581C413.573 525.664 413.573 524.74 413.482 523.822C413.396 523.396 413.4 522.957 413.493 522.532C413.587 522.108 413.768 521.707 414.025 521.357C415.184 520.498 416.497 519.868 417.892 519.502C420.154 518.847 424.383 518.032 426.758 517.558C427.956 517.331 429.019 517.15 430.331 517.037C431.343 516.89 432.372 516.89 433.384 517.037C433.657 517.07 433.919 517.164 434.15 517.313C434.382 517.462 434.576 517.662 434.718 517.897C434.848 518.252 434.909 518.627 434.899 519.005C434.924 519.677 435.054 520.341 435.284 520.972C435.284 521.266 435.646 521.583 435.985 521.47C436.103 521.415 436.201 521.324 436.266 521.211C436.331 521.097 436.359 520.967 436.347 520.837C436.347 519.661 436.075 518.801 435.94 517.444C435.94 516.811 435.713 515.952 435.691 515.319C435.668 514.685 435.533 514.21 435.465 513.532Z" fill="#455A64"/>
<path d="M445.913 552.951C446.207 554.331 448.062 563.558 445.121 565.593C442.181 567.629 439.852 560.618 439.852 560.618C439.852 560.618 432.14 559.487 421.239 564.892C421.873 566.34 420.403 571.677 417.304 570.84C414.206 570.003 412.533 559.532 412.51 559.374C412.51 568.827 413.211 576.223 419.114 582.329C426.554 590.041 440.598 582.578 444.375 576.2C448.152 569.822 448.536 565.345 446.637 555.688C446.388 554.715 446.162 553.811 445.913 552.951Z" fill="#37474F"/>
<path d="M438.993 561.341C439.219 564.892 443.29 563.219 443.222 558.198C443.154 553.177 439.4 541.621 439.038 533.004C438.382 521.153 437.862 513.487 435.465 513.6C435.476 513.713 435.476 513.826 435.465 513.939L436.007 518.892C436.128 519.588 436.211 520.29 436.256 520.995C436.641 528.232 436.663 542.299 437.704 548.835C438.406 552.971 438.837 557.149 438.993 561.341V561.341Z" fill="#37474F"/>
<path d="M422.506 564.644C421.31 560.634 420.359 556.556 419.656 552.431C418.526 545.963 414.568 533.004 412.6 526.039C412.095 524.768 411.753 523.438 411.583 522.081C411.379 521.108 411.175 519.819 410.995 518.847V518.643C409.525 519.412 409.999 525.021 410.768 527.938C411.537 530.856 412.465 533.954 413.414 538.115C415.857 546.347 416.038 558.65 417.598 563.4C419.159 568.149 423.456 568.036 422.506 564.644Z" fill="#37474F"/>
<path d="M421.013 565.186C421.116 565.218 421.227 565.218 421.33 565.186C426.968 562.259 433.315 560.974 439.649 561.477C439.875 561.51 440.105 561.462 440.299 561.342C440.494 561.222 440.64 561.038 440.712 560.821C440.731 560.72 440.729 560.616 440.704 560.517C440.679 560.417 440.633 560.324 440.568 560.244C440.503 560.164 440.422 560.099 440.329 560.055C440.237 560.01 440.136 559.986 440.033 559.984C433.26 559.398 426.461 560.772 420.448 563.942C420.351 563.984 420.264 564.047 420.194 564.126C420.124 564.205 420.072 564.299 420.042 564.4C420.011 564.501 420.004 564.608 420.019 564.712C420.035 564.817 420.073 564.917 420.131 565.005C420.244 565.119 420.388 565.196 420.545 565.229C420.702 565.261 420.865 565.246 421.013 565.186Z" fill="#263238"/>
<path d="M418.661 557.723L418.955 557.61C425.332 554.516 432.39 553.092 439.468 553.471C439.692 553.489 439.915 553.432 440.103 553.309C440.291 553.186 440.434 553.005 440.508 552.793C440.524 552.689 440.518 552.582 440.489 552.481C440.46 552.38 440.409 552.286 440.341 552.206C440.272 552.127 440.186 552.063 440.09 552.02C439.994 551.976 439.89 551.955 439.784 551.956C432.304 551.517 424.838 553.029 418.118 556.343C418.023 556.384 417.938 556.445 417.867 556.521C417.796 556.596 417.742 556.686 417.708 556.784C417.674 556.882 417.661 556.986 417.669 557.089C417.678 557.192 417.707 557.293 417.757 557.384C417.858 557.522 417.998 557.628 418.158 557.688C418.319 557.749 418.494 557.761 418.661 557.723V557.723Z" fill="#263238"/>
<path d="M438.631 546.211C438.793 546.186 438.945 546.118 439.072 546.015C439.199 545.912 439.297 545.777 439.355 545.623C439.385 545.525 439.394 545.421 439.38 545.319C439.366 545.217 439.329 545.119 439.273 545.033C439.217 544.947 439.142 544.874 439.055 544.819C438.967 544.765 438.869 544.731 438.767 544.719C427.911 542.842 417.553 548.676 417.123 548.925C417.027 548.968 416.941 549.031 416.87 549.109C416.8 549.188 416.747 549.28 416.715 549.381C416.683 549.481 416.673 549.587 416.685 549.692C416.696 549.796 416.73 549.898 416.784 549.988C416.933 550.159 417.138 550.271 417.361 550.304C417.585 550.337 417.814 550.289 418.005 550.169C418.005 550.169 428.16 544.47 438.36 546.211H438.631Z" fill="#263238"/>
<path d="M437.613 539.382C437.772 539.348 437.92 539.278 438.046 539.175C438.172 539.073 438.272 538.942 438.337 538.794C438.367 538.695 438.376 538.591 438.362 538.489C438.348 538.387 438.311 538.29 438.255 538.203C438.199 538.117 438.125 538.044 438.037 537.99C437.95 537.935 437.851 537.901 437.749 537.889C430.125 536.642 422.307 538.132 415.676 542.095C415.585 542.144 415.505 542.211 415.441 542.293C415.378 542.375 415.333 542.47 415.31 542.57C415.286 542.671 415.284 542.776 415.305 542.877C415.325 542.979 415.367 543.074 415.427 543.158C415.582 543.323 415.792 543.425 416.017 543.446C416.241 543.467 416.466 543.405 416.649 543.271C422.857 539.646 430.125 538.273 437.229 539.382H437.613Z" fill="#263238"/>
<path d="M436.528 531.625C436.686 531.591 436.835 531.521 436.961 531.418C437.087 531.316 437.186 531.185 437.251 531.037C437.282 530.94 437.291 530.838 437.278 530.737C437.265 530.636 437.231 530.54 437.177 530.454C437.124 530.368 437.052 530.295 436.967 530.239C436.882 530.183 436.786 530.147 436.686 530.132C425.491 527.87 414.885 534.293 414.455 534.655C414.36 534.699 414.275 534.764 414.207 534.844C414.14 534.924 414.09 535.017 414.062 535.119C414.034 535.22 414.028 535.326 414.045 535.429C414.063 535.533 414.102 535.631 414.161 535.718C414.313 535.886 414.521 535.992 414.746 536.017C414.971 536.042 415.197 535.984 415.382 535.854C415.382 535.854 425.74 529.589 436.121 531.715C436.26 531.708 436.398 531.678 436.528 531.625Z" fill="#263238"/>
<path d="M421.828 272.88C426.351 330.007 427.436 408.189 427.436 408.189C427.843 412.531 430.942 419.971 433.045 441.366C435.306 463.981 434.741 495.801 434.741 495.801C434.741 495.801 418.91 504.237 405.997 499.963C405.997 499.963 393.965 449.847 387.339 423.251C381.074 398.057 372.593 355.947 372.593 355.947L360.539 410.224C360.539 410.224 361.421 426.507 360.924 437.906C360.336 451.158 348.915 494.083 348.915 494.083C348.915 494.083 332.111 503.853 318.633 493.698C318.633 493.698 319.741 419.338 319.379 403.394C318.678 372.139 320.51 306.441 321.64 266.072L421.828 272.88Z" fill="#E0E8F1"/>
<path opacity="0.3" d="M421.828 272.88C426.351 330.007 427.436 408.189 427.436 408.189C427.843 412.531 430.942 419.971 433.045 441.366C435.306 463.981 434.741 495.801 434.741 495.801C434.741 495.801 418.91 504.237 405.997 499.963C405.997 499.963 393.965 449.847 387.339 423.251C381.074 398.057 372.593 355.947 372.593 355.947L360.539 410.224C360.539 410.224 361.421 426.507 360.924 437.906C360.336 451.158 348.915 494.083 348.915 494.083C348.915 494.083 332.111 503.853 318.633 493.698C318.633 493.698 319.741 419.338 319.379 403.394C318.678 372.139 320.51 306.441 321.64 266.072L421.828 272.88Z" fill="black"/>
<path opacity="0.2" d="M372.593 355.946L365.65 319.038C365.65 319.038 349.819 316.776 341.859 309.652C341.859 309.652 347.06 319.083 361.874 322.769L368.523 359.746L360.562 410.133L372.593 355.946Z" fill="black"/>
<path d="M435.103 496.435C431.846 500.686 417.372 504.916 405.703 500.958L403.69 492.183C412.465 494.92 427.707 492.341 434.877 486.801L435.103 496.435Z" fill="#E0E8F1"/>
<path d="M348.666 496.525C344.55 499.985 329.058 501.523 318.565 495.281L318.406 484.946C326.367 489.469 342.809 490.984 351.018 487.094L348.666 496.525Z" fill="#E0E8F1"/>
<path d="M244.295 264.761C240.972 263.902 237.605 263.222 234.209 262.725C231.653 262.318 230.183 263.381 224.122 266.932C218.061 270.482 216.772 272.246 216.252 274.214C216.028 275.079 216.082 275.992 216.407 276.825C216.732 277.657 217.311 278.366 218.061 278.85C217.585 279.277 217.228 279.821 217.023 280.427C216.819 281.033 216.775 281.682 216.896 282.31C217.017 282.938 217.298 283.525 217.712 284.012C218.126 284.5 218.659 284.872 219.26 285.092C218.896 285.509 218.642 286.01 218.519 286.55C218.397 287.09 218.41 287.652 218.558 288.185C218.706 288.718 218.984 289.206 219.367 289.606C219.75 290.006 220.226 290.304 220.752 290.475C220.495 291.103 220.383 291.781 220.423 292.458C220.464 293.136 220.656 293.795 220.987 294.388C221.317 294.981 221.776 295.492 222.331 295.884C222.885 296.275 223.521 296.536 224.19 296.649C227.484 297.249 230.817 297.604 234.163 297.712L244.295 264.761Z" fill="#F28F8F"/>
<path d="M258.543 535.877L206.504 27.2973L210.824 26.845L262.84 535.537C262.998 537.166 258.679 537.528 258.543 535.877Z" fill="#455A64"/>
<path d="M234.163 297.599C235.384 297.599 236.9 295.563 238.008 294.252C239.116 292.94 240.541 291.312 240.405 290.203C240.202 288.643 237.985 288.666 237.985 288.666C238.377 288.376 238.734 288.042 239.048 287.67C240.405 286.291 237.85 284.527 235.633 285.409C235.633 285.409 236.583 284.821 236.583 284.188C236.561 283.8 236.46 283.421 236.287 283.073C236.114 282.725 235.872 282.416 235.576 282.165C235.28 281.913 234.936 281.724 234.565 281.609C234.194 281.494 233.803 281.456 233.417 281.496C234.977 280.66 234.367 278.443 233.259 276.747C232.852 276.725 232.444 276.725 232.037 276.747C230.867 283.763 231.601 290.964 234.163 297.599V297.599Z" fill="#F28F8F"/>
<path d="M220.752 290.361C222.232 290.848 223.743 291.234 225.275 291.515C226.77 291.839 228.279 292.088 229.798 292.261C231.304 292.36 232.801 291.954 234.05 291.108C235.392 290.354 236.704 289.54 237.985 288.665C236.831 289.714 235.582 290.653 234.254 291.47C232.95 292.435 231.35 292.915 229.731 292.827C228.207 292.622 226.697 292.327 225.207 291.945C223.666 291.592 222.171 291.06 220.752 290.361V290.361Z" fill="#B16668"/>
<path d="M235.633 285.409C234.384 286.101 233.093 286.713 231.766 287.241C231.054 287.554 230.282 287.709 229.504 287.693C228.788 287.613 228.078 287.484 227.379 287.308C224.603 286.703 221.863 285.948 219.169 285.047C221.974 285.522 224.733 286.223 227.492 286.833C228.169 287.01 228.856 287.146 229.55 287.241C230.227 287.234 230.899 287.12 231.54 286.901C232.965 286.426 234.276 285.884 235.633 285.409Z" fill="#B16668"/>
<path d="M233.417 281.496C232.211 282.13 230.867 282.457 229.504 282.446C228.167 282.237 226.85 281.912 225.569 281.474C223.036 280.66 220.503 279.8 218.061 278.737C220.662 279.348 223.195 280.185 225.75 280.999C226.995 281.426 228.264 281.781 229.55 282.062C230.863 282.128 232.177 281.936 233.417 281.496V281.496Z" fill="#B16668"/>
<path d="M213.38 27.4554C213.276 28.3975 212.895 29.2877 212.286 30.0135C211.676 30.7393 210.865 31.2682 209.955 31.5333C209.045 31.7985 208.077 31.788 207.173 31.5032C206.269 31.2183 205.47 30.672 204.876 29.9331C204.283 29.1943 203.921 28.2961 203.838 27.352C203.755 26.4078 203.953 25.4602 204.408 24.6288C204.863 23.7973 205.554 23.1194 206.394 22.6806C207.234 22.2418 208.186 22.0618 209.128 22.1634C209.756 22.2281 210.365 22.4168 210.92 22.7185C211.474 23.0203 211.963 23.4292 212.359 23.9214C212.754 24.4137 213.048 24.9795 213.223 25.5861C213.399 26.1928 213.452 26.8281 213.38 27.4554V27.4554Z" fill="#37474F"/>
<path d="M212.317 18.4544C212.464 19.72 212.102 20.9921 211.311 21.991C210.52 22.9898 209.364 23.6335 208.099 23.7804C206.833 23.9274 205.561 23.5655 204.562 22.7746C203.563 21.9836 202.92 20.8282 202.773 19.5626C201.981 12.7779 205.781 3.73169 205.781 3.73169C205.781 3.73169 211.525 11.6924 212.317 18.4544Z" fill="#37474F"/>
<path d="M206.934 31.3906C179.795 71.5785 134.067 59.6375 97.5651 61.2206C58.0105 62.9168 35.4175 78.0918 25.1953 96.5461C36.2317 92.3622 68.3684 92.023 79.2691 99.2148C79.2691 99.2148 41.9308 129.542 46.3182 172.421C56.0881 153.04 74.9495 137.277 115.002 141.28C150.282 144.898 195.536 156.206 216.704 127.122L206.934 31.3906Z" fill="#FF7600"/>
<path opacity="0.7" d="M140.105 75.2194L147.206 91.0503L164.643 91.5931C164.875 91.5977 165.099 91.6719 165.288 91.806C165.477 91.9402 165.621 92.1281 165.702 92.3453C165.782 92.5625 165.796 92.7989 165.74 93.0237C165.684 93.2486 165.562 93.4514 165.389 93.6059L152.453 105.298L157.316 122.034C157.386 122.257 157.387 122.497 157.318 122.721C157.249 122.945 157.113 123.142 156.929 123.287C156.744 123.432 156.521 123.517 156.287 123.532C156.053 123.546 155.82 123.489 155.619 123.368L140.512 114.684L126.151 124.544C125.957 124.668 125.73 124.733 125.5 124.729C125.269 124.725 125.045 124.654 124.854 124.524C124.664 124.394 124.516 124.211 124.429 123.997C124.342 123.783 124.319 123.549 124.365 123.323L127.96 106.271L114.188 95.5961C113.998 95.4571 113.855 95.2634 113.778 95.041C113.701 94.8185 113.694 94.5779 113.758 94.3514C113.822 94.1249 113.954 93.9235 114.136 93.774C114.318 93.6246 114.541 93.5344 114.776 93.5154L132.099 91.6609L138.002 75.2646C138.095 75.0672 138.242 74.8998 138.425 74.781C138.608 74.6622 138.821 74.5968 139.039 74.5921C139.258 74.5874 139.473 74.6436 139.661 74.7544C139.85 74.8652 140.003 75.0262 140.105 75.2194V75.2194Z" fill="white"/>
<path d="M287.762 273.558C287.762 273.558 271.931 280.547 261.709 285.115C253.929 288.62 253.862 289.796 251.351 292.578C248.841 295.36 238.46 296.785 238.46 296.785L238.166 294.048C239.252 292.759 240.428 291.266 240.428 290.203C240.247 288.643 238.053 288.666 238.053 288.666C238.435 288.373 238.791 288.048 239.116 287.693C240.111 286.63 238.913 285.432 237.33 285.183L236.968 281.881C235.866 280.822 234.901 279.629 234.095 278.33V278.33C233.787 277.834 233.522 277.312 233.304 276.77C231.021 276.792 228.793 277.467 226.881 278.715C225.615 281.202 223.624 284.256 220.096 284.369C217.224 284.369 217.179 283.125 218.491 280.14C219.482 277.305 220.755 274.578 222.29 271.998C223.738 269.895 231.811 266.344 234.344 265.213C236.877 264.082 238.867 264.105 243.707 264.603C246.569 265.1 249.513 264.763 252.188 263.63C254.45 262.861 266.504 255.489 266.504 255.489L287.762 273.558Z" fill="#FFA8A7"/>
<path d="M236.945 281.881C239.546 285.16 245.426 286.585 249.904 286.223C245.74 287.346 241.326 287.108 237.307 285.544L236.945 281.881Z" fill="#F28F8F"/>
<path d="M336.069 163.85C317.004 168.871 314.245 176.153 305.425 201.437C297.623 224.053 293.416 236.83 293.416 236.83L261.166 258.428C261.166 258.428 267.951 263.064 269.625 281.745C269.625 281.745 287.355 274.078 304.204 266.909C313.951 262.77 316.19 259.808 320.645 249.45C325.734 237.622 335.911 212.609 335.911 212.609L336.069 163.85Z" fill="#37474F"/>
<path d="M408.71 144.604C416.942 138.362 424.021 153.153 426.803 163.692C429.585 174.231 428.725 188.117 422.529 213.763C421.104 219.552 419.928 232.76 420.878 249.676C421.873 267.384 422.076 276.159 422.981 288.846C422.981 288.846 400.863 304.836 360.313 301.036C328.448 298.028 320.939 283.419 320.939 283.419C320.939 283.419 321.482 236.989 322.749 213.491C324.422 182.621 329.104 169.119 336.069 163.737C336.069 163.737 350.385 159.056 371.824 154.193C391.636 149.783 400.184 151.05 408.71 144.604Z" fill="#455A64"/>
<path d="M347.219 90.1458C345.51 90.6062 343.942 91.4806 342.652 92.6916C341.362 93.9026 340.39 95.4128 339.823 97.0887C338.489 100.21 337.765 105.796 343.238 121.174C345.338 127.166 348.326 132.807 352.104 137.91C353.209 139.576 354.921 140.745 356.875 141.167L355.654 129.067L354.569 120.699C354.569 120.699 360.878 113.915 361.014 107.944C361.288 103.698 360.16 99.4785 357.803 95.9353L347.219 90.1458Z" fill="#37474F"/>
<path d="M345.59 90.6206C346.269 83.8359 354.252 75.0159 370.784 72.89C384.353 71.1486 392.631 75.1515 397.923 82.773C403.215 90.3944 400.908 100.865 400.908 100.865L357.938 101.273L345.59 90.6206Z" fill="#37474F"/>
<path d="M344.889 133.59C351.38 136.146 353.935 130.989 353.935 130.989L356.355 158.852C345.884 174.841 370.309 178.821 385.982 158.988C387.101 157.588 387.665 155.824 387.565 154.035L387.067 146.029C388.873 145.845 390.664 145.535 392.427 145.102C397.9 143.812 401.044 139.154 402.242 133.025C404.318 119.68 403.17 106.032 398.895 93.2214C398.516 91.932 397.843 90.7482 396.928 89.7632C396.014 88.7781 394.883 88.0188 393.626 87.5449C387.022 85.2833 381.323 90.3492 372.616 94.5105C368.907 96.2971 359.657 97.6541 357.124 96.772C360.607 100.097 360.584 111.246 357.554 116.108C356.782 117.354 355.88 118.514 354.863 119.569C352.986 121.491 350.973 117.081 349.141 115.407C348.262 114.777 347.248 114.359 346.18 114.187C345.113 114.015 344.019 114.093 342.987 114.415C341.954 114.738 341.01 115.295 340.23 116.044C339.449 116.793 338.853 117.713 338.489 118.732C337.915 120.126 337.626 121.62 337.638 123.127C337.651 124.635 337.964 126.124 338.561 127.509C339.157 128.893 340.024 130.144 341.111 131.188C342.198 132.233 343.482 133.049 344.889 133.59V133.59Z" fill="#FFA8A7"/>
<path d="M386.977 145.939C380.875 146.583 374.707 146.115 368.771 144.559C364.248 143.066 360.109 137.548 358.436 131.894C358.775 136.417 361.421 144.582 368.183 147.499C374.945 150.416 382.522 150.032 387.271 149.761L386.977 145.939Z" fill="#F28F8F"/>
<path d="M373.181 102.992L368.206 107.515C367.604 106.819 367.3 105.914 367.359 104.996C367.418 104.078 367.836 103.22 368.523 102.607C368.851 102.32 369.233 102.102 369.647 101.966C370.062 101.83 370.499 101.778 370.933 101.814C371.368 101.85 371.791 101.972 372.177 102.175C372.563 102.377 372.905 102.655 373.181 102.992V102.992Z" fill="#37474F"/>
<path d="M396.114 102.042L389.668 100.232C389.958 99.3869 390.559 98.6831 391.348 98.2633C392.137 97.8435 393.056 97.739 393.92 97.9708C394.746 98.227 395.438 98.7969 395.848 99.5581C396.258 100.319 396.354 101.211 396.114 102.042V102.042Z" fill="#37474F"/>
<path d="M370.92 111.54C370.977 112.079 371.192 112.589 371.539 113.005C371.886 113.421 372.349 113.725 372.869 113.877C373.389 114.03 373.942 114.025 374.459 113.863C374.976 113.701 375.434 113.39 375.773 112.967C376.113 112.545 376.319 112.032 376.367 111.492C376.415 110.952 376.301 110.411 376.04 109.936C375.78 109.461 375.384 109.074 374.903 108.824C374.422 108.574 373.878 108.473 373.34 108.532C372.621 108.612 371.962 108.973 371.509 109.537C371.055 110.1 370.844 110.821 370.92 111.54Z" fill="#263238"/>
<path d="M390.912 108.306C390.967 108.842 391.18 109.35 391.523 109.766C391.866 110.182 392.325 110.487 392.841 110.644C393.357 110.8 393.908 110.8 394.424 110.645C394.94 110.489 395.399 110.184 395.743 109.769C396.086 109.353 396.3 108.845 396.356 108.309C396.412 107.773 396.308 107.232 396.058 106.754C395.807 106.277 395.422 105.884 394.949 105.625C394.476 105.366 393.937 105.252 393.4 105.298C393.024 105.29 392.652 105.367 392.31 105.523C391.969 105.679 391.667 105.91 391.427 106.2C391.188 106.489 391.017 106.829 390.928 107.194C390.839 107.559 390.833 107.939 390.912 108.306V108.306Z" fill="#263238"/>
<path d="M380.667 105.344L384.195 122.464L393.083 118.393C389.971 113.17 385.728 108.712 380.667 105.344V105.344Z" fill="#F28F8F"/>
<path d="M377.569 126.806L384.806 128.615C384.711 129.106 384.516 129.573 384.233 129.986C383.95 130.399 383.585 130.749 383.16 131.014C382.736 131.279 382.261 131.454 381.766 131.528C381.271 131.601 380.766 131.572 380.283 131.442C379.324 131.162 378.509 130.525 378.004 129.663C377.5 128.801 377.344 127.779 377.569 126.806Z" fill="#B16668"/>
<path d="M378.428 128.05C378.127 128.016 377.824 128.016 377.523 128.05C377.582 128.848 377.887 129.608 378.398 130.224C378.909 130.841 379.599 131.282 380.373 131.487C380.762 131.553 381.16 131.553 381.549 131.487C381.563 130.625 381.249 129.789 380.669 129.151C380.089 128.512 379.288 128.119 378.428 128.05Z" fill="#F28F8F"/>
<path d="M467.059 0C467.746 0.127246 468.394 0.411871 468.952 0.831557C469.511 1.25124 469.964 1.79458 470.277 2.41898C470.591 3.04337 470.755 3.73185 470.758 4.43043C470.76 5.12901 470.601 5.81871 470.293 6.44544C473.097 3.46019 473.979 2.73649 476.512 4.56835C478.231 5.78959 477.688 8.63915 477.688 8.63915C478.209 8.16079 478.891 7.89539 479.599 7.89539C480.307 7.89539 480.988 8.16079 481.51 8.63915C482.064 9.09376 482.477 9.69669 482.702 10.3775C482.926 11.0583 482.952 11.7888 482.776 12.4838C482.776 12.4838 484.201 11.3756 485.762 13.2075C486.364 13.9141 486.806 14.7433 487.056 15.6376C487.306 16.5319 487.358 17.4699 487.209 18.3865L485.513 17.5045C485.211 18.0483 484.785 18.5131 484.269 18.8614C483.209 20.1197 482.403 21.5712 481.894 23.1357C481.216 24.7641 480.605 26.7542 478.932 27.003C478.619 27.0976 478.29 27.1233 477.966 27.0783C477.642 27.0334 477.332 26.9188 477.057 26.7426C476.782 26.5663 476.548 26.3326 476.372 26.0574C476.196 25.7822 476.082 25.4722 476.037 25.1485C476.039 24.4357 476.145 23.727 476.354 23.0453C476.354 23.0453 475.2 25.4425 472.984 24.8545C470.768 24.2665 470.971 22.2085 471.016 20.8968C469.637 21.2813 468.212 21.5074 467.579 20.4219C467.235 18.6095 467.19 16.7534 467.443 14.9263L463.847 13.7277C463.847 13.7277 460.613 13.004 460.817 10.5841C461.246 6.2419 464.842 0.158309 467.059 0Z" fill="#FFA8A7"/>
<path d="M455.298 42.2462C455.453 38.7484 454.867 35.2573 453.58 32.0013C452.382 28.2632 452.485 24.2295 453.874 20.5579C454.756 16.695 456.061 12.9409 457.764 9.36315C458.951 8.2621 460.439 7.53802 462.038 7.28251C463.282 7.00837 464.571 7.00837 465.815 7.28251L471.65 12.4163C471.65 12.4163 471.401 14.4517 469.863 14.904C469.047 15.17 468.168 15.17 467.353 14.904C467.353 14.904 466.787 18.9748 467.624 19.902C468.461 20.8292 469.117 21.1459 470.745 20.0377C470.745 21.5529 470.858 23.905 472.622 24.3347C474.386 24.7644 476.354 22.8194 476.354 22.8194C476.354 22.8194 476.354 26.8676 477.62 27.0938C478.887 27.3199 483.591 14.8135 483.591 14.8135L487.209 18.1606C486.214 21.5077 483.342 31.9335 481.487 36.0043C479.141 40.0492 477.778 44.5887 477.507 49.257C476.942 56.4036 474.273 99.1923 474.273 99.1923L448.876 90.5757C448.876 90.5757 455.095 45.8647 455.298 42.2462Z" fill="#FFA8A7"/>
<path d="M460.477 16.2607C462.919 17.6079 465.126 19.3416 467.013 21.3945C469.358 24.0541 471.198 27.1198 472.441 30.4407C472.096 27.2974 470.925 24.3014 469.049 21.7563C469.542 21.7516 470.025 21.6191 470.451 21.3718C470.247 23.2716 470.451 25.0808 472.712 25.3522C473.241 25.4604 473.789 25.4274 474.301 25.2567C474.814 25.086 475.272 24.7836 475.63 24.3797C475.531 24.8889 475.589 25.416 475.795 25.8921C476 26.3682 476.345 26.7712 476.783 27.0484C477.26 27.3872 477.844 27.5418 478.426 27.4836C479.008 27.4254 479.549 27.1583 479.949 26.7317C480.106 26.5426 480.242 26.338 480.357 26.1211C480.369 26.0844 480.369 26.0448 480.357 26.008V26.008L480.063 26.2342C479.727 26.5198 479.328 26.7203 478.899 26.8188C478.47 26.9172 478.024 26.9106 477.597 26.7996C477.327 26.603 477.104 26.3488 476.943 26.0556C476.783 25.7623 476.69 25.4371 476.67 25.1034C476.629 24.0566 476.759 23.0101 477.055 22.0051V21.892C477.055 21.7789 476.851 21.892 476.761 21.892C476.308 22.3217 475.969 22.8419 475.539 23.2942C475.255 23.5993 474.9 23.8308 474.506 23.9686C474.112 24.1065 473.691 24.1467 473.278 24.0857C471.582 23.8822 471.401 21.8242 471.604 20.3994C471.604 19.9471 471.74 19.4948 471.808 19.0424V18.8841C471.555 19.0391 471.339 19.2475 471.175 19.4947C470.975 19.7473 470.739 19.9683 470.473 20.1506C470.155 20.4227 469.76 20.5887 469.343 20.6255C468.438 20.6255 468.144 19.834 467.918 19.1103C467.549 17.9079 467.494 16.6308 467.76 15.4013C467.76 15.4013 467.76 15.4013 467.76 15.4013H468.076C471.31 16.1929 472.78 13.1398 471.83 12.1447C469.969 10.2389 467.906 8.54033 465.679 7.07879C464.493 6.90501 463.283 6.98205 462.128 7.30495L465.453 7.50849C465.453 7.50849 471.401 12.303 471.242 13.0493C471.107 13.6247 470.753 14.1243 470.254 14.4413C469.755 14.7583 469.152 14.8675 468.574 14.7455C466.954 14.461 465.375 13.9827 463.87 13.3207C463.508 14.5646 460.477 16.2607 460.477 16.2607ZM462.603 15.2883C463.117 15.0815 463.553 14.7174 463.847 14.2479C463.847 14.2479 464.593 14.5193 467.081 15.1526C466.774 15.6533 466.502 16.1747 466.267 16.713C466.112 16.998 465.913 17.2573 465.679 17.482C465.609 17.5354 465.533 17.5809 465.453 17.6177C464.567 16.7664 463.614 15.9874 462.603 15.2883V15.2883Z" fill="#F28F8F"/>
<path d="M408.71 144.604C415.947 135.558 422.008 132.663 425.672 128.095C431.665 120.654 444.579 100.572 444.579 100.572L452.879 57.8508C455.14 65.4271 471.831 71.669 476.557 67.8469C476.557 67.8469 476.128 82.8637 474.409 108.306C473.798 117.352 473.481 118.981 461.789 136.236C456.271 144.378 450.708 153.176 441.865 166.79C435.465 176.628 429.675 185.765 426.486 195.512C425.627 199.651 416.965 199.56 411.13 186.262C404.707 171.607 407.489 149.693 408.71 144.604Z" fill="#37474F"/>
<path d="M588.317 426.575C585.848 425.661 583.239 425.179 580.606 425.151C578.118 424.947 577.326 424.472 576.851 423.929C574.462 420.488 570.97 417.965 566.953 416.777C562.935 415.589 558.633 415.806 554.756 417.393C553.668 414.018 551.349 411.175 548.261 409.432C545.172 407.689 541.54 407.172 538.088 407.985C538.36 400.206 528.454 391.86 519.544 389.893C510.995 388.084 503.554 388.853 498.669 394.416C493.445 384.216 473.001 381.367 461.919 386.749C455.564 389.848 450.159 393.036 447.513 398.871C445.775 402.483 444.951 406.468 445.116 410.473C440.796 406.651 432.157 405.633 426.413 407.85C420.193 410.27 419.628 414.951 419.424 419.7C415.737 418.649 411.839 418.579 408.117 419.497C404.204 420.673 401.965 423.748 402.485 426.281C399.387 426.123 392.014 428.543 392.874 431.89C393.824 435.554 402.236 435.192 405.38 435.079C408.351 434.847 411.3 434.386 414.2 433.699C415.649 434.238 417.178 434.529 418.723 434.559C424.083 434.559 426.345 432.297 427.204 430.216C429.827 435.735 439.145 439.941 445.726 441.637C458.142 444.804 475.692 442.859 483.336 433.586C484.217 435.347 485.476 436.891 487.022 438.109C490.307 440.764 494.305 442.386 498.511 442.768C503.599 443.243 517.259 443.899 521.127 435.803C523.84 441.185 536.008 443.628 545.28 442.316C548.865 441.779 552.353 440.728 555.638 439.195C557.688 438.12 559.674 436.926 561.586 435.622C562.324 435.111 563.187 434.81 564.083 434.75C564.979 434.691 565.874 434.875 566.674 435.282C573.216 437.59 580.351 437.59 586.893 435.282C592.026 433.111 593.18 428.769 588.317 426.575Z" fill="white"/>
</svg>
