<svg width="29" height="29" viewBox="0 0 29 29" fill="none" xmlns="http://www.w3.org/2000/svg">
<g clip-path="url(#clip0_3822_813)">
<path d="M7.20504 17.9679C9.19464 17.9679 10.8075 16.359 10.8075 14.3744C10.8075 12.3897 9.19464 10.7808 7.20504 10.7808C5.21543 10.7808 3.60254 12.3897 3.60254 14.3744C3.60254 16.359 5.21543 17.9679 7.20504 17.9679Z" stroke="#237BFF" stroke-width="2.17655" stroke-linecap="round" stroke-linejoin="round"/>
<path d="M19.8137 26.0535C21.8033 26.0535 23.4162 24.4446 23.4162 22.4599C23.4162 20.4752 21.8033 18.8663 19.8137 18.8663C17.8241 18.8663 16.2112 20.4752 16.2112 22.4599C16.2112 24.4446 17.8241 26.0535 19.8137 26.0535Z" stroke="#237BFF" stroke-width="2.17655" stroke-linecap="round" stroke-linejoin="round"/>
<path d="M19.8137 9.88237C21.8033 9.88237 23.4162 8.27347 23.4162 6.28878C23.4162 4.3041 21.8033 2.69519 19.8137 2.69519C17.8241 2.69519 16.2112 4.3041 16.2112 6.28878C16.2112 8.27347 17.8241 9.88237 19.8137 9.88237Z" stroke="#237BFF" stroke-width="2.17655" stroke-linecap="round" stroke-linejoin="round"/>
<path d="M16.7837 8.23193L10.2349 12.4315" stroke="#237BFF" stroke-width="2.17655" stroke-linecap="round" stroke-linejoin="round"/>
<path d="M10.2349 16.3173L16.7837 20.5168" stroke="#237BFF" stroke-width="2.17655" stroke-linecap="round" stroke-linejoin="round"/>
</g>
<defs>
<clipPath id="clip0_3822_813">
<rect width="28.82" height="28.7487" fill="white"/>
</clipPath>
</defs>
</svg>
