<svg width="29" height="30" viewBox="0 0 29 30" fill="none" xmlns="http://www.w3.org/2000/svg">
<g clip-path="url(#clip0_3822_853)">
<path d="M5.40381 15.9291V23.6117C5.40381 23.85 5.4987 24.0785 5.6676 24.247C5.8365 24.4155 6.06557 24.5101 6.30443 24.5101H22.5157C22.7545 24.5101 22.9836 24.4155 23.1525 24.247C23.3214 24.0785 23.4163 23.85 23.4163 23.6117V15.9293" stroke="#237BFF" stroke-width="2.17655" stroke-linecap="round" stroke-linejoin="round"/>
<path d="M6.08313 4.74536H22.7369C22.9327 4.74536 23.1231 4.80896 23.2793 4.92652C23.4355 5.04409 23.5492 5.20923 23.6029 5.39695L25.2175 11.0341H3.60254L5.21716 5.39695C5.27093 5.20923 5.38453 5.04409 5.54078 4.92652C5.69703 4.80896 5.88742 4.74536 6.08313 4.74536Z" stroke="#237BFF" stroke-width="2.17655" stroke-linecap="round" stroke-linejoin="round"/>
<path d="M10.8075 11.0342V12.831C10.8075 13.7841 10.428 14.6981 9.75239 15.372C9.07679 16.046 8.16048 16.4246 7.20504 16.4246C6.2496 16.4246 5.33329 16.046 4.65769 15.372C3.98209 14.6981 3.60254 13.7841 3.60254 12.831V11.0342" stroke="#237BFF" stroke-width="2.17655" stroke-linecap="round" stroke-linejoin="round"/>
<path d="M18.0124 11.0342V12.831C18.0124 13.7841 17.6328 14.6981 16.9572 15.372C16.2816 16.046 15.3653 16.4246 14.4099 16.4246C13.4544 16.4246 12.5381 16.046 11.8625 15.372C11.1869 14.6981 10.8074 13.7841 10.8074 12.831V11.0342" stroke="#237BFF" stroke-width="2.17655" stroke-linecap="round" stroke-linejoin="round"/>
<path d="M25.2175 11.0342V12.831C25.2175 13.7841 24.8379 14.6981 24.1623 15.372C23.4867 16.046 22.5704 16.4246 21.615 16.4246C20.6595 16.4246 19.7432 16.046 19.0676 15.372C18.392 14.6981 18.0125 13.7841 18.0125 12.831V11.0342" stroke="#237BFF" stroke-width="2.17655" stroke-linecap="round" stroke-linejoin="round"/>
</g>
<defs>
<clipPath id="clip0_3822_853">
<rect width="28.82" height="28.7487" fill="white" transform="translate(0 0.253418)"/>
</clipPath>
</defs>
</svg>
