<svg width="97" height="115" viewBox="0 0 97 115" fill="none" xmlns="http://www.w3.org/2000/svg">
<path fill-rule="evenodd" clip-rule="evenodd" d="M78.7872 2.14085C88.1347 3.60923 95.4578 10.769 96.3118 20.1926C97.6643 35.1154 95.2076 52.6788 91.4469 67.5665C89.1296 76.7405 81.991 83.9306 72.6632 85.5192C72.3327 85.5755 72.0008 85.6305 71.6676 85.6844C67.3699 86.3788 65.221 86.726 63.7341 87.526C62.3812 88.2539 61.4362 89.0608 60.5055 90.283C59.4825 91.6263 58.8772 93.4685 57.6667 97.153L53.0014 111.353C51.4921 115.947 44.9895 115.935 43.4962 111.336L38.9029 97.1889C37.7018 93.4897 37.1013 91.64 36.0797 90.2909C35.15 89.0631 34.2052 88.2526 32.8502 87.5205C31.3614 86.7159 29.206 86.3654 24.8951 85.6642C24.6038 85.6168 24.3135 85.5685 24.0242 85.5192C14.6963 83.9306 7.5578 76.7405 5.24046 67.5665C1.47984 52.6787 -0.976921 35.1154 0.375562 20.1926C1.22963 10.769 8.5527 3.60922 17.9002 2.14084C36.0713 -0.713605 60.6161 -0.7136 78.7872 2.14085ZM70.4913 40.509C69.237 37.6038 65.4181 35.3879 57.7803 30.9561L53.3608 28.3916C45.673 23.9309 41.8292 21.7005 38.6747 22.0606C36.0411 22.3613 33.6495 23.7387 32.0677 25.8657C30.173 28.4133 30.173 32.8574 30.173 41.7456L30.173 46.8745C30.173 55.7626 30.173 60.2067 32.0677 62.7544C33.6495 64.8814 36.0411 66.2587 38.6747 66.5594C41.8292 66.9196 45.673 64.6892 53.3608 60.2284L57.7803 57.664C65.4181 53.2322 69.237 51.0163 70.4913 48.1111C71.5386 45.6853 71.5386 42.9348 70.4913 40.509Z" fill="#237BFF"/>
</svg>
