<svg width="70" height="70" viewBox="0 0 70 70" fill="none" xmlns="http://www.w3.org/2000/svg">
<path d="M38.6976 25.7548C41.5452 28.6024 41.5452 33.2192 38.6976 36.0668C35.8501 38.9144 31.2333 38.9144 28.3857 36.0668C25.5381 33.2192 25.5381 28.6024 28.3857 25.7548C31.2333 22.9072 35.8501 22.9072 38.6976 25.7548Z" stroke="white" stroke-width="5" stroke-linecap="round" stroke-linejoin="round"/>
<path d="M61.2497 40.7809V17.7858C61.2497 14.5629 58.6393 11.9525 55.4163 11.9525H11.6663C8.44342 11.9525 5.83301 14.5629 5.83301 17.7858V44.0358C5.83301 47.2588 8.44342 49.8692 11.6663 49.8692H35.7609" stroke="white" stroke-width="5" stroke-linecap="round" stroke-linejoin="round"/>
<path d="M14.583 41.125H20.4163" stroke="white" stroke-width="5" stroke-linecap="round" stroke-linejoin="round"/>
<path d="M46.667 20.7083H52.5003" stroke="white" stroke-width="5" stroke-linecap="round" stroke-linejoin="round"/>
<path d="M44.8408 43.6304C39.3837 43.7966 35 48.2475 35 53.7483C35 59.3512 39.5442 63.8954 45.1471 63.8954C49.2217 63.8954 52.71 61.4804 54.3229 58.0154" stroke="white" stroke-width="5" stroke-linecap="round" stroke-linejoin="round"/>
<path d="M54.0196 58.0475C48.4167 58.0475 43.8726 53.5033 43.8726 47.9004C43.8726 42.2975 48.4167 37.7533 54.0196 37.7533C59.6255 37.7533 64.1667 42.2975 64.1667 47.9004C64.1667 53.5033 59.6255 58.0475 54.0196 58.0475Z" stroke="white" stroke-width="5" stroke-linecap="round" stroke-linejoin="round"/>
</svg>
