<svg width="70" height="70" viewBox="0 0 70 70" fill="none" xmlns="http://www.w3.org/2000/svg">
<path d="M37.7419 32.2583L17.1211 52.8791" stroke="white" stroke-width="5" stroke-linecap="round" stroke-linejoin="round"/>
<path d="M19.3462 37.9138L9.24582 35.528C8.13457 35.2655 7.74373 33.8859 8.54873 33.078L16.5812 25.0455C17.1208 24.5059 17.8529 24.1968 18.62 24.1909L27.6762 24.1122" stroke="white" stroke-width="5" stroke-linecap="round" stroke-linejoin="round"/>
<path d="M57.9805 26.177L60.3371 14.837C60.9788 11.7512 58.2488 9.02118 55.163 9.66285L43.823 12.0195C40.4834 12.7137 37.4209 14.3674 35.0117 16.7795L25.7075 26.0808C22.158 29.6303 19.848 34.2328 19.1188 39.1999L19.0867 39.4128C18.6259 42.5833 19.6875 45.7828 21.9509 48.0491C24.2142 50.3124 27.4167 51.3741 30.5871 50.9103L30.8 50.8783C35.7671 50.152 40.3696 47.8391 43.9192 44.2895L53.2205 34.9883C55.6325 32.5791 57.2863 29.5166 57.9805 26.177V26.177Z" stroke="white" stroke-width="5" stroke-linecap="round" stroke-linejoin="round"/>
<path d="M39.083 13.7491C45.8234 18.3458 51.6538 24.1762 56.2505 30.9166" stroke="white" stroke-width="5" stroke-linecap="round" stroke-linejoin="round"/>
<path d="M32.0835 50.6537L34.4693 60.7542C34.7318 61.8654 36.1114 62.2562 36.9193 61.4512L44.9518 53.4187C45.4914 52.8792 45.8006 52.1471 45.8064 51.38L45.8852 42.3237" stroke="white" stroke-width="5" stroke-linecap="round" stroke-linejoin="round"/>
</svg>
