<svg width="38" height="38" viewBox="0 0 38 38" fill="none" xmlns="http://www.w3.org/2000/svg">
<path d="M3.16666 30.0833C3.16666 26.5857 6.00241 23.7499 9.49999 23.7499H15.8333C19.3309 23.7499 22.1667 26.5857 22.1667 30.0833" stroke="white" stroke-width="3" stroke-linecap="round" stroke-linejoin="round"/>
<path d="M16.5853 9.53975C18.7494 11.7039 18.7494 15.2127 16.5853 17.3769C14.4211 19.541 10.9123 19.541 8.74815 17.3769C6.58399 15.2127 6.58399 11.7039 8.74815 9.53975C10.9123 7.37559 14.4211 7.37559 16.5853 9.53975" stroke="white" stroke-width="3" stroke-linecap="round" stroke-linejoin="round"/>
<path d="M25.3333 22.1666H30.0833C32.7069 22.1666 34.8333 24.293 34.8333 26.9166" stroke="white" stroke-width="3" stroke-linecap="round" stroke-linejoin="round"/>
<path d="M30.5073 10.6593C32.0531 12.2051 32.0531 14.7114 30.5073 16.2572C28.9615 17.8031 26.4552 17.8031 24.9094 16.2572C23.3636 14.7114 23.3636 12.2051 24.9094 10.6593C26.4552 9.11348 28.9615 9.11348 30.5073 10.6593" stroke="white" stroke-width="3" stroke-linecap="round" stroke-linejoin="round"/>
</svg>
