<svg width="609" height="561" viewBox="0 0 609 561" fill="none" xmlns="http://www.w3.org/2000/svg">
<path d="M555.79 75.0288C550.164 68.9928 544.183 63.296 537.88 57.9686C483.368 11.8172 396.552 -14.4776 322.957 8.39216C279.126 22.0056 250.253 59.8979 212.869 85.1522C165.847 116.91 104.323 127.749 48.9204 139.736C-25.8248 155.908 -95.0559 177.021 -138.865 238.26C-175.272 289.181 -186.061 356.143 -153.932 409.513C-123.365 460.195 -75.105 503.485 -22.8723 535.654C22.066 563.336 68.8496 572.007 117.826 542.981C149.825 524.013 173.662 495.811 198.15 469.061C225.808 438.712 261.107 401.232 304.96 391.997C346.686 383.196 391.494 399.064 433.653 396.55C503.318 392.409 566.688 345.456 593.087 285.994C624.391 215.369 608.24 131.304 555.79 75.0288Z" fill="#C5C8E1" fill-opacity="0.26"/>
</svg>
