<svg width="589" height="576" viewBox="0 0 589 576" fill="none" xmlns="http://www.w3.org/2000/svg">
<path d="M608.656 38.8495C602.428 34.4912 595.947 30.5067 589.246 26.9171C531.282 -4.19741 448.051 -11.2059 386.186 23.5539C349.339 44.2495 330.632 83.9509 301.831 113.898C265.601 151.56 212.289 173.156 164.711 194.611C100.52 223.555 42.2457 255.893 14.5826 319.507C-8.40038 372.399 -5.23048 434.823 33.9696 476.746C71.2449 516.547 123.029 546.285 176.251 565.236C222.041 581.545 265.834 580.366 304.348 544.791C329.512 521.544 345.548 491.544 362.45 462.728C381.514 430.059 406.086 389.493 443.796 372.74C479.672 356.787 523.072 362.473 560.549 352.102C622.481 334.978 670.505 280.478 682.833 221.813C697.431 152.144 666.711 79.4843 608.656 38.8495Z" fill="#C5C8E1" fill-opacity="0.26"/>
</svg>
