<svg width="620" height="638" viewBox="0 0 620 638" fill="none" xmlns="http://www.w3.org/2000/svg">
<path d="M307.482 588.759C307.482 596.415 247.127 602.706 172.698 602.706C98.2691 602.706 37.9143 596.466 37.9143 588.759C37.9143 581.052 98.2563 574.812 172.698 574.812C247.14 574.812 307.482 581.065 307.482 588.759Z" fill="#161826"/>
<path d="M23.8273 554.971L93.1141 554.664L162.414 554.55L301 554.333L439.586 554.55L508.886 554.664L578.173 554.971L508.886 555.29L439.586 555.392L301 555.609L162.414 555.392L93.1141 555.277L23.8273 554.971Z" fill="#263238"/>
<path d="M521.939 467.82C522.448 454.97 522.273 442.103 521.416 429.272C519.518 402.809 515.477 376.544 509.332 350.734C505.964 336.2 501.817 321.909 497.504 307.644C497.364 307.21 496.675 307.325 496.802 307.771C510.162 358.097 521.123 410.017 520.37 462.32C520.166 476.956 518.469 491.337 517.078 505.883C517.078 506.266 517.678 506.432 517.767 506.023C520.472 493.582 521.429 480.542 521.939 467.82Z" fill="#237BFF"/>
<path d="M496.802 307.771C496.802 307.771 476.552 359.156 481.095 371.239C485.637 383.323 494.952 385.888 494.952 385.888C494.952 385.888 482.562 403.573 491.226 420.161C499.89 436.749 519.107 435.958 520.383 454.766C520.395 454.766 521.467 376.139 496.802 307.771Z" fill="#237BFF"/>
<path d="M518.201 422.356C518.232 422.269 518.232 422.175 518.201 422.088C515.542 387.01 508.955 352.341 498.563 318.732C498.563 318.63 498.372 318.655 498.397 318.732C502.412 333.763 505.955 348.875 509.026 364.068C506.309 361.492 502.987 359.64 499.367 358.684C499.303 358.684 499.265 358.76 499.367 358.786C503.106 360.406 506.704 362.282 509.345 365.459C509.932 368.432 510.519 371.405 511.068 374.391C506.538 369.287 500.273 366.824 493.995 364.451C493.906 364.451 493.855 364.553 493.995 364.579C500.528 367.246 507.048 370.678 511.476 376.305C513.016 384.812 514.368 393.37 515.534 401.978C512.267 398.55 508.072 396.147 503.463 395.062C503.434 395.052 503.402 395.054 503.375 395.067C503.347 395.08 503.326 395.104 503.316 395.133C503.306 395.161 503.308 395.193 503.321 395.22C503.334 395.248 503.358 395.269 503.386 395.279C508.145 396.644 512.402 399.366 515.636 403.114L515.712 403.178C516.104 406.189 516.482 409.209 516.848 412.237C514.316 410.1 511.46 408.377 508.388 407.133C508.312 407.133 508.261 407.235 508.388 407.261C511.517 408.625 514.385 410.525 516.861 412.875C516.861 412.875 516.925 412.875 516.963 412.875C517.307 415.759 517.639 418.63 517.933 421.514C513.369 416.008 507.45 411.786 500.758 409.264C500.63 409.264 500.566 409.417 500.694 409.468C507.3 412.38 513.105 416.845 517.614 422.484C517.661 422.548 517.726 422.596 517.802 422.621C517.877 422.646 517.959 422.647 518.035 422.624C518.469 427.039 518.864 431.467 519.183 435.907C519.183 435.971 519.298 435.971 519.285 435.907C518.877 431.377 518.558 426.835 518.201 422.356Z" fill="#263238"/>
<path d="M501.932 353.541C498.272 351.247 494.085 349.929 489.771 349.713C489.751 349.713 489.732 349.721 489.717 349.736C489.703 349.75 489.695 349.77 489.695 349.79C489.695 349.81 489.703 349.83 489.717 349.844C489.732 349.858 489.751 349.866 489.771 349.866C493.935 350.638 497.977 351.959 501.791 353.797C501.821 353.797 501.85 353.789 501.876 353.774C501.902 353.758 501.923 353.737 501.937 353.711C501.952 353.684 501.959 353.655 501.958 353.625C501.957 353.595 501.948 353.566 501.932 353.541V353.541Z" fill="#263238"/>
<path d="M504.394 407.937C501.573 406.328 498.474 405.267 495.258 404.811C495.143 404.811 495.143 404.964 495.258 404.99C498.402 405.619 501.443 406.684 504.292 408.154C504.407 408.218 504.509 408.014 504.394 407.937Z" fill="#263238"/>
<path d="M575.161 372.069C566.6 377.988 558.736 384.859 551.721 392.549C544.5 400.691 538.923 410.154 535.299 420.417C527.602 441.817 523.463 464.335 523.049 487.075C522.788 499.665 524 512.242 526.661 524.551C526.679 524.644 526.734 524.726 526.813 524.778C526.892 524.831 526.989 524.85 527.082 524.832C527.175 524.813 527.257 524.758 527.309 524.679C527.362 524.6 527.381 524.504 527.362 524.41C524.059 502.689 524.184 480.584 527.732 458.901C531.203 437.643 536.664 414.521 550.177 397.244C557.54 387.84 566.765 380.439 575.774 372.796C576.259 372.388 575.646 371.724 575.161 372.069Z" fill="#237BFF"/>
<path d="M526.035 471.763C530.91 463.882 536.635 456.561 543.108 449.93C553.24 439.812 561.763 432.615 563.078 425.916C564.392 419.217 552.933 414.292 552.933 414.292C552.933 414.292 566.969 416.844 570.797 410.923C574.625 405.002 576.488 370.984 576.488 370.984C576.488 370.984 550.981 389.18 539.102 414.7C527.222 440.22 526.035 471.763 526.035 471.763Z" fill="#237BFF"/>
<path d="M567.365 402.935C565.675 402.688 563.964 402.628 562.261 402.757C562.057 402.757 562.07 403.114 562.261 403.114C563.945 403.114 565.617 403.037 567.301 403.114C567.314 403.125 567.329 403.133 567.345 403.137C567.361 403.14 567.378 403.14 567.394 403.136C567.41 403.132 567.425 403.124 567.437 403.113C567.45 403.101 567.459 403.087 567.465 403.072C567.47 403.056 567.472 403.039 567.47 403.023C567.467 403.006 567.461 402.99 567.451 402.977C567.441 402.964 567.428 402.953 567.413 402.945C567.398 402.938 567.382 402.935 567.365 402.935Z" fill="#263238"/>
<path d="M549.016 435.971C546.324 436.036 543.664 436.571 541.156 437.553C541.156 437.553 541.156 437.681 541.156 437.668C543.708 437.043 546.375 436.8 549.003 436.392C549.059 436.394 549.113 436.373 549.154 436.335C549.195 436.297 549.219 436.244 549.22 436.188C549.222 436.132 549.201 436.078 549.163 436.037C549.125 435.996 549.072 435.973 549.016 435.971V435.971Z" fill="#263238"/>
<path d="M543.517 424.563C542.399 424.547 541.283 424.645 540.186 424.857C540.071 424.857 540.071 425.061 540.186 425.061C541.303 425.119 542.423 425.068 543.529 424.908C543.567 424.896 543.599 424.873 543.622 424.841C543.645 424.809 543.656 424.77 543.655 424.731C543.653 424.692 543.639 424.654 543.614 424.624C543.589 424.594 543.555 424.572 543.517 424.563Z" fill="#263238"/>
<path d="M451.3 408.218C459.594 411.034 467.543 414.779 474.995 419.383C482.723 424.304 489.426 430.673 494.735 438.14C505.9 453.681 514.447 470.943 520.038 489.244C523.163 499.371 525.09 509.829 525.78 520.404C525.784 520.442 525.781 520.481 525.77 520.519C525.759 520.556 525.741 520.59 525.717 520.621C525.692 520.651 525.662 520.676 525.628 520.695C525.594 520.713 525.557 520.725 525.519 520.729C525.48 520.733 525.441 520.73 525.404 520.719C525.367 520.708 525.332 520.69 525.302 520.666C525.271 520.642 525.246 520.612 525.228 520.578C525.209 520.544 525.197 520.506 525.193 520.468C522.844 502.121 517.629 484.256 509.741 467.526C502.085 451.13 492.26 433.674 477.33 422.866C469.202 416.959 460.066 413.092 450.956 408.996C450.483 408.728 450.815 408.052 451.3 408.218Z" fill="#237BFF"/>
<path d="M514.092 477.543C508.324 472.292 501.995 467.692 495.22 463.826C484.693 457.969 476.08 454.116 473.528 449.012C470.976 443.908 479.04 437.247 479.04 437.247C479.04 437.247 468.284 442.53 463.83 438.65C459.377 434.771 449.986 407.644 449.986 407.644C449.986 407.644 474.829 416.474 490.346 434.44C505.862 452.406 514.092 477.543 514.092 477.543Z" fill="#237BFF"/>
<path d="M512.816 471.954C500.388 448.629 483.813 427.537 461.1 413.615C467.018 417.429 472.571 421.782 477.688 426.618C473.063 426.376 468.457 427.353 464.328 429.451C464.319 429.456 464.311 429.462 464.304 429.471C464.297 429.479 464.293 429.488 464.29 429.498C464.287 429.508 464.286 429.519 464.287 429.529C464.288 429.54 464.291 429.55 464.296 429.559C464.301 429.568 464.308 429.576 464.316 429.583C464.324 429.59 464.334 429.594 464.344 429.597C464.354 429.6 464.364 429.601 464.375 429.6C464.385 429.599 464.395 429.596 464.405 429.591C468.792 427.951 473.452 427.163 478.134 427.269C478.189 427.283 478.246 427.283 478.3 427.269C479.104 428.034 479.895 428.8 480.686 429.591C478.286 429.7 475.9 430.016 473.554 430.535C473.49 430.535 473.554 430.65 473.554 430.637C476.039 430.168 478.566 429.958 481.095 430.012C485.247 434.224 489.157 438.667 492.808 443.321C491.139 443.087 489.439 443.209 487.819 443.678C487.8 443.685 487.783 443.698 487.771 443.715C487.759 443.732 487.753 443.753 487.753 443.774C487.753 443.795 487.759 443.815 487.771 443.832C487.783 443.849 487.8 443.862 487.819 443.869C489.586 443.665 491.368 443.64 493.14 443.793C493.829 444.66 494.505 445.515 495.182 446.345C490.126 446.061 485.057 446.578 480.163 447.876C480.087 447.876 480.163 448.004 480.163 447.991C485.258 446.993 490.46 446.654 495.641 446.983C496.279 447.825 496.917 448.693 497.504 449.535C494.493 449.469 491.488 449.816 488.572 450.568C488.47 450.568 488.495 450.773 488.572 450.747C491.621 450.085 494.746 449.84 497.861 450.02C500.541 453.707 503.093 457.472 505.517 461.274C504.202 461.042 502.851 461.125 501.574 461.516C501.511 461.516 501.574 461.631 501.574 461.619C502.998 461.514 504.429 461.582 505.836 461.823C508.048 465.225 510.175 468.7 512.216 472.248C512.484 472.477 512.969 472.26 512.816 471.954Z" fill="#263238"/>
<path d="M471.805 424.193C470.692 424.104 469.571 424.168 468.475 424.385C468.347 424.385 468.386 424.589 468.475 424.576C469.572 424.461 470.657 424.5 471.742 424.474C471.984 424.461 471.984 424.206 471.805 424.193Z" fill="#263238"/>
<path d="M546.132 554.652H490.065L498.053 496.096L500.094 481.078H536.09L538.132 496.096L546.132 554.652Z" fill="#455A64"/>
<path d="M538.132 496.096H498.053L500.094 481.078H536.09L538.132 496.096Z" fill="#263238"/>
<path d="M541.245 475.871H494.952V488.593H541.245V475.871Z" fill="#455A64"/>
<path d="M405.9 79.75H196.075C193.255 79.775 190.467 80.3565 187.872 81.4611C185.278 82.5657 182.927 84.1718 180.954 86.1871C178.981 88.2024 177.426 90.5874 176.377 93.2052C175.328 95.823 174.807 98.6221 174.842 101.442V533.368C174.794 539.049 177.004 544.517 180.985 548.57C184.966 552.623 190.394 554.93 196.075 554.983H405.9C411.584 554.933 417.016 552.628 421.002 548.575C424.988 544.522 427.202 539.052 427.158 533.368V101.378C427.183 98.562 426.653 95.7684 425.599 93.1571C424.544 90.5457 422.985 88.1679 421.011 86.1593C419.036 84.1507 416.686 82.5509 414.093 81.4512C411.5 80.3514 408.716 79.7734 405.9 79.75V79.75ZM413.888 519.97C413.888 531.339 405.377 540.539 394.875 540.539H207.137C196.61 540.539 188.1 531.339 188.1 519.97V117.749C188.1 94.5899 196.61 93.5053 207.137 93.5053H244.741C246.923 93.5053 248.71 96.0573 248.71 99.0686V100.345C248.71 107.554 252.665 107.58 257.514 107.58H344.473C349.36 107.58 353.278 107.58 353.278 100.345V99.0686C353.278 95.9935 355.039 93.5053 357.259 93.5053H394.875C405.377 93.5053 413.888 96.5804 413.888 117.749V519.97Z" fill="#37474F"/>
<path d="M312.854 98.571H289.133C288.744 98.571 288.371 98.4164 288.096 98.1412C287.82 97.866 287.666 97.4928 287.666 97.1036C287.682 96.7256 287.844 96.3685 288.118 96.107C288.391 95.8455 288.755 95.6996 289.133 95.7H312.854C313.046 95.6983 313.237 95.7347 313.415 95.8071C313.593 95.8794 313.754 95.9863 313.891 96.1215C314.027 96.2568 314.136 96.4177 314.209 96.595C314.283 96.7723 314.321 96.9625 314.321 97.1547C314.311 97.536 314.152 97.8981 313.878 98.1631C313.603 98.428 313.236 98.5745 312.854 98.571Z" fill="#263238"/>
<path d="M413.888 117.749V519.995C413.888 531.365 405.377 540.565 394.875 540.565H207.15C196.623 540.565 188.1 531.365 188.1 519.995V117.749C188.1 94.5899 196.623 93.5053 207.15 93.5053H244.741C246.923 93.5053 248.71 96.0573 248.71 99.0686V100.345C248.71 107.554 252.665 107.58 257.514 107.58H344.473C349.373 107.58 353.278 107.58 353.278 100.345V99.0686C353.278 95.9935 355.039 93.5053 357.259 93.5053H394.875C405.377 93.4542 413.888 96.5294 413.888 117.749Z" fill="white"/>
<path d="M413.888 117.749V168.036H188.036V117.749C188.036 94.5899 196.547 93.5053 207.074 93.5053H244.69C246.872 93.5053 248.658 96.0573 248.658 99.0686V100.345C248.658 107.554 252.601 107.58 257.45 107.58H344.41C349.297 107.58 353.227 107.58 353.227 100.345V99.0686C353.227 95.9935 354.988 93.5053 357.208 93.5053H394.799C405.364 93.4542 413.888 96.5294 413.888 117.749Z" fill="#237BFF"/>
<path d="M210.953 145.872L204.279 139.62L210.953 133.368L211.986 134.478L206.499 139.62L211.986 144.762L210.953 145.872Z" fill="white"/>
<path d="M396.407 135.728C396.407 135.98 396.332 136.227 396.191 136.437C396.051 136.647 395.852 136.81 395.619 136.907C395.386 137.004 395.129 137.029 394.882 136.98C394.634 136.93 394.407 136.809 394.228 136.63C394.05 136.452 393.928 136.225 393.879 135.977C393.83 135.73 393.855 135.473 393.952 135.24C394.048 135.007 394.212 134.807 394.422 134.667C394.631 134.527 394.878 134.452 395.131 134.452C395.469 134.452 395.794 134.587 396.033 134.826C396.272 135.065 396.407 135.39 396.407 135.728Z" fill="white"/>
<path d="M396.407 140.36C396.407 140.612 396.332 140.859 396.191 141.069C396.051 141.279 395.852 141.442 395.619 141.539C395.386 141.635 395.129 141.661 394.882 141.611C394.634 141.562 394.407 141.441 394.228 141.262C394.05 141.084 393.928 140.856 393.879 140.609C393.83 140.361 393.855 140.105 393.952 139.872C394.048 139.639 394.212 139.439 394.422 139.299C394.631 139.159 394.878 139.084 395.131 139.084C395.469 139.084 395.794 139.218 396.033 139.458C396.272 139.697 396.407 140.022 396.407 140.36Z" fill="white"/>
<path d="M396.407 145.056C396.407 145.308 396.332 145.555 396.191 145.765C396.051 145.974 395.852 146.138 395.619 146.235C395.386 146.331 395.129 146.356 394.882 146.307C394.634 146.258 394.407 146.136 394.228 145.958C394.05 145.779 393.928 145.552 393.879 145.305C393.83 145.057 393.855 144.801 393.952 144.567C394.048 144.334 394.212 144.135 394.422 143.995C394.631 143.855 394.878 143.78 395.131 143.78C395.469 143.78 395.794 143.914 396.033 144.153C396.272 144.393 396.407 144.717 396.407 145.056Z" fill="white"/>
<path d="M238.259 102.488L237.889 102.858L237.685 103.063C237.226 102.601 236.68 102.234 236.079 101.984C235.478 101.734 234.833 101.605 234.182 101.605C233.531 101.605 232.887 101.734 232.285 101.984C231.684 102.234 231.139 102.601 230.68 103.063L230.488 102.858C230.361 102.744 230.246 102.616 230.131 102.501L230.59 102.093C230.916 101.826 231.271 101.6 231.649 101.416C232.098 101.195 232.574 101.036 233.066 100.944C233.295 100.944 233.525 100.944 233.768 100.842H234.38H234.865C235.302 100.889 235.731 100.992 236.141 101.149C236.443 101.256 236.734 101.392 237.009 101.557C237.308 101.725 237.59 101.921 237.851 102.144L238.234 102.488H238.259Z" fill="white"/>
<path d="M231.828 104.198L231.254 103.637C231.881 102.991 232.709 102.577 233.602 102.463C234.237 102.367 234.885 102.422 235.495 102.624C236.105 102.825 236.658 103.168 237.111 103.624L236.536 104.198C235.91 103.577 235.064 103.229 234.182 103.229C233.3 103.229 232.454 103.577 231.828 104.198V104.198Z" fill="white"/>
<path d="M235.924 104.772L235.35 105.347C235.193 105.188 235.006 105.063 234.8 104.978C234.594 104.892 234.373 104.848 234.15 104.849C233.926 104.848 233.703 104.892 233.495 104.977C233.287 105.062 233.098 105.188 232.938 105.347L232.377 104.772C232.853 104.312 233.489 104.055 234.15 104.055C234.812 104.055 235.448 104.312 235.924 104.772Z" fill="white"/>
<path d="M234.648 105.908C234.629 106.031 234.566 106.143 234.471 106.224C234.376 106.305 234.256 106.35 234.131 106.35C234.007 106.35 233.886 106.305 233.791 106.224C233.697 106.143 233.634 106.031 233.614 105.908C233.603 105.833 233.607 105.757 233.628 105.684C233.648 105.612 233.684 105.544 233.734 105.487C233.783 105.429 233.844 105.383 233.912 105.351C233.981 105.32 234.056 105.303 234.131 105.303C234.207 105.303 234.282 105.32 234.35 105.351C234.419 105.383 234.48 105.429 234.529 105.487C234.578 105.544 234.614 105.612 234.635 105.684C234.655 105.757 234.66 105.833 234.648 105.908Z" fill="white"/>
<path d="M202.825 103.586C202.825 103.287 202.913 102.996 203.079 102.748C203.245 102.5 203.481 102.307 203.757 102.193C204.033 102.08 204.336 102.051 204.629 102.11C204.921 102.169 205.189 102.314 205.399 102.526C205.61 102.737 205.752 103.007 205.809 103.3C205.865 103.593 205.834 103.896 205.718 104.171C205.602 104.446 205.407 104.68 205.157 104.844C204.908 105.008 204.616 105.094 204.318 105.091C203.92 105.088 203.541 104.928 203.261 104.646C202.981 104.364 202.825 103.983 202.825 103.586V103.586Z" fill="white"/>
<path d="M207.533 103.586C207.533 103.288 207.621 102.997 207.787 102.749C207.952 102.502 208.187 102.309 208.463 102.195C208.738 102.081 209.04 102.051 209.332 102.109C209.625 102.167 209.893 102.31 210.103 102.521C210.314 102.732 210.457 103 210.515 103.292C210.574 103.584 210.544 103.887 210.43 104.162C210.316 104.437 210.123 104.672 209.875 104.838C209.628 105.003 209.336 105.091 209.039 105.091C208.639 105.091 208.256 104.933 207.974 104.65C207.692 104.368 207.533 103.985 207.533 103.586V103.586Z" fill="white"/>
<path d="M212.254 103.586C212.257 103.291 212.346 103.004 212.512 102.76C212.678 102.516 212.912 102.327 213.185 102.216C213.458 102.104 213.757 102.077 214.046 102.136C214.335 102.195 214.6 102.338 214.807 102.547C215.015 102.757 215.156 103.023 215.212 103.312C215.269 103.601 215.239 103.901 215.125 104.173C215.012 104.445 214.82 104.677 214.575 104.841C214.33 105.004 214.042 105.091 213.747 105.091C213.55 105.091 213.355 105.052 213.173 104.977C212.991 104.901 212.826 104.79 212.687 104.65C212.548 104.51 212.438 104.344 212.364 104.161C212.29 103.978 212.253 103.783 212.254 103.586V103.586Z" fill="white"/>
<path d="M216.963 103.586C216.963 103.287 217.051 102.996 217.217 102.748C217.383 102.5 217.619 102.307 217.895 102.193C218.171 102.08 218.474 102.051 218.767 102.11C219.059 102.169 219.327 102.314 219.538 102.526C219.748 102.737 219.89 103.007 219.947 103.3C220.003 103.593 219.972 103.896 219.856 104.171C219.74 104.446 219.545 104.68 219.296 104.844C219.046 105.008 218.754 105.094 218.456 105.091C218.058 105.088 217.679 104.928 217.399 104.646C217.12 104.364 216.963 103.983 216.963 103.586Z" fill="white"/>
<path d="M221.671 103.586C221.671 103.287 221.76 102.996 221.926 102.748C222.092 102.5 222.328 102.307 222.604 102.193C222.879 102.08 223.183 102.051 223.475 102.11C223.768 102.169 224.036 102.314 224.246 102.526C224.456 102.737 224.598 103.007 224.655 103.3C224.712 103.593 224.68 103.896 224.564 104.171C224.448 104.446 224.253 104.68 224.004 104.844C223.755 105.008 223.462 105.094 223.164 105.091C222.767 105.088 222.387 104.928 222.108 104.646C221.828 104.364 221.671 103.983 221.671 103.586Z" fill="white"/>
<path d="M396.955 106.865H384.757V101.2H396.955V106.865ZM385.395 106.227H396.317V101.838H385.395V106.227Z" fill="white"/>
<path d="M393.625 102.169H385.777V105.895H393.625V102.169Z" fill="white"/>
<path d="M398.04 102.527H396.955V105.551H398.04V102.527Z" fill="white"/>
<path d="M222.411 515.976H220.689V523.849H217.486V519.842H211.808V523.849H208.605V515.976H206.882L214.64 507.95L222.411 515.976Z" fill="#EBEBEB"/>
<path d="M395.131 507.95H376.412V510.63H395.131V507.95Z" fill="#EBEBEB"/>
<path d="M395.131 514.56H376.412V517.239H395.131V514.56Z" fill="#EBEBEB"/>
<path d="M395.131 521.182H376.412V523.862H395.131V521.182Z" fill="#EBEBEB"/>
<path d="M306.321 514.841L301 520.519L295.679 514.841L296.611 513.96L301 518.63L305.389 513.96L306.321 514.841Z" fill="#EBEBEB"/>
<path d="M301 526.388C299.087 526.388 297.217 525.821 295.626 524.758C294.036 523.695 292.796 522.185 292.064 520.418C291.332 518.65 291.141 516.705 291.514 514.829C291.887 512.953 292.808 511.23 294.161 509.877C295.514 508.524 297.237 507.603 299.113 507.23C300.989 506.857 302.934 507.048 304.701 507.78C306.469 508.512 307.979 509.752 309.042 511.343C310.105 512.933 310.672 514.803 310.672 516.716C310.669 519.28 309.649 521.739 307.835 523.552C306.022 525.365 303.564 526.385 301 526.388V526.388ZM301 508.333C299.339 508.333 297.715 508.826 296.334 509.749C294.953 510.672 293.877 511.984 293.242 513.519C292.607 515.054 292.441 516.743 292.766 518.372C293.091 520.001 293.892 521.497 295.068 522.67C296.243 523.844 297.74 524.643 299.37 524.965C300.999 525.288 302.688 525.12 304.222 524.482C305.756 523.845 307.066 522.767 307.987 521.384C308.908 520.002 309.399 518.377 309.396 516.716C309.393 514.492 308.507 512.359 306.932 510.788C305.358 509.216 303.225 508.333 301 508.333V508.333Z" fill="#EBEBEB"/>
<path d="M391.124 388.733H387.934V387.457H389.848V385.543H391.124V388.733Z" fill="#237BFF"/>
<path d="M382.97 388.733H377.994V387.457H382.97V388.733ZM373.03 388.733H368.067V387.457H373.03V388.733ZM363.09 388.733H358.127V387.457H363.09V388.733ZM353.163 388.733H348.212V387.457H353.188L353.163 388.733ZM343.223 388.733H338.259V387.457H343.223V388.733ZM333.283 388.733H328.319V387.457H333.283V388.733ZM323.356 388.733H318.379V387.457H323.356V388.733ZM313.415 388.733H308.452V387.457H313.415V388.733ZM303.475 388.733H298.512V387.457H303.475V388.733ZM293.548 388.733H288.572V387.457H293.548V388.733ZM283.608 388.733H278.644V387.457H283.608V388.733ZM273.668 388.733H268.704V387.457H273.668V388.733ZM263.741 388.733H258.764V387.457H263.741V388.733ZM253.801 388.733H248.837V387.457H253.788L253.801 388.733ZM243.861 388.733H238.897V387.457H243.861V388.733ZM233.933 388.733H228.957V387.457H233.933V388.733ZM223.993 388.733H219.03V387.457H223.993V388.733Z" fill="#237BFF"/>
<path d="M214.066 388.733H210.876V385.543H212.152V387.457H214.066V388.733Z" fill="#237BFF"/>
<path d="M212.152 380.465H210.876V375.361H212.152V380.465ZM212.152 370.257H210.876V365.153H212.152V370.257ZM212.152 360.113H210.876V355.009H212.152V360.113ZM212.152 349.905H210.876V344.801H212.152V349.905ZM212.152 339.697H210.876V334.593H212.152V339.697ZM212.152 329.553H210.876V324.449H212.152V329.553ZM212.152 319.345H210.876V314.241H212.152V319.345ZM212.152 309.137H210.876V304.033H212.152V309.137ZM212.152 298.929H210.876V293.825H212.152V298.929ZM212.152 288.784H210.876V283.68H212.152V288.784ZM212.152 278.576H210.876V273.472H212.152V278.576ZM212.152 268.368H210.876V263.264H212.152V268.368ZM212.152 258.224H210.876V253.12H212.152V258.224Z" fill="#237BFF"/>
<path d="M212.152 248.475H210.876V245.285H214.066V246.561H212.152V248.475Z" fill="#237BFF"/>
<path d="M382.97 246.561H377.994V245.285H382.97V246.561ZM373.03 246.561H368.067V245.285H373.03V246.561ZM363.09 246.561H358.127V245.285H363.09V246.561ZM353.163 246.561H348.212V245.285H353.188L353.163 246.561ZM343.223 246.561H338.259V245.285H343.223V246.561ZM333.283 246.561H328.319V245.285H333.283V246.561ZM323.356 246.561H318.379V245.285H323.356V246.561ZM313.415 246.561H308.452V245.285H313.415V246.561ZM303.475 246.561H298.512V245.285H303.475V246.561ZM293.548 246.561H288.572V245.285H293.548V246.561ZM283.608 246.561H278.644V245.285H283.608V246.561ZM273.668 246.561H268.704V245.285H273.668V246.561ZM263.741 246.561H258.764V245.285H263.741V246.561ZM253.801 246.561H248.837V245.285H253.788L253.801 246.561ZM243.861 246.561H238.897V245.285H243.861V246.561ZM233.933 246.561H228.957V245.285H233.933V246.561ZM223.993 246.561H219.03V245.285H223.993V246.561Z" fill="#237BFF"/>
<path d="M391.124 248.475H389.848V246.561H387.934V245.285H391.124V248.475Z" fill="#237BFF"/>
<path d="M391.124 380.465H389.848V375.361H391.124V380.465ZM391.124 370.257H389.848V365.153H391.124V370.257ZM391.124 360.113H389.848V355.009H391.124V360.113ZM391.124 349.905H389.848V344.801H391.124V349.905ZM391.124 339.697H389.848V334.593H391.124V339.697ZM391.124 329.553H389.848V324.449H391.124V329.553ZM391.124 319.345H389.848V314.241H391.124V319.345ZM391.124 309.137H389.848V304.033H391.124V309.137ZM391.124 298.929H389.848V293.825H391.124V298.929ZM391.124 288.784H389.848V283.68H391.124V288.784ZM391.124 278.576H389.848V273.472H391.124V278.576ZM391.124 268.368H389.848V263.264H391.124V268.368ZM391.124 258.224H389.848V253.12H391.124V258.224Z" fill="#237BFF"/>
<path d="M234.355 335.18C234.355 339.513 235.995 343.686 238.943 346.862C241.892 350.038 245.932 351.982 250.253 352.304H347.459C352.67 352.339 357.692 350.357 361.474 346.773C365.256 343.189 367.504 338.28 367.749 333.076C367.993 327.871 366.213 322.773 362.783 318.851C359.353 314.928 354.539 312.485 349.348 312.033C349.092 304.149 346.103 296.6 340.893 290.678C335.682 284.756 328.574 280.831 320.787 279.574C313 278.318 305.018 279.809 298.21 283.791C291.401 287.774 286.189 294.001 283.468 301.404C280.67 299.995 277.579 299.265 274.446 299.273C269.312 299.27 264.369 301.226 260.627 304.743C256.885 308.259 254.626 313.071 254.311 318.196C253.392 318.042 252.461 317.965 251.529 317.966C249.271 317.966 247.034 318.412 244.948 319.277C242.862 320.143 240.967 321.411 239.371 323.01C237.776 324.609 236.512 326.507 235.651 328.595C234.79 330.684 234.35 332.921 234.355 335.18V335.18Z" fill="#237BFF"/>
<path d="M309.766 329.961H292.221V352.355H309.766V329.961Z" fill="white"/>
<path d="M286.198 329.961H315.789L301 315.198L286.198 329.961Z" fill="white"/>
<path d="M259.658 144.29C259.192 144.29 258.732 144.198 258.302 144.02C257.872 143.841 257.482 143.58 257.154 143.25C256.825 142.921 256.565 142.53 256.388 142.099C256.212 141.669 256.121 141.208 256.123 140.743V136.379C256.121 136.29 256.138 136.201 256.171 136.118C256.204 136.035 256.254 135.96 256.317 135.897C256.38 135.834 256.456 135.784 256.539 135.751C256.621 135.717 256.71 135.701 256.799 135.703C256.979 135.703 257.151 135.774 257.278 135.901C257.404 136.028 257.476 136.2 257.476 136.379V140.743C257.518 141.294 257.767 141.81 258.172 142.186C258.578 142.561 259.111 142.77 259.664 142.77C260.217 142.77 260.75 142.561 261.156 142.186C261.561 141.81 261.81 141.294 261.852 140.743V136.379C261.852 136.2 261.924 136.028 262.05 135.901C262.177 135.774 262.349 135.703 262.529 135.703C262.618 135.701 262.707 135.717 262.789 135.751C262.872 135.784 262.948 135.834 263.011 135.897C263.074 135.96 263.124 136.035 263.157 136.118C263.19 136.201 263.207 136.29 263.205 136.379V140.743C263.205 141.684 262.831 142.586 262.166 143.251C261.501 143.916 260.598 144.29 259.658 144.29V144.29Z" fill="white"/>
<path d="M268.972 140.947H267.454V143.614C267.454 143.793 267.383 143.965 267.256 144.092C267.129 144.219 266.957 144.29 266.778 144.29C266.598 144.29 266.426 144.219 266.299 144.092C266.173 143.965 266.101 143.793 266.101 143.614V136.379C266.101 136.202 266.171 136.032 266.295 135.905C266.419 135.779 266.588 135.706 266.765 135.703H268.972C269.332 135.677 269.693 135.727 270.033 135.847C270.373 135.967 270.685 136.157 270.948 136.402C271.212 136.648 271.422 136.946 271.566 137.277C271.71 137.607 271.784 137.964 271.784 138.325C271.784 138.685 271.71 139.042 271.566 139.373C271.422 139.704 271.212 140.001 270.948 140.247C270.685 140.493 270.373 140.682 270.033 140.803C269.693 140.923 269.332 140.972 268.972 140.947ZM267.454 139.594H268.972C269.311 139.594 269.635 139.46 269.875 139.221C270.114 138.981 270.248 138.657 270.248 138.318C270.248 137.98 270.114 137.655 269.875 137.416C269.635 137.177 269.311 137.042 268.972 137.042H267.454V139.594Z" fill="white"/>
<path d="M273.247 143.614V136.379C273.247 136.2 273.318 136.028 273.445 135.901C273.572 135.774 273.744 135.703 273.923 135.703C274.104 135.703 274.277 135.773 274.406 135.9C274.535 136.026 274.609 136.198 274.612 136.379V142.912H277.943C278.108 142.935 278.259 143.016 278.368 143.142C278.478 143.267 278.538 143.428 278.538 143.595C278.538 143.761 278.478 143.922 278.368 144.048C278.259 144.173 278.108 144.255 277.943 144.277H273.923C273.746 144.277 273.576 144.208 273.45 144.084C273.323 143.96 273.25 143.791 273.247 143.614V143.614Z" fill="white"/>
<path d="M286.441 136.774C287.235 137.611 287.678 138.721 287.678 139.875C287.678 141.029 287.235 142.139 286.441 142.976C286.064 143.377 285.61 143.697 285.105 143.916C284.6 144.136 284.056 144.25 283.506 144.252C282.946 144.253 282.392 144.14 281.876 143.921C281.361 143.701 280.895 143.38 280.507 142.976C279.727 142.132 279.294 141.025 279.294 139.875C279.294 138.726 279.727 137.619 280.507 136.774C280.891 136.365 281.356 136.041 281.873 135.821C282.389 135.601 282.945 135.492 283.506 135.498C284.057 135.495 284.603 135.607 285.108 135.826C285.614 136.046 286.068 136.369 286.441 136.774V136.774ZM286.275 139.875C286.277 139.082 285.981 138.317 285.446 137.731C285.2 137.454 284.899 137.232 284.561 137.08C284.223 136.928 283.857 136.849 283.487 136.849C283.117 136.849 282.751 136.928 282.413 137.08C282.075 137.232 281.774 137.454 281.528 137.731C280.979 138.309 280.677 139.078 280.686 139.875C280.678 140.668 280.98 141.433 281.528 142.006C281.774 142.283 282.075 142.505 282.413 142.657C282.751 142.809 283.117 142.888 283.487 142.888C283.857 142.888 284.223 142.809 284.561 142.657C284.899 142.505 285.2 142.283 285.446 142.006C285.98 141.425 286.276 140.664 286.275 139.875Z" fill="white"/>
<path d="M293.995 142.261H291.009L290.409 143.856C290.357 143.983 290.269 144.092 290.155 144.169C290.042 144.246 289.908 144.288 289.771 144.29C289.695 144.305 289.617 144.305 289.542 144.29C289.371 144.227 289.233 144.099 289.156 143.934C289.08 143.769 289.071 143.581 289.133 143.41L291.838 136.175C291.892 136.047 291.983 135.939 292.099 135.864C292.215 135.789 292.351 135.75 292.489 135.754C292.628 135.747 292.766 135.784 292.882 135.859C292.999 135.935 293.089 136.045 293.14 136.175L295.858 143.41C295.916 143.581 295.906 143.768 295.83 143.932C295.754 144.096 295.618 144.224 295.449 144.29C295.373 144.303 295.296 144.303 295.22 144.29C295.084 144.291 294.951 144.249 294.839 144.172C294.727 144.094 294.642 143.984 294.594 143.856L293.995 142.261ZM293.484 140.909L292.489 138.28L291.494 140.909H293.484Z" fill="white"/>
<path d="M297.542 143.614V136.379C297.54 136.29 297.557 136.201 297.59 136.118C297.623 136.035 297.673 135.96 297.736 135.897C297.799 135.834 297.875 135.784 297.958 135.751C298.04 135.717 298.129 135.701 298.218 135.703H299.724C300.822 135.763 301.856 136.241 302.612 137.04C303.368 137.838 303.79 138.896 303.79 139.996C303.79 141.096 303.368 142.154 302.612 142.953C301.856 143.752 300.822 144.23 299.724 144.29H298.282C298.188 144.299 298.093 144.288 298.004 144.258C297.914 144.228 297.832 144.18 297.762 144.116C297.692 144.052 297.637 143.975 297.599 143.888C297.561 143.802 297.542 143.708 297.542 143.614V143.614ZM298.895 142.925H299.66C300.403 142.876 301.1 142.546 301.609 142.002C302.118 141.458 302.402 140.741 302.402 139.996C302.402 139.251 302.118 138.534 301.609 137.991C301.1 137.447 300.403 137.117 299.66 137.068H298.895V142.925Z" fill="white"/>
<path d="M312.841 144.188H312.752L312.688 144.124C312.693 144.09 312.693 144.056 312.688 144.022L309.677 136.864C309.609 136.698 309.61 136.512 309.68 136.347C309.749 136.182 309.881 136.051 310.047 135.983C310.127 135.95 310.214 135.932 310.301 135.932C310.388 135.932 310.474 135.949 310.555 135.982C310.635 136.015 310.708 136.064 310.77 136.126C310.832 136.187 310.881 136.26 310.915 136.341L313.313 142.019L315.7 136.341C315.769 136.171 315.903 136.037 316.071 135.966C316.24 135.895 316.43 135.895 316.599 135.964C316.768 136.034 316.903 136.167 316.974 136.336C317.044 136.505 317.045 136.695 316.976 136.864L313.951 144.022C313.956 144.056 313.956 144.09 313.951 144.124V144.124C313.951 144.124 313.951 144.124 313.951 144.188H313.875L313.773 144.252H313.671H313.377H313.275L313.173 144.175L312.841 144.188Z" fill="white"/>
<path d="M318.724 136.379C318.722 136.29 318.738 136.201 318.772 136.118C318.805 136.035 318.855 135.96 318.918 135.897C318.981 135.834 319.056 135.784 319.139 135.751C319.222 135.717 319.311 135.701 319.4 135.703C319.579 135.703 319.751 135.774 319.878 135.901C320.005 136.028 320.076 136.2 320.076 136.379V143.614C320.076 143.793 320.005 143.965 319.878 144.092C319.751 144.219 319.579 144.29 319.4 144.29C319.311 144.292 319.222 144.276 319.139 144.242C319.056 144.209 318.981 144.159 318.918 144.096C318.855 144.033 318.805 143.957 318.772 143.875C318.738 143.792 318.722 143.703 318.724 143.614V136.379Z" fill="white"/>
<path d="M322.373 143.614V136.379C322.371 136.29 322.388 136.201 322.421 136.118C322.454 136.035 322.504 135.96 322.567 135.897C322.63 135.834 322.706 135.784 322.789 135.751C322.871 135.717 322.96 135.701 323.049 135.703H324.504C325.602 135.763 326.636 136.241 327.392 137.04C328.148 137.838 328.57 138.896 328.57 139.996C328.57 141.096 328.148 142.154 327.392 142.953C326.636 143.752 325.602 144.23 324.504 144.29H323.049C322.87 144.29 322.698 144.219 322.571 144.092C322.444 143.965 322.373 143.793 322.373 143.614V143.614ZM323.738 142.925H324.504C325.247 142.876 325.944 142.546 326.453 142.002C326.962 141.458 327.245 140.741 327.245 139.996C327.245 139.251 326.962 138.534 326.453 137.991C325.944 137.447 325.247 137.117 324.504 137.068H323.738V142.925Z" fill="white"/>
<path d="M330.59 143.614V136.379C330.589 136.29 330.605 136.201 330.638 136.118C330.672 136.035 330.722 135.96 330.785 135.897C330.848 135.834 330.923 135.784 331.006 135.751C331.089 135.717 331.177 135.701 331.267 135.703H335.273C335.453 135.703 335.625 135.774 335.752 135.901C335.878 136.028 335.95 136.2 335.95 136.379C335.95 136.559 335.879 136.733 335.752 136.862C335.626 136.991 335.454 137.065 335.273 137.068H331.943V139.314H334.814C334.993 139.314 335.165 139.385 335.292 139.512C335.419 139.639 335.49 139.811 335.49 139.99C335.49 140.169 335.419 140.341 335.292 140.468C335.165 140.595 334.993 140.666 334.814 140.666H331.943V142.912H335.273C335.438 142.935 335.59 143.016 335.699 143.142C335.809 143.267 335.869 143.428 335.869 143.595C335.869 143.761 335.809 143.922 335.699 144.048C335.59 144.173 335.438 144.255 335.273 144.277H331.305C331.214 144.282 331.123 144.269 331.037 144.238C330.952 144.208 330.873 144.16 330.806 144.098C330.74 144.036 330.686 143.961 330.649 143.878C330.612 143.795 330.592 143.705 330.59 143.614V143.614Z" fill="white"/>
<path d="M344.639 136.774C345.433 137.611 345.876 138.721 345.876 139.875C345.876 141.029 345.433 142.139 344.639 142.976C344.262 143.376 343.807 143.695 343.302 143.914C342.798 144.134 342.254 144.248 341.704 144.252C341.143 144.251 340.587 144.138 340.069 143.919C339.552 143.7 339.084 143.379 338.693 142.976C337.913 142.132 337.479 141.025 337.479 139.875C337.479 138.726 337.913 137.619 338.693 136.774C339.08 136.366 339.548 136.042 340.066 135.823C340.584 135.603 341.142 135.493 341.704 135.498C342.255 135.496 342.801 135.608 343.306 135.827C343.811 136.047 344.265 136.37 344.639 136.774V136.774ZM344.473 139.875C344.475 139.082 344.179 138.317 343.644 137.731C343.4 137.457 343.101 137.238 342.767 137.086C342.433 136.934 342.071 136.854 341.704 136.851C341.329 136.849 340.958 136.926 340.615 137.078C340.272 137.23 339.965 137.452 339.714 137.731C339.174 138.314 338.877 139.081 338.884 139.875C338.877 140.666 339.174 141.429 339.714 142.006C339.96 142.284 340.263 142.506 340.602 142.658C340.94 142.81 341.308 142.889 341.679 142.889C342.05 142.889 342.417 142.81 342.756 142.658C343.095 142.506 343.397 142.284 343.644 142.006C344.178 141.425 344.475 140.664 344.473 139.875V139.875Z" fill="white"/>
<path d="M282.575 412.544C282.188 412.544 281.805 412.467 281.448 412.319C281.092 412.171 280.768 411.953 280.495 411.679C280.222 411.406 280.006 411.081 279.859 410.723C279.713 410.365 279.638 409.982 279.64 409.596V405.972C279.638 405.898 279.651 405.824 279.679 405.755C279.707 405.686 279.748 405.624 279.8 405.571C279.853 405.519 279.915 405.477 279.984 405.45C280.053 405.422 280.127 405.409 280.201 405.411C280.35 405.411 280.493 405.47 280.598 405.575C280.703 405.68 280.763 405.823 280.763 405.972V409.596C280.763 410.077 280.954 410.537 281.293 410.877C281.633 411.217 282.094 411.408 282.575 411.408C283.055 411.408 283.516 411.217 283.856 410.877C284.196 410.537 284.386 410.077 284.386 409.596V405.972C284.386 405.897 284.401 405.823 284.43 405.754C284.459 405.685 284.502 405.623 284.555 405.571C284.609 405.518 284.672 405.477 284.742 405.45C284.811 405.422 284.886 405.409 284.961 405.411C285.035 405.409 285.109 405.422 285.178 405.45C285.246 405.477 285.309 405.519 285.362 405.571C285.414 405.624 285.455 405.686 285.483 405.755C285.511 405.824 285.524 405.898 285.522 405.972V409.596C285.522 410.378 285.212 411.127 284.659 411.68C284.106 412.233 283.356 412.544 282.575 412.544Z" fill="#C7C7C7"/>
<path d="M287.806 413.909V410.017V408.001C287.806 407.859 287.863 407.723 287.963 407.622C288.064 407.522 288.2 407.465 288.342 407.465C288.47 407.459 288.596 407.497 288.699 407.574C288.801 407.651 288.874 407.761 288.904 407.886C289.235 407.659 289.616 407.514 290.014 407.462C290.413 407.41 290.818 407.452 291.196 407.586C291.575 407.72 291.917 407.942 292.194 408.233C292.471 408.524 292.675 408.877 292.79 409.262C292.905 409.647 292.928 410.054 292.856 410.449C292.784 410.844 292.62 411.217 292.376 411.537C292.133 411.857 291.818 412.115 291.456 412.29C291.094 412.465 290.696 412.552 290.294 412.544C289.806 412.551 289.328 412.404 288.929 412.123V413.922C288.922 414.072 288.857 414.213 288.748 414.316C288.638 414.418 288.492 414.474 288.342 414.47C288.198 414.464 288.061 414.402 287.961 414.297C287.862 414.193 287.806 414.053 287.806 413.909ZM288.929 410.004C288.919 410.193 288.95 410.381 289.018 410.557C289.086 410.733 289.191 410.892 289.325 411.025C289.447 411.161 289.597 411.268 289.764 411.341C289.931 411.413 290.112 411.449 290.294 411.446C290.475 411.448 290.653 411.411 290.818 411.338C290.983 411.266 291.131 411.159 291.251 411.025C291.507 410.747 291.648 410.382 291.647 410.004C291.643 409.627 291.502 409.265 291.251 408.984C291.131 408.85 290.983 408.743 290.818 408.67C290.653 408.598 290.475 408.561 290.294 408.562C290.112 408.559 289.931 408.595 289.764 408.668C289.597 408.74 289.447 408.848 289.325 408.984C289.193 409.118 289.09 409.278 289.022 409.453C288.954 409.629 288.922 409.816 288.929 410.004Z" fill="#C7C7C7"/>
<path d="M294.965 405.411C295.113 405.411 295.256 405.47 295.361 405.575C295.467 405.68 295.526 405.823 295.526 405.972V411.982C295.526 412.131 295.467 412.274 295.361 412.379C295.256 412.484 295.113 412.544 294.965 412.544C294.816 412.544 294.673 412.484 294.568 412.379C294.462 412.274 294.403 412.131 294.403 411.982V405.972C294.403 405.823 294.462 405.68 294.568 405.575C294.673 405.47 294.816 405.411 294.965 405.411Z" fill="#C7C7C7"/>
<path d="M297.325 411.803C296.865 411.319 296.613 410.673 296.623 410.004C296.629 409.343 296.879 408.706 297.325 408.218C297.551 407.977 297.824 407.785 298.127 407.653C298.429 407.522 298.756 407.453 299.086 407.452C299.407 407.454 299.724 407.522 300.016 407.654C300.308 407.786 300.57 407.978 300.783 408.218C301.245 408.697 301.502 409.338 301.498 410.004C301.505 410.675 301.248 411.321 300.783 411.803C300.57 412.043 300.308 412.235 300.016 412.367C299.724 412.499 299.407 412.568 299.086 412.569C298.756 412.568 298.429 412.5 298.127 412.368C297.824 412.236 297.551 412.044 297.325 411.803ZM297.733 410.004C297.728 410.398 297.859 410.781 298.103 411.089C298.369 411.337 298.722 411.47 299.086 411.459C299.258 411.463 299.429 411.433 299.59 411.369C299.75 411.306 299.895 411.21 300.017 411.089C300.28 410.789 300.421 410.403 300.413 410.004C300.421 409.614 300.28 409.235 300.017 408.945C299.762 408.711 299.432 408.575 299.086 408.562C298.723 408.567 298.374 408.703 298.103 408.945C297.86 409.244 297.729 409.619 297.733 410.004V410.004Z" fill="#C7C7C7"/>
<path d="M307.533 410.004V412.008C307.53 412.139 307.479 412.264 307.39 412.359C307.3 412.455 307.179 412.515 307.049 412.528C306.918 412.54 306.788 412.505 306.682 412.428C306.576 412.351 306.502 412.238 306.474 412.11C306.073 412.389 305.597 412.541 305.109 412.544C304.786 412.543 304.468 412.477 304.172 412.35C303.876 412.223 303.608 412.037 303.386 411.803C302.926 411.319 302.674 410.673 302.684 410.004C302.677 409.34 302.929 408.699 303.386 408.218C303.771 407.793 304.299 407.526 304.869 407.467C305.439 407.408 306.011 407.562 306.474 407.899C306.495 407.775 306.559 407.662 306.654 407.581C306.75 407.499 306.871 407.454 306.997 407.452C307.069 407.452 307.139 407.467 307.205 407.494C307.271 407.522 307.331 407.563 307.381 407.614C307.431 407.665 307.47 407.725 307.496 407.792C307.522 407.858 307.535 407.93 307.533 408.001V410.004ZM306.461 410.004C306.469 409.618 306.327 409.243 306.066 408.958C305.945 408.824 305.797 408.718 305.632 408.645C305.467 408.572 305.289 408.536 305.109 408.537C304.931 408.537 304.755 408.575 304.592 408.648C304.429 408.72 304.284 408.826 304.164 408.958C303.917 409.251 303.781 409.621 303.781 410.004C303.781 410.387 303.917 410.758 304.164 411.051C304.286 411.178 304.433 411.279 304.595 411.347C304.758 411.415 304.933 411.449 305.109 411.446C305.286 411.446 305.462 411.412 305.627 411.344C305.791 411.276 305.94 411.176 306.066 411.051C306.327 410.766 306.469 410.391 306.461 410.004V410.004Z" fill="#C7C7C7"/>
<path d="M314.143 411.995C314.142 412.13 314.092 412.26 314.001 412.36C313.91 412.46 313.786 412.524 313.652 412.538C313.518 412.552 313.383 412.516 313.273 412.437C313.164 412.358 313.087 412.242 313.058 412.11C312.647 412.386 312.163 412.537 311.667 412.544C310.991 412.544 310.341 412.275 309.863 411.796C309.384 411.317 309.115 410.668 309.115 409.992C309.115 409.315 309.384 408.666 309.863 408.187C310.341 407.708 310.991 407.44 311.667 407.44C312.154 407.44 312.63 407.587 313.033 407.861V405.947C313.036 405.8 313.097 405.66 313.202 405.558C313.306 405.455 313.447 405.398 313.594 405.398C313.74 405.398 313.879 405.456 313.982 405.559C314.085 405.662 314.143 405.801 314.143 405.947V409.979V411.995ZM311.667 408.562C311.489 408.563 311.313 408.601 311.151 408.673C310.988 408.746 310.842 408.851 310.723 408.984C310.462 409.257 310.316 409.62 310.316 409.998C310.316 410.376 310.462 410.739 310.723 411.012C310.842 411.145 310.988 411.25 311.151 411.323C311.313 411.395 311.489 411.433 311.667 411.433C311.85 411.437 312.031 411.401 312.198 411.328C312.365 411.255 312.515 411.148 312.637 411.012C312.893 410.736 313.035 410.374 313.035 409.998C313.035 409.622 312.893 409.259 312.637 408.984C312.515 408.848 312.365 408.74 312.198 408.668C312.031 408.595 311.85 408.559 311.667 408.562V408.562Z" fill="#C7C7C7"/>
<path d="M316.899 411.089C317.101 411.092 317.294 411.174 317.437 411.317C317.58 411.46 317.661 411.653 317.665 411.855C317.665 411.954 317.645 412.053 317.606 412.146C317.567 412.238 317.511 412.321 317.44 412.391C317.368 412.462 317.284 412.517 317.191 412.554C317.098 412.591 316.999 412.609 316.899 412.607C316.8 412.609 316.701 412.591 316.609 412.554C316.517 412.516 316.433 412.461 316.363 412.391C316.293 412.32 316.237 412.237 316.2 412.145C316.163 412.053 316.144 411.954 316.146 411.855C316.146 411.654 316.225 411.461 316.366 411.318C316.507 411.174 316.698 411.092 316.899 411.089V411.089Z" fill="#C7C7C7"/>
<path d="M319.247 411.089C319.449 411.092 319.642 411.174 319.785 411.317C319.927 411.46 320.009 411.653 320.012 411.855C320.012 411.954 319.993 412.053 319.954 412.146C319.915 412.238 319.859 412.321 319.787 412.391C319.716 412.462 319.632 412.517 319.539 412.554C319.446 412.591 319.347 412.609 319.247 412.607C319.147 412.609 319.049 412.591 318.957 412.554C318.865 412.516 318.781 412.461 318.711 412.391C318.64 412.32 318.585 412.237 318.548 412.145C318.511 412.053 318.492 411.954 318.494 411.855C318.494 411.654 318.573 411.461 318.714 411.318C318.854 411.174 319.046 411.092 319.247 411.089V411.089Z" fill="#C7C7C7"/>
<path d="M321.582 411.089C321.784 411.092 321.977 411.174 322.12 411.317C322.262 411.46 322.344 411.652 322.347 411.855C322.324 412.039 322.233 412.208 322.094 412.331C321.954 412.454 321.774 412.521 321.588 412.521C321.402 412.521 321.223 412.454 321.083 412.331C320.943 412.208 320.853 412.039 320.829 411.855C320.832 411.655 320.912 411.464 321.052 411.321C321.192 411.179 321.382 411.095 321.582 411.089V411.089Z" fill="#C7C7C7"/>
<path d="M380.24 419.97H221.748V429.974H380.24V419.97Z" fill="#EBEBEB"/>
<path d="M274.944 421.743H223.674V428.226H274.944V421.743Z" fill="#237BFF"/>
<path opacity="0.1" d="M233.997 421.743H228.676L223.674 428.213H228.995L233.997 421.743Z" fill="black"/>
<path opacity="0.1" d="M244.244 421.743H238.935L233.921 428.213H239.229L244.244 421.743Z" fill="black"/>
<path opacity="0.1" d="M254.503 421.743H249.182L244.18 428.213H249.488L254.503 421.743Z" fill="black"/>
<path opacity="0.1" d="M264.749 421.743H259.428L254.426 428.213H259.734L264.749 421.743Z" fill="black"/>
<path opacity="0.1" d="M274.995 421.743H269.687L264.672 428.213H269.98L274.995 421.743Z" fill="black"/>
<path opacity="0.1" d="M326.227 428.213V428.149L326.175 428.213H326.227Z" fill="black"/>
<path d="M448.008 194.245L444.958 197.27L443.236 199.056C439.387 195.193 434.813 192.128 429.777 190.037C424.74 187.946 419.341 186.87 413.888 186.87C408.435 186.87 403.035 187.946 397.999 190.037C392.963 192.128 388.389 195.193 384.54 199.056C384.004 198.495 383.455 197.908 382.894 197.346C381.898 196.325 380.903 195.33 379.895 194.322H379.806V194.245L380.023 194.067C381.299 192.918 382.575 191.745 383.851 190.647C386.597 188.417 389.595 186.516 392.783 184.982C396.513 183.117 400.486 181.781 404.586 181.013C406.538 180.656 408.516 180.465 410.481 180.222C411.157 180.146 415.508 180.133 415.649 180.133C416.988 180.235 418.328 180.299 419.668 180.439C423.369 180.848 427.007 181.705 430.501 182.991C433.034 183.925 435.484 185.069 437.826 186.411C440.299 187.831 442.639 189.471 444.818 191.311C445.903 192.255 446.962 193.237 448.034 194.207L448.008 194.245Z" fill="#237BFF"/>
<path d="M394.148 208.575L389.325 203.79C394.599 198.432 401.501 194.972 408.95 193.952C420.332 192.408 430.106 195.866 438.4 203.713L433.564 208.524C430.979 205.937 427.91 203.884 424.532 202.484C421.153 201.083 417.532 200.363 413.875 200.363C410.218 200.363 406.597 201.083 403.218 202.484C399.84 203.884 396.771 205.937 394.186 208.524L394.148 208.575Z" fill="#237BFF"/>
<path d="M428.753 213.373L423.968 218.196C422.647 216.865 421.075 215.809 419.344 215.089C417.613 214.368 415.757 213.997 413.881 213.997C412.006 213.997 410.15 214.368 408.418 215.089C406.687 215.809 405.116 216.865 403.795 218.196L399.01 213.411C400.951 211.44 403.265 209.874 405.816 208.804C408.368 207.733 411.107 207.18 413.873 207.177C416.64 207.173 419.38 207.719 421.935 208.783C424.489 209.846 426.806 211.407 428.753 213.373V213.373Z" fill="#237BFF"/>
<path d="M418.201 222.509C418.201 223.364 417.947 224.201 417.472 224.912C416.996 225.623 416.321 226.178 415.53 226.505C414.74 226.833 413.87 226.918 413.031 226.751C412.192 226.585 411.421 226.173 410.816 225.568C410.211 224.963 409.799 224.192 409.632 223.353C409.466 222.514 409.551 221.644 409.879 220.854C410.206 220.063 410.76 219.388 411.472 218.912C412.183 218.437 413.019 218.183 413.875 218.183C415.022 218.183 416.122 218.639 416.934 219.45C417.745 220.261 418.201 221.362 418.201 222.509Z" fill="#237BFF"/>
<path d="M155.191 504.084C155.191 504.084 151.363 556.502 151.363 556.527C151.363 566.799 151.453 575.795 151.95 580.452C151.946 580.473 151.946 580.495 151.95 580.516C151.952 581.618 152.206 582.704 152.691 583.693L152.754 583.757C155.804 585.85 237.812 588.657 240.709 587.789C243.605 586.922 241.36 578.615 238.259 575.961C235.158 573.307 204.241 558.199 204.241 558.199L207.507 505.806L155.191 504.084Z" fill="#774442"/>
<path d="M240.773 587.789C237.876 588.657 155.868 585.85 152.818 583.757L152.754 583.693C152.271 582.708 152.018 581.626 152.014 580.529C152.008 580.504 152.008 580.478 152.014 580.452C151.517 575.795 151.376 566.799 151.427 556.54C151.427 556.54 152.078 547.442 152.844 536.839L205.491 539.301L204.318 558.199C204.318 558.199 235.222 573.32 238.336 575.961C241.449 578.602 243.669 586.96 240.773 587.789Z" fill="#EBEBEB"/>
<path d="M241.13 587.93C238.195 588.785 154.898 586.475 151.81 584.357C150.636 583.553 150.368 555.621 152.04 541.471L205.683 543.576C205.683 543.576 205.606 557.969 206.257 558.301C211.527 560.993 235.886 573.511 238.693 575.923C241.819 578.602 244.078 587.062 241.13 587.93Z" fill="#237BFF"/>
<path d="M240.071 584.548C226.124 583.681 169.827 581.486 155.97 581.677C155.868 581.677 155.855 581.767 155.97 581.767C169.776 582.941 226.15 584.676 240.058 584.778C240.352 584.778 240.364 584.561 240.071 584.548Z" fill="#263238"/>
<path d="M233.449 572.707C231.9 572.608 230.347 572.832 228.889 573.363C227.43 573.895 226.098 574.723 224.976 575.795C222.943 577.713 221.728 580.341 221.582 583.132C221.582 583.209 221.735 583.221 221.748 583.132C222.333 580.395 223.789 577.92 225.899 576.08C228.008 574.24 230.657 573.132 233.449 572.924C233.477 572.924 233.505 572.913 233.525 572.892C233.546 572.872 233.557 572.844 233.557 572.816C233.557 572.787 233.546 572.759 233.525 572.739C233.505 572.718 233.477 572.707 233.449 572.707V572.707Z" fill="#263238"/>
<path d="M209.575 559.347C203.999 559.054 197.44 560.776 193.803 565.217C193.663 565.383 193.905 565.587 194.071 565.51C199.054 563.135 204.277 561.3 209.651 560.036C209.726 560.009 209.789 559.957 209.831 559.889C209.873 559.821 209.891 559.741 209.882 559.662C209.873 559.583 209.838 559.509 209.782 559.452C209.727 559.395 209.654 559.358 209.575 559.347Z" fill="#263238"/>
<path d="M213.824 561.185C208.248 560.891 201.689 562.627 198.052 567.054C197.912 567.233 198.154 567.424 198.32 567.348C203.299 564.973 208.518 563.137 213.887 561.874C213.979 561.865 214.063 561.821 214.122 561.75C214.18 561.68 214.209 561.589 214.2 561.497C214.192 561.406 214.147 561.322 214.077 561.263C214.006 561.204 213.915 561.176 213.824 561.185Z" fill="#263238"/>
<path d="M218.06 563.035C212.471 562.742 205.925 564.464 202.289 568.905C202.148 569.071 202.391 569.275 202.557 569.198C207.534 566.821 212.754 564.986 218.124 563.724C218.215 563.716 218.299 563.671 218.358 563.601C218.417 563.53 218.445 563.439 218.436 563.348C218.428 563.256 218.384 563.172 218.313 563.113C218.242 563.055 218.151 563.027 218.06 563.035V563.035Z" fill="#263238"/>
<path d="M222.322 564.872C216.733 564.579 210.187 566.314 206.551 570.742C206.397 570.921 206.653 571.112 206.818 571.036C211.796 568.658 217.015 566.823 222.386 565.562C222.477 565.553 222.561 565.509 222.62 565.438C222.679 565.367 222.707 565.276 222.698 565.185C222.69 565.094 222.645 565.009 222.575 564.951C222.504 564.892 222.413 564.864 222.322 564.872V564.872Z" fill="#263238"/>
<path d="M160.64 546.97C154.375 546.753 154.03 556.489 160.308 556.706C166.586 556.923 167.02 547.187 160.64 546.97Z" fill="#263238"/>
<path d="M216.172 544.673C213.441 542.223 209.792 544.367 207.954 546.741C207.106 547.846 206.351 549.02 205.696 550.25C204.168 553.095 203.104 556.166 202.544 559.347C202.495 559.587 202.465 559.83 202.455 560.075C202.436 560.103 202.427 560.137 202.427 560.17C202.427 560.204 202.436 560.237 202.455 560.266C202.409 560.455 202.375 560.647 202.352 560.84C202.352 560.864 202.357 560.888 202.366 560.909C202.376 560.931 202.391 560.95 202.41 560.965C202.428 560.98 202.45 560.99 202.474 560.995C202.497 561 202.521 560.999 202.544 560.993C202.57 561.129 202.634 561.254 202.729 561.353C202.824 561.453 202.946 561.523 203.08 561.555C203.148 561.584 203.222 561.6 203.297 561.6C203.371 561.6 203.445 561.584 203.514 561.555C204.637 560.84 205.823 560.126 206.997 559.424L207.622 559.041C210.545 557.434 213.184 555.356 215.431 552.891C217.269 550.632 218.762 546.983 216.172 544.673ZM208.886 556.336C207.967 556.948 207.048 557.535 206.129 558.122C205.211 558.709 204.381 559.258 203.577 559.871C203.478 559.93 203.384 559.998 203.297 560.075L202.99 560.279L203.105 559.973C203.105 559.973 203.105 559.973 203.105 559.909C203.973 557.74 204.777 555.519 205.81 553.401C205.989 552.98 206.206 552.559 206.423 552.125C207.061 550.848 207.786 549.616 208.592 548.438C209.868 546.638 215.546 542.16 215.865 548.259C216.031 551.577 211.221 554.703 208.886 556.336Z" fill="#263238"/>
<path d="M203.552 560.56C203.628 560.483 203.654 560.394 203.552 560.317C203.452 560.209 203.346 560.106 203.233 560.011L203.118 559.896L202.569 559.398C199.056 556.335 194.867 554.149 190.345 553.018C187.436 552.329 183.251 553.018 182.689 556.591C182.128 560.164 185.599 561.912 188.431 562.448C191.293 562.901 194.208 562.901 197.07 562.448C199.099 562.193 201.127 561.861 203.093 561.631C203.208 561.613 203.316 561.566 203.408 561.495C203.5 561.423 203.572 561.329 203.618 561.222C203.664 561.115 203.682 560.998 203.67 560.882C203.659 560.767 203.618 560.655 203.552 560.56ZM195.628 560.917C192.821 561.185 187.117 561.785 185.126 559.079C181.541 554.129 188.738 553.975 190.868 554.601C192.245 555.005 193.592 555.504 194.901 556.094C197.481 557.281 199.995 558.61 202.429 560.075V560.075L202.697 560.228C202.6 560.215 202.501 560.215 202.403 560.228C202.123 560.228 201.842 560.228 201.561 560.228C199.596 560.47 197.644 560.725 195.628 560.917Z" fill="#263238"/>
<path d="M151.325 533.802L210.021 536.213C210.021 536.213 212.726 454.345 211.425 419.906C210.008 382.494 193.944 271.188 193.944 271.188H145.456C145.456 271.188 157.846 382.928 158.114 420.353C158.292 455.047 151.325 533.802 151.325 533.802Z" fill="#37474F"/>
<path d="M184.348 271.188L155.23 371.992C151.785 324.308 145.392 271.188 145.392 271.188H184.348Z" fill="#263238"/>
<path d="M154.592 276.675L157.68 309.851L160.525 343.091C162.35 365.268 164.085 387.445 165.4 409.66C165.731 415.223 165.923 420.799 165.846 426.375C165.77 431.951 165.502 437.515 165.221 443.065C164.642 454.192 163.928 465.298 163.077 476.382C162.235 487.47 159.134 520.136 159.134 520.136C159.134 520.136 161.38 487.406 162.107 476.318C162.835 465.23 163.562 454.116 164.072 443.014C164.34 437.464 164.545 431.913 164.634 426.363C164.723 420.812 164.481 415.287 164.149 409.775C162.937 387.572 161.176 365.395 159.568 343.206L154.592 276.675Z" fill="#263238"/>
<path d="M208.12 525.214C199.188 524.602 201.74 524.653 192.808 524.143C188.431 523.9 159.632 522.292 155.523 522.777C155.434 522.777 155.421 522.943 155.523 522.956C159.581 523.824 188.38 524.934 192.77 525.1C201.702 525.431 199.15 525.24 208.082 525.47C208.098 525.472 208.116 525.471 208.132 525.467C208.148 525.463 208.164 525.456 208.178 525.446C208.191 525.436 208.203 525.423 208.211 525.408C208.22 525.394 208.226 525.378 208.228 525.361C208.231 525.344 208.23 525.327 208.226 525.311C208.222 525.294 208.215 525.279 208.205 525.265C208.195 525.252 208.182 525.24 208.167 525.231C208.153 525.223 208.137 525.217 208.12 525.214V525.214Z" fill="#263238"/>
<path d="M62.0435 474.366L35.2475 519.638C30.6284 528.8 26.7366 536.915 25.116 541.33C25.116 541.33 25.116 541.33 25.116 541.407C24.6207 542.388 24.3629 543.472 24.3632 544.571C24.3564 544.585 24.3529 544.6 24.3529 544.616C24.3529 544.631 24.3564 544.647 24.3632 544.661C26.1496 547.889 98.3712 586.947 101.293 587.458C104.215 587.968 105.976 579.534 104.381 575.782C102.786 572.031 81.8342 544.712 81.8342 544.712L108.107 499.273L62.0435 474.366Z" fill="#774442"/>
<path d="M101.357 587.432C98.3712 586.922 26.2134 547.876 24.4142 544.635C24.4067 544.606 24.4067 544.575 24.4142 544.546C24.4146 543.448 24.6678 542.365 25.1543 541.381C25.1488 541.356 25.1488 541.33 25.1543 541.305C26.7876 536.915 30.6666 528.8 35.2858 519.613L45.3279 502.604L91.366 528.264L81.898 544.661C81.898 544.661 102.824 571.967 104.432 575.718C106.04 579.47 104.33 587.955 101.357 587.432Z" fill="#EBEBEB"/>
<path d="M101.625 587.713C98.6009 587.177 25.065 547.991 23.2403 544.712C22.5385 543.436 34.7243 518.349 42.5462 506.432L89.6434 532.22C89.6434 532.22 83.1613 545.056 83.5951 545.643C87.1169 550.403 103.348 572.439 104.789 575.872C106.384 579.674 104.636 588.236 101.625 587.713Z" fill="#237BFF"/>
<path d="M102.161 584.217C90.0772 577.224 40.645 550.173 28.1529 544.176C28.0509 544.176 28.0126 544.176 28.1529 544.252C39.9942 551.449 89.6434 578.105 102.161 584.421C102.314 584.548 102.416 584.408 102.161 584.217Z" fill="#263238"/>
<path d="M101.523 570.665C100.183 569.893 98.6987 569.404 97.1619 569.231C95.6251 569.058 94.0691 569.203 92.5909 569.657C89.9119 570.485 87.6546 572.313 86.2875 574.761C86.2875 574.838 86.3768 574.915 86.4278 574.838C88.1688 572.638 90.5768 571.063 93.2899 570.35C96.0029 569.637 98.8741 569.824 101.472 570.882C101.501 570.889 101.531 570.884 101.556 570.869C101.581 570.853 101.599 570.828 101.606 570.799C101.613 570.771 101.608 570.74 101.592 570.715C101.577 570.69 101.552 570.672 101.523 570.665V570.665Z" fill="#263238"/>
<path d="M86.0961 548.068C81.2345 545.324 74.6121 543.946 69.3677 546.294C69.1636 546.383 69.2912 546.677 69.4826 546.677C74.9956 546.757 80.484 547.428 85.8536 548.68C85.9271 548.686 86.0006 548.668 86.0631 548.629C86.1257 548.59 86.1741 548.532 86.2012 548.463C86.2284 548.395 86.2328 548.319 86.2139 548.248C86.1949 548.177 86.1537 548.114 86.0961 548.068V548.068Z" fill="#263238"/>
<path d="M89.0819 551.615C84.2204 548.859 77.5979 547.493 72.3408 549.841C72.1367 549.93 72.3408 550.211 72.4557 550.224C77.9738 550.312 83.4666 550.992 88.8395 552.253C88.9206 552.271 89.0056 552.26 89.079 552.221C89.1523 552.182 89.209 552.117 89.2386 552.039C89.2681 551.962 89.2685 551.876 89.2397 551.798C89.2109 551.72 89.1549 551.655 89.0819 551.615V551.615Z" fill="#263238"/>
<path d="M92.0678 555.149C87.1935 552.406 80.5838 551.028 75.3267 553.376C75.1225 553.478 75.2501 553.758 75.4415 553.758C80.9555 553.857 86.4433 554.541 91.8126 555.8C91.8934 555.813 91.9763 555.799 92.0475 555.758C92.1187 555.718 92.1739 555.654 92.2038 555.578C92.2337 555.502 92.2365 555.418 92.2117 555.34C92.187 555.262 92.1362 555.194 92.0678 555.149V555.149Z" fill="#263238"/>
<path d="M95.0408 558.697C90.1793 555.953 83.5568 554.575 78.2997 556.923C78.1083 557.012 78.2997 557.306 78.4273 557.306C83.9417 557.398 89.4302 558.083 94.7984 559.347C94.8847 559.379 94.9802 559.376 95.064 559.338C95.1477 559.299 95.2129 559.229 95.245 559.143C95.2772 559.057 95.2737 558.961 95.2354 558.878C95.1971 558.794 95.1271 558.729 95.0408 558.697V558.697Z" fill="#263238"/>
<path d="M47.8544 515.21C42.342 512.225 37.6464 520.787 43.2097 523.773C48.7731 526.758 53.3794 518.196 47.8544 515.21Z" fill="#263238"/>
<path d="M98.5371 537.872C97.1845 534.453 92.961 534.759 90.2686 536.06C89.001 536.676 87.7849 537.393 86.632 538.204C83.9918 540.065 81.6694 542.34 79.7544 544.941C79.6025 545.13 79.4659 545.331 79.3461 545.541C79.3173 545.559 79.2931 545.583 79.2753 545.612C79.2576 545.641 79.2469 545.673 79.244 545.707C79.1452 545.841 79.0557 545.982 78.976 546.128C78.9629 546.147 78.9548 546.169 78.9524 546.193C78.9499 546.216 78.9533 546.239 78.9622 546.261C78.971 546.282 78.9851 546.301 79.0031 546.316C79.0211 546.33 79.0425 546.341 79.0653 546.345C79.0314 546.479 79.0362 546.619 79.0792 546.75C79.1221 546.881 79.2014 546.997 79.3078 547.085C79.3609 547.138 79.4252 547.177 79.4959 547.202C79.5666 547.226 79.6419 547.234 79.7161 547.225C80.9921 547.085 82.4212 546.97 83.7865 546.868H84.5138C87.8595 546.729 91.1604 546.048 94.288 544.852C96.84 543.691 99.8386 541.088 98.5371 537.872ZM86.8489 545.005L83.5951 545.388C82.5488 545.503 81.5153 545.618 80.4945 545.796C80.3799 545.784 80.2644 545.784 80.1499 545.796H79.7799C79.8668 545.726 79.9478 545.65 80.0223 545.567V545.567C81.7705 544.01 83.4675 542.377 85.3433 540.947C85.6878 540.641 86.0706 540.36 86.4534 540.08C87.596 539.224 88.7938 538.443 90.0389 537.745C91.9912 536.724 99.0603 535.193 96.6231 540.833C95.3343 543.997 89.6434 544.648 86.8489 545.005V545.005Z" fill="#263238"/>
<path d="M80.1754 546.473C80.2775 546.473 80.3286 546.37 80.303 546.268L80.1499 545.847V545.694C80.1567 545.673 80.1567 545.651 80.1499 545.63L79.882 544.941C78.1077 540.624 75.3353 536.789 71.7921 533.751C69.4953 531.837 65.4121 530.548 63.3322 533.534C61.2524 536.52 63.5747 539.595 65.8842 541.33C68.2499 543.003 70.8635 544.295 73.6296 545.158C75.5563 545.835 77.4576 546.434 79.3843 547.098C79.4778 547.112 79.5733 547.107 79.6647 547.083C79.7562 547.059 79.8417 547.016 79.9159 546.957C79.9901 546.899 80.0515 546.825 80.0961 546.742C80.1408 546.658 80.1678 546.567 80.1754 546.473ZM72.915 543.257C70.2737 542.236 64.9017 540.246 64.3275 536.877C63.3322 530.854 69.8271 533.955 71.4731 535.435C72.5192 536.411 73.4996 537.456 74.4079 538.561C76.1908 540.779 77.8521 543.092 79.3843 545.49V545.49C79.4364 545.584 79.4961 545.674 79.563 545.758L79.2822 545.656C79.0285 545.532 78.7687 545.422 78.5039 545.324C76.6664 544.635 74.7907 543.984 72.915 543.257Z" fill="#263238"/>
<path d="M188.916 271.137C188.699 272.133 185.318 287.866 181.796 301.378C179.244 311.242 176.616 319.919 175.11 320.825C173.4 321.833 165.068 325.52 162.286 326.682C162.286 326.682 143.554 420.149 133.678 449.178C124.555 475.974 98.7795 527.014 98.7795 527.014L45.532 497.64C45.532 497.64 74.8035 447.238 79.295 434.21C86.262 414.037 112.382 315.542 112.382 315.542C112.382 315.542 112.178 284.701 122.59 271.227L188.916 271.137Z" fill="#37474F"/>
<path d="M101.051 514.853C93.2289 510.477 95.564 511.676 87.6655 507.338C83.8375 505.245 58.4707 491.49 54.4896 490.175C54.4002 490.175 54.3237 490.277 54.4002 490.328C57.7051 492.88 83.2634 506.164 87.1552 508.193C95.1174 512.327 92.8716 511.051 100.872 515.096C100.904 515.119 100.945 515.129 100.984 515.123C101.024 515.117 101.059 515.096 101.083 515.064C101.106 515.032 101.116 514.991 101.11 514.952C101.104 514.912 101.083 514.877 101.051 514.853V514.853Z" fill="#263238"/>
<path d="M126.43 306.878C127.936 306.495 129.531 306.368 131.062 306.125C132.338 305.934 133.538 305.717 134.75 305.449C137.095 305.027 139.318 304.09 141.258 302.705C143.376 301.059 144.46 298.558 145.481 296.147C146.094 294.718 146.757 293.301 147.357 291.885C147.663 291.209 147.969 290.52 148.288 289.843C148.719 289.039 149.107 288.213 149.45 287.368C149.45 287.253 149.679 287.368 149.628 287.368C149.419 287.948 149.245 288.541 149.105 289.142C148.901 289.831 148.709 290.52 148.493 291.209C148.11 292.485 147.74 293.659 147.344 294.884C146.727 297.106 145.849 299.248 144.728 301.264C142.47 304.862 138.425 306.368 134.38 306.827C133.232 306.967 132.058 307.057 130.896 307.12C129.428 307.248 127.95 307.248 126.482 307.12C126.265 307.248 126.188 306.942 126.43 306.878Z" fill="#263238"/>
<path d="M179.525 318.668C173.581 320.824 167.839 323.496 162.363 326.656C162.146 326.771 162.286 327.115 162.516 327.013C168.309 324.525 174.204 322.152 179.831 319.357C179.906 319.307 179.96 319.232 179.985 319.146C180.01 319.059 180.004 318.966 179.967 318.884C179.931 318.802 179.866 318.735 179.785 318.696C179.704 318.656 179.612 318.646 179.525 318.668V318.668Z" fill="#263238"/>
<path d="M181.26 279.061C181.26 278.857 180.903 278.819 180.903 279.061C180.903 285.926 180.507 291.962 179.933 298.38C179.665 301.353 177.266 317.813 172.098 316.614C171.244 316.41 170.822 315.568 170.657 314.253C170.685 312.552 170.916 310.86 171.346 309.213C171.92 305.768 172.379 302.31 172.622 298.826C173.23 292.346 173.162 285.821 172.417 279.355C172.417 279.311 172.4 279.268 172.369 279.237C172.338 279.206 172.296 279.189 172.252 279.189C172.208 279.189 172.165 279.206 172.134 279.237C172.103 279.268 172.086 279.311 172.086 279.355C172.253 288.342 171.741 297.33 170.554 306.24C169.916 310.527 167.76 316.971 172.239 317.622C176.718 318.273 179.742 307.503 180.303 304.543C181.726 296.126 182.048 287.561 181.26 279.061V279.061Z" fill="#263238"/>
<path d="M172.239 317.035C171.774 318.143 171.386 319.281 171.078 320.442C170.746 321.34 170.582 322.292 170.593 323.249C170.593 323.428 170.861 323.44 170.95 323.326C171.491 322.484 171.896 321.563 172.15 320.595C172.545 319.536 172.966 318.49 173.323 317.431C173.349 317.359 173.361 317.284 173.358 317.208C173.355 317.132 173.336 317.058 173.304 316.989C173.272 316.92 173.227 316.859 173.171 316.807C173.116 316.756 173.05 316.716 172.979 316.69C172.908 316.664 172.832 316.653 172.756 316.656C172.681 316.659 172.606 316.677 172.538 316.709C172.469 316.741 172.407 316.787 172.356 316.842C172.305 316.898 172.265 316.964 172.239 317.035Z" fill="#263238"/>
<path d="M58.7897 490.265C66.586 475.591 78.8356 452.686 82.6254 445.426C86.1968 438.235 89.0971 430.73 91.2894 423.007C96.1127 407.337 100.681 391.6 104.994 375.795C109.307 359.989 113.356 344.099 117.141 328.123C118.098 324.142 119.132 320.148 119.897 316.116C120.586 312.049 120.586 307.895 119.897 303.828C119.309 300.025 119.279 296.156 119.808 292.344C120.42 288.557 121.316 284.82 122.488 281.167C123.087 279.24 123.764 277.339 124.402 275.412C124.478 275.208 124.81 275.297 124.746 275.514C122.386 283.246 119.974 291.056 120.472 299.235C120.714 303.165 121.748 307.031 121.748 310.987C121.487 314.916 120.82 318.807 119.757 322.598C116.031 338.65 112.033 354.634 107.763 370.55C103.492 386.466 98.9496 402.306 94.1349 418.069C91.8126 425.725 89.6433 433.534 86.3385 440.845C83.0337 448.157 70.5544 470.614 62.1711 484.88C61.1163 486.709 60.0487 488.521 58.9683 490.316C58.9045 490.494 58.7259 490.38 58.7897 490.265Z" fill="#263238"/>
<path d="M162.618 189.218C179.333 198.392 207.814 215.338 219.374 216.678C228.306 217.724 270.274 189.882 282.932 178.984C286.76 175.654 265.004 151.729 260.576 154.906C248.365 163.711 215.317 184.433 213.836 184.701C208.375 185.658 186.492 179.597 167.033 175.897C145.328 171.724 154.515 184.778 162.618 189.218Z" fill="#774442"/>
<path d="M192.999 208.256L206.219 183.744C206.219 183.744 173.515 173.536 158.764 174.812C144.014 176.088 153.137 183.923 160.614 189.065C168.092 194.207 192.999 208.256 192.999 208.256Z" fill="#C7C7C7"/>
<path d="M192.999 208.256L206.219 183.744C206.219 183.744 173.515 173.536 158.764 174.812C144.014 176.088 153.137 183.923 160.614 189.065C168.092 194.207 192.999 208.256 192.999 208.256Z" fill="#237BFF"/>
<path d="M206.193 183.744L206.078 183.948C205.772 183.808 205.466 183.68 205.147 183.565C204.684 183.362 204.212 183.184 203.73 183.029L202.289 182.57C201.804 182.43 201.306 182.34 200.808 182.226L200.068 182.047L199.316 181.945C195.306 181.332 191.209 181.637 187.334 182.838C183.475 184.069 179.788 185.784 176.36 187.942C173.642 189.575 171.039 191.362 168.436 193.161L168.041 193.429L167.773 193.607L167.275 193.301C167.377 193.301 167.467 193.174 167.569 193.11L167.964 192.842C170.631 191.017 173.311 189.18 176.105 187.521C179.574 185.348 183.31 183.632 187.219 182.417C191.042 181.285 195.065 180.998 199.009 181.575C202.391 182.506 204.841 183.234 205.785 183.527L206.193 183.744ZM197.453 198.775C193.854 199.936 190.371 201.327 186.875 202.769L184.782 203.586L185.394 203.93L187.079 203.267C190.575 201.863 194.046 200.409 197.606 199.235L197.912 199.133L198.231 198.533L197.453 198.775ZM168.436 193.161L167.964 192.842C166.718 191.976 165.345 191.309 163.894 190.864L162.988 190.647L164.264 191.451C165.432 191.869 166.546 192.426 167.581 193.11L168.054 193.429C168.385 193.659 168.717 193.901 169.036 194.156C169.355 194.411 169.649 194.641 169.942 194.909L171.677 195.943C170.929 195.186 170.137 194.474 169.304 193.812C169.011 193.569 168.73 193.352 168.436 193.148V193.161Z" fill="white"/>
<path d="M188.151 204.326C189.682 200.74 191.685 197.308 193.535 193.875C195.385 190.443 197.58 186.972 199.545 183.502C199.545 183.399 199.775 183.502 199.724 183.591C197.937 187.087 196.304 190.647 194.377 194.067C192.52 197.612 190.471 201.054 188.24 204.377C188.24 204.377 188.125 204.377 188.151 204.326Z" fill="#263238"/>
<path opacity="0.1" d="M199.788 195.649L192.999 208.256C192.999 208.256 168.092 194.22 160.614 189.116C156.059 185.977 150.891 181.83 150.891 178.793L199.788 195.649Z" fill="black"/>
<path d="M114.589 280.797C114.793 281.013 194.339 279.61 195.092 278.729C196.138 277.453 185.024 203.343 173.796 183.565C168.436 174.097 153.75 169.07 145.188 183.718C124.746 218.757 113.887 280.018 114.589 280.797Z" fill="#237BFF"/>
<path d="M195.015 276.037C194.645 276.037 194.263 276.037 193.893 276.037H193.127H192.361C191.851 276.037 191.341 276.037 190.83 275.961L189.312 275.769C188.805 275.697 188.303 275.599 187.806 275.476C186.805 275.273 185.817 275.013 184.846 274.697C183.889 274.34 182.932 274.021 182 273.574C181.069 273.128 180.176 272.681 179.257 272.222C178.338 271.762 177.496 271.214 176.705 270.64C175.914 270.065 175.021 269.491 174.153 268.904C173.285 268.317 172.52 267.628 171.728 267.041C170.937 266.454 169.904 265.536 169.011 264.744C168.898 264.654 168.791 264.556 168.692 264.451C166.637 262.652 164.659 260.751 162.682 258.849C159.747 256.042 156.838 253.184 153.648 250.683C152.07 249.424 150.384 248.31 148.607 247.353C148.25 247.161 147.88 246.983 147.51 246.829C147.342 246.74 147.167 246.663 146.987 246.6C145.688 246.045 144.318 245.675 142.916 245.502C142.419 245.502 141.921 245.426 141.423 245.413H139.905C139.399 245.387 138.892 245.387 138.387 245.413L136.881 245.566L136.128 245.656L135.388 245.783L133.844 246.268C132.874 246.549 131.879 246.753 130.935 247.123C130.514 247.263 130.08 247.429 129.659 247.595C129.466 247.658 129.279 247.735 129.097 247.825C127.821 248.348 126.545 248.96 125.371 249.586C123.674 250.441 121.964 251.295 120.178 251.997L120.255 251.678C121.952 250.989 123.585 250.147 125.231 249.305C126.367 248.718 127.502 248.144 128.676 247.646L129.212 247.404C129.735 247.174 130.271 246.97 130.807 246.791C131.764 246.408 132.759 246.191 133.742 245.898L135.248 245.604L136 245.464L136.766 245.375L138.284 245.196C138.795 245.196 139.305 245.196 139.816 245.12H141.347C141.87 245.12 142.38 245.12 142.904 245.196C144.412 245.377 145.887 245.777 147.28 246.383L147.778 246.625C148.11 246.766 148.429 246.931 148.748 247.097C150.548 248.082 152.256 249.227 153.852 250.517C157.054 253.069 159.938 255.953 162.847 258.786C164.876 260.763 166.905 262.728 169.011 264.604L169.33 264.898C170.146 265.625 170.976 266.339 171.818 267.029C173.374 268.334 175.01 269.54 176.718 270.64C177.56 271.201 178.453 271.686 179.27 272.209C180.086 272.732 181.069 273.153 182.013 273.485C182.957 273.817 183.889 274.225 184.846 274.57C185.81 274.876 186.79 275.131 187.781 275.335C188.278 275.412 188.763 275.552 189.273 275.603L190.779 275.782C191.277 275.782 191.787 275.782 192.298 275.858H193.05H193.816C194.186 275.858 194.543 275.858 194.913 275.795C194.952 275.874 194.986 275.955 195.015 276.037ZM192.604 258.377L192.4 258.492C189.128 260.334 185.667 261.819 182.077 262.92C178.475 263.979 174.743 264.529 170.988 264.553C170.338 264.553 169.712 264.553 169.036 264.553H168.679C165.697 264.408 162.739 263.933 159.862 263.137C158.049 262.64 156.268 262.035 154.528 261.325C152.788 260.615 151.084 259.819 149.424 258.939C146.349 257.356 143.414 255.532 140.492 253.707L140.02 253.414L139.714 253.222C136.55 251.163 133.26 249.305 129.863 247.659H129.735C129.592 247.582 129.443 247.518 129.289 247.467C126.959 246.412 124.494 245.686 121.964 245.311C121.916 245.457 121.877 245.606 121.85 245.758C122.708 245.875 123.56 246.037 124.402 246.242C125.879 246.565 127.329 247 128.74 247.544L129.161 247.723L129.671 247.94C133.074 249.533 136.373 251.34 139.548 253.35L139.777 253.49L140.262 253.771C143.248 255.583 146.234 257.395 149.347 258.977C151.019 259.845 152.742 260.649 154.451 261.363C156.194 262.088 157.98 262.706 159.798 263.213C162.792 264.07 165.875 264.579 168.985 264.732H169.342C169.891 264.732 170.427 264.732 170.976 264.732C174.763 264.736 178.534 264.216 182.179 263.188C185.812 262.126 189.313 260.658 192.617 258.811V258.811L192.604 258.377ZM187.819 231.926C186.951 231.53 186.071 231.224 185.177 230.905C184.205 230.591 183.217 230.327 182.217 230.114C181.707 230.025 181.222 229.884 180.711 229.833L179.193 229.642C178.683 229.578 178.172 229.642 177.662 229.552H176.896C176.641 229.552 176.386 229.552 176.131 229.552C172.022 229.656 167.991 230.69 164.34 232.577C160.715 234.467 157.352 236.822 154.337 239.582C151.899 241.725 149.603 244.022 147.331 246.294L146.974 246.651L145.558 248.067C143.746 249.866 141.921 251.678 139.994 253.363C139.912 253.419 139.835 253.483 139.765 253.554C138.706 254.46 137.621 255.328 136.485 256.106C134.854 257.285 133.079 258.249 131.203 258.977C129.325 259.685 127.326 260.019 125.32 259.959C123.307 259.933 121.305 259.655 119.361 259.13L118.583 258.888C118.583 259.028 118.519 259.168 118.494 259.309L119.234 259.551C121.214 260.1 123.254 260.404 125.308 260.457H126.086H126.852H127.63L128.395 260.33L129.161 260.202C129.416 260.202 129.659 260.074 129.914 260.011L130.654 259.806C130.909 259.73 131.139 259.628 131.381 259.538C133.304 258.798 135.122 257.811 136.792 256.604C137.991 255.754 139.145 254.843 140.25 253.873L140.466 253.694L141.5 252.648C143.006 251.27 144.46 249.841 145.902 248.399L147.459 246.829L147.791 246.485C150.024 244.239 152.257 241.993 154.617 239.901C157.598 237.154 160.912 234.792 164.481 232.87C168.07 230.98 172.039 229.925 176.092 229.782H176.858H177.611C178.121 229.782 178.619 229.782 179.129 229.859L180.635 230.037C181.133 230.037 181.63 230.216 182.128 230.305C183.119 230.505 184.098 230.756 185.063 231.058C186.007 231.403 186.938 231.709 187.844 232.13L187.819 231.926ZM175.812 187.687C173.119 189.307 170.542 191.068 167.964 192.791L167.569 193.059L165.91 194.194C162.624 196.562 159.15 198.658 155.523 200.46C154.872 200.766 154.247 201.034 153.533 201.289L153.124 201.442C152.042 201.831 150.927 202.125 149.794 202.323C147.818 202.663 145.795 202.62 143.835 202.195C141.861 201.807 139.944 201.168 138.131 200.294C137.8 200.128 137.468 199.949 137.149 199.758C137.149 199.885 137.034 200.013 136.983 200.141C137.289 200.332 137.608 200.511 137.927 200.677C139.769 201.59 141.72 202.263 143.733 202.68L144.486 202.846L145.264 202.948L146.03 203.05H146.808H147.574L148.352 202.986H149.13C149.386 202.986 149.628 202.897 149.883 202.858C151.188 202.638 152.47 202.296 153.711 201.838L154.132 201.672C154.694 201.455 155.255 201.225 155.804 200.97C157.656 200.108 159.45 199.128 161.176 198.035C162.911 196.963 164.608 195.828 166.28 194.667L168.105 193.391L168.5 193.123C170.988 191.413 173.477 189.69 176.067 188.121L175.812 187.687ZM181.503 204.76C180.775 205.015 180.035 205.245 179.295 205.462L178.976 205.551C178.057 205.819 177.126 206.061 176.194 206.253C172.548 207.109 168.753 207.109 165.106 206.253C161.424 205.557 157.907 204.167 154.745 202.157C154.512 202.015 154.286 201.862 154.069 201.697L153.533 201.34C150.973 199.291 148.288 197.403 145.494 195.687C143.828 194.759 142.071 194.006 140.25 193.442H140.084V193.531L140.301 193.595C141.181 193.926 142.061 194.245 142.929 194.628C143.802 195.008 144.654 195.434 145.481 195.904C148.186 197.596 150.778 199.463 153.239 201.493L153.762 201.863C154.056 202.08 154.349 202.272 154.656 202.476C157.843 204.543 161.394 205.989 165.119 206.738C168.836 207.618 172.707 207.618 176.424 206.738C177.432 206.521 178.44 206.278 179.423 205.985L179.742 205.895C180.418 205.691 181.094 205.474 181.758 205.245C181.605 205.104 181.554 204.926 181.503 204.76V204.76ZM183.085 210.808L181.056 207.86L179.691 205.934L179.359 205.462C177.573 202.91 175.761 200.434 173.732 198.086C172.409 196.525 170.943 195.09 169.355 193.799C169.074 193.569 168.794 193.352 168.5 193.148L168.028 192.829C166.782 191.963 165.409 191.296 163.958 190.851L162.452 190.481L160.933 190.264C160.436 190.201 159.925 190.098 159.415 190.06L157.884 189.945H157.118H154.821C153.8 190.009 152.782 190.124 151.772 190.29C149.758 190.629 147.771 191.11 145.826 191.732C143.988 192.293 142.138 192.816 140.25 193.212L140.147 193.416V193.505H140.352C142.24 193.135 144.103 192.612 145.953 192.076C147.887 191.47 149.861 191.001 151.861 190.673C152.859 190.52 153.864 190.418 154.872 190.366H157.144L157.909 190.43L159.415 190.545C159.913 190.545 160.41 190.685 160.921 190.762L162.414 190.992L163.868 191.349C165.221 191.78 166.509 192.394 167.696 193.174L168.168 193.493C168.5 193.722 168.832 193.965 169.151 194.22C170.727 195.483 172.183 196.888 173.502 198.418C175.505 200.702 177.33 203.152 179.104 205.627L179.435 206.1L180.877 208.103L183.429 211.586C183.212 211.267 183.149 211.038 183.085 210.808V210.808Z" fill="white"/>
<path d="M168.449 189.83C164.927 190.252 157.093 184.165 153.813 178.793C153.596 178.423 153.979 174.416 154.234 169.517C154.362 166.544 154.451 163.239 154.311 160.215L173.515 163.94C172.613 167.774 172.185 171.704 172.239 175.641C172.26 176.071 172.32 176.498 172.417 176.917C172.426 176.985 172.426 177.054 172.417 177.122C172.941 179.418 173.974 189.18 168.449 189.83Z" fill="#774442"/>
<path d="M154.26 168.674C158.369 174.212 164.468 179.533 172.647 178.27C172.647 177.772 172.52 177.364 172.456 177.083C172.451 177.015 172.451 176.947 172.456 176.879C172.341 176.463 172.276 176.035 172.264 175.603C172.213 171.661 172.641 167.728 173.54 163.889L154.4 160.176C154.451 162.945 154.388 165.88 154.26 168.674Z" fill="#263238"/>
<path d="M149.233 138.612C147.51 145.451 152.014 164.719 157.016 168.815C164.264 174.761 175.659 174.812 180.584 166.263C185.369 157.918 179.053 132.908 173.515 129.259C165.348 123.772 151.785 128.531 149.233 138.612Z" fill="#774442"/>
<path d="M168.296 148.463C168.296 148.463 168.207 148.552 168.232 148.603C168.615 149.879 168.857 151.41 167.811 152.15C167.811 152.15 167.811 152.24 167.811 152.227C169.202 151.627 168.87 149.611 168.296 148.463Z" fill="#263238"/>
<path d="M166.778 147.442C164.672 147.85 165.642 152.048 167.594 151.665C169.546 151.283 168.551 147.097 166.778 147.442Z" fill="#263238"/>
<path d="M175.952 146.408C175.952 146.408 176.067 146.408 176.067 146.498C176.335 147.774 176.858 149.266 178.134 149.42V149.496C176.616 149.624 175.952 147.697 175.952 146.408Z" fill="#263238"/>
<path d="M176.756 144.788C178.797 144.137 179.946 148.284 178.032 148.884C176.118 149.483 175.033 145.324 176.756 144.788Z" fill="#263238"/>
<path d="M164.672 145.911C165.187 145.619 165.685 145.299 166.165 144.954C166.739 144.584 167.224 144.354 167.441 143.678C167.495 143.484 167.486 143.278 167.415 143.09C167.344 142.901 167.214 142.741 167.046 142.631C166.675 142.473 166.269 142.417 165.87 142.469C165.471 142.52 165.092 142.678 164.774 142.925C164.052 143.325 163.506 143.98 163.243 144.762C163.175 144.952 163.168 145.159 163.222 145.353C163.277 145.547 163.391 145.719 163.548 145.846C163.706 145.972 163.898 146.046 164.1 146.058C164.301 146.069 164.501 146.018 164.672 145.911Z" fill="#263238"/>
<path d="M177.828 142.81C177.228 142.81 176.667 142.81 176.067 142.81C175.44 142.882 174.807 142.743 174.268 142.414C174.121 142.28 174.021 142.102 173.985 141.906C173.948 141.711 173.975 141.508 174.064 141.33C174.299 141.003 174.616 140.745 174.984 140.581C175.352 140.417 175.756 140.354 176.156 140.398C176.98 140.366 177.786 140.644 178.415 141.177C178.539 141.307 178.625 141.469 178.662 141.646C178.7 141.822 178.687 142.005 178.626 142.175C178.565 142.344 178.458 142.494 178.317 142.606C178.176 142.718 178.007 142.789 177.828 142.81Z" fill="#263238"/>
<path d="M170.363 156.591C170.811 157.029 171.345 157.369 171.932 157.589C172.518 157.809 173.145 157.903 173.77 157.867C174.317 157.844 174.858 157.746 175.378 157.573C175.48 157.548 175.579 157.51 175.671 157.458L175.952 157.356C176.016 157.323 176.069 157.271 176.103 157.207C176.137 157.144 176.151 157.071 176.143 156.999V156.999C176.149 156.952 176.149 156.905 176.143 156.859V156.859V156.744C175.939 155.736 175.48 154.192 175.48 154.192C175.888 154.281 177.943 154.689 177.802 154.192C176.629 149.719 175.009 145.376 172.966 141.228C172.89 141.087 172.685 141.228 172.736 141.304C173.783 145.451 175.569 149.381 176.692 153.528C175.959 153.371 175.206 153.324 174.459 153.388C174.319 153.464 175.378 156.259 175.442 156.718C174.642 156.993 173.794 157.105 172.95 157.046C172.106 156.986 171.283 156.758 170.529 156.374C170.338 156.399 170.261 156.501 170.363 156.591Z" fill="#263238"/>
<path d="M174.676 157.203C174.291 158.044 173.698 158.773 172.953 159.321C172.533 159.598 172.04 159.745 171.537 159.742C170.44 159.742 170.184 158.76 170.184 157.905C170.191 157.449 170.25 156.995 170.363 156.552C171.696 157.219 173.206 157.447 174.676 157.203V157.203Z" fill="#263238"/>
<path d="M172.953 159.321C172.533 159.598 172.04 159.745 171.537 159.742C170.44 159.742 170.184 158.76 170.184 157.905C170.738 157.803 171.309 157.886 171.81 158.143C172.31 158.399 172.712 158.813 172.953 159.321V159.321Z" fill="#FF99BA"/>
<path d="M150.432 154.97C149.679 153.299 142.291 135.179 142.47 133.049C142.636 131.109 144.805 131.556 144.818 131.454C144.83 131.351 144.626 129.629 145.583 128.825C145.925 128.62 146.305 128.487 146.7 128.434C147.095 128.382 147.497 128.41 147.88 128.519C147.88 128.519 147.88 126.669 148.977 125.967C149.337 125.788 149.737 125.708 150.138 125.732C150.539 125.757 150.926 125.886 151.261 126.107C151.29 125.614 151.439 125.136 151.695 124.713C151.951 124.291 152.306 123.937 152.729 123.683C153.116 123.508 153.55 123.462 153.965 123.552C154.381 123.641 154.757 123.862 155.038 124.18C155.038 124.18 155.255 122.394 156.378 121.884C157.501 121.373 158.726 122.483 158.726 122.483C158.726 122.483 159.134 120.824 160.563 120.582C161.019 120.548 161.473 120.652 161.869 120.88C162.265 121.107 162.583 121.448 162.784 121.858C162.784 121.858 163.396 120.225 164.736 119.982C166.076 119.74 166.79 121.335 166.79 121.335C166.79 121.335 167.109 119.765 168.385 119.663C169.661 119.561 170.236 121.297 170.236 121.297C170.246 121.104 170.301 120.916 170.395 120.747C170.49 120.578 170.621 120.433 170.779 120.322C170.938 120.212 171.12 120.138 171.31 120.108C171.501 120.078 171.697 120.092 171.882 120.148C174.28 120.531 177.1 132.321 178.351 136.979C178.351 136.979 176.871 133.546 175.888 133.61C174.906 133.674 174.421 135.333 172.673 136.009C170.184 136.966 165.438 134.605 162.005 135.907C158.573 137.208 156.672 141.189 156.263 146.791C155.74 153.12 152.18 158.939 150.432 154.97Z" fill="#263238"/>
<path d="M154.171 154.256C154.171 154.256 149.347 148.284 146.604 150.045C143.861 151.806 147.791 160.687 151.223 161.695C151.654 161.857 152.113 161.929 152.572 161.908C153.032 161.887 153.483 161.773 153.897 161.573C154.311 161.372 154.68 161.09 154.982 160.742C155.283 160.395 155.511 159.989 155.651 159.551L154.171 154.256Z" fill="#774442"/>
<path d="M147.791 152.559V152.648C150.202 153.439 151.619 155.532 152.614 157.752C152.461 157.525 152.26 157.335 152.026 157.193C151.792 157.051 151.53 156.962 151.259 156.932C150.987 156.902 150.712 156.931 150.452 157.017C150.193 157.104 149.955 157.246 149.756 157.433C149.748 157.445 149.745 157.46 149.745 157.474C149.745 157.488 149.75 157.502 149.758 157.514C149.766 157.526 149.777 157.536 149.79 157.542C149.803 157.548 149.818 157.55 149.832 157.548C150.237 157.39 150.681 157.36 151.103 157.463C151.525 157.565 151.906 157.796 152.193 158.122C152.682 158.669 153.11 159.268 153.469 159.908C153.596 160.112 153.967 159.908 153.864 159.742C153.635 156.667 151.019 152.635 147.791 152.559Z" fill="#263238"/>
<path d="M173.63 179.737H173.566C174.395 183.412 176.118 192 170.159 192.408C167.745 192.372 165.393 191.641 163.383 190.303C161.316 189.105 159.382 187.689 157.616 186.079C155.585 184.333 153.699 182.426 151.976 180.375C151.912 180.286 151.772 180.375 151.848 180.503C153.596 182.545 155.128 184.727 157.08 186.615C158.935 188.453 161.029 190.033 163.307 191.311C165.45 192.673 167.953 193.358 170.491 193.276C171.582 193.151 172.596 192.654 173.363 191.868C174.13 191.083 174.603 190.056 174.702 188.963C175.035 185.846 174.669 182.694 173.63 179.737Z" fill="#263238"/>
<path d="M354.789 150.913L175.905 167.602L189.218 310.302L368.102 293.613L354.789 150.913Z" fill="#263238"/>
<path d="M251.083 259.998L246.374 209.417L300.707 229.859L251.083 259.998Z" fill="white"/>
<path d="M195.158 173.073L184.575 174.061L185.269 181.506L195.852 180.518L195.158 173.073Z" fill="white"/>
<path d="M196.581 188.188L185.998 189.176L186.692 196.621L197.275 195.633L196.581 188.188Z" fill="white"/>
<path d="M197.977 203.279L187.394 204.267L188.088 211.712L198.671 210.724L197.977 203.279Z" fill="white"/>
<path d="M199.4 218.382L188.816 219.369L189.511 226.814L200.094 225.827L199.4 218.382Z" fill="white"/>
<path d="M200.797 233.498L190.214 234.485L190.908 241.93L201.491 240.943L200.797 233.498Z" fill="white"/>
<path d="M202.206 248.589L191.623 249.576L192.317 257.021L202.9 256.034L202.206 248.589Z" fill="white"/>
<path d="M203.616 263.704L193.033 264.691L193.727 272.136L204.31 271.149L203.616 263.704Z" fill="white"/>
<path d="M205.026 278.807L194.443 279.795L195.137 287.24L205.721 286.252L205.026 278.807Z" fill="white"/>
<path d="M206.435 293.897L195.852 294.884L196.546 302.329L207.129 301.342L206.435 293.897Z" fill="white"/>
<path d="M347.449 158.873L336.865 159.861L337.56 167.306L348.143 166.318L347.449 158.873Z" fill="white"/>
<path d="M348.87 173.963L338.287 174.95L338.982 182.395L349.565 181.408L348.87 173.963Z" fill="white"/>
<path d="M350.267 189.079L339.684 190.067L340.379 197.512L350.962 196.524L350.267 189.079Z" fill="white"/>
<path d="M351.678 204.183L341.094 205.17L341.789 212.615L352.372 211.628L351.678 204.183Z" fill="white"/>
<path d="M353.086 219.285L342.503 220.272L343.198 227.717L353.781 226.73L353.086 219.285Z" fill="white"/>
<path d="M354.496 234.389L343.913 235.376L344.608 242.821L355.191 241.834L354.496 234.389Z" fill="white"/>
<path d="M355.907 249.491L345.323 250.478L346.018 257.923L356.601 256.936L355.907 249.491Z" fill="white"/>
<path d="M357.317 264.607L346.734 265.595L347.428 273.04L358.011 272.052L357.317 264.607Z" fill="white"/>
<path d="M358.726 279.698L348.142 280.685L348.837 288.131L359.42 287.143L358.726 279.698Z" fill="white"/>
<path d="M160.104 198.788C163.562 208.792 177.011 249.343 179.014 251.181C187.091 258.632 207.431 271.699 209.906 274.404C213.301 278.091 198.04 300.83 192.706 300.192C190.498 299.937 163.358 282.034 154.86 273.255C148.071 266.174 144.537 220.939 144.333 199.86C144.154 181.804 153.418 179.393 160.104 198.788Z" fill="#774442"/>
<path d="M144.754 234.006L172.596 232.143C172.596 232.143 163.792 199.056 154.885 187.227C145.979 175.399 144.192 187.304 143.797 196.376C143.401 205.449 144.754 234.006 144.754 234.006Z" fill="#237BFF"/>
<path d="M172.124 230.28C169.68 230.736 167.314 231.535 165.093 232.653H164.098C164.189 232.597 164.283 232.546 164.379 232.5C166.795 231.286 169.373 230.426 172.035 229.948C172.022 230.076 172.124 230.178 172.124 230.28ZM160.755 197.665C159.08 198.709 157.346 199.655 155.562 200.498C154.911 200.804 154.286 201.072 153.571 201.327L153.163 201.48C152.08 201.869 150.966 202.164 149.832 202.361C147.856 202.701 145.833 202.658 143.873 202.233H143.771V202.744L144.524 202.91L145.303 203.012L146.068 203.114H146.846H147.612L148.39 203.05H149.169C149.424 203.05 149.666 202.961 149.922 202.922C151.227 202.702 152.508 202.36 153.75 201.901L154.171 201.736C154.732 201.519 155.294 201.289 155.842 201.034C157.632 200.201 159.366 199.255 161.036 198.201L160.755 197.665ZM164.213 206.036C160.862 205.312 157.669 203.994 154.783 202.144C154.55 202.003 154.324 201.849 154.107 201.685L153.571 201.327C151.011 199.278 148.326 197.39 145.532 195.675C145.009 195.381 144.473 195.1 143.924 194.845C143.924 194.922 143.924 195.011 143.924 195.1C144.442 195.334 144.945 195.598 145.43 195.892C148.135 197.583 150.727 199.45 153.188 201.48L153.711 201.85C154.005 202.067 154.298 202.259 154.605 202.463C157.606 204.422 160.94 205.814 164.442 206.572C164.315 206.393 164.251 206.214 164.175 206.036H164.213ZM156.723 189.894H154.796C153.774 189.958 152.756 190.073 151.746 190.239C149.732 190.578 147.745 191.059 145.8 191.681L144.129 192.178C144.122 192.285 144.122 192.391 144.129 192.497L145.915 191.987C147.849 191.381 149.823 190.912 151.823 190.583C152.821 190.431 153.826 190.329 154.834 190.277H156.978L156.723 189.894Z" fill="white"/>
<path d="M145.494 227.804C149.322 227.205 153.329 227.064 157.22 226.809C161.112 226.554 165.208 226.567 169.202 226.388C169.317 226.388 169.33 226.579 169.202 226.592C165.297 226.937 161.406 227.434 157.488 227.638C153.498 227.938 149.494 228.028 145.494 227.906C145.494 227.906 145.443 227.817 145.494 227.804Z" fill="#263238"/>
<path d="M142.61 210.54C142.891 212.224 143.184 213.896 143.491 215.567C143.491 212.084 143.491 208.588 143.567 205.104C143.567 205.015 143.72 205.015 143.72 205.104C144.09 209.953 144.307 214.827 144.473 219.676C144.639 224.525 144.945 229.08 144.779 233.712L145.826 233.789C145.863 233.789 145.899 233.803 145.925 233.83C145.951 233.856 145.966 233.892 145.966 233.929C145.966 233.966 145.951 234.002 145.925 234.028C145.899 234.055 145.863 234.069 145.826 234.069L144.55 234.235C144.514 234.241 144.478 234.239 144.444 234.23C144.409 234.222 144.377 234.206 144.348 234.185C144.32 234.163 144.296 234.137 144.278 234.106C144.26 234.075 144.248 234.041 144.243 234.006C143.669 229.195 143.644 224.244 143.542 219.408C143.542 218.617 143.542 217.826 143.542 217.035C143.027 214.895 142.639 212.726 142.38 210.54C142.391 210.518 142.407 210.5 142.428 210.487C142.448 210.475 142.471 210.468 142.495 210.468C142.519 210.468 142.543 210.475 142.563 210.487C142.583 210.5 142.6 210.518 142.61 210.54V210.54Z" fill="#263238"/>
<path d="M171.563 232.232L172.583 232.079L172.507 232.181C171.716 230.127 171.014 228.047 170.299 225.98C169.585 223.912 168.947 221.794 168.309 219.689C167.671 217.584 167.033 215.478 166.51 213.309C165.986 211.14 165.387 209.06 164.94 206.929C165.757 208.97 166.484 211.038 167.186 213.118C167.888 215.197 168.564 217.29 169.215 219.395C169.865 221.501 170.491 223.593 171.052 225.775C171.614 227.957 172.188 230.025 172.673 232.155V232.258H171.537L171.563 232.232Z" fill="#263238"/>
<path d="M167.352 209.264C167.882 211.326 167.999 213.473 167.696 215.58C167.149 213.521 167.031 211.371 167.352 209.264V209.264Z" fill="#263238"/>
<path d="M223.292 287.1C222.016 285.416 222.934 284.752 226.52 285.76C230.105 286.768 243.427 293.774 245.481 288.925C247.536 284.076 228.587 274.442 222.513 273.23C216.439 272.018 206.142 272.184 206.142 272.184C209.434 274.748 216.861 281.843 223.292 287.1Z" fill="#774442"/>
<path d="M189.682 298.469C199.277 306.993 210.787 314.802 224.134 316.142C225.612 316.324 227.108 316.005 228.383 315.236C234.355 315.938 236.485 313.335 236.485 313.335C242.24 312.288 244.052 309.315 244.052 309.315C244.052 309.315 248.914 309.315 249.156 305.895C249.399 302.476 241.653 299.937 236.128 296.453C223.496 288.491 209.549 274.761 206.142 272.133L189.682 298.469Z" fill="#774442"/>
<path d="M218.8 298.584C222.477 300.972 226.314 303.103 230.284 304.964C234.741 306.718 239.321 308.138 243.988 309.213C244.019 309.213 244.048 309.225 244.07 309.247C244.091 309.268 244.103 309.297 244.103 309.328C244.103 309.358 244.091 309.388 244.07 309.409C244.048 309.431 244.019 309.443 243.988 309.443C234.761 308.267 226.034 304.577 218.762 298.775C218.532 298.584 218.609 298.456 218.8 298.584Z" fill="#263238"/>
<path d="M212.879 305.5C216.707 307.503 223.343 310.987 236.511 313.156V313.232C228.057 312.951 219.848 310.322 212.803 305.64C212.56 305.538 212.637 305.372 212.879 305.5Z" fill="#263238"/>
<path d="M209.779 309.277C216.337 312.454 220.88 313.615 228.37 315.198V315.287C219.681 314.368 216.631 313.054 209.651 309.494C209.396 309.366 209.511 309.162 209.779 309.277Z" fill="#263238"/>
<path d="M257.182 154.077C261.98 151.78 267.926 146.013 271.843 145.528C272.813 145.376 273.806 145.543 274.673 146.003C275.541 146.463 276.236 147.192 276.654 148.08C276.654 148.08 278.581 144.162 282.217 144.252C284.093 144.328 285.611 147.378 285.611 147.378C286.099 146.513 286.815 145.8 287.682 145.316C288.549 144.832 289.532 144.596 290.524 144.635C293.076 144.89 294.237 147.914 294.237 147.914C294.237 147.914 297.236 145.719 299.762 146.817C304.866 149.062 304.981 171.214 296.84 174.672C293.012 176.279 293.306 170.844 293.306 170.844C293.306 170.844 291.047 178.5 286.479 178.666C281.911 178.831 282.651 171.788 282.651 171.788C282.651 171.788 280.38 179.227 275.633 178.895C270.682 178.538 272.673 171.66 272.673 171.66C272.673 171.66 269.342 176.598 265.77 175.488C259.862 173.676 267.25 164.323 266.063 159.462L258.024 156.808L257.182 154.077Z" fill="#774442"/>
<path d="M264.149 149.611C259.415 151.385 253.546 145.541 248.773 146.6C242.393 148.029 248.684 155.264 258.063 156.808H265.565L264.149 149.611Z" fill="#774442"/>
<path d="M294.48 148.348C294.48 148.271 294.582 148.258 294.594 148.348C296.496 155.91 296.051 163.872 293.318 171.175C293.229 171.405 292.808 171.354 292.872 171.086C294.511 163.625 295.053 155.965 294.48 148.348V148.348Z" fill="#263238"/>
<path d="M285.688 147.263C285.688 147.174 285.816 147.161 285.841 147.263C287.863 155.621 286.821 164.426 282.906 172.081C282.766 172.349 282.37 172.439 282.511 172.081C284.897 166.786 286.3 154.396 285.688 147.263Z" fill="#263238"/>
<path d="M272.226 172.132C275.965 164.617 276.935 156.654 276.743 148.322C276.743 148.22 276.896 148.22 276.922 148.322C278.121 152.367 277.688 157.688 276.998 161.797C276.437 165.628 274.879 169.245 272.481 172.285C272.392 172.388 272.137 172.26 272.226 172.132Z" fill="#263238"/>
</svg>
