<svg width="500" height="500" viewBox="0 0 500 500" fill="none" xmlns="http://www.w3.org/2000/svg">
<path opacity="0.7" d="M67.93 167.09C67.93 167.09 40.05 239.09 79.23 311.59C118.41 384.09 199.11 422.39 263.7 455.14C328.29 487.89 395.36 471.94 427.23 418.3C459.1 364.66 415.39 326.37 415.33 249.88C415.27 173.39 426.78 153.14 385.33 88.5199C343.88 23.8999 242.27 9.58995 165.43 57.52C88.59 105.45 67.93 167.09 67.93 167.09Z" fill="white"/>
<path d="M68.9999 431.66H280.19C281.04 430.3 281.9 428.94 282.78 427.61C305.5 393.03 341.88 368.37 381.61 356.8C399.41 351.62 418.69 348.54 432.99 336.74C447.71 324.61 454.47 305.25 457.39 286.4C460.94 263.58 459.02 237.99 443.53 220.86C425.34 200.75 394.86 198.49 371.16 185.31C330.37 162.61 314.56 110.92 277.45 82.6C254 64.71 222.36 57.78 194 61.7C153.81 67.27 116 94.2 104.65 133.7C101.387 145.205 100.222 157.203 101.21 169.12C103.02 192.67 108.09 216.52 103.31 239.65C98.0399 265.14 81.4599 286.65 71.5499 310.74C59.2099 340.74 57.5499 374.34 62.7799 406.32C64.1797 414.918 66.2596 423.391 68.9999 431.66Z" fill="#FF7600"/>
<path opacity="0.7" d="M68.9999 431.66H280.19C281.04 430.3 281.9 428.94 282.78 427.61C305.5 393.03 341.88 368.37 381.61 356.8C399.41 351.62 418.69 348.54 432.99 336.74C447.71 324.61 454.47 305.25 457.39 286.4C460.94 263.58 459.02 237.99 443.53 220.86C425.34 200.75 394.86 198.49 371.16 185.31C330.37 162.61 314.56 110.92 277.45 82.6C254 64.71 222.36 57.78 194 61.7C153.81 67.27 116 94.2 104.65 133.7C101.387 145.205 100.222 157.203 101.21 169.12C103.02 192.67 108.09 216.52 103.31 239.65C98.0399 265.14 81.4599 286.65 71.5499 310.74C59.2099 340.74 57.5499 374.34 62.7799 406.32C64.1797 414.918 66.2596 423.391 68.9999 431.66Z" fill="white"/>
<path d="M41.99 431.66H460.31" stroke="#263238" stroke-linecap="round" stroke-linejoin="round"/>
<path d="M279 113.39V97.69L267.24 96.69C266.552 94.2346 265.579 91.8684 264.34 89.64L271.93 80.64L260.83 69.54L251.83 77.13C249.62 75.886 247.27 74.9092 244.83 74.22L243.83 62.46H228L227 74.22C224.559 74.9092 222.209 75.886 220 77.13L211 69.54L199.9 80.64L207.49 89.64C206.25 91.8684 205.277 94.2346 204.59 96.69L192.83 97.69V113.39L204.59 114.39C205.281 116.828 206.254 119.177 207.49 121.39L199.9 130.39L211 141.49L220 133.9C222.209 135.144 224.559 136.121 227 136.81L228 148.57H243.7L244.7 136.81C247.156 136.122 249.523 135.145 251.75 133.9L260.75 141.49L271.85 130.39L264.26 121.39C265.495 119.177 266.468 116.828 267.16 114.39L279 113.39ZM235.9 123.78C232.292 123.78 228.766 122.71 225.766 120.706C222.766 118.702 220.429 115.853 219.048 112.52C217.667 109.187 217.306 105.52 218.01 101.982C218.714 98.4433 220.451 95.1932 223.002 92.6423C225.553 90.0914 228.803 88.3542 232.341 87.6504C235.879 86.9466 239.547 87.3079 242.88 88.6884C246.213 90.0689 249.061 92.4068 251.066 95.4064C253.07 98.4059 254.14 101.932 254.14 105.54C254.138 107.938 253.664 110.313 252.745 112.528C251.825 114.743 250.478 116.755 248.78 118.449C247.082 120.143 245.067 121.486 242.85 122.4C240.633 123.315 238.258 123.784 235.86 123.78H235.9Z" stroke="#263238" stroke-linecap="round" stroke-linejoin="round"/>
<path d="M447.69 266.84V259.32L442.05 258.83C441.718 257.654 441.251 256.519 440.66 255.45L444.3 251.12L439 245.8L434.68 249.44C433.612 248.844 432.477 248.378 431.3 248.05L430.81 242.41H423.28L422.8 248.05C421.621 248.376 420.486 248.842 419.42 249.44L415.09 245.8L409.77 251.12L413.41 255.45C412.811 256.517 412.341 257.652 412.01 258.83L406.37 259.32V266.84L412.01 267.33C412.341 268.508 412.811 269.643 413.41 270.71L409.74 275L415.06 280.32L419.39 276.68C420.456 277.277 421.591 277.744 422.77 278.07L423.25 283.71H430.78L431.27 278.07C432.447 277.742 433.582 277.276 434.65 276.68L438.97 280.32L444.3 275L440.66 270.67C441.251 269.6 441.718 268.466 442.05 267.29L447.69 266.84ZM427.02 271.84C425.289 271.842 423.596 271.33 422.156 270.37C420.715 269.41 419.592 268.044 418.929 266.445C418.265 264.847 418.09 263.087 418.427 261.389C418.763 259.691 419.596 258.131 420.819 256.906C422.042 255.682 423.601 254.847 425.299 254.509C426.997 254.17 428.756 254.343 430.356 255.005C431.955 255.667 433.322 256.788 434.284 258.228C435.246 259.667 435.76 261.359 435.76 263.09C435.758 264.239 435.531 265.377 435.09 266.438C434.649 267.499 434.003 268.463 433.19 269.274C432.376 270.086 431.411 270.729 430.349 271.168C429.287 271.606 428.149 271.831 427 271.83L427.02 271.84Z" stroke="#263238" stroke-linecap="round" stroke-linejoin="round"/>
<path d="M442 129.8C442.798 126.344 442.687 122.74 441.679 119.339C440.67 115.939 438.797 112.858 436.243 110.396C433.689 107.935 430.54 106.177 427.105 105.294C423.669 104.412 420.064 104.434 416.64 105.36C414.553 101.661 411.328 98.7346 407.443 97.0179C403.559 95.3012 399.223 94.8859 395.084 95.8337C390.944 96.7815 387.221 99.0418 384.47 102.278C381.72 105.513 380.088 109.552 379.82 113.79C377.643 113.374 375.404 113.412 373.243 113.902C371.081 114.392 369.045 115.324 367.261 116.638C365.477 117.953 363.983 119.622 362.875 121.541C361.767 123.46 361.067 125.588 360.82 127.79C358.591 128.024 356.529 129.082 355.039 130.756C353.549 132.43 352.737 134.6 352.762 136.841C352.787 139.082 353.647 141.233 355.174 142.874C356.702 144.514 358.786 145.525 361.02 145.71H436.3C438.143 145.696 439.938 145.117 441.441 144.05C442.945 142.984 444.084 141.481 444.706 139.746C445.328 138.01 445.402 136.126 444.918 134.347C444.434 132.568 443.415 130.981 442 129.8V129.8Z" stroke="#263238" stroke-linecap="round" stroke-linejoin="round"/>
<path d="M400.63 138.83V159.58" stroke="#263238" stroke-linecap="round" stroke-linejoin="round"/>
<path d="M400.63 126.39V134.68" stroke="#263238" stroke-linecap="round" stroke-linejoin="round"/>
<path d="M400.63 118.63V123.07" stroke="#263238" stroke-linecap="round" stroke-linejoin="round"/>
<path d="M396.71 157.16L400.63 162.01L404.55 157.16" stroke="#263238" stroke-linecap="round" stroke-linejoin="round"/>
<path d="M212.64 373.15C213.436 369.693 213.323 366.089 212.313 362.689C211.302 359.289 209.429 356.208 206.874 353.747C204.319 351.286 201.171 349.529 197.736 348.646C194.3 347.763 190.694 347.785 187.27 348.71C185.186 345.008 181.96 342.079 178.075 340.361C174.189 338.643 169.852 338.228 165.712 339.177C161.571 340.127 157.848 342.39 155.099 345.629C152.35 348.868 150.723 352.91 150.46 357.15C149.471 356.961 148.467 356.864 147.46 356.86C143.504 356.857 139.685 358.312 136.734 360.946C133.782 363.58 131.905 367.209 131.46 371.14C129.231 371.373 127.169 372.43 125.678 374.103C124.187 375.776 123.374 377.945 123.397 380.186C123.421 382.427 124.28 384.579 125.806 386.22C127.333 387.861 129.416 388.874 131.65 389.06H207C208.841 389.04 210.631 388.457 212.13 387.388C213.629 386.319 214.764 384.816 215.382 383.082C216 381.348 216.071 379.466 215.586 377.69C215.101 375.914 214.083 374.329 212.67 373.15H212.64Z" stroke="#263238" stroke-linecap="round" stroke-linejoin="round"/>
<path d="M171.24 385.15V364.41" stroke="#263238" stroke-linecap="round" stroke-linejoin="round"/>
<path d="M171.24 397.6V389.3" stroke="#263238" stroke-linecap="round" stroke-linejoin="round"/>
<path d="M171.24 405.36V400.92" stroke="#263238" stroke-linecap="round" stroke-linejoin="round"/>
<path d="M175.16 366.83L171.24 361.98L167.32 366.83" stroke="#263238" stroke-linecap="round" stroke-linejoin="round"/>
<path d="M53.48 109.9H304.93C306.055 109.9 307.133 110.347 307.928 111.142C308.723 111.937 309.17 113.016 309.17 114.14V126H49.24V114.14C49.24 113.016 49.6867 111.937 50.4819 111.142C51.277 110.347 52.3555 109.9 53.48 109.9Z" fill="#FF7600" stroke="#263238" stroke-linecap="round" stroke-linejoin="round"/>
<path d="M323.33 128.97H60.6199V313.84H323.33V128.97Z" fill="white" stroke="#263238" stroke-linecap="round" stroke-linejoin="round"/>
<path d="M327.35 117.94C327.35 118.731 327.116 119.505 326.676 120.162C326.236 120.82 325.612 121.333 324.881 121.636C324.15 121.938 323.346 122.018 322.57 121.863C321.794 121.709 321.081 121.328 320.522 120.768C319.962 120.209 319.581 119.496 319.427 118.72C319.273 117.944 319.352 117.14 319.655 116.409C319.957 115.678 320.47 115.054 321.128 114.614C321.786 114.175 322.559 113.94 323.35 113.94C324.411 113.94 325.428 114.361 326.179 115.112C326.929 115.862 327.35 116.879 327.35 117.94Z" fill="white" stroke="#263238" stroke-linecap="round" stroke-linejoin="round"/>
<path d="M313.19 117.94C313.19 118.731 312.955 119.505 312.516 120.162C312.076 120.82 311.452 121.333 310.721 121.636C309.99 121.938 309.186 122.018 308.41 121.863C307.634 121.709 306.921 121.328 306.362 120.768C305.802 120.209 305.421 119.496 305.267 118.72C305.112 117.944 305.192 117.14 305.494 116.409C305.797 115.678 306.31 115.054 306.968 114.614C307.625 114.175 308.399 113.94 309.19 113.94C310.251 113.94 311.268 114.361 312.018 115.112C312.769 115.862 313.19 116.879 313.19 117.94Z" fill="white" stroke="#263238" stroke-linecap="round" stroke-linejoin="round"/>
<path d="M299 117.94C299 118.731 298.765 119.505 298.326 120.162C297.886 120.82 297.262 121.333 296.531 121.636C295.8 121.938 294.996 122.018 294.22 121.863C293.444 121.709 292.731 121.328 292.172 120.768C291.612 120.209 291.231 119.496 291.077 118.72C290.923 117.944 291.002 117.14 291.304 116.409C291.607 115.678 292.12 115.054 292.778 114.614C293.435 114.175 294.209 113.94 295 113.94C296.061 113.94 297.078 114.361 297.828 115.112C298.579 115.862 299 116.879 299 117.94Z" fill="white" stroke="#263238" stroke-linecap="round" stroke-linejoin="round"/>
<path d="M315.37 136.9H304.97" stroke="#263238" stroke-width="2" stroke-linecap="round" stroke-linejoin="round"/>
<path d="M315.37 141.12H304.97" stroke="#263238" stroke-width="2" stroke-linecap="round" stroke-linejoin="round"/>
<path d="M315.37 145.34H304.97" stroke="#263238" stroke-width="2" stroke-linecap="round" stroke-linejoin="round"/>
<path d="M78.8101 245.98H157.54" stroke="#263238" stroke-width="2" stroke-linecap="round" stroke-linejoin="round"/>
<path d="M78.8101 252.19H157.54" stroke="#263238" stroke-width="2" stroke-linecap="round" stroke-linejoin="round"/>
<path d="M78.8101 258.51H140.89" stroke="#263238" stroke-width="2" stroke-linecap="round" stroke-linejoin="round"/>
<path d="M245.76 131.05V131.55" stroke="#263238" stroke-linecap="round" stroke-linejoin="round"/>
<path d="M245.76 134.55V308.78" stroke="#263238" stroke-linecap="round" stroke-linejoin="round" stroke-dasharray="1 3"/>
<path d="M245.76 310.28V310.78" stroke="#263238" stroke-linecap="round" stroke-linejoin="round"/>
<path d="M63.78 272.38H64.28" stroke="#263238" stroke-linecap="round" stroke-linejoin="round"/>
<path d="M67.27 272.38H317.31" stroke="#263238" stroke-linecap="round" stroke-linejoin="round" stroke-dasharray="1 2.99"/>
<path d="M318.81 272.38H319.31" stroke="#263238" stroke-linecap="round" stroke-linejoin="round"/>
<path d="M247.49 270.65H244.04V274.1H247.49V270.65Z" fill="white" stroke="#263238" stroke-linecap="round" stroke-linejoin="round"/>
<path d="M231.99 239.24H185.93" stroke="#263238" stroke-linecap="round" stroke-linejoin="round"/>
<path d="M232.88 260.54C232.88 260.54 232.88 239.13 208.96 239.13C185.04 239.13 185 260.54 185 260.54" stroke="#263238" stroke-linecap="round" stroke-linejoin="round"/>
<path d="M232.88 262.56C233.995 262.56 234.9 261.656 234.9 260.54C234.9 259.424 233.995 258.52 232.88 258.52C231.764 258.52 230.86 259.424 230.86 260.54C230.86 261.656 231.764 262.56 232.88 262.56Z" fill="#FF7600" stroke="#263238" stroke-linecap="round" stroke-linejoin="round"/>
<path d="M183 260.54C183 260.144 183.117 259.758 183.337 259.429C183.557 259.1 183.869 258.844 184.235 258.692C184.6 258.541 185.002 258.501 185.39 258.578C185.778 258.656 186.135 258.846 186.414 259.126C186.694 259.406 186.884 259.762 186.962 260.15C187.039 260.538 186.999 260.94 186.848 261.305C186.696 261.671 186.44 261.983 186.111 262.203C185.782 262.423 185.396 262.54 185 262.54C184.47 262.54 183.961 262.329 183.586 261.954C183.211 261.579 183 261.07 183 260.54Z" fill="#FF7600" stroke="#263238" stroke-linecap="round" stroke-linejoin="round"/>
<path d="M231.11 240.9H234.65V237.36H231.11V240.9Z" fill="#FF7600" stroke="#263238" stroke-linecap="round" stroke-linejoin="round"/>
<path d="M207.19 240.9H210.73V237.36H207.19V240.9Z" fill="#FF7600" stroke="#263238" stroke-linecap="round" stroke-linejoin="round"/>
<path d="M183.27 240.9H186.81V237.36H183.27V240.9Z" fill="#FF7600" stroke="#263238" stroke-linecap="round" stroke-linejoin="round"/>
<path d="M107.43 174.87V167.79L102.14 167.34C101.826 166.234 101.387 165.167 100.83 164.16L104.25 160.1L99.2501 155.1L95.1801 158.52C94.177 157.956 93.1092 157.516 92.0001 157.21L91.5401 151.91H84.4801L84.0201 157.21C82.9137 157.515 81.8491 157.955 80.8501 158.52L76.7801 155.1L71.7801 160.1L75.2001 164.16C74.6395 165.165 74.1998 166.232 73.8901 167.34L68.5901 167.79V174.87L73.8901 175.32C74.2015 176.427 74.6412 177.495 75.2001 178.5L71.7801 182.56L76.7801 187.56L80.8501 184.14C81.8428 184.703 82.9006 185.143 84.0001 185.45L84.4601 190.75H91.5301L91.9901 185.45C93.0957 185.143 94.1602 184.703 95.1601 184.14L99.2301 187.56L104.23 182.56L100.81 178.5C101.365 177.493 101.804 176.426 102.12 175.32L107.43 174.87ZM88.0001 179.55C86.3743 179.55 84.7851 179.068 83.4333 178.165C82.0815 177.261 81.028 175.978 80.4058 174.476C79.7836 172.974 79.6209 171.321 79.938 169.726C80.2552 168.132 81.0381 166.667 82.1877 165.518C83.3373 164.368 84.8019 163.585 86.3964 163.268C87.991 162.951 89.6437 163.114 91.1458 163.736C92.6478 164.358 93.9315 165.411 94.8348 166.763C95.738 168.115 96.2201 169.704 96.2201 171.33C96.2201 173.51 95.3541 175.601 93.8125 177.142C92.271 178.684 90.1802 179.55 88.0001 179.55Z" fill="#FF7600" stroke="#263238" stroke-linecap="round" stroke-linejoin="round"/>
<path d="M131.47 190.73V185.89L127.84 185.57C127.631 184.814 127.332 184.085 126.95 183.4L129.29 180.62L125.86 177.2L123.08 179.54C122.393 179.159 121.665 178.857 120.91 178.64L120.6 175H115.76L115.44 178.63C114.685 178.847 113.957 179.149 113.27 179.53L110.49 177.19L107.06 180.61L109.41 183.39C109.02 184.073 108.718 184.802 108.51 185.56L104.88 185.88V190.72L108.51 191.03C108.716 191.789 109.018 192.518 109.41 193.2L107.06 196L110.49 199.42L113.27 197.08C113.957 197.461 114.685 197.763 115.44 197.98L115.76 201.6H120.6L120.91 197.98C121.665 197.763 122.393 197.461 123.08 197.08L125.86 199.42L129.29 196L127 193.21C127.384 192.526 127.683 191.797 127.89 191.04L131.47 190.73ZM118.18 193.93C117.066 193.932 115.976 193.603 115.048 192.985C114.121 192.367 113.398 191.488 112.97 190.459C112.543 189.43 112.431 188.297 112.648 187.204C112.864 186.111 113.401 185.107 114.189 184.319C114.977 183.531 115.981 182.995 117.074 182.778C118.167 182.561 119.3 182.673 120.329 183.1C121.358 183.528 122.237 184.251 122.855 185.178C123.473 186.106 123.802 187.196 123.8 188.31C123.797 189.8 123.204 191.228 122.151 192.281C121.098 193.334 119.67 193.927 118.18 193.93Z" fill="#FF7600" stroke="#263238" stroke-linecap="round" stroke-linejoin="round"/>
<path d="M255.64 284.14H294.37" stroke="#263238" stroke-width="2" stroke-linecap="round" stroke-linejoin="round"/>
<path d="M255.64 290.35H294.37" stroke="#263238" stroke-width="2" stroke-linecap="round" stroke-linejoin="round"/>
<path d="M255.64 296.67H277.72" stroke="#263238" stroke-width="2" stroke-linecap="round" stroke-linejoin="round"/>
<path d="M204.61 299.25H184.22C182.894 299.25 181.622 298.723 180.685 297.786C179.747 296.848 179.22 295.576 179.22 294.25C179.22 292.924 179.747 291.652 180.685 290.714C181.622 289.777 182.894 289.25 184.22 289.25H204.61C205.936 289.25 207.208 289.777 208.146 290.714C209.083 291.652 209.61 292.924 209.61 294.25C209.61 295.576 209.083 296.848 208.146 297.786C207.208 298.723 205.936 299.25 204.61 299.25Z" fill="#FF7600" stroke="#263238" stroke-linecap="round" stroke-linejoin="round"/>
<path d="M242.61 299.25H222.22C220.894 299.25 219.622 298.723 218.685 297.786C217.747 296.848 217.22 295.576 217.22 294.25C217.22 292.924 217.747 291.652 218.685 290.714C219.622 289.777 220.894 289.25 222.22 289.25H242.61C243.936 289.25 245.208 289.777 246.146 290.714C247.083 291.652 247.61 292.924 247.61 294.25C247.61 295.576 247.083 296.848 246.146 297.786C245.208 298.723 243.936 299.25 242.61 299.25Z" fill="#FF7600" stroke="#263238" stroke-linecap="round" stroke-linejoin="round"/>
<path d="M301.71 191.97H258.47V235.21H301.71V191.97Z" fill="white" stroke="#263238" stroke-linecap="round" stroke-linejoin="round"/>
<path d="M258.47 191.97L301.71 235.21" stroke="#263238" stroke-linecap="round" stroke-linejoin="round"/>
<path d="M301.71 191.97L258.47 235.21" stroke="#263238" stroke-linecap="round" stroke-linejoin="round"/>
<path d="M275.43 142.88V152.97L270.98 157.42H260.89V142.88H275.43Z" fill="white" stroke="#263238" stroke-linecap="round" stroke-linejoin="round"/>
<path d="M275.43 152.97L270.98 157.42V152.97H275.43Z" fill="white" stroke="#263238" stroke-linecap="round" stroke-linejoin="round"/>
<path d="M120.8 220.91V231L116.35 235.46H106.26V220.91H120.8Z" fill="white" stroke="#263238" stroke-linecap="round" stroke-linejoin="round"/>
<path d="M120.8 231L116.35 235.46V231H120.8Z" fill="white" stroke="#263238" stroke-linecap="round" stroke-linejoin="round"/>
<path d="M65.8601 283.08V293.17L61.4101 297.62H51.3101V283.08H65.8601Z" fill="white" stroke="#263238" stroke-linecap="round" stroke-linejoin="round"/>
<path d="M65.8599 293.17L61.4099 297.62V293.17H65.8599Z" fill="white" stroke="#263238" stroke-linecap="round" stroke-linejoin="round"/>
<path d="M348.67 166.28H295.01V199.91H348.67V166.28Z" fill="#263238" stroke="#263238" stroke-linecap="round" stroke-linejoin="round"/>
<path d="M348.67 166.28H295.01V171.39H348.67V166.28Z" fill="#FF7600" stroke="#263238" stroke-linecap="round" stroke-linejoin="round"/>
<path d="M300.48 175.7H314.2" stroke="white" stroke-linecap="round" stroke-linejoin="round"/>
<path d="M307.34 179.53H331.08" stroke="white" stroke-linecap="round" stroke-linejoin="round"/>
<path d="M304.31 183.1H311.3" stroke="white" stroke-linecap="round" stroke-linejoin="round"/>
<path d="M307.34 187.31H323.33" stroke="white" stroke-linecap="round" stroke-linejoin="round"/>
<path d="M300.48 191.13H314.2" stroke="white" stroke-linecap="round" stroke-linejoin="round"/>
<path d="M146.86 301.59H93.2V335.22H146.86V301.59Z" fill="#263238" stroke="#263238" stroke-linecap="round" stroke-linejoin="round"/>
<path d="M146.86 301.59H93.2V306.7H146.86V301.59Z" fill="#FF7600" stroke="#263238" stroke-linecap="round" stroke-linejoin="round"/>
<path d="M98.6802 311.02H112.39" stroke="white" stroke-linecap="round" stroke-linejoin="round"/>
<path d="M105.53 314.84H129.27" stroke="white" stroke-linecap="round" stroke-linejoin="round"/>
<path d="M102.5 318.41H109.49" stroke="white" stroke-linecap="round" stroke-linejoin="round"/>
<path d="M105.53 322.62H121.52" stroke="white" stroke-linecap="round" stroke-linejoin="round"/>
<path d="M98.6802 326.45H112.39" stroke="white" stroke-linecap="round" stroke-linejoin="round"/>
<path d="M167 58H117.7C117.123 58.0026 116.57 58.2332 116.161 58.6414C115.753 59.0497 115.523 59.6026 115.52 60.18V83.18C115.523 83.7564 115.754 84.3084 116.162 84.715C116.571 85.1217 117.124 85.35 117.7 85.35H139.8L142.32 94.35L144.85 85.35H167C167.576 85.35 168.129 85.1217 168.538 84.715C168.947 84.3084 169.177 83.7564 169.18 83.18V60.18C169.177 59.6026 168.947 59.0497 168.539 58.6414C168.13 58.2332 167.577 58.0026 167 58Z" fill="#FF7600" stroke="#263238" stroke-linecap="round" stroke-linejoin="round"/>
<path d="M123.7 64.58H160.95" stroke="#263238" stroke-width="2" stroke-linecap="round" stroke-linejoin="round"/>
<path d="M123.7 69.3H160.95" stroke="#263238" stroke-width="2" stroke-linecap="round" stroke-linejoin="round"/>
<path d="M123.7 74.02H160.95" stroke="#263238" stroke-width="2" stroke-linecap="round" stroke-linejoin="round"/>
<path d="M123.7 78.74H151.77" stroke="#263238" stroke-width="2" stroke-linecap="round" stroke-linejoin="round"/>
<path d="M247.87 221.58C242.58 222.03 235.87 215.71 235.87 215.71C235.742 215.843 235.584 215.944 235.409 216.005C235.235 216.067 235.049 216.086 234.865 216.063C234.682 216.04 234.506 215.974 234.353 215.871C234.199 215.768 234.071 215.631 233.98 215.47C233.12 214.23 229.39 211.36 229.18 208.88C228.97 206.4 233.37 202.38 233.37 202.38C229.98 203.3 229.62 201.31 229.62 201.31C229.62 201.31 235.33 196.6 237.33 196.47C238.11 196.42 241.51 198.38 244.8 201.02C248.24 203.79 254.7 213.54 254.7 213.54C254.7 213.54 276.55 229.41 282.07 233.47C289.36 238.83 298 248.34 298 248.34C298 248.34 327 261.42 335 268.61L324.18 294.23C324.18 294.23 297.81 276.56 295.18 272.08C292.55 267.6 289.91 270.29 287.27 267.36C284.63 264.43 282.1 261.08 282.1 261.08C277.405 258.813 273.144 255.74 269.51 252C263.35 245.67 257.92 236 254.51 230.18C252.745 226.994 250.506 224.094 247.87 221.58Z" fill="white" stroke="#263238" stroke-linecap="round" stroke-linejoin="round"/>
<path d="M249.48 217.84C249.48 217.84 241.61 215.93 240.93 210.74C240.63 209.424 240.054 208.187 239.24 207.11C239.24 207.11 231.9 206.75 232.36 203.76L242.16 202.89C245.727 204.26 248.731 206.789 250.69 210.07" fill="white"/>
<path d="M249.48 217.84C249.48 217.84 241.61 215.93 240.93 210.74C240.63 209.424 240.054 208.187 239.24 207.11C239.24 207.11 231.9 206.75 232.36 203.76L242.16 202.89C245.727 204.26 248.731 206.789 250.69 210.07" stroke="#263238" stroke-linecap="round" stroke-linejoin="round"/>
<path d="M235.86 215.71C236.209 215.062 236.326 214.314 236.19 213.59C236.19 213.59 238.35 213.19 238.11 211.28C238.11 211.28 241.31 210.89 239.24 207.11" stroke="#263238" stroke-linecap="round" stroke-linejoin="round"/>
<path d="M238.11 211.28C238.11 211.28 233.8 208.09 233.32 206.63" stroke="#263238" stroke-linecap="round" stroke-linejoin="round"/>
<path d="M236.19 213.59C236.19 213.59 231.6 210.79 231.52 209.16" stroke="#263238" stroke-linecap="round" stroke-linejoin="round"/>
<path d="M237.24 199.21C237.24 199.21 235.78 201.83 233.36 202.38" stroke="#263238" stroke-linecap="round" stroke-linejoin="round"/>
<path d="M236.51 200.23C237.278 200.631 238.002 201.11 238.67 201.66" stroke="#263238" stroke-linecap="round" stroke-linejoin="round"/>
<path d="M404.12 288.8C392.805 284.011 381.133 280.113 369.21 277.14C351.65 273.03 323.21 269.36 323.21 269.36C323.21 269.36 331.03 349.16 328.97 353.96C326.91 358.76 314.55 374.88 314.55 374.88C314.55 374.88 381.44 400.96 393.1 403.18C404.76 405.4 398.68 364.93 398.68 364.93C398.68 364.93 411 313.49 404.12 288.8Z" fill="#263238"/>
<path d="M380.11 280.23C380.11 280.23 381.7 283.23 377.52 284.8C366.69 288.8 355.15 285.27 356.38 281.03C356.85 279.41 359.53 281.03 359.38 275.03C359.306 274.105 359.059 273.203 358.65 272.37C357.886 270.747 356.965 269.203 355.9 267.76C354.744 266.154 353.506 264.608 352.19 263.13C352.19 263.13 369.38 252.13 382.13 263.13C382.11 263.08 377.37 265.48 380.11 280.23Z" fill="white" stroke="#263238" stroke-linecap="round" stroke-linejoin="round"/>
<path d="M401.41 422.36C394.64 433.36 360.29 438.57 341.54 438.08C322.79 437.59 268.84 412.08 265.18 406.64C261.79 401.64 253.46 385.07 266.3 375.06C267.39 374.219 268.547 373.47 269.76 372.82C278.55 368.06 337.01 383.07 337.01 383.07C337.01 383.07 340.63 380.78 341.96 380.95C346.04 381.47 348.96 384.77 357.2 387.12C362.97 388.77 378.72 382.43 388.78 387.88C389.897 388.477 390.926 389.224 391.84 390.1C401.24 399.08 408.17 411.33 401.41 422.36Z" fill="#FF7600"/>
<path opacity="0.3" d="M388.78 387.88C378.47 387.19 369.28 389.35 362.86 393.14C355.25 397.64 319.31 414.95 319.31 414.95C319.39 413.09 321.39 409.34 321.39 409.34C318.01 406.34 309.17 403.99 309.17 403.99C302.32 398.14 275.17 380.69 266.3 375.06C267.39 374.219 268.547 373.47 269.76 372.82C278.55 368.06 337.01 383.07 337.01 383.07C337.01 383.07 340.63 380.78 341.96 380.95C346.04 381.47 348.96 384.77 357.2 387.12C363 388.77 378.72 382.43 388.78 387.88Z" fill="black" fill-opacity="0.7"/>
<path d="M401.41 422.36C394.64 433.36 360.29 438.57 341.54 438.08C322.79 437.59 268.84 412.08 265.18 406.64C261.79 401.64 253.46 385.07 266.3 375.06C267.39 374.219 268.547 373.47 269.76 372.82C278.55 368.06 337.01 383.07 337.01 383.07C337.01 383.07 340.63 380.78 341.96 380.95C346.04 381.47 348.96 384.77 357.2 387.12C362.97 388.77 378.72 382.43 388.78 387.88C389.897 388.477 390.926 389.224 391.84 390.1C401.24 399.08 408.17 411.33 401.41 422.36Z" stroke="#263238" stroke-linecap="round" stroke-linejoin="round"/>
<path d="M390.87 432.32L391.73 436.09C391.73 436.09 389.43 442.61 379.32 443.68C369.21 444.75 363.22 446.98 358.32 447.27C355.759 447.472 353.184 447.432 350.63 447.15L349.63 445.67L390.87 432.32Z" fill="white" stroke="#263238" stroke-linecap="round" stroke-linejoin="round"/>
<path d="M332.16 431.92L349.68 445.67C358.124 444.948 366.515 443.692 374.8 441.91C383.1 439.99 390.35 437.24 390.74 433.46C391.35 427.72 385.21 426.15 377.92 426.37C376.56 426.37 375.16 426.51 373.75 426.65C362.08 427.9 347.24 421.46 347.24 421.46L332.16 431.92Z" fill="#263238"/>
<path opacity="0.3" d="M390.75 433.32C387.349 434.585 384.086 436.194 381.01 438.12C381.01 438.12 364.74 446.49 339.73 437.87L332.16 431.92L347.24 421.45C347.24 421.45 362.07 427.9 373.75 426.64C375.16 426.49 376.56 426.39 377.92 426.36C385.16 426.14 391.25 427.68 390.75 433.32Z" fill="black" fill-opacity="0.7"/>
<path d="M332.16 431.92L349.68 445.67C358.124 444.948 366.515 443.692 374.8 441.91V441.91C383.1 439.99 390.35 437.24 390.74 433.46C391.35 427.72 385.21 426.15 377.92 426.37C376.56 426.37 375.16 426.51 373.75 426.65C362.08 427.9 347.24 421.46 347.24 421.46L332.16 431.92Z" stroke="#263238" stroke-linecap="round" stroke-linejoin="round"/>
<path d="M348.49 437.34C345.33 437.85 348.8 444.34 353.08 442.34C357.36 440.34 351.65 436.82 348.49 437.34Z" fill="white"/>
<path opacity="0.2" d="M354.42 441.31C352.131 441.031 349.858 440.634 347.61 440.12C347.01 438.85 347.15 437.55 348.49 437.34C351.14 436.9 355.6 439.35 354.42 441.31Z" fill="black" fill-opacity="0.7"/>
<path d="M348.49 437.34C345.33 437.85 348.8 444.34 353.08 442.34C357.36 440.34 351.65 436.82 348.49 437.34Z" stroke="#263238" stroke-linecap="round" stroke-linejoin="round"/>
<path d="M374.8 441.9C383.1 439.98 390.35 437.23 390.74 433.45C391.35 427.71 385.21 426.14 377.92 426.36C377.6 426.67 370.53 433.5 374.8 441.9Z" fill="white"/>
<path opacity="0.3" d="M390.75 433.32C387.349 434.585 384.085 436.194 381.01 438.12C378.818 439.133 376.521 439.901 374.16 440.41C371.36 432.71 377.62 426.65 377.92 426.36C385.16 426.14 391.25 427.68 390.75 433.32Z" fill="black" fill-opacity="0.7"/>
<path d="M374.8 441.9C383.1 439.98 390.35 437.23 390.74 433.45C391.35 427.71 385.21 426.14 377.92 426.36C377.6 426.67 370.53 433.5 374.8 441.9Z" stroke="#263238" stroke-linecap="round" stroke-linejoin="round"/>
<path d="M368.88 434.77H368.93C369.044 434.775 369.158 434.758 369.265 434.719C369.372 434.68 369.47 434.62 369.554 434.543C369.638 434.466 369.705 434.373 369.753 434.269C369.8 434.166 369.826 434.054 369.83 433.94C370.114 431.483 371.163 429.177 372.83 427.35C372.911 427.27 372.974 427.175 373.018 427.07C373.062 426.966 373.084 426.853 373.084 426.74C373.084 426.627 373.062 426.514 373.018 426.41C372.974 426.305 372.911 426.21 372.83 426.13C372.668 425.97 372.448 425.88 372.22 425.88C371.992 425.88 371.773 425.97 371.61 426.13C369.649 428.257 368.432 430.962 368.14 433.84C368.12 434.061 368.186 434.28 368.324 434.453C368.462 434.627 368.661 434.74 368.88 434.77Z" fill="white" stroke="#263238" stroke-linecap="round" stroke-linejoin="round"/>
<path d="M365.41 435H365.48C365.594 435.003 365.707 434.983 365.813 434.941C365.919 434.9 366.016 434.838 366.098 434.759C366.179 434.68 366.245 434.585 366.29 434.481C366.335 434.376 366.359 434.264 366.36 434.15C366.559 431.653 367.483 429.268 369.02 427.29C369.104 427.204 369.169 427.101 369.212 426.988C369.254 426.875 369.272 426.755 369.266 426.635C369.259 426.514 369.228 426.397 369.173 426.289C369.118 426.182 369.042 426.087 368.949 426.01C368.856 425.934 368.748 425.878 368.632 425.845C368.516 425.813 368.394 425.804 368.275 425.821C368.156 425.838 368.041 425.88 367.939 425.943C367.836 426.007 367.748 426.091 367.68 426.19C365.895 428.466 364.833 431.225 364.63 434.11C364.621 434.33 364.698 434.545 364.843 434.711C364.988 434.876 365.191 434.98 365.41 435Z" fill="white" stroke="#263238" stroke-linecap="round" stroke-linejoin="round"/>
<path d="M361.26 434.54C361.373 434.551 361.487 434.54 361.596 434.506C361.705 434.473 361.805 434.418 361.893 434.346C361.98 434.273 362.052 434.184 362.105 434.084C362.158 433.983 362.19 433.873 362.2 433.76C362.47 430.76 365.05 426.83 365.08 426.76C365.207 426.567 365.253 426.332 365.208 426.106C365.163 425.88 365.031 425.68 364.84 425.55C364.649 425.424 364.416 425.378 364.191 425.423C363.966 425.468 363.768 425.6 363.64 425.79C363.52 425.96 360.78 430.08 360.47 433.56C360.455 433.677 360.464 433.795 360.495 433.909C360.527 434.022 360.582 434.127 360.656 434.219C360.729 434.311 360.821 434.386 360.925 434.442C361.029 434.497 361.143 434.53 361.26 434.54Z" fill="white" stroke="#263238" stroke-linecap="round" stroke-linejoin="round"/>
<path d="M357.34 434.13C357.417 434.14 357.494 434.14 357.57 434.13C357.683 434.112 357.791 434.072 357.888 434.011C357.985 433.951 358.069 433.872 358.135 433.779C358.201 433.686 358.248 433.58 358.273 433.469C358.298 433.358 358.3 433.242 358.28 433.13C357.67 429.45 361.09 426.3 361.12 426.27C361.233 426.11 361.289 425.917 361.279 425.721C361.268 425.525 361.192 425.339 361.063 425.192C360.933 425.045 360.758 424.946 360.565 424.911C360.372 424.876 360.173 424.908 360 425C359.83 425.15 355.84 428.81 356.61 433.44C356.647 433.616 356.737 433.776 356.867 433.899C356.998 434.023 357.163 434.103 357.34 434.13Z" fill="white" stroke="#263238" stroke-linecap="round" stroke-linejoin="round"/>
<path d="M353.08 433.1C353.173 433.115 353.268 433.115 353.36 433.1C353.576 433.047 353.763 432.915 353.884 432.729C354.004 432.543 354.05 432.318 354.01 432.1C353.26 428.82 356.49 425.1 356.53 425.1C356.68 424.927 356.756 424.702 356.741 424.474C356.726 424.245 356.621 424.032 356.45 423.88C356.366 423.804 356.267 423.745 356.16 423.708C356.053 423.67 355.939 423.654 355.826 423.661C355.712 423.667 355.601 423.696 355.499 423.746C355.397 423.795 355.306 423.865 355.23 423.95C355.07 424.13 351.37 428.36 352.32 432.52C352.375 432.681 352.477 432.822 352.612 432.925C352.748 433.029 352.91 433.089 353.08 433.1Z" fill="white" stroke="#263238" stroke-linecap="round" stroke-linejoin="round"/>
<path d="M263 426.68L261.75 430.34C261.75 430.34 263.35 437.07 273.29 439.19C283.23 441.31 288.95 444.19 293.75 444.97C296.277 445.435 298.841 445.663 301.41 445.65L302.56 444.28L263 426.68Z" fill="white" stroke="#263238" stroke-linecap="round" stroke-linejoin="round"/>
<path d="M321.39 432.45L302.53 444.28C294.207 442.677 285.994 440.549 277.94 437.91C269.89 435.13 262.94 431.63 262.94 427.83C262.94 422.05 269.21 421.14 276.44 422.12C277.79 422.3 279.17 422.55 280.56 422.84C292.03 425.31 307.46 420.46 307.46 420.46L321.39 432.45Z" fill="#263238"/>
<path opacity="0.3" d="M321.39 432.45L310.3 439.45C301.307 436.657 293.422 431.105 287.76 423.58C294.445 423.433 301.08 422.394 307.49 420.49L321.39 432.45Z" fill="black" fill-opacity="0.7"/>
<path d="M321.39 432.45L302.53 444.28C294.207 442.677 285.994 440.549 277.94 437.91V437.91C269.89 435.13 262.94 431.63 262.94 427.83C262.94 422.05 269.21 421.14 276.44 422.12C277.79 422.3 279.17 422.55 280.56 422.84C292.03 425.31 307.46 420.46 307.46 420.46L321.39 432.45Z" stroke="#263238" stroke-linecap="round" stroke-linejoin="round"/>
<path d="M277.94 437.9C269.89 435.12 262.94 431.62 262.94 427.82C262.94 422.04 269.21 421.13 276.44 422.11C276.76 422.45 283.07 430 277.94 437.9Z" fill="white" stroke="#263238" stroke-linecap="round" stroke-linejoin="round"/>
<path d="M284.58 431.43H284.53C284.3 431.415 284.085 431.31 283.932 431.138C283.779 430.966 283.699 430.74 283.71 430.51C283.694 428.042 282.9 425.641 281.44 423.65C281.355 423.563 281.289 423.458 281.247 423.344C281.205 423.229 281.188 423.108 281.196 422.986C281.204 422.864 281.237 422.746 281.294 422.638C281.351 422.53 281.43 422.435 281.526 422.36C281.622 422.284 281.732 422.23 281.851 422.2C281.969 422.17 282.092 422.166 282.212 422.186C282.332 422.207 282.447 422.253 282.548 422.321C282.649 422.389 282.735 422.477 282.8 422.58C284.526 424.889 285.452 427.697 285.44 430.58C285.437 430.806 285.346 431.023 285.185 431.182C285.024 431.341 284.806 431.43 284.58 431.43Z" fill="white" stroke="#263238" stroke-linecap="round" stroke-linejoin="round"/>
<path d="M288 432H287.92C287.691 431.98 287.479 431.869 287.331 431.693C287.183 431.517 287.111 431.289 287.13 431.06C287.201 428.561 286.537 426.095 285.22 423.97C285.154 423.876 285.108 423.769 285.084 423.656C285.059 423.544 285.057 423.428 285.077 423.315C285.098 423.201 285.14 423.093 285.203 422.996C285.265 422.899 285.346 422.816 285.44 422.75C285.535 422.684 285.641 422.638 285.754 422.614C285.866 422.589 285.982 422.587 286.096 422.607C286.209 422.628 286.317 422.67 286.414 422.733C286.511 422.795 286.594 422.876 286.66 422.97C288.205 425.418 288.972 428.277 288.86 431.17C288.85 431.392 288.755 431.602 288.595 431.756C288.435 431.91 288.222 431.998 288 432Z" fill="white" stroke="#263238" stroke-linecap="round" stroke-linejoin="round"/>
<path d="M292.18 432C291.95 431.995 291.732 431.9 291.571 431.735C291.41 431.571 291.32 431.35 291.32 431.12C291.38 428.07 289.22 423.94 289.19 423.9C289.084 423.694 289.064 423.455 289.133 423.234C289.202 423.013 289.356 422.828 289.56 422.72C289.765 422.614 290.002 422.594 290.222 422.664C290.441 422.733 290.624 422.886 290.73 423.09C290.83 423.27 293.12 427.65 293.06 431.15C293.055 431.379 292.96 431.597 292.795 431.756C292.63 431.915 292.409 432.003 292.18 432Z" fill="white" stroke="#263238" stroke-linecap="round" stroke-linejoin="round"/>
<path d="M296.12 432H295.89C295.669 431.937 295.482 431.789 295.369 431.589C295.257 431.388 295.229 431.151 295.29 430.93C296.29 427.34 293.22 423.84 293.19 423.81C293.103 423.727 293.035 423.628 292.988 423.517C292.942 423.406 292.919 423.288 292.921 423.168C292.922 423.048 292.949 422.93 292.998 422.82C293.048 422.711 293.12 422.614 293.209 422.533C293.298 422.453 293.403 422.392 293.516 422.355C293.63 422.317 293.751 422.303 293.87 422.314C293.989 422.325 294.105 422.36 294.21 422.418C294.315 422.476 294.407 422.555 294.48 422.65C294.63 422.82 298.22 426.88 296.96 431.4C296.901 431.576 296.788 431.728 296.637 431.836C296.487 431.944 296.306 432.001 296.12 432Z" fill="white" stroke="#263238" stroke-linecap="round" stroke-linejoin="round"/>
<path d="M300.47 431.43C300.374 431.434 300.279 431.417 300.19 431.38C300.081 431.345 299.98 431.289 299.894 431.214C299.807 431.139 299.736 431.048 299.686 430.945C299.635 430.842 299.606 430.731 299.6 430.616C299.594 430.502 299.611 430.388 299.65 430.28C300.74 427.1 297.91 423.07 297.89 423.03C297.808 422.939 297.746 422.831 297.709 422.715C297.672 422.598 297.659 422.474 297.673 422.352C297.686 422.231 297.726 422.113 297.788 422.007C297.85 421.902 297.934 421.81 298.034 421.739C298.134 421.669 298.248 421.62 298.368 421.596C298.489 421.572 298.613 421.574 298.732 421.601C298.852 421.629 298.964 421.681 299.062 421.755C299.16 421.829 299.241 421.923 299.3 422.03C299.44 422.22 302.67 426.82 301.3 430.86C301.237 431.029 301.123 431.174 300.975 431.276C300.826 431.378 300.65 431.431 300.47 431.43Z" fill="white" stroke="#263238" stroke-linecap="round" stroke-linejoin="round"/>
<path d="M304.58 436.12C307.67 436.97 303.58 443.02 299.49 440.62C295.4 438.22 301.5 435.28 304.58 436.12Z" fill="white" stroke="#263238" stroke-linecap="round" stroke-linejoin="round"/>
<path d="M268.92 404C273.55 410.49 287.28 417.66 300.92 423.57C303.359 427.611 306.237 431.37 309.5 434.78C317.92 443.44 321.35 438.59 321.35 438.59C321.35 438.59 326.67 437.99 334.52 436.92C334.847 437.681 335.416 438.313 336.14 438.717C336.864 439.12 337.7 439.272 338.52 439.15C339.52 438.99 341.52 437.53 343.73 435.6C363.56 432.6 390.47 427.6 397.73 421.78" fill="#FF7600"/>
<path d="M268.92 404C273.55 410.49 287.28 417.66 300.92 423.57C303.359 427.611 306.237 431.37 309.5 434.78C317.92 443.44 321.35 438.59 321.35 438.59C321.35 438.59 326.67 437.99 334.52 436.92C334.847 437.681 335.416 438.313 336.14 438.717C336.864 439.12 337.7 439.272 338.52 439.15C339.52 438.99 341.52 437.53 343.73 435.6C363.56 432.6 390.47 427.6 397.73 421.78" stroke="#263238" stroke-linecap="round" stroke-linejoin="round"/>
<path d="M390 391.64C386.57 387.87 383.14 387.7 375.94 388.21C375.94 388.21 357.15 394.21 344.04 402.1C330.93 409.99 311.81 418.36 311.81 418.36C311.81 418.36 305.98 416.67 301.92 418.36C301.92 418.36 299.07 418.58 300.98 423.56" stroke="#263238" stroke-linecap="round" stroke-linejoin="round"/>
<path d="M398.72 414.17C398.72 414.17 398.82 419.98 390.58 424" stroke="#263238" stroke-linecap="round" stroke-linejoin="round"/>
<path d="M307.84 389.93C307.84 389.93 320.84 399.33 323.45 405.53C326.005 406.607 328.473 407.881 330.83 409.34" stroke="#263238" stroke-linecap="round" stroke-linejoin="round"/>
<path d="M324.39 397.74C325.344 400.442 325.503 403.36 324.85 406.15" stroke="#263238" stroke-linecap="round" stroke-linejoin="round"/>
<path d="M321.39 391.64C322.098 392.67 322.721 393.758 323.25 394.89" stroke="#263238" stroke-linecap="round" stroke-linejoin="round"/>
<path d="M339.91 390.78C339.91 390.78 344.26 396.6 345.34 401.32" stroke="#263238" stroke-linecap="round" stroke-linejoin="round"/>
<path d="M364.14 425.94C365.758 425.845 367.368 425.645 368.96 425.34" stroke="#263238" stroke-linecap="round" stroke-linejoin="round"/>
<path d="M323.33 421.77C335.656 424.212 348.161 425.646 360.72 426.06" stroke="#263238" stroke-linecap="round" stroke-linejoin="round"/>
<path d="M411.32 333.59C411.32 333.59 408.97 374.59 406.2 376.94C403.43 379.29 399.06 380.02 390.79 380.71C382.52 381.4 345.94 383.64 345.94 383.64L342 371.89C342 371.89 361.45 369.89 370.08 366.74C376.587 364.516 383.243 362.758 390 361.48C390 361.48 388.36 351.17 388.36 346.73V325.85" fill="white"/>
<path d="M411.32 333.59C411.32 333.59 408.97 374.59 406.2 376.94C403.43 379.29 399.06 380.02 390.79 380.71C382.52 381.4 345.94 383.64 345.94 383.64L342 371.89C342 371.89 361.45 369.89 370.08 366.74C376.587 364.516 383.243 362.758 390 361.48C390 361.48 388.36 351.17 388.36 346.73V325.85" stroke="#263238" stroke-linecap="round" stroke-linejoin="round"/>
<path d="M404.12 288.8C413.03 294.29 415.66 306.98 412.58 334.07C412.58 334.07 415.21 337.27 411.32 338.87C411.32 338.87 396.75 333.42 389.98 337.18C383.21 340.94 384.98 331.99 384.98 331.99C384.98 331.99 382.19 307.07 388.36 302.56" fill="#263238"/>
<path d="M387.54 298.75C387.54 298.75 378.97 307.66 386.54 330.18C386.063 332.018 385.729 333.89 385.54 335.78C385.54 337.29 387.61 338.07 387.61 338.07" stroke="white" stroke-linecap="round" stroke-linejoin="round"/>
<path d="M377.52 313.84C377.52 313.84 378.14 324.84 384.96 329.61" stroke="white" stroke-linecap="round" stroke-linejoin="round"/>
<path d="M379.72 288.3C379.72 288.3 366.43 293.39 355.86 287.75C349.59 284.41 352.17 279.04 352.17 279.04" stroke="white" stroke-linecap="round" stroke-linejoin="round"/>
<path d="M284.15 391.66H356.49C358.124 391.661 359.751 391.449 361.33 391.03L375.6 387.29C375.798 387.239 375.972 387.124 376.097 386.963C376.222 386.802 376.29 386.604 376.29 386.4C376.29 386.153 376.192 385.917 376.018 385.742C375.843 385.568 375.607 385.47 375.36 385.47H281.16C280.915 385.473 280.681 385.572 280.509 385.746C280.337 385.92 280.24 386.155 280.24 386.4V387.75C280.24 388.787 280.652 389.782 281.385 390.515C282.119 391.248 283.113 391.66 284.15 391.66Z" fill="#757575" stroke="#263238" stroke-linecap="round" stroke-linejoin="round"/>
<path d="M277 388.06H349.54C349.824 388.073 350.107 388.015 350.364 387.892C350.62 387.769 350.842 387.584 351.009 387.355C351.177 387.125 351.285 386.857 351.323 386.575C351.362 386.293 351.33 386.006 351.23 385.74L337.78 333.41C337.6 332.768 337.224 332.198 336.704 331.78C336.184 331.363 335.546 331.118 334.88 331.08H262.32C262.036 331.069 261.753 331.128 261.497 331.252C261.241 331.377 261.019 331.563 260.852 331.793C260.685 332.023 260.577 332.292 260.538 332.574C260.5 332.856 260.531 333.143 260.63 333.41L274.09 385.74C274.27 386.383 274.648 386.954 275.17 387.37C275.693 387.787 276.333 388.028 277 388.06Z" fill="#999999" stroke="#263238" stroke-linecap="round" stroke-linejoin="round"/>
<path d="M264.88 332.94H263.51" stroke="#263238" stroke-linecap="round" stroke-linejoin="round"/>
<path d="M275.51 332.94H268.43" stroke="#263238" stroke-linecap="round" stroke-linejoin="round"/>
<path d="M347.78 381.45L335.9 335.27C335.722 334.629 335.347 334.059 334.829 333.641C334.311 333.224 333.675 332.978 333.01 332.94H277.11" stroke="#263238" stroke-linecap="round" stroke-linejoin="round"/>
<path d="M348.81 385.47L348.51 384.32" stroke="#263238" stroke-linecap="round" stroke-linejoin="round"/>
<path d="M298.81 360.89C298.859 361.314 298.946 361.732 299.07 362.14C299.99 365.29 302.94 367.21 305.65 366.41C308.36 365.61 309.81 362.41 308.89 359.26C307.97 356.11 305 354.19 302.29 354.99C301.974 355.087 301.669 355.218 301.38 355.38C301.529 356.448 301.366 357.537 300.91 358.515C300.454 359.493 299.724 360.318 298.81 360.89Z" fill="white" stroke="#263238" stroke-linecap="round" stroke-linejoin="round"/>
<path d="M330.83 262.82C324.55 262.14 321.13 256.17 317.35 255.24C315.241 254.735 313.175 254.067 311.17 253.24C311.17 253.24 309.87 248.7 307.92 250.24C305.97 251.78 303.41 285.74 305.92 284.67C308.43 283.6 308.44 287.61 308.44 287.61L331.75 308.15L351.29 273.55C351.29 273.55 337.11 263.51 330.83 262.82Z" fill="#263238"/>
<path d="M140.88 141.89V141.39H141.38" stroke="#263238" stroke-linecap="round" stroke-linejoin="round"/>
<path d="M144.32 141.39H228.92" stroke="#263238" stroke-linecap="round" stroke-linejoin="round" stroke-dasharray="0.98 2.93"/>
<path d="M230.38 141.39H230.88V141.89" stroke="#263238" stroke-linecap="round" stroke-linejoin="round"/>
<path d="M230.89 144.89V199.39" stroke="#263238" stroke-linecap="round" stroke-linejoin="round" stroke-dasharray="1 3"/>
<path d="M230.88 200.89V201.39H230.38" stroke="#263238" stroke-linecap="round" stroke-linejoin="round"/>
<path d="M227.45 201.39H142.85" stroke="#263238" stroke-linecap="round" stroke-linejoin="round" stroke-dasharray="0.98 2.93"/>
<path d="M141.38 201.39H140.88V200.89" stroke="#263238" stroke-linecap="round" stroke-linejoin="round"/>
<path d="M140.89 197.89V143.39" stroke="#263238" stroke-linecap="round" stroke-linejoin="round" stroke-dasharray="1 3"/>
<path d="M185.89 142.87C186.708 142.87 187.37 142.207 187.37 141.39C187.37 140.573 186.708 139.91 185.89 139.91C185.073 139.91 184.41 140.573 184.41 141.39C184.41 142.207 185.073 142.87 185.89 142.87Z" fill="#FF7600" stroke="#263238" stroke-linecap="round" stroke-linejoin="round"/>
<path d="M140.89 172.87C141.708 172.87 142.37 172.207 142.37 171.39C142.37 170.573 141.708 169.91 140.89 169.91C140.073 169.91 139.41 170.573 139.41 171.39C139.41 172.207 140.073 172.87 140.89 172.87Z" fill="#FF7600" stroke="#263238" stroke-linecap="round" stroke-linejoin="round"/>
<path d="M185.89 202.87C186.708 202.87 187.37 202.207 187.37 201.39C187.37 200.573 186.708 199.91 185.89 199.91C185.073 199.91 184.41 200.573 184.41 201.39C184.41 202.207 185.073 202.87 185.89 202.87Z" fill="#FF7600" stroke="#263238" stroke-linecap="round" stroke-linejoin="round"/>
<path d="M230.89 172.87C231.708 172.87 232.37 172.207 232.37 171.39C232.37 170.573 231.708 169.91 230.89 169.91C230.073 169.91 229.41 170.573 229.41 171.39C229.41 172.207 230.073 172.87 230.89 172.87Z" fill="#FF7600" stroke="#263238" stroke-linecap="round" stroke-linejoin="round"/>
<path d="M232.61 199.67H229.16V203.12H232.61V199.67Z" fill="#FF7600" stroke="#263238" stroke-linecap="round" stroke-linejoin="round"/>
<path d="M232.61 139.67H229.16V143.12H232.61V139.67Z" fill="#FF7600" stroke="#263238" stroke-linecap="round" stroke-linejoin="round"/>
<path d="M142.61 199.67H139.16V203.12H142.61V199.67Z" fill="#FF7600" stroke="#263238" stroke-linecap="round" stroke-linejoin="round"/>
<path d="M142.61 139.67H139.16V143.12H142.61V139.67Z" fill="#FF7600" stroke="#263238" stroke-linecap="round" stroke-linejoin="round"/>
<path d="M225.19 146.7H146.86V196.47H225.19V146.7Z" fill="white" stroke="#263238" stroke-linecap="round" stroke-linejoin="round"/>
<path d="M225.19 181.77L216.48 190.48L192.92 166.92L183.01 176.83L167.21 161.03L146.86 181.37V196.47H225.19V181.77Z" fill="#FF7600" stroke="#263238" stroke-linecap="round" stroke-linejoin="round"/>
<path d="M208.96 166.36C212.014 166.36 214.49 163.884 214.49 160.83C214.49 157.776 212.014 155.3 208.96 155.3C205.906 155.3 203.43 157.776 203.43 160.83C203.43 163.884 205.906 166.36 208.96 166.36Z" fill="#FF7600" stroke="#263238" stroke-linecap="round" stroke-linejoin="round"/>
<path d="M335 272C335 272 329 283.17 328.29 300.26" stroke="white" stroke-linecap="round" stroke-linejoin="round"/>
<path d="M317.36 279.73C317.36 279.73 319.15 289.23 324.36 296.11" stroke="white" stroke-linecap="round" stroke-linejoin="round"/>
<path d="M342 318.93C342 318.93 351 348.49 370.55 357.19" stroke="white" stroke-linecap="round" stroke-linejoin="round"/>
<path d="M365.68 265.42C365.68 265.42 364.83 271.87 358.63 272.32C357.866 270.697 356.945 269.153 355.88 267.71C359.1 266.757 362.372 265.993 365.68 265.42Z" fill="#263238"/>
<path d="M378.89 265.87C378.89 265.87 389.26 267.14 393.6 253.22C397.94 239.3 394.53 228.81 377.37 223.76C367.85 220.96 358.37 223.21 354.9 230.42C351.96 236.59 353.35 241.72 352.68 243.79C351.92 246.11 344.9 248.08 344.9 249.67C344.9 250.98 348.79 253.22 348.79 253.22L347.65 256.68L348.72 257.25C348.72 257.25 346.72 265.04 347.65 267.79C348.31 269.79 365.88 270.63 367.25 265.65" fill="white"/>
<path d="M378.89 265.87C378.89 265.87 389.26 267.14 393.6 253.22C397.94 239.3 394.53 228.81 377.37 223.76C367.85 220.96 358.37 223.21 354.9 230.42C351.96 236.59 353.35 241.72 352.68 243.79C351.92 246.11 344.9 248.08 344.9 249.67C344.9 250.98 348.79 253.22 348.79 253.22L347.65 256.68L348.72 257.25C348.72 257.25 346.72 265.04 347.65 267.79C348.31 269.79 365.88 270.63 367.25 265.65" stroke="#263238" stroke-linecap="round" stroke-linejoin="round"/>
<path d="M355 235.47C355 235.47 358.43 236.33 359.37 238.13" stroke="#263238" stroke-linecap="round" stroke-linejoin="round"/>
<path d="M355.6 243.38C355.45 244.38 355.68 245.25 356.12 245.31C356.56 245.37 357.02 244.61 357.17 243.6C357.32 242.59 357.08 241.73 356.65 241.67C356.22 241.61 355.75 242.37 355.6 243.38Z" fill="#263238"/>
<path d="M348.72 257.25C348.72 257.25 354.3 259.39 356.38 258.1" stroke="#263238" stroke-linecap="round" stroke-linejoin="round"/>
<path d="M350.68 242.58C350.27 244.82 350.77 246.78 351.8 246.97C352.83 247.16 354.01 245.51 354.42 243.28C354.83 241.05 354.34 239.07 353.3 238.88C352.26 238.69 351.1 240.35 350.68 242.58Z" stroke="#263238" stroke-linecap="round" stroke-linejoin="round"/>
<path d="M394.06 231.19C393.225 227.138 390.898 223.547 387.54 221.13C383.797 218.502 379.512 216.749 375 216C375 216 378.31 217.45 379.57 219.36C379.57 219.36 371 212.92 360.82 217.15C350.64 221.38 351.91 232.37 351.91 232.37L353.39 229.49C353.39 229.49 353.22 232.92 355.02 234.18C355.559 232.5 356.294 230.889 357.21 229.38C357.21 229.38 359.91 237.49 367.34 240.24C366.835 238.961 366.793 237.547 367.22 236.24C367.22 236.24 371.34 245.15 370.14 249.5L371.45 251.78C371.45 251.78 376.18 246.99 380.03 250.98C382.24 253.28 375.8 261.98 374.88 261.98L378.77 267.69C378.77 267.69 388.49 269.08 394.09 258.55C399.69 248.02 398.32 243.55 398.32 243.55C398.32 243.55 400.15 246.11 400.32 247.55C400.34 247.53 402 236.22 394.06 231.19Z" fill="#263238"/>
<path d="M371.19 252.79C371.19 252.79 374.19 242.71 380.57 246.26C386.95 249.81 382.4 255.19 380.11 257.26C377.82 259.33 376.11 263.09 374.62 263.09C373.13 263.09 372.8 261.26 372.8 261.26" fill="white"/>
<path d="M371.19 252.79C371.19 252.79 374.19 242.71 380.57 246.26C386.95 249.81 382.4 255.19 380.11 257.26C377.82 259.33 376.11 263.09 374.62 263.09C373.13 263.09 372.8 261.26 372.8 261.26" stroke="#263238" stroke-linecap="round" stroke-linejoin="round"/>
<path d="M354.42 243.28L372.22 246.97" stroke="#263238" stroke-linecap="round" stroke-linejoin="round"/>
</svg>
