<svg width="28" height="28" viewBox="0 0 28 28" fill="none" xmlns="http://www.w3.org/2000/svg">
<g clip-path="url(#clip0_3600_376)">
<path d="M24.8662 7.32119C24.6031 6.16779 23.8242 5.25793 22.8339 4.94546C21.0429 4.38599 13.8571 4.38599 13.8571 4.38599C13.8571 4.38599 6.67479 4.38599 4.88035 4.94546C3.89352 5.25334 3.11463 6.16319 2.8481 7.32119C2.36905 9.41433 2.36905 13.7855 2.36905 13.7855C2.36905 13.7855 2.36905 18.1568 2.8481 20.2499C3.11118 21.4033 3.89007 22.3132 4.88035 22.6256C6.67479 23.1851 13.8571 23.1851 13.8571 23.1851C13.8571 23.1851 21.0429 23.1851 22.8339 22.6256C23.8208 22.3178 24.5997 21.4079 24.8662 20.2499C25.3452 18.1568 25.3452 13.7855 25.3452 13.7855C25.3452 13.7855 25.3452 9.41433 24.8662 7.32119Z" stroke="#C5C8E1" stroke-width="1.72321" stroke-linecap="round" stroke-linejoin="round"/>
<path d="M11.5618 17.2323L17.5311 13.7858L11.5618 10.3394V17.2323Z" stroke="#C5C8E1" stroke-width="1.72321" stroke-linecap="round" stroke-linejoin="round"/>
</g>
<defs>
<clipPath id="clip0_3600_376">
<rect width="27.5714" height="27.5714" fill="white" transform="translate(0.0714264)"/>
</clipPath>
</defs>
</svg>
