<svg width="109" height="39" viewBox="0 0 109 39" fill="none" xmlns="http://www.w3.org/2000/svg">
<path fill-rule="evenodd" clip-rule="evenodd" d="M102.429 0.927709C105.57 1.42126 108.032 3.8278 108.319 6.99522C108.774 12.0111 107.948 17.9144 106.684 22.9185C105.905 26.002 103.505 28.4187 100.37 28.9527C100.259 28.9716 100.148 28.9901 100.036 29.0082C98.591 29.2416 97.8687 29.3583 97.369 29.6272C96.9142 29.8719 96.5966 30.1431 96.2838 30.5539C95.9399 31.0054 95.7365 31.6246 95.3296 32.863L93.7615 37.6359C93.2542 39.18 91.0686 39.1761 90.5667 37.6303L89.0227 32.8751C88.619 31.6317 88.4172 31.01 88.0738 30.5565C87.7613 30.1438 87.4438 29.8714 86.9883 29.6253C86.4879 29.3549 85.7635 29.2371 84.3145 29.0014L84.3145 29.0014C84.2166 28.9855 84.119 28.9692 84.0217 28.9527C80.8865 28.4187 78.4871 26.002 77.7082 22.9184C76.4442 17.9144 75.6184 12.0111 76.073 6.99522C76.3601 3.8278 78.8215 1.42125 81.9634 0.927705C88.071 -0.0317258 96.3209 -0.031724 102.429 0.927709ZM99.6403 13.824C99.2188 12.8475 97.9352 12.1027 95.368 10.6131L93.8825 9.75113C91.2985 8.25178 90.0065 7.5021 88.9462 7.62316C88.061 7.72423 87.2571 8.18719 86.7255 8.9021C86.0886 9.75842 86.0886 11.2522 86.0886 14.2396L86.0886 15.9635C86.0886 18.951 86.0886 20.4448 86.7255 21.3011C87.2571 22.016 88.061 22.4789 88.9462 22.58C90.0065 22.7011 91.2985 21.9514 93.8825 20.4521L95.3679 19.5901C97.9352 18.1005 99.2188 17.3557 99.6403 16.3792C99.9924 15.5638 99.9924 14.6394 99.6403 13.824Z" fill="white"/>
<path fill-rule="evenodd" clip-rule="evenodd" d="M68.9577 4.26888C69.3833 5.12021 69.0383 6.15543 68.1869 6.58109L61.5807 9.88423C60.7626 10.2933 60.2205 10.5652 59.8155 10.8005C59.4214 11.0295 59.2636 11.165 59.1786 11.2577C58.7011 11.7793 58.4861 12.4894 58.5941 13.1883C58.6133 13.3126 58.6695 13.5129 58.8704 13.922C59.0768 14.3424 59.377 14.8694 59.8308 15.6635L59.8625 15.7191C60.5161 16.8628 61.0511 17.799 61.4235 18.5698C61.7978 19.3447 62.1039 20.1386 62.145 20.977C62.2566 23.2518 61.0216 25.3799 58.9911 26.4117C58.2428 26.7919 57.4017 26.92 56.5431 26.9795C55.6892 27.0386 54.6109 27.0386 53.2937 27.0386L53.0206 27.0386C52.0687 27.0386 51.2971 26.267 51.2971 25.3152C51.2971 24.3633 52.0687 23.5917 53.0206 23.5917L53.2296 23.5917C54.6265 23.5917 55.5846 23.5908 56.305 23.5409C57.0346 23.4903 57.3121 23.3985 57.4297 23.3388C58.249 22.9225 58.7473 22.0637 58.7023 21.1458C58.6958 21.0141 58.6379 20.7276 58.3198 20.0691C58.0057 19.4188 57.5312 18.5865 56.8381 17.3737L56.812 17.3279C56.3912 16.5916 56.0363 15.9704 55.7764 15.4412C55.5056 14.8897 55.283 14.3317 55.1877 13.7147C54.9201 11.9827 55.4529 10.2229 56.6363 8.93024C57.0579 8.46972 57.5527 8.12889 58.0838 7.82025C58.5936 7.52403 59.2335 7.20408 59.9921 6.82483L66.6455 3.49814C67.4968 3.07247 68.532 3.41755 68.9577 4.26888Z" fill="white"/>
<path fill-rule="evenodd" clip-rule="evenodd" d="M48.6139 12.6429C48.6295 12.6429 48.6453 12.6429 48.6613 12.6429C48.6773 12.6429 48.6931 12.6429 48.7088 12.6429C48.9444 12.6429 49.1343 12.6429 49.3056 12.653C52.2292 12.8254 54.5615 15.1577 54.734 18.0813C54.7441 18.2527 54.744 18.4425 54.744 18.6782C54.744 18.6938 54.744 18.7096 54.744 18.7256L54.744 24.5726C54.744 25.6498 54.744 26.561 54.683 27.3079C54.6191 28.0906 54.4796 28.8434 54.1142 29.5606C53.5601 30.6479 52.6761 31.5319 51.5888 32.0859C50.8717 32.4513 50.1189 32.5908 49.3361 32.6548C48.5892 32.7158 47.678 32.7158 46.6008 32.7157L44.3021 32.7157C43.3503 32.7157 42.5787 31.9441 42.5787 30.9923C42.5787 30.0405 43.3503 29.2689 44.3021 29.2689L46.5324 29.2689C47.6964 29.2689 48.4657 29.2676 49.0554 29.2194C49.625 29.1728 49.8737 29.0913 50.024 29.0148C50.4627 28.7912 50.8194 28.4345 51.043 27.9958C51.1143 27.8558 51.1899 27.6305 51.2376 27.14L49.8272 27.14C49.7497 27.14 49.6733 27.14 49.5978 27.1401C48.4581 27.1411 47.5357 27.1419 46.7341 26.9073C44.8433 26.354 43.3646 24.8753 42.8113 22.9845C42.5767 22.1829 42.5775 21.2606 42.5785 20.1208C42.5786 20.0453 42.5787 19.9689 42.5787 19.8914L42.5787 18.7256C42.5787 18.7096 42.5786 18.6938 42.5786 18.6782C42.5786 18.4425 42.5786 18.2527 42.5887 18.0813C42.7611 15.1577 45.0934 12.8254 48.017 12.653C48.1884 12.6429 48.3782 12.6429 48.6139 12.6429ZM51.2971 23.6931L51.2971 18.7256C51.2971 18.4186 51.2964 18.34 51.2931 18.2842C51.2235 17.1045 50.2824 16.1634 49.1027 16.0938C49.0469 16.0905 48.9683 16.0898 48.6613 16.0898C48.3543 16.0898 48.2757 16.0905 48.2199 16.0938C47.0402 16.1634 46.0991 17.1045 46.0295 18.2842C46.0262 18.34 46.0255 18.4186 46.0255 18.7256L46.0255 19.8914C46.0255 21.3799 46.043 21.7554 46.1194 22.0163C46.3426 22.7793 46.9393 23.376 47.7023 23.5993C47.9632 23.6756 48.3387 23.6931 49.8272 23.6931L51.2971 23.6931Z" fill="white"/>
<path fill-rule="evenodd" clip-rule="evenodd" d="M38.3208 12.6429C37.369 12.6429 36.5974 13.4145 36.5974 14.3664L36.5974 21.919C36.5974 22.8988 35.8031 23.6931 34.8232 23.6931C33.8434 23.6931 33.0491 22.8988 33.0491 21.919L33.0491 14.3664C33.0491 13.4145 32.2775 12.6429 31.3257 12.6429C30.3739 12.6429 29.6023 13.4145 29.6023 14.3664L29.6023 21.919C29.6023 24.8025 31.9398 27.14 34.8232 27.14C37.7067 27.14 40.0442 24.8025 40.0442 21.919L40.0442 14.3664C40.0442 13.4145 39.2726 12.6429 38.3208 12.6429Z" fill="white"/>
<path fill-rule="evenodd" clip-rule="evenodd" d="M31.3257 12.6429C30.3739 12.6429 29.6023 13.4145 29.6023 14.3664L29.6023 18.827C29.6023 19.991 29.601 20.7603 29.5528 21.35C29.5062 21.9196 29.4247 22.1683 29.3482 22.3186C29.1246 22.7573 28.7679 23.114 28.3292 23.3376C28.1789 23.4142 27.9302 23.4957 27.3606 23.5422C26.7709 23.5904 26.0015 23.5917 24.8375 23.5917L23.4183 23.5917C22.2543 23.5917 21.485 23.5904 20.8952 23.5422C20.3256 23.4957 20.0769 23.4142 19.9266 23.3376C19.4879 23.114 19.1312 22.7573 18.9076 22.3186C18.8311 22.1683 18.7496 21.9196 18.703 21.35C18.6548 20.7603 18.6535 19.9909 18.6535 18.827L18.6535 14.3664C18.6535 13.4145 17.8819 12.6429 16.9301 12.6429C15.9783 12.6429 15.2067 13.4145 15.2067 14.3664L15.2067 18.8954C15.2066 19.9726 15.2066 20.8838 15.2676 21.6307C15.3316 22.4135 15.4711 23.1663 15.8365 23.8834C16.3905 24.9707 17.2745 25.8547 18.3618 26.4087C19.079 26.7742 19.8318 26.9136 20.6145 26.9776C21.3614 27.0386 22.2726 27.0386 23.3498 27.0386L24.906 27.0386C25.9832 27.0386 26.8944 27.0386 27.6413 26.9776C28.4241 26.9136 29.1768 26.7742 29.894 26.4088C30.9813 25.8547 31.8653 24.9707 32.4193 23.8834C32.7847 23.1663 32.9242 22.4135 32.9882 21.6307C33.0492 20.8838 33.0492 19.9727 33.0491 18.8955L33.0491 14.3664C33.0491 13.4145 32.2775 12.6429 31.3257 12.6429Z" fill="white"/>
<path fill-rule="evenodd" clip-rule="evenodd" d="M16.9301 12.6429C15.9783 12.6429 15.2067 13.4145 15.2067 14.3664L15.2067 24.5041C15.2067 25.6681 15.2053 26.4374 15.1571 27.0272C15.1106 27.5968 15.0291 27.8455 14.9525 27.9958C14.729 28.4345 14.3723 28.7912 13.9335 29.0147C13.7833 29.0913 13.5346 29.1728 12.965 29.2194C12.3752 29.2675 11.6059 29.2689 10.4419 29.2689L8.2116 29.2689C7.04762 29.2689 6.27829 29.2675 5.68855 29.2194C5.11893 29.1728 4.87024 29.0913 4.71997 29.0147C4.28123 28.7912 3.92453 28.4345 3.70098 27.9958C3.62442 27.8455 3.54291 27.5968 3.49637 27.0272C3.44818 26.4374 3.44684 25.6681 3.44684 24.5041L3.44684 14.3663C3.44684 13.4145 2.67524 12.6429 1.72342 12.6429C0.771603 12.6429 9.56556e-07 13.4145 9.35208e-07 14.3663L7.06294e-07 24.5726C-2.71621e-05 25.6498 -5.03848e-05 26.561 0.0609718 27.3079C0.124927 28.0906 0.264409 28.8434 0.629823 29.5606C1.18383 30.6479 2.06783 31.5319 3.15513 32.0859C3.8723 32.4513 4.62509 32.5908 5.40787 32.6548C6.15475 32.7158 7.06594 32.7158 8.14314 32.7157L10.5104 32.7157C11.5876 32.7158 12.4988 32.7158 13.2456 32.6548C14.0284 32.5908 14.7812 32.4513 15.4984 32.0859C16.5857 31.5319 17.4697 30.6479 18.0237 29.5606C18.3891 28.8434 18.5286 28.0906 18.5925 27.3079C18.6536 26.561 18.6535 25.6498 18.6535 24.5726L18.6535 14.3664C18.6535 13.4145 17.8819 12.6429 16.9301 12.6429Z" fill="white"/>
<path d="M36.5974 30.0799C36.5974 31.0317 35.8258 31.8033 34.8739 31.8033C33.9221 31.8033 33.1505 31.0317 33.1505 30.0799C33.1505 29.1281 33.9221 28.3565 34.8739 28.3565C35.8258 28.3565 36.5974 29.1281 36.5974 30.0799Z" fill="white"/>
<path d="M11.0502 20.7531C11.0502 21.705 10.2786 22.4766 9.32675 22.4766C8.37493 22.4766 7.60333 21.705 7.60333 20.7531C7.60333 19.8013 8.37493 19.0297 9.32675 19.0297C10.2786 19.0297 11.0502 19.8013 11.0502 20.7531Z" fill="white"/>
<path fill-rule="evenodd" clip-rule="evenodd" d="M20.0728 29.9785C20.0728 29.0267 20.8444 28.2551 21.7962 28.2551L27.2706 28.2551C28.2224 28.2551 28.994 29.0267 28.994 29.9785C28.994 30.9303 28.2224 31.702 27.2706 31.702L21.7962 31.7019C20.8444 31.7019 20.0728 30.9303 20.0728 29.9785Z" fill="white"/>
</svg>
